<?xml version="1.0" encoding="utf-8"?>
<!-- Generator: Adobe Illustrator 28.0.0, SVG Export Plug-In . SVG Version: 6.00 Build 0)  -->
<svg version="1.1" id="Layer_1" xmlns="http://www.w3.org/2000/svg" xmlns:xlink="http://www.w3.org/1999/xlink" x="0px" y="0px"
	 viewBox="0 0 399.6 128.2" style="enable-background:new 0 0 399.6 128.2;" xml:space="preserve">
<style type="text/css">
	.st0{display:none;}
	.st1{display:inline;fill:#B3B3B3;}
	.st2{display:inline;fill:#BCC0C1;}
	.st3{fill:#A6E6DB;}
</style>
<g>
	<g id="Background_00000157275070847310481910000006399366119245778339_" class="st0">
		<path class="st1" d="M391-529.9c0,256,0,256,0,512c-256,0-256,0-512,0c0-256,0-256,0-512C135-529.9,135-529.9,391-529.9z"/>
	</g>
</g>
<g>
	<g id="Background_00000013901797067625955430000017442066731439753131_" class="st0">
		<path class="st2" d="M339.1-12.5C252.8,46,252.8,46,166.5,104.6C126,44.8,126,44.8,85.4-15c86.3-58.5,86.3-58.5,172.6-117.1
			C298.6-72.3,298.6-72.3,339.1-12.5z"/>
	</g>
</g>
<path class="st3" d="M152.1,57.7c-1-1.3-2.6-1.9-4.2-1.7c-1,0.2-2,0.3-3,0.5c5.2-10.6,6.1-15.6,6.8-20.1c0.3-1.8,0.6-3.5,1.1-5.5
	c0.5-1.6,0-3.3-1.1-4.5c-1.2-1.2-2.9-1.7-4.5-1.2c-0.6,0.2-1.3,0.3-2.1,0.5C139,27,127.7,29.5,117,45.1l6.6,4.5
	c7.5-10.9,14.8-14,20.3-15.4c-0.1,0.3-0.1,0.6-0.2,0.9c-0.8,4.9-1.6,10-9,23.6C113.6,63.8,97,72.8,87.3,84.1V42.9
	c31.1,1.3,34-18.8,35.8-31c0.3-1.9,0.5-3.7,0.9-5.3c0.3-1.5-0.1-3-1.1-4.1s-2.4-1.7-3.9-1.6c-0.9,0.1-1.9,0.1-3.1,0.2
	C108.1,1.4,95,1.9,85.8,12c-2.6,2.9-4.7,6.4-6.2,10.4l-0.3,0.7v95.8h-5.8V35.4V35C71.1,23.2,62.3,8.8,33.9,7.4
	c-1.2-0.1-2.3,0.3-3.2,1.1c-0.9,0.8-1.4,1.9-1.5,3.1c-0.8,16.3,10.2,34.6,36.4,36.7v35.4C55.8,70.3,43,63.8,32.3,58.3
	c-7.6-3.9-14.1-7.2-17.5-11.9c-1.7-2.4-4.7-3.6-7.6-2.9c-2.9,0.6-5,2.9-5.5,5.8C-1,66,1.7,79.9,10,90.7
	c10.2,13.3,28.9,21.6,55.5,24.7v11.4h21.8v-12.4c52.5-12,57-26.4,62.2-43.1c0.9-3,1.9-6.1,3.2-9.3C153.3,60.6,153.1,58.9,152.1,57.7
	z M87.3,24.6c1.1-2.8,2.6-5.2,4.4-7.2c6.7-7.3,16.7-8,23.7-8.2c-0.1,0.5-0.2,1.1-0.2,1.6c-1.8,12.4-3.7,25.3-27.9,24.1
	C87.3,34.9,87.3,24.6,87.3,24.6z M65.6,107.4c-23.9-2.9-40.4-10.1-49.1-21.5c-6.6-8.5-8.9-19.8-7-33.4c4.5,5.5,11.4,9,19.2,13
	c12.5,6.4,26.7,13.6,35.5,31.2c0.4,0.8,0.8,1.4,1.4,2.1C65.6,98.8,65.6,107.4,65.6,107.4z M65.6,40.2C45,38.3,38.2,25.3,37.3,15.6
	c16.2,1.7,25.7,8.6,28.3,20.6V40.2z M141.9,69c-4.6,14.7-8.2,26.3-54.5,37.2v-7.1c6-15.8,27.1-28.6,55.8-34.2
	C142.7,66.4,142.3,67.7,141.9,69z"/>
<g>
	<path class="st3" d="M184.2,71.7c-0.1,0.5-0.4,0.4-0.8,0.4c-0.8,0-4.5,0.1-5,0.5c-1,0.8-0.9,15-0.9,17.3c0,0.4-0.2,0.6-0.6,0.6
		c-1.9,0-3.9,0.2-5.9,0.2c-0.5,0-0.7-0.4-0.7-0.8c0-5.5,0.5-11,0.5-16.6c0-0.5-0.1-0.6-0.7-0.6c-2.4,0-2.7,0.2-5.1,0.2
		c-0.3,0-0.5-0.1-0.5-0.5c0-1.7,0.2-3.4,0.2-5.1c0-0.4,0.2-0.4,0.6-0.4c4.8,0,8.3,0,13.1-0.2c2-0.1,3.9-0.3,5.9-0.3
		c0.2,0,0.4,0,0.4,0.2C184.7,68.2,184.6,70.2,184.2,71.7z"/>
	<path class="st3" d="M199.3,84.7c-0.5,2.7-3.3,6.3-7.6,6.3c-5.2,0-9.1-3-9.1-8.6s3.2-9.7,7.8-9.7c5.7,0,7.7,4.5,7.7,9.4
		c0,0.9-0.5,1.1-1,1.1c0,0-0.5,0.1-8.6,0.3c0.4,1.9,1.6,2.6,2.8,2.6c1.1,0,2-0.5,2.2-1.2c0.1-0.3,0.3-0.4,0.7-0.4
		c3.1-0.1,4.6-0.1,4.7-0.1l0,0l0,0c0.3,0,0.4,0.1,0.4,0.4C199.3,84.7,199.3,84.7,199.3,84.7z M190.5,78.3c-0.9,0-1.6,0.6-1.9,1.9
		c1.3-0.1,3-0.1,3.1-0.1s0.1,0,0.1-0.1C191.9,79,191.4,78.3,190.5,78.3z"/>
	<path class="st3" d="M214.5,81.5c-0.2,0.2-0.2,0.5-0.1,0.7l5.1,7.4c0.1,0.2,0,0.4-0.2,0.4l-7.2,1c-0.3,0-0.6-0.1-0.7-0.3l-2.2-3.3
		c-0.1-0.2-0.4-0.2-0.6-0.1l-3.1,3.1c-0.2,0.2-0.5,0.3-0.8,0.2l-5.2-1.7c-0.2-0.1-0.3-0.3-0.1-0.5l5.9-6.3c0.2-0.2,0.2-0.5,0.1-0.7
		l-4.7-7.4c-0.1-0.2-0.1-0.4,0.2-0.4l6.5-0.8c0.3,0,0.6,0.1,0.7,0.3l2.2,3.1c0.1,0.2,0.4,0.2,0.6,0l2.8-3c0.2-0.2,0.5-0.3,0.8-0.3
		l7.1,0.8c0.2,0,0.3,0.2,0.1,0.4L214.5,81.5z"/>
	<path class="st3" d="M234.9,78.7c0,0.2-0.2,0.4-0.4,0.4h-2.2c-0.2,0-0.5,0.2-0.5,0.4l-0.6,10.9c0,0.2-0.2,0.4-0.4,0.4l0,0l-5.2-0.3
		c-0.2,0-0.4-0.2-0.4-0.4l0,0l0.2-10.6l0,0c0-0.2-0.2-0.4-0.4-0.4h-1.8c-0.2,0-0.4-0.2-0.4-0.4l-0.3-4.9l0,0c0-0.2,0.2-0.4,0.4-0.4
		h2.2c0.2,0,0.4-0.2,0.4-0.4l0.1-5.6c0-0.2,0.2-0.4,0.4-0.4l6.1,0.1c0.2,0,0.4,0.2,0.4,0.4l-0.3,5.6l0,0c0,0.2,0.2,0.4,0.4,0.4h1.9
		c0.2,0,0.4,0.2,0.4,0.4L234.9,78.7z"/>
	<path class="st3" d="M244.1,90.3c0,0.2-0.2,0.4-0.4,0.4l0,0l-5.4-0.1c-0.3,0-0.5-0.2-0.5-0.4l-0.4-14.7c0-0.2,0.2-0.4,0.4-0.4
		l6.3,0.1c0.2,0,0.5,0.2,0.5,0.4L244.1,90.3z M241.6,73.6c-1.9,0-3.4-1.6-3.4-3.6s1.5-3.6,3.4-3.6s3.5,1.6,3.5,3.6
		S243.6,73.6,241.6,73.6z"/>
	<path class="st3" d="M253.7,90.3c0,0.2-0.2,0.4-0.4,0.4l0,0l-5.2-0.1c-0.2,0-0.5-0.2-0.5-0.4l-0.4-22.9l0,0c0-0.2,0.2-0.4,0.4-0.4
		l6.1,0.1c0.2,0,0.5,0.2,0.5,0.4L253.7,90.3z"/>
	<path class="st3" d="M273,84.7c-0.5,2.7-3.3,6.3-7.6,6.3c-5.2,0-9.1-3-9.1-8.6s3.2-9.7,7.8-9.7c5.7,0,7.7,4.5,7.7,9.4
		c0,0.9-0.5,1.1-1,1.1c0,0-0.5,0.1-8.5,0.3c0.4,1.9,1.6,2.6,2.8,2.6c1,0,2-0.5,2.2-1.2c0.1-0.3,0.3-0.4,0.7-0.4
		c3.1-0.1,4.6-0.1,4.7-0.1l0,0l0,0c0.3,0,0.5,0.1,0.5,0.4C273,84.7,273,84.7,273,84.7z M264.2,78.3c-0.9,0-1.6,0.6-1.9,1.9
		c1.3-0.1,3-0.1,3.1-0.1s0.1,0,0.1-0.1C265.5,79,265.1,78.3,264.2,78.3z"/>
	<path class="st3" d="M302.6,71.7c-0.1,0.5-0.4,0.4-0.8,0.4c-0.8,0-4.5,0.1-5,0.5c-1,0.8-0.9,15-0.9,17.3c0,0.4-0.2,0.6-0.6,0.6
		c-2,0-3.9,0.2-5.9,0.2c-0.5,0-0.7-0.4-0.7-0.8c0-5.5,0.5-11,0.5-16.6c0-0.5-0.1-0.6-0.7-0.6c-2.4,0-2.7,0.2-5.1,0.2
		c-0.3,0-0.5-0.1-0.5-0.5c0-1.7,0.2-3.4,0.2-5.1c0-0.4,0.2-0.4,0.6-0.4c4.8,0,8.3,0,13-0.2c2-0.1,3.9-0.3,5.9-0.3
		c0.2,0,0.4,0,0.4,0.2C303.1,68.2,303,70.2,302.6,71.7z"/>
	<path class="st3" d="M317.7,84.7c-0.5,2.7-3.3,6.3-7.6,6.3c-5.2,0-9.1-3-9.1-8.6s3.2-9.7,7.8-9.7c5.7,0,7.7,4.5,7.7,9.4
		c0,0.9-0.5,1.1-1,1.1c0,0-0.5,0.1-8.5,0.3c0.4,1.9,1.6,2.6,2.8,2.6c1,0,2-0.5,2.2-1.2c0.1-0.3,0.3-0.4,0.7-0.4
		c3.1-0.1,4.6-0.1,4.7-0.1l0,0l0,0c0.3,0,0.5,0.1,0.5,0.4C317.7,84.7,317.7,84.7,317.7,84.7z M308.9,78.3c-0.9,0-1.6,0.6-1.9,1.9
		c1.3-0.1,3-0.1,3.1-0.1s0.1,0,0.1-0.1C310.2,79,309.8,78.3,308.9,78.3z"/>
	<path class="st3" d="M335.3,84.4c-0.5,2.7-2.3,6.6-7.4,6.6c-5.4,0-9.1-3.1-9.1-8.7c0-6.2,3.7-9.9,8.2-9.9c4.2,0,7.7,2.4,7.7,7.1
		c0,0.3,0,0.8-0.1,1.2c-0.1,0.6-0.6,0.8-1.1,0.8l-4-0.1c-0.7,0-0.7-0.4-0.7-0.9c0-0.9-0.6-1.8-1.7-1.8c-1.2,0-2.3,1.4-2.3,4
		c0,2.7,1.6,3.4,2.8,3.4c1.4,0,1.7-0.9,1.9-1.6c0.1-0.3,0.3-0.4,0.7-0.4c3.1-0.1,4.6-0.1,4.7-0.1c0.3,0,0.5,0.1,0.5,0.4
		C335.3,84.3,335.3,84.3,335.3,84.4z"/>
	<path class="st3" d="M353.8,90.6c0,0.2-0.1,0.3-0.4,0.3l0,0l-5.6-0.4c-0.1,0-0.2-0.1-0.2-0.2l0,0c0.1-1,0.3-1.9,0.3-4.3
		c0-5.4-0.6-7.4-2.4-7.4c-1.2,0-1.9,1-1.9,3.5l0.1,8c0,0.2-0.2,0.4-0.4,0.4l0,0l-5.3-0.1c-0.3,0-0.5-0.2-0.5-0.4l-0.9-23.8
		c0-0.2,0.2-0.4,0.4-0.4l6,0.1c0.2,0,0.4,0.2,0.5,0.4l0.1,7.6c0.6-0.3,1.2-0.8,2.8-0.8c4.4,0,7.8,2.4,7.8,11
		C354,87.7,353.9,89.8,353.8,90.6z"/>
	<path class="st3" d="M185.8,113.6c-0.1,0.5-0.3,0.9-0.7,0.9l0,0l-5.5-0.2c-0.4,0-0.6-0.3-0.6-0.6c-0.2-2-1.6-4.4-4.4-4.4
		c-1.6,0-2.5,0.8-2.5,1.8c0,0.8,0.5,1.7,1.9,2.3c3.6,1.4,10.9,2.5,10.9,7.5c0,4.1-3.2,6.5-9.3,6.5c-6.5,0-11.1-4.1-11.3-8.2l0,0
		c0-0.4,0.4-0.6,0.6-0.6l5.2-0.2l0,0c0.4,0,0.6,0.3,0.7,0.5c0.4,1.3,1.6,2.9,3.9,2.9c1,0,1.7-0.6,1.7-1.4c0-1.4-4.7-2.5-5.9-2.9
		c-3.1-1.1-6.3-2.9-6.3-7.4c0-5.1,4.8-8.1,9.9-8.1c5.9,0,11.7,4.2,11.7,10.4C185.9,112.9,185.9,113.2,185.8,113.6z"/>
	<path class="st3" d="M203.7,120.4c-0.4,2.7-2.3,6.6-7.4,6.6c-5.4,0-9.1-3.1-9.1-8.7c0-6.2,3.7-9.9,8.2-9.9c4.2,0,7.7,2.4,7.7,7.1
		c0,0.3,0,0.8-0.1,1.2c-0.1,0.6-0.6,0.8-1.1,0.8l-4-0.1c-0.7,0-0.7-0.4-0.7-0.9c0-0.9-0.6-1.8-1.7-1.8c-1.2,0-2.3,1.4-2.3,4
		c0,2.7,1.6,3.4,2.8,3.4c1.4,0,1.7-0.9,1.9-1.6c0.1-0.3,0.3-0.4,0.7-0.4c3.1-0.1,4.6-0.1,4.7-0.1C203.6,120,203.7,120.1,203.7,120.4
		C203.7,120.3,203.7,120.3,203.7,120.4z"/>
	<path class="st3" d="M212.6,126.3c0,0.2-0.2,0.4-0.4,0.4l0,0l-5.4-0.1c-0.3,0-0.4-0.2-0.5-0.4l-0.4-14.7c0-0.2,0.2-0.4,0.4-0.4
		l6.3,0.1c0.2,0,0.4,0.2,0.4,0.4L212.6,126.3z M210.1,109.6c-1.9,0-3.4-1.6-3.4-3.6s1.5-3.6,3.4-3.6s3.4,1.6,3.4,3.6
		C213.6,108,212.1,109.6,210.1,109.6z"/>
	<path class="st3" d="M231.8,120.7c-0.5,2.7-3.3,6.3-7.6,6.3c-5.2,0-9.1-3-9.1-8.6s3.2-9.7,7.8-9.7c5.7,0,7.7,4.5,7.7,9.4
		c0,0.9-0.5,1.1-1,1.1c0,0-0.5,0.1-8.6,0.3c0.4,1.9,1.6,2.6,2.8,2.6c1.1,0,2-0.5,2.2-1.2c0.1-0.3,0.3-0.4,0.7-0.4
		c3.1-0.1,4.6-0.1,4.7-0.1l0,0l0,0c0.3,0,0.4,0.1,0.4,0.4C231.8,120.7,231.8,120.7,231.8,120.7z M223,114.3c-0.9,0-1.6,0.6-1.9,1.9
		c1.3-0.1,3-0.1,3.1-0.1s0.1,0,0.1-0.1C224.4,115,223.9,114.3,223,114.3z"/>
	<path class="st3" d="M250.8,126.6c0,0.2-0.2,0.3-0.4,0.3l0,0l-6-0.4c-0.1,0-0.2-0.1-0.2-0.2l0,0c0.1-1,0.2-2.4,0.2-4.8
		c0-5.4-0.2-7.4-2.2-7.4c-1.5,0-2.2,1-2.2,3.5v8.5c0,0.2-0.2,0.4-0.4,0.4l-5.6-0.1c-0.2,0-0.5-0.2-0.5-0.4l-0.4-16.7l0,0
		c0-0.2,0.2-0.4,0.4-0.4l6,0.1c0.2,0,0.4,0.2,0.5,0.5v0.9c1-0.5,2.3-0.8,3.8-0.8c4.4,0,7.3,2,7.3,10.7
		C251,123.7,250.9,125.8,250.8,126.6z"/>
	<path class="st3" d="M269.1,120.4c-0.5,2.7-2.3,6.6-7.4,6.6c-5.4,0-9.1-3.1-9.1-8.7c0-6.2,3.7-9.9,8.2-9.9c4.2,0,7.7,2.4,7.7,7.1
		c0,0.3,0,0.8-0.1,1.2c-0.1,0.6-0.6,0.8-1.1,0.8l-4-0.1c-0.7,0-0.7-0.4-0.7-0.9c0-0.9-0.6-1.8-1.7-1.8c-1.2,0-2.3,1.4-2.3,4
		c0,2.7,1.6,3.4,2.8,3.4c1.4,0,1.7-0.9,1.9-1.6c0.1-0.3,0.3-0.4,0.7-0.4c3.1-0.1,4.6-0.1,4.7-0.1c0.3,0,0.5,0.1,0.5,0.4
		C269.1,120.3,269.1,120.3,269.1,120.4z"/>
	<path class="st3" d="M287.2,120.7c-0.5,2.7-3.3,6.3-7.6,6.3c-5.2,0-9.1-3-9.1-8.6s3.2-9.7,7.8-9.7c5.7,0,7.7,4.5,7.7,9.4
		c0,0.9-0.5,1.1-1,1.1c0,0-0.5,0.1-8.5,0.3c0.4,1.9,1.6,2.6,2.8,2.6c1,0,2-0.5,2.2-1.2c0.1-0.3,0.3-0.4,0.7-0.4
		c3.1-0.1,4.6-0.1,4.7-0.1l0,0l0,0c0.3,0,0.5,0.1,0.5,0.4C287.2,120.7,287.2,120.7,287.2,120.7z M278.4,114.3
		c-0.9,0-1.6,0.6-1.9,1.9c1.3-0.1,3-0.1,3.1-0.1s0.1,0,0.1-0.1C279.7,115,279.3,114.3,278.4,114.3z"/>
	<path class="st3" d="M317.1,105.9c-0.1,0.2-2.5,4.4-2.6,4.6s-0.3,0.3-0.4,0.3s-0.1,0-0.1-0.1c-0.1-0.2-1.2-1.6-3.1-1.6
		c-3.8,0-6.7,4.1-6.7,8c0,2.5,1.7,4.4,4.3,4.4c2.9,0,5.2-2.1,5.4-2.3c0.1-0.1,0.2-0.2,0.3-0.2s0.2,0.1,0.3,0.2
		c0.3,0.3,2.1,3.1,2.2,3.4c0.1,0.1,0.1,0.3,0.1,0.4s-0.1,0.2-0.1,0.3c-0.2,0.3-3.1,3.6-8.8,3.6c-5.4,0-11.3-3.4-11.3-10.4
		c0-7.6,6.1-14.3,13.2-14.3c4,0,6.8,2.5,7,2.9c0.1,0.2,0.3,0.4,0.3,0.6C317.1,105.8,317.1,105.9,317.1,105.9z"/>
	<path class="st3" d="M335.2,120.7c-0.5,2.7-3.3,6.3-7.6,6.3c-5.2,0-9.1-3-9.1-8.6s3.2-9.7,7.8-9.7c5.7,0,7.7,4.5,7.7,9.4
		c0,0.9-0.5,1.1-1,1.1c0,0-0.5,0.1-8.5,0.3c0.4,1.9,1.6,2.6,2.8,2.6c1,0,2-0.5,2.2-1.2c0.1-0.3,0.3-0.4,0.7-0.4
		c3.1-0.1,4.6-0.1,4.7-0.1l0,0l0,0c0.3,0,0.5,0.1,0.5,0.4C335.2,120.7,335.2,120.7,335.2,120.7z M326.4,114.3
		c-0.9,0-1.6,0.6-1.9,1.9c1.3-0.1,3-0.1,3.1-0.1s0.1,0,0.1-0.1C327.7,115,327.3,114.3,326.4,114.3z"/>
	<path class="st3" d="M354.2,126.6c0,0.2-0.2,0.3-0.4,0.3l0,0l-6-0.4c-0.1,0-0.2-0.1-0.2-0.2l0,0c0.1-1,0.2-2.4,0.2-4.8
		c0-5.4-0.2-7.4-2.2-7.4c-1.5,0-2.2,1-2.2,3.5v8.5c0,0.2-0.2,0.4-0.4,0.4l-5.6-0.1c-0.2,0-0.5-0.2-0.5-0.4l-0.4-16.7l0,0
		c0-0.2,0.2-0.4,0.4-0.4l6,0.1c0.2,0,0.4,0.2,0.5,0.5v0.9c1-0.5,2.3-0.8,3.8-0.8c4.4,0,7.3,2,7.3,10.7
		C354.4,123.7,354.3,125.8,354.2,126.6z"/>
	<path class="st3" d="M368.1,114.7c0,0.2-0.2,0.4-0.4,0.4h-2.2c-0.2,0-0.5,0.2-0.5,0.4l-0.6,10.9c0,0.2-0.2,0.4-0.4,0.4l0,0
		l-5.2-0.3c-0.2,0-0.4-0.2-0.4-0.4l0,0l0.2-10.6l0,0c0-0.2-0.2-0.4-0.4-0.4h-1.8c-0.2,0-0.4-0.2-0.5-0.4l-0.3-4.9l0,0
		c0-0.2,0.2-0.4,0.4-0.4h2.2c0.2,0,0.4-0.2,0.4-0.4l0.1-5.6c0-0.2,0.2-0.4,0.4-0.4l6.1,0.1c0.2,0,0.4,0.2,0.4,0.4l-0.3,5.6l0,0
		c0,0.2,0.2,0.4,0.4,0.4h1.9c0.2,0,0.4,0.2,0.4,0.4L368.1,114.7z"/>
	<path class="st3" d="M386.5,120.7c-0.5,2.7-3.3,6.3-7.6,6.3c-5.2,0-9.1-3-9.1-8.6s3.2-9.7,7.8-9.7c5.7,0,7.7,4.5,7.7,9.4
		c0,0.9-0.5,1.1-1,1.1c0,0-0.5,0.1-8.5,0.3c0.4,1.9,1.6,2.6,2.8,2.6c1,0,2-0.5,2.2-1.2c0.1-0.3,0.3-0.4,0.7-0.4
		c3.1-0.1,4.6-0.1,4.7-0.1l0,0l0,0c0.3,0,0.5,0.1,0.5,0.4C386.5,120.7,386.5,120.7,386.5,120.7z M377.7,114.3
		c-0.9,0-1.6,0.6-1.9,1.9c1.3-0.1,3-0.1,3.1-0.1s0.1,0,0.1-0.1C379,115,378.6,114.3,377.7,114.3z"/>
	<path class="st3" d="M399.5,109.1c0,0.6-0.2,4.6-0.2,5.3c0,0.1-0.1,0.2-0.3,0.3c-3.2,0.1-4.6,2.1-4.5,5.8c0,0,0,2.4,0,5.4
		c0,0.3-0.2,0.5-0.5,0.5l-5.1,0.1l0,0c-0.2,0-0.5-0.2-0.5-0.4l-0.5-16.3l0,0c0-0.2,0.2-0.4,0.4-0.4l0,0l5.2,0.2
		c0.4,0,0.5,0.1,0.5,0.4v0.7c0,0.1,0,0.1,0,0.1s0,0,0.1-0.1c1-1.5,3-1.9,4.4-1.9c0.3,0,0.6,0,0.8,0.1
		C399.3,108.9,399.5,108.9,399.5,109.1L399.5,109.1z"/>
</g>
</svg>
