<?xml version="1.0" encoding="utf-8"?>
<!-- Generator: Adobe Illustrator 28.0.0, SVG Export Plug-In . SVG Version: 6.00 Build 0)  -->
<svg version="1.1" id="Layer_1" xmlns="http://www.w3.org/2000/svg" xmlns:xlink="http://www.w3.org/1999/xlink" x="0px" y="0px"
	 viewBox="0 0 265.8 262.2" style="enable-background:new 0 0 265.8 262.2;" xml:space="preserve">
<style type="text/css">
	.st0{display:none;}
	.st1{display:inline;fill:#B3B3B3;}
	.st2{fill:none;stroke:#E5FAF7;stroke-width:8;stroke-miterlimit:10;}
	.st3{fill:#E5FAF7;}
	.st4{fill:none;}
	.st5{font-family:'ArialMT';}
	.st6{font-size:12.0012px;}
</style>
<g>
	<g id="Background_00000157275070847310481910000006399366119245778339_" class="st0">
		<path class="st1" d="M735.8-465.5c0,256,0,256,0,512c-256,0-256,0-512,0c0-256,0-256,0-512C479.8-465.5,479.8-465.5,735.8-465.5z"
			/>
	</g>
</g>
<text transform="matrix(1 0 0 1 -16.235 -36.6319)" class="st5" style="font-size:12px;"> </text>
<path class="st2" d="M143.1,168.8c6.9-19.5,32.6-33.4,65.2-38.5c0.4-0.1,0.6,0.3,0.5,0.7c-8.5,20.6-2.4,36.4-63.7,50.2c-1,0-2,0-2,0
	"/>
<path class="st2" d="M180.1,117.6c11.2-16.3,22.4-16.8,27.9-18.3c0.5-0.1,0.9,0.3,0.8,0.8c-2.4,8.3,0,11.5-11.6,32.3"/>
<path class="st2" d="M143.1,108.2c0,0,2,1,3,1c33.1,1.9,31.1-20.7,33.8-33c0.1-0.5-0.3-0.9-0.8-0.9c-6.4,0.6-21.1-0.6-30.5,9.8
	c-2.2,2.4-4,5.4-5.5,9.1v14.6v84.5h-13.8v-87c-4.2-20.7-24.9-23.9-35.9-24.5c-0.3,0-0.5,0.2-0.5,0.4c-0.6,12.5,7.5,31.1,34.2,32.6
	c1-0.5,2-1.5,2-1.5"/>
<path class="st2" d="M129.1,182.2c-37.9-3.7-70.7-18.5-63.6-61.8c0.5-2.9,4.2-3.6,5.8-1.3c10.1,14.2,40.8,15.5,56.2,46.1
	c0.4,0.8,0.9,1.4,1.6,1.9l0,0"/>
<text transform="matrix(1 0 0 1 -16.235 -36.6319)" class="st5" style="font-size:12px;"> </text>
<g>
	<path class="st3" d="M45.1,53.3c0.4,0.5,0,0.6-0.3,1c-0.7,0.7-3.4,4-3.4,4.8c-0.1,1.5,12.4,12.4,14.4,14.2c0.3,0.3,0.3,0.7,0,1
		c-1.5,1.7-2.8,3.6-4.4,5.3c-0.4,0.4-0.9,0.3-1.2,0c-4.8-4.3-9.2-9-14.1-13.3c-0.5-0.4-0.6-0.4-1,0.1c-1.8,2.1-1.9,2.6-3.7,4.6
		c-0.2,0.3-0.5,0.4-0.8,0.1c-1.5-1.3-2.8-2.8-4.3-4.1c-0.3-0.3-0.2-0.5,0.1-0.9c3.7-4.2,6.4-7.3,9.9-11.6c1.5-1.8,2.8-3.7,4.3-5.4
		c0.2-0.2,0.3-0.3,0.5-0.1C42.4,50.2,44.2,51.8,45.1,53.3z"/>
	<path class="st3" d="M70.5,52.4c1.6,2.8,1.6,8.1-2.3,11.3c-4.7,3.8-10.5,4-14.6-1.1c-4.1-5-4.3-11.1-0.1-14.5
		c5.2-4.3,10.2-1.7,13.8,2.7c0.7,0.8,0.4,1.4,0,1.7c0,0-0.4,0.5-7.5,6.5c1.7,1.5,3.4,1.1,4.4,0.3c1-0.8,1.4-2,1.1-2.7
		c-0.1-0.3-0.1-0.6,0.3-0.9c2.8-2.4,4.1-3.5,4.1-3.6l0,0l0,0c0.3-0.2,0.5-0.2,0.7,0C70.4,52.3,70.5,52.3,70.5,52.4z M57.7,53
		c-0.8,0.7-1.1,1.7-0.3,3.2c1.1-1,2.6-2.3,2.7-2.4c0.1-0.1,0.1-0.1,0-0.2C59.5,52.7,58.6,52.3,57.7,53z"/>
	<path class="st3" d="M84.4,40.4c-0.1,0.3,0.1,0.6,0.3,0.8L94,46c0.2,0.2,0.3,0.4,0,0.6l-6.9,4.9c-0.3,0.2-0.7,0.2-0.9,0l-4-2.3
		c-0.2-0.2-0.5,0-0.6,0.2l-1.4,5c-0.1,0.3-0.4,0.6-0.7,0.6l-6.4,1.1c-0.3,0-0.5-0.1-0.4-0.4l2.7-9.7c0.1-0.3-0.1-0.6-0.3-0.8l-8.9-5
		c-0.3-0.1-0.3-0.4-0.1-0.6l6.3-4.4c0.3-0.2,0.7-0.2,0.9,0l3.9,2.1c0.3,0.1,0.6,0,0.6-0.3l1.3-4.7c0.1-0.3,0.4-0.6,0.7-0.7l7.8-3
		c0.3-0.1,0.4,0.1,0.3,0.3L84.4,40.4z"/>
	<path class="st3" d="M106.6,28.9c0.1,0.3-0.1,0.5-0.3,0.6l-2.4,0.7c-0.3,0.1-0.4,0.4-0.4,0.6l3.1,12.4c0,0.3-0.1,0.5-0.3,0.6l0,0
		l-6,1.4c-0.2,0.1-0.5-0.1-0.6-0.3l0,0L96.3,33l0,0c-0.1-0.2-0.4-0.4-0.6-0.3l-2,0.6c-0.3,0.1-0.5-0.1-0.6-0.3l-2-5.4l0,0
		c-0.1-0.2,0.1-0.5,0.3-0.6l2.5-0.7c0.3-0.1,0.4-0.3,0.3-0.6l-1.8-6.3c-0.1-0.3,0.1-0.5,0.3-0.6l6.8-2c0.2-0.1,0.5,0.1,0.6,0.3
		l1.6,6.4l0,0c0.1,0.3,0.3,0.4,0.6,0.3l2.1-0.6c0.3-0.1,0.5,0.1,0.6,0.3L106.6,28.9z"/>
	<path class="st3" d="M114.2,21.4c-2.2,0.4-4.3-1.1-4.7-3.5c-0.4-2.3,1-4.5,3.2-4.8c2.2-0.4,4.3,1.1,4.7,3.4
		C117.8,18.8,116.4,21,114.2,21.4z M120.5,40c0.1,0.3-0.2,0.5-0.4,0.6l0,0l-6.3,1c-0.3,0.1-0.6-0.1-0.6-0.4l-3.5-16.9
		c-0.1-0.3,0.1-0.5,0.4-0.6l7.2-1.2c0.3-0.1,0.6,0.1,0.6,0.4L120.5,40z"/>
	<path class="st3" d="M131.1,39c0,0.3-0.2,0.5-0.4,0.5l0,0l-6.1,0.3c-0.3,0-0.5-0.2-0.6-0.5l-2.6-26.5l0,0c0-0.3,0.2-0.5,0.4-0.5
		l7.1-0.5c0.3,0,0.5,0.2,0.6,0.5L131.1,39z"/>
	<path class="st3" d="M153.2,33.2c-0.7,3.1-4.2,7.1-9.3,6.8c-6.1-0.3-10.4-4.1-10.1-10.6c0.4-6.5,4.3-11.1,9.7-10.8
		c6.7,0.4,8.7,5.7,8.4,11.4c-0.1,1.1-0.6,1.3-1.2,1.3c0,0-0.6,0.1-10-0.2c0.3,2.3,1.7,3.1,3.1,3.2c1.2,0.1,2.4-0.5,2.6-1.3
		c0.1-0.3,0.3-0.5,0.8-0.4c3.7,0.1,5.4,0.1,5.5,0.1l0,0l0,0C153,32.7,153.2,32.9,153.2,33.2C153.2,33.1,153.2,33.1,153.2,33.2z
		 M143.4,25.1c-1.1-0.1-2,0.6-2.3,2.2c1.5,0,3.5,0,3.6,0s0.1,0,0.1-0.2C144.9,26.1,144.4,25.1,143.4,25.1z"/>
	<path class="st3" d="M191.6,28.6c-0.4,0.5-0.6,0.3-1,0.1c-0.9-0.3-5-1.7-5.7-1.4c-1.4,0.5-6.8,16.1-7.7,18.7
		c-0.1,0.4-0.5,0.5-0.9,0.4c-2.1-0.8-4.4-1.3-6.5-2.1c-0.5-0.2-0.6-0.7-0.4-1.2c2.1-6.1,4.8-12,7-18c0.2-0.6,0.1-0.7-0.5-0.9
		c-2.6-0.9-3.1-0.8-5.7-1.7c-0.3-0.1-0.5-0.3-0.4-0.7c0.7-1.8,1.5-3.6,2.2-5.5c0.2-0.4,0.4-0.4,0.9-0.2c5.2,1.9,9.1,3.2,14.4,4.8
		c2.2,0.7,4.4,1.2,6.6,2c0.2,0.1,0.4,0.1,0.3,0.4C193.5,25,192.7,27.2,191.6,28.6z"/>
	<path class="st3" d="M202,51.8c-2,2.5-6.9,4.6-11.3,2.1c-5.3-2.9-7.6-8.2-4.5-14c3.1-5.7,8.7-8.1,13.4-5.6
		c5.9,3.2,5.4,8.9,2.6,13.9c-0.5,1-1.1,0.9-1.6,0.6c0,0-0.6-0.2-8.9-4.5c-0.7,2.2,0.2,3.5,1.4,4.2c1.1,0.6,2.4,0.6,2.9,0
		c0.2-0.2,0.5-0.3,0.9-0.1c3.3,1.7,4.8,2.4,4.9,2.5l0,0l0,0c0.3,0.2,0.4,0.4,0.2,0.7C202.1,51.7,202.1,51.7,202,51.8z M196.7,40.2
		c-1-0.5-2-0.3-3,0.9c1.3,0.6,3.2,1.5,3.3,1.6s0.1,0,0.2-0.1C197.6,41.7,197.6,40.7,196.7,40.2z"/>
	<path class="st3" d="M218.5,64.4c-2.4,2.1-7,4.3-11.5,0.6c-4.9-4-5.9-9.5-1.8-14.6c4.5-5.6,10.6-6.3,14.8-2.9
		c3.8,3.1,5.2,7.8,1.7,12.1c-0.2,0.3-0.6,0.8-1,1c-0.6,0.4-1.1,0.3-1.6-0.2l-3.5-3.1c-0.6-0.5-0.4-0.9,0-1.4
		c0.7-0.8,0.8-2.1-0.2-2.9c-1.1-0.9-3.2-0.4-5,1.9c-2,2.4-1.1,4.3,0,5.2c1.2,1,2.2,0.5,2.9,0c0.3-0.2,0.6-0.2,0.9,0.1
		c2.9,2.2,4.3,3.3,4.4,3.3c0.3,0.2,0.3,0.4,0.1,0.7C218.5,64.4,218.5,64.4,218.5,64.4z"/>
	<path class="st3" d="M227.3,85.6c-0.2,0.1-0.4,0.1-0.6-0.1l0,0l-3.8-5.3c-0.1-0.1-0.1-0.3,0-0.4l0,0c1-0.7,1.9-1.2,4-3
		c4.8-4.1,6.1-6.1,4.7-7.7c-0.9-1.1-2.3-0.9-4.5,1l-7,6.1c-0.2,0.2-0.6,0.2-0.7,0l0,0l-3.9-4.8c-0.2-0.2-0.2-0.6,0-0.8l20.4-18.8
		c0.2-0.2,0.5-0.2,0.7,0.1l4.4,5.4c0.2,0.2,0.1,0.5-0.1,0.7l-6.6,5.9c0.7,0.3,1.7,0.5,2.9,1.9c3.3,3.9,3.8,8.7-3.9,15.3
		C230,83.6,228.1,85.1,227.3,85.6z"/>
</g>
<path id="SVGID_x5F_1_x5F_" class="st4" d="M247.4,134.2c0,61.1-49.6,110.7-110.7,110.7S26,195.4,26,134.2"/>
<text transform="matrix(-0.4331 0.9014 -0.9014 -0.4331 237.3304 180.5083)" class="st3 st5 st6"> </text>
<text transform="matrix(1 0 0 1 -16.235 -36.6319)" class="st5" style="font-size:12px;"> </text>
<g>
	<path class="st3" d="M36.6,186.5c-0.6,0.2-1.1,0.1-1.3-0.3l0,0l-2.4-6c-0.2-0.4,0.1-0.8,0.3-0.9c2.1-1.1,3.9-3.7,2.6-6.7
		c-0.7-1.7-2-2.3-3-1.8c-0.8,0.4-1.6,1.4-1.6,3.1c0.2,4.5,2.4,12.9-3,15.2c-4.4,1.9-8.4-0.4-11.2-7c-3-7-0.7-13.8,3.6-15.9l0,0
		c0.4-0.2,0.8,0.2,0.9,0.4l2.6,5.5l0,0c0.2,0.4-0.1,0.8-0.2,0.9c-1.2,1-2.4,3.1-1.3,5.6c0.5,1.1,1.5,1.5,2.3,1.2
		c1.5-0.7,0.5-6.2,0.4-7.6c-0.2-3.8,0.2-8.1,5-10.2c5.4-2.3,10.9,1.4,13.3,6.9c2.7,6.4,0.9,14.5-5.8,17.4
		C37.3,186.2,37,186.4,36.6,186.5z"/>
	<path class="st3" d="M42.7,208c-2.8,1.4-7.8,2.4-11.3-2.3c-3.7-5.1-3.3-10.7,1.9-14.6c5.8-4.3,11.9-3.4,15,0.9
		c2.9,4,3,8.9-1.4,12.2c-0.3,0.2-0.8,0.6-1.2,0.7c-0.6,0.3-1.1,0-1.5-0.6l-2.6-3.9c-0.4-0.6-0.1-0.9,0.4-1.3
		c0.9-0.6,1.3-1.8,0.5-2.8c-0.8-1.2-3-1.2-5.3,0.5c-2.5,1.9-2.1,3.9-1.3,5c0.9,1.3,2,1,2.8,0.7c0.3-0.1,0.6,0,0.9,0.3
		c2.3,2.9,3.3,4.2,3.4,4.3c0.2,0.3,0.2,0.5-0.1,0.7C42.8,208,42.7,208,42.7,208z"/>
	<path class="st3" d="M46.4,221.1c-0.2,0.2-0.5,0.2-0.7,0l0,0l-4.4-4.6c-0.2-0.2-0.2-0.5,0-0.8L53,203.1c0.2-0.2,0.5-0.2,0.7,0
		l5.1,5.2c0.2,0.2,0.2,0.5,0,0.7L46.4,221.1z M57.9,205.3c-1.6-1.5-1.5-4.1,0.1-5.8c1.6-1.6,4.2-1.7,5.8-0.2
		c1.6,1.6,1.5,4.2-0.1,5.8C62.1,206.7,59.5,206.8,57.9,205.3z"/>
	<path class="st3" d="M69.7,231c-2.3,2.3-7.4,3.7-11.5,0.7c-4.9-3.6-6.6-9.1-2.7-14.4c3.8-5.3,9.6-7,14-3.9
		c5.4,3.9,4.3,9.5,0.9,14.1c-0.6,0.9-1.2,0.8-1.7,0.4c0,0-0.5-0.3-8.3-5.6c-1,2.1-0.2,3.5,0.9,4.3c1,0.7,2.3,0.9,2.9,0.4
		c0.2-0.2,0.5-0.2,0.9,0.1c3,2.1,4.5,3,4.5,3l0,0l0,0c0.3,0.2,0.3,0.4,0.2,0.7C69.7,230.9,69.7,230.9,69.7,231z M65.8,218.8
		c-0.9-0.6-2-0.6-3.1,0.6c1.2,0.8,2.9,1.9,3.1,2c0.1,0.1,0.1,0.1,0.2-0.1C66.5,220.5,66.6,219.4,65.8,218.8z"/>
	<path class="st3" d="M88.4,247.4c-0.1,0.2-0.3,0.2-0.6,0.1l0,0l-6.2-3.4c-0.2-0.1-0.2-0.2-0.1-0.4l0,0c0.7-1,1.4-2.5,2.5-5
		c2.6-5.8,3.4-8,1.3-8.9c-1.6-0.7-2.8,0-4,2.6l-4.1,9c-0.1,0.3-0.4,0.4-0.7,0.3l-5.9-2.9c-0.3-0.1-0.4-0.4-0.3-0.7l7.7-18l0,0
		c0.1-0.3,0.4-0.4,0.6-0.2l6.3,3c0.2,0.1,0.3,0.4,0.2,0.7l-0.5,1c1.3,0,2.8,0.2,4.5,1c4.7,2.2,6.7,5.7,2.6,14.9
		C90.1,244.4,89,246.6,88.4,247.4z"/>
	<path class="st3" d="M113.5,246.6c-1.3,2.9-4.5,6.8-10.2,5.4c-6.1-1.5-9.4-6.1-7.8-12.5c1.8-7,7-10.1,12.2-8.8
		c4.8,1.2,8,4.9,6.7,10.3c-0.1,0.4-0.2,1-0.4,1.3c-0.3,0.6-0.9,0.7-1.5,0.5l-4.5-1.3c-0.7-0.2-0.7-0.6-0.5-1.3
		c0.3-1.1-0.2-2.2-1.4-2.5c-1.4-0.4-3.1,1-3.8,3.8c-0.8,3.1,0.8,4.4,2.2,4.7c1.5,0.4,2.2-0.5,2.6-1.2c0.2-0.3,0.4-0.4,0.9-0.3
		c3.6,0.8,5.3,1.1,5.3,1.2c0.3,0.1,0.5,0.3,0.4,0.6C113.5,246.5,113.5,246.6,113.5,246.6z"/>
	<path class="st3" d="M135.9,249.1c-0.8,3.1-4.4,7-9.5,6.6c-6.1-0.5-10.3-4.4-9.8-10.9s4.6-11,10-10.6c6.7,0.6,8.5,5.9,8.1,11.6
		c-0.1,1.1-0.7,1.3-1.2,1.2c0,0-0.6,0.1-10-0.5c0.2,2.3,1.6,3.2,3,3.3c1.2,0.1,2.4-0.4,2.7-1.2c0.1-0.3,0.4-0.5,0.8-0.4
		c3.7,0.2,5.4,0.3,5.5,0.3l0,0l0,0C135.8,248.5,136,248.7,135.9,249.1C135.9,249,135.9,249,135.9,249.1z M126.2,240.7
		c-1.1-0.1-2,0.5-2.4,2.1c1.5,0.1,3.5,0.1,3.6,0.1s0.1,0,0.2-0.2C127.7,241.7,127.3,240.8,126.2,240.7z"/>
	<path class="st3" d="M169.6,227.5c-0.1,0.3-2,5.5-2.1,5.8s-0.3,0.4-0.4,0.4c-0.1,0-0.1,0-0.1,0c-0.2-0.2-1.7-1.6-3.8-1.2
		c-4.3,0.8-6.8,6-6,10.5c0.5,2.9,2.9,4.7,5.8,4.2c3.4-0.6,5.6-3.5,5.7-3.8c0.1-0.2,0.2-0.2,0.3-0.3s0.3,0,0.4,0.2
		c0.4,0.3,3,3.1,3.3,3.4c0.1,0.2,0.2,0.3,0.3,0.5c0,0.1,0,0.3-0.1,0.4c-0.2,0.4-2.8,4.8-9.3,6c-6.2,1.1-13.7-1.6-15.2-9.6
		c-1.5-8.7,4.1-17.7,12.2-19.1c4.7-0.8,8.3,1.5,8.6,1.8c0.2,0.2,0.4,0.5,0.5,0.6C169.7,227.4,169.6,227.5,169.6,227.5z"/>
	<path class="st3" d="M194,236.5c0.6,3.2-0.9,8.2-5.7,10c-5.7,2.2-11.2,0.5-13.6-5.6c-2.3-6-0.6-11.9,4.4-13.8
		c6.2-2.4,10.3,1.6,12.3,7c0.4,1,0,1.4-0.6,1.6c0,0-0.5,0.3-9.2,3.9c1.2,1.9,2.8,2.1,4.1,1.6c1.1-0.4,2-1.4,1.9-2.2
		c0-0.3,0.1-0.6,0.5-0.7c3.4-1.4,5-2.1,5-2.1l0,0l0,0c0.3-0.1,0.6,0,0.7,0.2C193.9,236.4,194,236.4,194,236.5z M181.7,233.1
		c-1,0.4-1.6,1.3-1.2,2.9c1.3-0.6,3.2-1.4,3.3-1.5c0.1,0,0.1-0.1,0.1-0.2C183.4,233.4,182.7,232.7,181.7,233.1z"/>
	<path class="st3" d="M218,229.8c0.1,0.2,0,0.4-0.2,0.5l0,0l-6.2,3.4c-0.1,0.1-0.3,0-0.4-0.1l0,0c-0.5-1.1-1.3-2.5-2.8-4.8
		c-3.4-5.3-4.8-7.2-6.8-5.9c-1.5,1-1.6,2.4,0,4.8l5.3,8.3c0.2,0.2,0.1,0.6-0.1,0.7l-5.6,3.4c-0.2,0.1-0.6,0.1-0.7-0.2l-10.9-16.2
		l0,0c-0.2-0.2-0.1-0.5,0.2-0.7l5.9-3.6c0.3-0.1,0.5-0.1,0.7,0.2l0.6,0.9c0.7-1.1,1.7-2.3,3.3-3.2c4.4-2.8,8.5-2.5,13.9,6
		C216.4,226.8,217.6,228.9,218,229.8z"/>
	<path class="st3" d="M222.6,206.6c0.2,0.2,0.2,0.5,0,0.7l-1.9,1.7c-0.2,0.2-0.2,0.5,0,0.7l8.2,9.8c0.2,0.2,0.1,0.5,0,0.7l0,0
		l-4.7,3.9c-0.2,0.2-0.5,0.1-0.7,0l0,0l-8.3-9.2l0,0c-0.2-0.2-0.5-0.2-0.7,0l-1.5,1.4c-0.2,0.2-0.5,0.2-0.7,0l-4.2-4l0,0
		c-0.2-0.2-0.2-0.5,0-0.6l1.9-1.8c0.2-0.2,0.2-0.5,0-0.7l-4.4-4.8c-0.2-0.2-0.2-0.5,0-0.7l5.2-4.8c0.2-0.2,0.5-0.2,0.7,0l4.2,5l0,0
		c0.2,0.2,0.5,0.2,0.7,0l1.6-1.5c0.2-0.2,0.5-0.2,0.7,0L222.6,206.6z"/>
	<path class="st3" d="M241.5,193.5c2.2,2.3,3.7,7.4,0.7,11.5c-3.6,4.9-9.1,6.5-14.4,2.7c-5.2-3.8-7-9.7-3.8-14
		c3.9-5.4,9.5-4.2,14.1-0.8c0.9,0.6,0.7,1.2,0.4,1.7c0,0-0.3,0.5-5.6,8.2c2.1,1,3.5,0.2,4.4-0.9c0.7-1,0.9-2.3,0.4-2.9
		c-0.2-0.2-0.2-0.5,0.1-0.9c2.1-3,3-4.5,3.1-4.5l0,0l0,0C241.1,193.3,241.4,193.3,241.5,193.5C241.4,193.4,241.5,193.5,241.5,193.5z
		 M229.3,197.4c-0.6,0.9-0.6,1.9,0.5,3.1c0.8-1.2,1.9-2.9,2-3s0.1-0.1-0.1-0.2C231,196.6,229.9,196.5,229.3,197.4z"/>
	<path class="st3" d="M236.5,172.6c0.7,0.3,4.7,2.5,5.4,2.9c0.2,0.1,0.2,0.2,0.1,0.5c-1.5,3.4-0.1,5.9,3.8,7.7c0,0,2.5,1.2,5.7,2.7
		c0.3,0.1,0.4,0.5,0.3,0.7l-2.5,5.4l0,0c-0.1,0.3-0.4,0.4-0.7,0.2l-17.4-7.7l0,0c-0.3-0.1-0.4-0.4-0.2-0.7l0,0l2.9-5.3
		c0.2-0.4,0.3-0.5,0.7-0.3l0.8,0.4c0.1,0,0.1,0.1,0.1,0c0,0,0,0-0.1-0.1c-1-1.8-0.5-4.2,0.2-5.6c0.2-0.3,0.3-0.6,0.5-0.9
		C236.2,172.6,236.3,172.5,236.5,172.6L236.5,172.6z"/>
</g>
</svg>
