<?xml version="1.0" encoding="utf-8"?>
<!-- Generator: Adobe Illustrator 28.0.0, SVG Export Plug-In . SVG Version: 6.00 Build 0)  -->
<svg version="1.1" id="Layer_1" xmlns="http://www.w3.org/2000/svg" xmlns:xlink="http://www.w3.org/1999/xlink" x="0px" y="0px"
	 viewBox="0 0 241 248.7" style="enable-background:new 0 0 241 248.7;" xml:space="preserve">
<style type="text/css">
	.st0{display:none;}
	.st1{display:inline;fill:#B3B3B3;}
	.st2{fill:none;stroke:#000000;stroke-width:8;stroke-miterlimit:10;}
	.st3{fill:none;}
	.st4{font-family:'ArialMT';}
	.st5{font-size:12px;}
</style>
<g>
	<g id="Background_00000157275070847310481910000006399366119245778339_" class="st0">
		<path class="st1" d="M722.5-474.4c0,256,0,256,0,512c-256,0-256,0-512,0c0-256,0-256,0-512C466.5-474.4,466.5-474.4,722.5-474.4z"
			/>
	</g>
</g>
<text transform="matrix(1 0 0 1 -29.5745 -45.5319)" class="st4 st5"> </text>
<path class="st2" d="M129.8,159.9c6.9-19.5,32.6-33.4,65.2-38.5c0.4-0.1,0.6,0.3,0.5,0.7c-8.5,20.6-2.4,36.4-63.7,50.2c-1,0-2,0-2,0
	"/>
<path class="st2" d="M166.8,108.7c11.2-16.3,22.4-16.8,27.9-18.3c0.5-0.1,0.9,0.3,0.8,0.8c-2.4,8.3,0,11.5-11.6,32.3"/>
<path class="st2" d="M129.8,99.3c0,0,2,1,3,1c33.1,1.9,31.1-20.7,33.8-33c0.1-0.5-0.3-0.9-0.8-0.9c-6.4,0.6-21.1-0.6-30.5,9.8
	c-2.2,2.4-4,5.4-5.5,9.1v14.6v84.5H116v-87c-4.2-20.7-24.9-23.9-35.9-24.5c-0.3,0-0.5,0.2-0.5,0.4c-0.6,12.5,7.5,31.1,34.2,32.6
	c1-0.5,2-1.5,2-1.5"/>
<path class="st2" d="M115.8,173.3c-37.9-3.7-70.7-18.5-63.6-61.8c0.5-2.9,4.2-3.6,5.8-1.3c10.1,14.2,40.8,15.5,56.2,46.1
	c0.4,0.8,0.9,1.4,1.6,1.9l0,0"/>
<text transform="matrix(1 0 0 1 -29.5745 -45.5319)" class="st4 st5"> </text>
<g>
	<path d="M31.8,44.4c0.4,0.5,0,0.6-0.3,1c-0.7,0.7-3.4,4-3.4,4.8C28,51.7,40.5,62.6,42.5,64.4c0.3,0.3,0.3,0.7,0,1
		c-1.5,1.7-2.8,3.6-4.4,5.3c-0.4,0.4-0.9,0.3-1.2,0c-4.8-4.3-9.2-9-14.1-13.3c-0.5-0.4-0.6-0.4-1,0.1c-1.8,2.1-1.9,2.6-3.7,4.6
		c-0.2,0.3-0.5,0.4-0.8,0.1c-1.5-1.3-2.8-2.8-4.3-4.1c-0.3-0.3-0.2-0.5,0.1-0.9c3.7-4.2,6.4-7.3,9.9-11.6c1.5-1.8,2.8-3.7,4.3-5.4
		c0.2-0.2,0.3-0.3,0.5-0.1C29.1,41.3,30.9,42.9,31.8,44.4z"/>
	<path d="M57.2,43.5c1.6,2.8,1.6,8.1-2.3,11.3c-4.7,3.8-10.5,4-14.6-1.1c-4.1-5-4.3-11.1-0.1-14.5c5.2-4.3,10.2-1.7,13.8,2.7
		c0.7,0.8,0.4,1.4,0,1.7c0,0-0.4,0.5-7.5,6.5c1.7,1.5,3.4,1.1,4.4,0.3c1-0.8,1.4-2,1.1-2.7c-0.1-0.3-0.1-0.6,0.3-0.9
		c2.8-2.4,4.1-3.5,4.1-3.6l0,0l0,0c0.3-0.2,0.5-0.2,0.7,0C57.1,43.4,57.2,43.4,57.2,43.5z M44.4,44.1c-0.8,0.7-1.1,1.7-0.3,3.2
		c1.1-1,2.6-2.3,2.7-2.4s0.1-0.1,0-0.2C46.2,43.8,45.3,43.4,44.4,44.1z"/>
	<path d="M71.1,31.5c-0.1,0.3,0.1,0.6,0.3,0.8l9.3,4.8c0.2,0.2,0.3,0.4,0,0.6l-6.9,4.9c-0.3,0.2-0.7,0.2-0.9,0l-4-2.3
		c-0.2-0.2-0.5,0-0.6,0.2l-1.4,5c-0.1,0.3-0.4,0.6-0.7,0.6l-6.4,1.1c-0.3,0-0.5-0.1-0.4-0.4l2.7-9.7c0.1-0.3-0.1-0.6-0.3-0.8l-8.9-5
		c-0.3-0.1-0.3-0.4-0.1-0.6l6.3-4.4c0.3-0.2,0.7-0.2,0.9,0l3.9,2.1c0.3,0.1,0.6,0,0.6-0.3l1.3-4.7c0.1-0.3,0.4-0.6,0.7-0.7l7.8-3
		c0.3-0.1,0.4,0.1,0.3,0.3L71.1,31.5z"/>
	<path d="M93.3,20c0.1,0.3-0.1,0.5-0.3,0.6l-2.4,0.7c-0.3,0.1-0.4,0.4-0.4,0.6l3.1,12.4c0,0.3-0.1,0.5-0.3,0.6l0,0l-6,1.4
		c-0.2,0.1-0.5-0.1-0.6-0.3l0,0L83,24.1l0,0c-0.1-0.2-0.4-0.4-0.6-0.3l-2,0.6c-0.3,0.1-0.5-0.1-0.6-0.3l-2-5.4l0,0
		c-0.1-0.2,0.1-0.5,0.3-0.6l2.5-0.7c0.3-0.1,0.4-0.3,0.3-0.6l-1.8-6.3c-0.1-0.3,0.1-0.5,0.3-0.6l6.8-2c0.2-0.1,0.5,0.1,0.6,0.3
		l1.6,6.4l0,0c0.1,0.3,0.3,0.4,0.6,0.3l2.1-0.6c0.3-0.1,0.5,0.1,0.6,0.3L93.3,20z"/>
	<path d="M100.9,12.5c-2.2,0.4-4.3-1.1-4.7-3.5c-0.4-2.3,1-4.5,3.2-4.8c2.2-0.4,4.3,1.1,4.7,3.4C104.5,9.9,103.1,12.1,100.9,12.5z
		 M107.2,31.1c0.1,0.3-0.2,0.5-0.4,0.6l0,0l-6.3,1c-0.3,0.1-0.6-0.1-0.6-0.4l-3.5-16.9c-0.1-0.3,0.1-0.5,0.4-0.6l7.2-1.2
		c0.3-0.1,0.6,0.1,0.6,0.4L107.2,31.1z"/>
	<path d="M117.8,30.1c0,0.3-0.2,0.5-0.4,0.5l0,0l-6.1,0.3c-0.3,0-0.5-0.2-0.6-0.5l-2.6-26.5l0,0c0-0.3,0.2-0.5,0.4-0.5l7.1-0.5
		c0.3,0,0.5,0.2,0.6,0.5L117.8,30.1z"/>
	<path d="M139.9,24.3c-0.7,3.1-4.2,7.1-9.3,6.8c-6.1-0.3-10.4-4.1-10.1-10.6c0.4-6.5,4.3-11.1,9.7-10.8c6.7,0.4,8.7,5.7,8.4,11.4
		c-0.1,1.1-0.6,1.3-1.2,1.3c0,0-0.6,0.1-10-0.2c0.3,2.3,1.7,3.1,3.1,3.2c1.2,0.1,2.4-0.5,2.6-1.3c0.1-0.3,0.3-0.5,0.8-0.4
		c3.7,0.1,5.4,0.1,5.5,0.1l0,0l0,0C139.7,23.8,139.9,24,139.9,24.3C139.9,24.2,139.9,24.2,139.9,24.3z M130.1,16.2
		c-1.1-0.1-2,0.6-2.3,2.2c1.5,0,3.5,0,3.6,0s0.1,0,0.1-0.2C131.6,17.2,131.1,16.2,130.1,16.2z"/>
	<path d="M178.3,19.7c-0.4,0.5-0.6,0.3-1,0.1c-0.9-0.3-5-1.7-5.7-1.4c-1.4,0.5-6.8,16.1-7.7,18.7c-0.1,0.4-0.5,0.5-0.9,0.4
		c-2.1-0.8-4.4-1.3-6.5-2.1c-0.5-0.2-0.6-0.7-0.4-1.2c2.1-6.1,4.8-12,7-18c0.2-0.6,0.1-0.7-0.5-0.9c-2.6-0.9-3.1-0.8-5.7-1.7
		c-0.3-0.1-0.5-0.3-0.4-0.7c0.7-1.8,1.5-3.6,2.2-5.5c0.2-0.4,0.4-0.4,0.9-0.2c5.2,1.9,9.1,3.2,14.4,4.8c2.2,0.7,4.4,1.2,6.6,2
		c0.2,0.1,0.4,0.1,0.3,0.4C180.2,16.1,179.4,18.3,178.3,19.7z"/>
	<path d="M188.7,42.9c-2,2.5-6.9,4.6-11.3,2.1c-5.3-2.9-7.6-8.2-4.5-14c3.1-5.7,8.7-8.1,13.4-5.6c5.9,3.2,5.4,8.9,2.6,13.9
		c-0.5,1-1.1,0.9-1.6,0.6c0,0-0.6-0.2-8.9-4.5c-0.7,2.2,0.2,3.5,1.4,4.2c1.1,0.6,2.4,0.6,2.9,0c0.2-0.2,0.5-0.3,0.9-0.1
		c3.3,1.7,4.8,2.4,4.9,2.5l0,0l0,0c0.3,0.2,0.4,0.4,0.2,0.7C188.8,42.8,188.8,42.8,188.7,42.9z M183.4,31.3c-1-0.5-2-0.3-3,0.9
		c1.3,0.6,3.2,1.5,3.3,1.6s0.1,0,0.2-0.1C184.3,32.8,184.3,31.8,183.4,31.3z"/>
	<path d="M205.2,55.5c-2.4,2.1-7,4.3-11.5,0.6c-4.9-4-5.9-9.5-1.8-14.6c4.5-5.6,10.6-6.3,14.8-2.9c3.8,3.1,5.2,7.8,1.7,12.1
		c-0.2,0.3-0.6,0.8-1,1c-0.6,0.4-1.1,0.3-1.6-0.2l-3.5-3.1c-0.6-0.5-0.4-0.9,0-1.4c0.7-0.8,0.8-2.1-0.2-2.9c-1.1-0.9-3.2-0.4-5,1.9
		c-2,2.4-1.1,4.3,0,5.2c1.2,1,2.2,0.5,2.9,0c0.3-0.2,0.6-0.2,0.9,0.1c2.9,2.2,4.3,3.3,4.4,3.3c0.3,0.2,0.3,0.4,0.1,0.7
		C205.2,55.5,205.2,55.5,205.2,55.5z"/>
	<path d="M214,76.7c-0.2,0.1-0.4,0.1-0.6-0.1l0,0l-3.8-5.3c-0.1-0.1-0.1-0.3,0-0.4l0,0c1-0.7,1.9-1.2,4-3c4.8-4.1,6.1-6.1,4.7-7.7
		c-0.9-1.1-2.3-0.9-4.5,1l-7,6.1c-0.2,0.2-0.6,0.2-0.7,0l0,0l-3.9-4.8c-0.2-0.2-0.2-0.6,0-0.8l20.4-18.8c0.2-0.2,0.5-0.2,0.7,0.1
		l4.4,5.4c0.2,0.2,0.1,0.5-0.1,0.7L221,55c0.7,0.3,1.7,0.5,2.9,1.9c3.3,3.9,3.8,8.7-3.9,15.3C216.7,74.7,214.8,76.2,214,76.7z"/>
</g>
<path id="SVGID_x5F_1_x5F_" class="st3" d="M234.1,125.3c0,61.1-49.6,110.7-110.7,110.7S12.7,186.5,12.7,125.3"/>
<text transform="matrix(-0.4331 0.9014 -0.9014 -0.4331 223.9902 171.6081)" class="st4 st5"> </text>
<text transform="matrix(1 0 0 1 -29.5745 -45.5319)" class="st4 st5"> </text>
<g>
	<path d="M23.3,177.6c-0.6,0.2-1.1,0.1-1.3-0.3l0,0l-2.4-6c-0.2-0.4,0.1-0.8,0.3-0.9c2.1-1.1,3.9-3.7,2.6-6.7c-0.7-1.7-2-2.3-3-1.8
		c-0.8,0.4-1.6,1.4-1.6,3.1c0.2,4.5,2.4,12.9-3,15.2c-4.4,1.9-8.4-0.4-11.2-7c-3-7-0.7-13.8,3.6-15.9l0,0c0.4-0.2,0.8,0.2,0.9,0.4
		l2.6,5.5l0,0c0.2,0.4-0.1,0.8-0.2,0.9c-1.2,1-2.4,3.1-1.3,5.6c0.5,1.1,1.5,1.5,2.3,1.2c1.5-0.7,0.5-6.2,0.4-7.6
		c-0.2-3.8,0.2-8.1,5-10.2c5.4-2.3,10.9,1.4,13.3,6.9c2.7,6.4,0.9,14.5-5.8,17.4C24,177.3,23.7,177.5,23.3,177.6z"/>
	<path d="M29.4,199.1c-2.8,1.4-7.8,2.4-11.3-2.3c-3.7-5.1-3.3-10.7,1.9-14.6c5.8-4.3,11.9-3.4,15,0.9c2.9,4,3,8.9-1.4,12.2
		c-0.3,0.2-0.8,0.6-1.2,0.7c-0.6,0.3-1.1,0-1.5-0.6l-2.6-3.9c-0.4-0.6-0.1-0.9,0.4-1.3c0.9-0.6,1.3-1.8,0.5-2.8
		c-0.8-1.2-3-1.2-5.3,0.5c-2.5,1.9-2.1,3.9-1.3,5c0.9,1.3,2,1,2.8,0.7c0.3-0.1,0.6,0,0.9,0.3c2.3,2.9,3.3,4.2,3.4,4.3
		c0.2,0.3,0.2,0.5-0.1,0.7C29.5,199.1,29.4,199.1,29.4,199.1z"/>
	<path d="M33.1,212.2c-0.2,0.2-0.5,0.2-0.7,0l0,0l-4.4-4.6c-0.2-0.2-0.2-0.5,0-0.8l11.7-12.6c0.2-0.2,0.5-0.2,0.7,0l5.1,5.2
		c0.2,0.2,0.2,0.5,0,0.7L33.1,212.2z M44.6,196.4c-1.6-1.5-1.5-4.1,0.1-5.8c1.6-1.6,4.2-1.7,5.8-0.2c1.6,1.6,1.5,4.2-0.1,5.8
		S46.2,197.9,44.6,196.4z"/>
	<path d="M56.4,222.1c-2.3,2.3-7.4,3.7-11.5,0.7c-4.9-3.6-6.6-9.1-2.7-14.4c3.8-5.3,9.6-7,14-3.9c5.4,3.9,4.3,9.5,0.9,14.1
		c-0.6,0.9-1.2,0.8-1.7,0.4c0,0-0.5-0.3-8.3-5.6c-1,2.1-0.2,3.5,0.9,4.3c1,0.7,2.3,0.9,2.9,0.4c0.2-0.2,0.5-0.2,0.9,0.1
		c3,2.1,4.5,3,4.5,3l0,0l0,0c0.3,0.2,0.3,0.4,0.2,0.7C56.4,222,56.4,222,56.4,222.1z M52.5,209.9c-0.9-0.6-2-0.6-3.1,0.6
		c1.2,0.8,2.9,1.9,3.1,2c0.1,0.1,0.1,0.1,0.2-0.1C53.2,211.6,53.3,210.5,52.5,209.9z"/>
	<path d="M75.1,238.5c-0.1,0.2-0.3,0.2-0.6,0.1l0,0l-6.2-3.4c-0.2-0.1-0.2-0.2-0.1-0.4l0,0c0.7-1,1.4-2.5,2.5-5
		c2.6-5.8,3.4-8,1.3-8.9c-1.6-0.7-2.8,0-4,2.6l-4.1,9c-0.1,0.3-0.4,0.4-0.7,0.3l-5.9-2.9c-0.3-0.1-0.4-0.4-0.3-0.7l7.7-18l0,0
		c0.1-0.3,0.4-0.4,0.6-0.2l6.3,3c0.2,0.1,0.3,0.4,0.2,0.7l-0.5,1c1.3,0,2.8,0.2,4.5,1c4.7,2.2,6.7,5.7,2.6,14.9
		C76.8,235.5,75.7,237.7,75.1,238.5z"/>
	<path d="M100.2,237.7c-1.3,2.9-4.5,6.8-10.2,5.4c-6.1-1.5-9.4-6.1-7.8-12.5c1.8-7,7-10.1,12.2-8.8c4.8,1.2,8,4.9,6.7,10.3
		c-0.1,0.4-0.2,1-0.4,1.3c-0.3,0.6-0.9,0.7-1.5,0.5l-4.5-1.3c-0.7-0.2-0.7-0.6-0.5-1.3c0.3-1.1-0.2-2.2-1.4-2.5
		c-1.4-0.4-3.1,1-3.8,3.8c-0.8,3.1,0.8,4.4,2.2,4.7c1.5,0.4,2.2-0.5,2.6-1.2c0.2-0.3,0.4-0.4,0.9-0.3c3.6,0.8,5.3,1.1,5.3,1.2
		c0.3,0.1,0.5,0.3,0.4,0.6C100.2,237.6,100.2,237.7,100.2,237.7z"/>
	<path d="M122.6,240.2c-0.8,3.1-4.4,7-9.5,6.6c-6.1-0.5-10.3-4.4-9.8-10.9s4.6-11,10-10.6c6.7,0.6,8.5,5.9,8.1,11.6
		c-0.1,1.1-0.7,1.3-1.2,1.2c0,0-0.6,0.1-10-0.5c0.2,2.3,1.6,3.2,3,3.3c1.2,0.1,2.4-0.4,2.7-1.2c0.1-0.3,0.4-0.5,0.8-0.4
		c3.7,0.2,5.4,0.3,5.5,0.3l0,0l0,0c0.3,0,0.5,0.2,0.5,0.5C122.6,240.1,122.6,240.1,122.6,240.2z M112.9,231.8
		c-1.1-0.1-2,0.5-2.4,2.1c1.5,0.1,3.5,0.1,3.6,0.1s0.1,0,0.2-0.2C114.4,232.8,114,231.9,112.9,231.8z"/>
	<path d="M156.3,218.6c-0.1,0.3-2,5.5-2.1,5.8s-0.3,0.4-0.4,0.4c-0.1,0-0.1,0-0.1,0c-0.2-0.2-1.7-1.6-3.8-1.2c-4.3,0.8-6.8,6-6,10.5
		c0.5,2.9,2.9,4.7,5.8,4.2c3.4-0.6,5.6-3.5,5.7-3.8c0.1-0.2,0.2-0.2,0.3-0.3s0.3,0,0.4,0.2c0.4,0.3,3,3.1,3.3,3.4
		c0.1,0.2,0.2,0.3,0.3,0.5c0,0.1,0,0.3-0.1,0.4c-0.2,0.4-2.8,4.8-9.3,6c-6.2,1.1-13.7-1.6-15.2-9.6c-1.5-8.7,4.1-17.7,12.2-19.1
		c4.7-0.8,8.3,1.5,8.6,1.8c0.2,0.2,0.4,0.5,0.5,0.6C156.4,218.5,156.3,218.6,156.3,218.6z"/>
	<path d="M180.7,227.6c0.6,3.2-0.9,8.2-5.7,10c-5.7,2.2-11.2,0.5-13.6-5.6c-2.3-6-0.6-11.9,4.4-13.8c6.2-2.4,10.3,1.6,12.3,7
		c0.4,1,0,1.4-0.6,1.6c0,0-0.5,0.3-9.2,3.9c1.2,1.9,2.8,2.1,4.1,1.6c1.1-0.4,2-1.4,1.9-2.2c0-0.3,0.1-0.6,0.5-0.7
		c3.4-1.4,5-2.1,5-2.1l0,0l0,0c0.3-0.1,0.6,0,0.7,0.2C180.6,227.5,180.7,227.5,180.7,227.6z M168.4,224.2c-1,0.4-1.6,1.3-1.2,2.9
		c1.3-0.6,3.2-1.4,3.3-1.5c0.1,0,0.1-0.1,0.1-0.2C170.1,224.5,169.4,223.8,168.4,224.2z"/>
	<path d="M204.7,220.9c0.1,0.2,0,0.4-0.2,0.5l0,0l-6.2,3.4c-0.1,0.1-0.3,0-0.4-0.1l0,0c-0.5-1.1-1.3-2.5-2.8-4.8
		c-3.4-5.3-4.8-7.2-6.8-5.9c-1.5,1-1.6,2.4,0,4.8l5.3,8.3c0.2,0.2,0.1,0.6-0.1,0.7l-5.6,3.4c-0.2,0.1-0.6,0.1-0.7-0.2l-10.9-16.2
		l0,0c-0.2-0.2-0.1-0.5,0.2-0.7l5.9-3.6c0.3-0.1,0.5-0.1,0.7,0.2l0.6,0.9c0.7-1.1,1.7-2.3,3.3-3.2c4.4-2.8,8.5-2.5,13.9,6
		C203.1,217.9,204.3,220,204.7,220.9z"/>
	<path d="M209.3,197.7c0.2,0.2,0.2,0.5,0,0.7l-1.9,1.7c-0.2,0.2-0.2,0.5,0,0.7l8.2,9.8c0.2,0.2,0.1,0.5,0,0.7l0,0l-4.7,3.9
		c-0.2,0.2-0.5,0.1-0.7,0l0,0l-8.3-9.2l0,0c-0.2-0.2-0.5-0.2-0.7,0l-1.5,1.4c-0.2,0.2-0.5,0.2-0.7,0l-4.2-4l0,0
		c-0.2-0.2-0.2-0.5,0-0.6l1.9-1.8c0.2-0.2,0.2-0.5,0-0.7l-4.4-4.8c-0.2-0.2-0.2-0.5,0-0.7l5.2-4.8c0.2-0.2,0.5-0.2,0.7,0l4.2,5l0,0
		c0.2,0.2,0.5,0.2,0.7,0l1.6-1.5c0.2-0.2,0.5-0.2,0.7,0L209.3,197.7z"/>
	<path d="M228.2,184.6c2.2,2.3,3.7,7.4,0.7,11.5c-3.6,4.9-9.1,6.5-14.4,2.7c-5.2-3.8-7-9.7-3.8-14c3.9-5.4,9.5-4.2,14.1-0.8
		c0.9,0.6,0.7,1.2,0.4,1.7c0,0-0.3,0.5-5.6,8.2c2.1,1,3.5,0.2,4.4-0.9c0.7-1,0.9-2.3,0.4-2.9c-0.2-0.2-0.2-0.5,0.1-0.9
		c2.1-3,3-4.5,3.1-4.5l0,0l0,0c0.2-0.3,0.5-0.3,0.7-0.2C228.1,184.5,228.2,184.6,228.2,184.6z M216,188.5c-0.6,0.9-0.6,1.9,0.5,3.1
		c0.8-1.2,1.9-2.9,2-3s0.1-0.1-0.1-0.2C217.7,187.7,216.6,187.6,216,188.5z"/>
	<path d="M223.2,163.7c0.7,0.3,4.7,2.5,5.4,2.9c0.2,0.1,0.2,0.2,0.1,0.5c-1.5,3.4-0.1,5.9,3.8,7.7c0,0,2.5,1.2,5.7,2.7
		c0.3,0.1,0.4,0.5,0.3,0.7l-2.5,5.4l0,0c-0.1,0.3-0.4,0.4-0.7,0.2l-17.4-7.7l0,0c-0.3-0.1-0.4-0.4-0.2-0.7l0,0l2.9-5.3
		c0.2-0.4,0.3-0.5,0.7-0.3l0.8,0.4c0.1,0,0.1,0.1,0.1,0c0,0,0,0-0.1-0.1c-1-1.8-0.5-4.2,0.2-5.6c0.2-0.3,0.3-0.6,0.5-0.9
		C222.9,163.7,223,163.6,223.2,163.7L223.2,163.7z"/>
</g>
</svg>
