<?xml version="1.0" encoding="utf-8"?>
<!-- Generator: Adobe Illustrator 28.0.0, SVG Export Plug-In . SVG Version: 6.00 Build 0)  -->
<svg version="1.1" id="Layer_1" xmlns="http://www.w3.org/2000/svg" xmlns:xlink="http://www.w3.org/1999/xlink" x="0px" y="0px"
	 viewBox="0 0 1280 1024" style="enable-background:new 0 0 1280 1024;" xml:space="preserve">
<style type="text/css">
	.st0{display:none;}
	.st1{display:inline;fill:#E8F1ED;}
	.st2{fill:#417777;}
	.st3{fill:#A6E6DB;}
</style>
<g id="Background_00000138564026423007801780000015120185410394922677_" class="st0">
	<path class="st1" d="M1129,9c0,285.5,0,285.5,0,571c-285.5,0-285.5,0-571,0c0-285.5,0-285.5,0-571C843.5,9,843.5,9,1129,9z"/>
</g>
<g>
	<path class="st2" d="M877.28,242.06c70.15-3.29,145.74,24.23,183.73,86.15c46.41,75.64,41.05,182.08-16.73,250.37
		c-40.32,47.66-112.72,67.03-173.14,62.73c-48.11-3.42-101.81-26.05-132.99-63.85c-55.82-67.66-61.95-163.76-20.63-240.33
		C748.72,279.32,812.77,245.08,877.28,242.06z"/>
	<g>
		<path class="st3" d="M725.61,347.45c0.8,3.6,3.64,6.58,3.62,6.97c-0.07,2.06-17.89,18.31-22.58,34.29
			C710.52,374.01,716.59,359.76,725.61,347.45z"/>
		<g>
			<path class="st3" d="M941.13,261.58c3.09,3.29,8.11,2.76,6.13-2.23c0.08-0.01,1.43-1.71,1.67,0.28
				c-4.04,18.98-18.53,31-27.88,54.65c-16.31,48.09-16.31,48.09-32.62,96.19c-4.04-4.04-4.04-4.04-8.09-8.09
				c4.46-16.28,11.47-32.28,16.73-48.51C905.09,329.13,916.89,274.13,941.13,261.58z"/>
			<path class="st3" d="M1060.18,342.99c8.72,17.72,5.53,30.56-3.62,47.12c-7.06,12.77-51.92,65.72-64.68,80.3
				c-2.63,3.01-20.91,24.98-22.58,24.81c-0.33-0.03-3.85-4.07-4.74-4.74C993.97,452.14,1058.5,389.84,1060.18,342.99z"/>
			<path class="st3" d="M1043.73,378.68c-0.98-0.56-0.98-0.56-1.95-1.12c-4.42,8.41-21.09,29.83-23.14,33.74
				c-1.16,2.21-2.87,3.83,0.56,4.18c-18.57,24.7-39.26,48-59.39,71.38c-2.65-2.93-2.65-2.93-5.3-5.85
				c30.06-39.73,91.33-104.08,96.47-152.23C1058.67,345.31,1051.23,363.58,1043.73,378.68z"/>
			<path class="st3" d="M955.9,260.46c0.65,4.52,1.39,10.29,0.84,14.78c-1.31,10.67-50.82,123.53-56.6,146.37
				c-3.21-3.21-3.21-3.21-6.41-6.41c10.68-30.53,22.08-61.03,34.57-90.89C937.25,302.9,948.14,282.26,955.9,260.46z"/>
			<path class="st3" d="M974.86,267.71c6.34,9.17,3.17,20.48,0.84,30.39c-28.02,73.19-28.02,73.19-56.04,146.37
				c-2.65-3.21-2.65-3.21-5.3-6.41c27.88-72.77,27.88-72.77,55.76-145.54C972.86,284.16,975.28,276.65,974.86,267.71z"/>
			<path class="st3" d="M1002.47,297.82c-3.33,17.45-12.23,32.98-17.29,49.91c0.84-0.14,0.84-0.14,1.67-0.28
				c-18.05,37.08-28.07,78.07-49.63,113.48c-0.8,1.88-3.97-1.76-3.9-3.9c0.05-1.83,13.06-28.53,15.06-33.46
				c12.45-30.75,23.16-62.2,35.13-93.12c3.2-8.28,14.69-31.3,15.61-36.52C1002.24,294.95,1001.66,296.62,1002.47,297.82z"/>
			<path class="st3" d="M984.34,275.52c6.14,9.73,5.39,19.09,3.07,29.83c-20.18,49.13-36.48,99.82-58.83,148.05
				c-2.09-2.09-2.09-2.09-4.18-4.18c28.16-73.88,28.16-73.88,56.32-147.77C983.47,292.58,985.75,284.99,984.34,275.52z"/>
			<path class="st3" d="M1070.77,364.74c3.27,10.47,0.95,19.95-3.07,29.83c-10.16,25.03-68.06,85.43-89.5,108.46
				c-2.19-2.57-4.16-2.72-3.07-5.3c1-2.35,29-33.11,33.46-38.48c9.24-11.13,40.55-48.79,45.72-56.32
				C1062.62,390.85,1068.38,379.4,1070.77,364.74z"/>
			<path class="st3" d="M926.35,256c2.28-0.38,4.71,0.66,6.97,0.84c-29.62,34.18-42.21,95.75-58.27,139.13
				c-4.75-4.3-3.91-4.27-3.07-9.76c1.48-9.63,18.54-65.86,22.86-77.51C898.77,298.13,914.86,257.91,926.35,256z"/>
			<path class="st3" d="M1077.47,389.83c7.79,28.02-2.22,42.67-18.12,63.85c-6.08,8.09-57.48,67.12-62.17,66.64
				c-0.35-0.04-4.81-4.66-4.74-5.3C1020.11,483.54,1080.34,432.24,1077.47,389.83z"/>
			<path class="st3" d="M904.6,252.1c-4.92,8.07-9.57,16.38-12.55,25.37c-2.23,6.73-2.85,13.83-4.46,20.63
				c-0.11,0.46-1.01,0.09-1.12,0.56c-0.13,0.57,0.92,1.25,0.56,2.79c-6.75,28.45-13.65,56.84-21.47,85.04
				c-0.94-1.2-5.75-5.39-5.85-5.85c-1.19-5.22,20.14-94.49,23.98-104.27C888.12,265.07,893.57,257.5,904.6,252.1z"/>
			<path class="st3" d="M964.83,262.69c4.41,9.02,3.29,16.04,0.84,25.37c-28.02,72.07-28.02,72.07-56.04,144.14
				c-0.41-1.04-4.14-4.96-4.18-5.3c-1.1-7.84,50.63-129.9,56.88-147.77C964.1,273.75,964.6,268.31,964.83,262.69z"/>
			<path class="st3" d="M953.95,446.15c2.77-0.01,5.5,2.09,7.53,1.12c3.12-1.5,40.36-45.75,45.45-52.14
				c5.69-7.69,9.96-16.81,16.73-23.42c0.8-1.34-0.34-2.2,0-2.79c8.12-14.07,12.62-20.53,15.61-37.64c3.97,3.75,6.27,0.91,6.13-3.9
				c1.12,15.43-11.9,37.94-20.07,51.02c-21.71,34.71-52.24,62.81-77.79,94.52c-3.21-4.04-3.21-4.04-6.41-8.09
				C945.67,458.79,949.42,452.19,953.95,446.15z"/>
			<path class="st3" d="M1074.68,384.25c-0.99,36.03-27.27,63.5-49.91,88.94c-4.09,4.6-34.4,38.75-37.08,38.75
				c-0.36,0-4.8-4.68-4.74-5.3C1008.42,475.3,1069.36,420.49,1074.68,384.25z"/>
			<path class="st3" d="M1083.6,420.5c3.46,24.75-24.62,57.2-40.98,75c-3.73,4.06-33.49,34.55-35.97,34.29
				c-0.35-0.04-4.81-4.66-4.74-5.3C1026.26,500.49,1075.33,451.85,1083.6,420.5z"/>
			<path class="st3" d="M1039.27,331.28c-2.99,17.11-7.49,23.57-15.61,37.64c-0.34,0.59,0.8,1.44,0,2.79
				c-6.77,6.61-11.04,15.73-16.73,23.42c-5.09,6.39-42.33,50.64-45.45,52.14c-2.03,0.98-4.75-1.13-7.53-1.12
				c13.66-18.23,37.05-40.18,52.42-62.17c8.74-12.51,27.08-44.28,30.67-58.27C1037.32,327.07,1038.58,330.63,1039.27,331.28z"/>
			<path class="st3" d="M892.34,251.54c0.31,0.02,0.69-0.12,0.84,0.28c-23.53,22.04-30.63,90.23-38.75,123.51
				c-0.8-1.05-4.64-4.3-4.74-4.74c-0.63-2.76,8.06-49.29,9.48-55.76c2.77-12.58,11.91-52.31,21.47-58.83
				C882.06,255.02,891.17,251.46,892.34,251.54z"/>
			<path class="st3" d="M1084.16,443.92c0.84,20.1-12,39.7-24.81,54.37c-4.25,4.86-41.34,40.73-44.33,40.43
				c-0.39-0.04-3.68-4.21-3.62-4.74c0.18-1.73,21.37-20.09,25.09-23.98C1054.73,490.9,1074.88,468.87,1084.16,443.92z"/>
			<path class="st3" d="M874.49,251.54c0.34-0.05,0.71-0.07,0.84,0.28c-25.88,29.66-30.76,70.24-38.2,107.34
				c-0.91-1.17-5.17-4.81-5.3-5.3c-1.52-5.96,11.16-58.13,17.29-71.93C854.09,270.72,868.01,252.47,874.49,251.54z"/>
			<path class="st3" d="M860.55,252.65c0.51-0.03,1.17-0.15,1.39,0.28c-24.87,25.1-29.13,62.13-35.97,95.07
				c-2.37-2.65-2.37-2.65-4.74-5.3c3.71-20.44,11.18-75.24,29.83-86.15C852.03,256,860.04,252.68,860.55,252.65z"/>
			<path class="st3" d="M1002.19,330.72c-6.24,32.52-23.16,77.41-44.05,103.16C972.78,399.48,983.87,363.43,1002.19,330.72z"/>
			<path class="st3" d="M1080.81,476.82c-1.61,11.38-6.8,21.84-13.66,30.95c-7.12,9.45-40.53,41.12-44.33,40.43
				c-0.45-0.08-3.68-4.24-3.62-4.74C1039.91,523.91,1068.72,502.58,1080.81,476.82z"/>
			<path class="st3" d="M1016.69,291.13c12.3,13.4,0.65,30.2-3.07,44.33c-5.04,19.13-5.52,35.51-17.56,52.69
				c5.6-17.35,7.6-43.33,11.43-58.27C1010.78,317.02,1019.38,305.09,1016.69,291.13z"/>
			<path class="st3" d="M840.48,256.56c-10.24,18.26-15.8,38.5-20.35,58.83c-3.01,13.44-2.76,30.21-8.36,16.73
				C817.21,305.79,819.15,275.73,840.48,256.56z"/>
			<path class="st3" d="M1073.56,507.49c0.42,0.14,0.42,0.14,0.84,0.28c-7.21,14.36-15.83,26.62-27.6,37.64
				c-1.68,1.58-14.07,12.83-15.06,12.83c-0.32,0-4.25-4.1-4.18-4.74c0.14-1.34,15.26-12.68,20.35-17.56
				C1057.08,527.12,1065.94,517.66,1073.56,507.49z"/>
			<path class="st3" d="M986.85,347.45c-0.84,0.14-0.84,0.14-1.67,0.28c5.06-16.93,13.96-32.45,17.29-49.91
				c0.19,0.28,0.32,4.09,5.3,2.23c2.73-1.02,0.43-3.85,1.95-5.02C1011.65,309.13,993.41,333.97,986.85,347.45z"/>
			<path class="st3" d="M1028.95,302.84c7.31,17.78-8,45.3-16.73,61.9C1015.35,343.37,1026.07,324.05,1028.95,302.84z"/>
			<path class="st3" d="M865.57,274.96c-3.04,12.52-7.88,24.54-10.87,37.08c-4.18,17.56-5.62,35.79-10.32,53.25
				c-0.35-0.49-1.31-1.1-1.39-1.39C841.63,359.49,855.89,285.85,865.57,274.96z"/>
			<path class="st3" d="M829.88,258.23c0.42,0.42,0.42,0.42,0.84,0.84c-9.83,11.66-15.27,26.04-19.8,40.43
				c-0.72-1.33-5.2-4.06-5.3-4.74C805.11,290.99,818.25,264.03,829.88,258.23z"/>
			<path class="st3" d="M917.43,252.1c-10.78,14.55-18.48,30.9-24.54,47.96C896.22,282.4,900.67,261.95,917.43,252.1z"/>
			<path class="st3" d="M1043.73,378.68c-7.15,14.4-15.08,24.22-24.54,36.8c-3.43-0.35-1.72-1.97-0.56-4.18
				c2.05-3.91,18.72-25.32,23.14-33.74C1042.75,378.12,1042.75,378.12,1043.73,378.68z"/>
			<path class="st3" d="M1009.71,295.03c-1.52,1.17,0.78,4-1.95,5.02c-4.98,1.86-5.11-1.95-5.3-2.23c-0.81-1.2-0.23-2.87-3.35-3.9
				c1.58-8.95-2.26-14.23-1.39-14.5C1002.24,283.05,1008.88,288.97,1009.71,295.03z"/>
			<path class="st3" d="M1045.4,327.38c0.14,4.81-2.16,7.65-6.13,3.9c-0.69-0.65-1.95-4.21-2.23-5.58
				c1.15-4.48,1.25-9.38,1.95-13.94C1042.01,316.72,1044.97,321.41,1045.4,327.38z"/>
			<path class="st3" d="M1060.46,540.39c-2.15,3.69-16.87,24.18-19.8,24.54c-0.7,0.09-4.18-2.73-4.18-3.07
				C1043.64,556.72,1055.16,544.3,1060.46,540.39z"/>
			<path class="st3" d="M799.77,273.29c0.42,0.42,0.42,0.42,0.84,0.84c-3.49,5.44-3.49,5.44-6.97,10.87
				C781.54,279.42,785.98,281.43,799.77,273.29z"/>
			<path class="st3" d="M810.37,269.94c0.71-0.2,0.87,0.17,0.84,0.84c-0.06,1.14-9.62,17.16-10.32,20.35
				c-0.93-1.48-3.01-1.66-3.07-3.07C797.78,286.95,809.21,270.27,810.37,269.94z"/>
			<path class="st3" d="M991.59,384.25c-0.98,4.6-0.98,4.6-1.95,9.2C977.92,415.86,986.91,393.66,991.59,384.25z"/>
			<path class="st3" d="M947.26,259.35c1.98,4.99-3.05,5.52-6.13,2.23C943.37,260.41,944.63,259.58,947.26,259.35z"/>
			<path class="st3" d="M1060.46,540.39c0.06-0.04,0.53-1.49,1.12-0.84C1061.8,540.74,1060.49,540.32,1060.46,540.39z"/>
			<g>
				<path class="st3" d="M756.84,300.61c7.29-1.3,15.08,4.74,20.63,8.92c7.74,5.83,77.41,74.39,90.06,87.27
					c26.15,26.63,50.66,54.93,76.95,81.41c20.22,20.36,41.85,39.15,61.9,59.67c5.29,5.41,9.81,11.83,15.06,17.29
					c5.88,6.11,12.49,11.23,18.4,17.29c-5.16,4.32-5.16,4.32-10.32,8.64c-17.77-12.4-31.34-29.65-46.84-44.61
					c-10.4-10.04-21.42-19.49-31.78-29.55c-32.33-31.4-63.69-63.86-95.91-95.35c-13.71-13.4-28.04-26.25-41.82-39.59
					c-22.04-21.34-41.47-45.43-67.75-61.62C748.27,307.94,753.37,301.23,756.84,300.61z"/>
				<path class="st3" d="M1014.73,577.19c-0.88,13.93-10.86,8.65-11.71,9.76c0.87,0.75,1.54,1.59,2.23,2.51
					c-36.19-33.83-72.2-67.77-109.01-100.93C870.95,460.96,753.95,349.58,742.06,331c-6.72-10.49-2.91-15.39,4.74-11.99
					c15.52,6.91,46.26,42.23,60.22,55.76c55.69,53.97,111.75,107.59,167.29,161.71C987.99,549.82,1000.75,564.17,1014.73,577.19z"/>
				<path class="st3" d="M733.14,332.95c1.03,3,3.66,4.96,5.58,7.25c0.56,0.78,1.13,1.49,1.67,2.23c0.09,0.2-0.28,1.28,1.12,1.67
					c4.93,6.56,13.15,17.25,19.24,22.3c2.03,1.69,8.52,7.62,8.09,3.35c41.45,42.78,85.32,83.31,126.3,126.58
					c35.92,30.27,68.95,63.53,102.88,95.91c-2.57,5.62-8.3,7.17-13.38,9.48c-6.68-3.99-10.3-8.19-15.61-13.38
					c-0.33-0.32-1.62-3.63-3.35-5.3c-3.99-3.86-9.67-7.58-13.66-11.43c-8.56-8.28-16.26-17.61-25.09-25.65
					c-38.46-33.74-76.61-67.88-112.36-104.55c-28.56-33.11-60.76-63.44-84.76-100.09c-0.37-4.05-0.04-5.23,2.23-8.36
					C732.42,332.99,732.94,332.87,733.14,332.95z"/>
				<path class="st3" d="M775.24,285c10.1-1.83,28.14,15.69,35.97,22.03c-2.37,10.73-2.37,10.73-4.74,21.47
					c-13.42-12.92-26.91-27.59-44.33-34.85C761.82,292.92,774.24,285.18,775.24,285z"/>
				<path class="st3" d="M969.01,588.34c-36.62-31.65-70.43-66.29-107.9-97.03c-25.93-27.1-116.18-115.85-128.53-142.47
					c-1.11-2.39-2.54-4.83-2.79-7.53c24,36.65,56.2,66.98,84.76,100.09c35.75,36.67,73.9,70.82,112.36,104.55
					c8.83,8.04,16.53,17.37,25.09,25.65c3.99,3.85,9.67,7.57,13.66,11.43C967.39,584.71,968.68,588.02,969.01,588.34z"/>
				<path class="st3" d="M1005.25,589.46c-0.69-0.92-1.36-1.76-2.23-2.51c0.85-1.11,10.83,4.17,11.71-9.76
					c1.56,1.45,11.28,8.52,11.15,9.76c-5.72,4.6-5.72,4.6-11.43,9.2C1012.33,596.5,1006.61,591.28,1005.25,589.46z"/>
				<path class="st3" d="M984.62,601.72c5.08-2.31,10.81-3.86,13.38-9.48c2.96,2.83,6.38,5.39,9.48,8.09
					C997.49,607.51,994.95,607.89,984.62,601.72z"/>
				<path class="st3" d="M768.82,369.75c0.44,4.28-6.05-1.66-8.09-3.35c-6.09-5.06-14.31-15.74-19.24-22.3
					c-0.32-0.42-0.72-1.13-1.12-1.67c-0.82-1.78-0.84-1.24-1.67-2.23c-1.37-1.9-3.33-6.34-5.58-7.25c-0.2-0.08-0.72,0.04-1.12,0
					c0.06-0.08,0.24-1.27,0.56-1.95c0.56,0,0.56,0,1.12,0C744.51,344.6,756.72,357.26,768.82,369.75z"/>
				<path class="st3" d="M738.71,340.2c-1.92-2.29-4.55-4.25-5.58-7.25C735.38,333.86,737.34,338.3,738.71,340.2z"/>
				<path class="st3" d="M740.39,342.43c-0.54-0.74-1.11-1.45-1.67-2.23C739.55,341.19,739.57,340.65,740.39,342.43z"/>
				<path class="st3" d="M741.5,344.1c-1.39-0.39-1.02-1.48-1.12-1.67C740.78,342.97,741.18,343.68,741.5,344.1z"/>
			</g>
		</g>
		<g>
			<path class="st3" d="M825.7,587.78c-2.46,2.1,0.3,6.1-8.36,2.79c-0.03-1.24-0.28-1.68-0.56-2.79c-0.28-1.1,0.58-2.49-0.84-3.35
				c-1.76,1.28-4.2,0.48-5.85-0.56c2.22-14.25,8.05-29.07,11.15-43.22c10.73-29.41,10.73-29.41,21.47-58.83
				c2.17,2.72,6.76,5.3,6.41,8.09C841.33,522.59,832.98,555.03,825.7,587.78z"/>
			<path class="st3" d="M757.95,393.73c6.89,5.33,1.93,5.26,2.51,6.41c0.36,0.72,4.09-2.35,3.9,1.67
				c-0.08,1.79-14.58,27.12-16.73,31.78c-15.61,33.89-26.67,63.51-28.72,101.21C704.59,494.09,733.44,427.4,757.95,393.73z"/>
			<path class="st3" d="M824.31,462.88c2.43,2.67,4.94,3.5,4.18,7.53c-12.83,55.76-12.83,55.76-25.65,111.52
				c-1.67,10.33-2.26,20.53-0.84,30.95C780.92,586.75,816.99,498.84,824.31,462.88z"/>
			<path class="st3" d="M787.78,595.59c-2.93-1.59,1.97-6.28-7.25-2.79c-3.14-25.85,10.1-83.67,17.84-110.13
				c1.18-4.04,9.76-33.61,11.43-34.29c0.28-0.11,3.58,3.17,3.62,4.74c0.09,2.99-14.26,49.26-14.5,57.99
				C796.69,535.89,785.4,572.38,787.78,595.59z"/>
			<path class="st3" d="M792.52,430.53c0.75,0.99,4.08,3.75,4.18,4.18c1,4.14-19.34,52.91-26.21,80.85
				c-5.37,21.85-12.07,53.17-10.32,75c-4.17-4.78-5.03-11.96-5.3-18.12C753.23,534.75,779.75,467.7,792.52,430.53z"/>
			<path class="st3" d="M801.44,440.01c7.31,4.77,2.17,7.96-1.39,18.68c-4.68,14.09-9.75,28.55-13.38,42.94
				c-5.73,22.69-17.31,78.55-12.55,99.53c-14.76-12.58,1.17-81.91,6.41-101.21C786.07,479.58,794.87,460.06,801.44,440.01z"/>
			<path class="st3" d="M769.1,404.88c0.16-0.02,1.5,1.62,1.95,1.95c-5.16,12.91-10.52,25.89-15.06,39.03
				c-10.58,30.63-25.09,73.61-29.27,104.55c-3.78-31.32,12.97-85.37,25.93-114.59C754.22,432.29,767.36,405.06,769.1,404.88z"/>
			<path class="st3" d="M775.24,411.58c1.81,2.09,1.81,2.09,3.62,4.18c-7.25,24.63-16.95,48.54-24.54,73.05
				c-7.81,25.22-15.96,50.88-18.12,77.23c-2.25-7-2.48-14.69-1.95-22.03C735.86,521.82,764.97,437.5,775.24,411.58z"/>
			<path class="st3" d="M783.04,419.94c2.37,2.93,2.37,2.93,4.74,5.85c-14.05,45.64-41.04,105.78-39.87,152.51
				c-1.6-2.09-3.77-5.52-4.18-8.09C739.09,541.18,774.21,452.5,783.04,419.94z"/>
			<path class="st3" d="M859.72,575.52c-0.21-6.74-2.35,2.95-6.69,11.43c-2.27,4.44-9.67,17.28-12.83,20.35
				c-1.98,1.94-9.31,6.85-12.27,6.69c25.57-32.79,29.21-67.79,40.15-106.78c1.16-1.8,6.65,3.29,5.58,5.58
				C868.17,533.46,864.88,554.78,859.72,575.52z"/>
			<path class="st3" d="M747.91,380.91c0.97-0.21,5.35,6.09,5.3,6.97c-0.09,1.61-12.51,20.59-16.17,27.88
				c-13.48,26.84-28.57,62.82-28.16,92.84C700.89,465.75,726.95,417.55,747.91,380.91z"/>
			<path class="st3" d="M855.53,494.1c3.76,3.76,3.76,3.76,7.53,7.53c-8.76,31.65-15.06,68.95-31.51,97.3
				C837.08,563.48,848.15,529.19,855.53,494.1z"/>
			<path class="st3" d="M739.55,370.31c2.09,2.93,2.09,2.93,4.18,5.85c-16.23,29.62-40.38,71.1-41.54,104.55
				C695.76,449.11,721.38,396.61,739.55,370.31z"/>
			<path class="st3" d="M870.31,605.07c-2.02-2.4-6.88,3.7-13.94,5.58c11.05-16.07,15.47-32,23.42-47.12
				c1.71-3.25,17.46-29.82,19.24-29.83c0.2,0,2.49,2.25,2.51,3.07c0.02,1.11-7.53,12.47-10.59,19.52
				C883.24,574.01,881.38,587.9,870.31,605.07z"/>
			<path class="st3" d="M731.74,360.27c6.98,5.51,0.24,8.84-5.85,19.8c-12.04,21.66-22.51,44.5-27.6,68.87
				C698.71,416.05,708.8,384.36,731.74,360.27z"/>
			<path class="st3" d="M883.14,609.53c-3.07-1.67-3.07-1.67-6.13-3.35c8.14-14.38,24.65-65.9,29.27-66.36
				c0.33-0.03,4.72,3.77,4.74,4.74C900.8,565.19,894.87,589.96,883.14,609.53z"/>
			<path class="st3" d="M908.79,618.45c-2.77-0.9-3.57-3.95-7.25-2.79c8.45-12.43,18.73-42.51,24.26-57.99
				c1.32,1.81,5.22,4.09,5.3,6.41C931.18,567.03,917.6,607.36,908.79,618.45z"/>
			<path class="st3" d="M897.08,610.65c-1-2.21-2.96-4.3-5.58-3.9c9.1-17.4,16.02-40.33,24.26-58.55c0.82,1.05,5.24,4.93,5.3,5.3
				C921.51,556.56,903.59,600.69,897.08,610.65z"/>
			<path class="st3" d="M816.78,587.78c-0.01,3.7-1.85,7.28-2.23,10.87c-1.6,15.22,0.11,23.83,2.23,2.23
				c0.16-1.66,0.58-9.1,0.56-10.32c8.66,3.31,5.9-0.69,8.36-2.79c-1.03,4.63-1.96,13.18-2.79,15.89
				c-2.69,8.81-12.85,19.52-14.5,6.13c-0.81-6.56,0.59-19,1.67-25.93c1.66,1.04,4.09,1.83,5.85,0.56
				C817.36,585.29,816.5,586.68,816.78,587.78z"/>
			<path class="st3" d="M879.51,515.85c0.8,1.36,4.48,3.26,4.74,4.18c1.65,5.82-14.93,52.81-19.24,61.62
				C868.37,559.41,874.28,537.7,879.51,515.85z"/>
			<path class="st3" d="M929.42,619.57c-2.79-0.68-3.16-4.25-6.13-3.9c10.78-13.19,22.01-37.91,24.26-37.92
				c0.32,0,4.21,4.06,4.18,4.74C951.64,584.65,932.15,616.38,929.42,619.57z"/>
			<path class="st3" d="M965.94,595.03c4.32,3.76,4.32,3.76,8.64,7.53c-11.24,9.04-22.8,17.73-35.41,24.81
				C949.5,617.78,957.05,605.86,965.94,595.03z"/>
			<path class="st3" d="M955.9,586.11c0.77-0.12,5.38,4.49,5.3,5.3c-0.27,2.55-27.07,36.74-33.18,38.75
				C939.78,621.2,953.32,586.5,955.9,586.11z"/>
			<path class="st3" d="M870.31,605.07c-4.54,7.03-17.52,23.2-25.93,24.54c-8.5,1.36,3.24-6.24,11.99-18.96
				C863.43,608.77,868.29,602.67,870.31,605.07z"/>
			<path class="st3" d="M883.14,609.53c-4.01,6.68-14.82,21.17-22.58,22.86c-12.48,2.72-0.34-3.47,5.3-9.76
				c3.45-3.84,8.54-11.84,11.15-16.45C880.07,607.86,880.07,607.86,883.14,609.53z"/>
			<path class="st3" d="M845.78,610.09c-7.27,10.26-11.53,15.77-25.09,11.43c2.32-2.52,5.14-4.83,7.25-7.53
				c2.96,0.16,10.28-4.75,12.27-6.69C842.4,610.11,845.34,607.08,845.78,610.09z"/>
			<path class="st3" d="M936.39,567.71c2.93,3.49,2.93,3.49,5.85,6.97C913.43,622.41,920.85,614.19,936.39,567.71z"/>
			<path class="st3" d="M859.72,575.52c-3.49,14.03-5.28,22.36-13.94,34.57c-0.43-3-3.37,0.02-5.58-2.79
				c3.15-3.08,10.56-15.91,12.83-20.35C857.36,578.46,859.51,568.78,859.72,575.52z"/>
			<path class="st3" d="M897.08,610.65c-6.61,10.11-14.36,18.46-25.93,22.86c9.37-8.61,14.49-15.56,20.35-26.77
				C894.12,606.35,896.08,608.43,897.08,610.65z"/>
			<path class="st3" d="M834.34,473.47c0.26-0.04,3.02,2.55,3.07,4.18c0.09,2.84-13.23,40.81-15.89,47.68
				C827.93,499.4,827.93,499.4,834.34,473.47z"/>
			<path class="st3" d="M929.42,619.57c-4.53,5.28-10.32,10.12-17.01,12.27c-15.76,5.05-6.25,0.52-1.12-3.9
				c2.62-2.25,9.82-9.62,11.99-12.27C926.25,615.31,926.63,618.89,929.42,619.57z"/>
			<path class="st3" d="M908.79,618.45c-6.69,8.42-14.59,13.59-25.37,15.61c6.71-5.38,13.27-11.26,18.12-18.4
				C905.21,614.5,906.01,617.56,908.79,618.45z"/>
			<path class="st3" d="M817.62,456.74c0.57-0.24,1.93,1.95,1.95,2.51c0.12,3.27-15.22,54.08-16.45,63.29
				C805.39,500.11,812.6,478.63,817.62,456.74z"/>
			<path class="st3" d="M787.78,595.59c0.98,9.48,3.45,12.96,3.35,13.66c-0.09,0.6,0.11,0.96-0.84,0.84
				c-8.23-4.58-8.67-8.35-9.76-17.29C789.76,589.31,784.86,594,787.78,595.59z"/>
			<path class="st3" d="M980.44,607.86c0.26-0.01,4.34,2.55,4.46,2.79c1.06,2.1-23.54,12.41-27.04,12.55
				C963.47,621.44,979.08,607.89,980.44,607.86z"/>
			<path class="st3" d="M890.11,525.89c8.05,3.88,0.71,7.16-4.46,17.84C887.88,534.81,887.88,534.81,890.11,525.89z"/>
			<path class="st3" d="M817.34,590.57c0.03,1.21-0.4,8.66-0.56,10.32c-2.12,21.6-3.83,12.99-2.23-2.23
				c0.38-3.6,2.22-7.17,2.23-10.87C817.06,588.89,817.31,589.34,817.34,590.57z"/>
		</g>
	</g>
</g>
</svg>
