<?xml version="1.0" encoding="utf-8"?>
<!-- Generator: Adobe Illustrator 28.0.0, SVG Export Plug-In . SVG Version: 6.00 Build 0)  -->
<svg version="1.1" id="Layer_1" xmlns="http://www.w3.org/2000/svg" xmlns:xlink="http://www.w3.org/1999/xlink" x="0px" y="0px"
	 viewBox="0 0 190 202" style="enable-background:new 0 0 190 202;" xml:space="preserve">
<style type="text/css">
	.st0{display:none;}
	.st1{display:inline;fill:#A8C9B7;}
	.st2{display:inline;fill:#CBCFBF;}
	.st3{display:inline;fill:#D1EEE5;}
	.st4{display:inline;fill:#CEDFDC;}
	.st5{display:inline;fill:#B9C3B8;}
	.st6{display:inline;fill:#B78B94;}
	.st7{display:inline;fill:#E2F3EC;}
	.st8{display:inline;fill:#FFDDAD;}
	.st9{display:inline;fill:#E9ECD5;}
	.st10{display:inline;fill:#F5E5C6;}
	.st11{display:inline;fill:#F4DBC1;}
	.st12{display:inline;fill:#ABD3CD;}
	.st13{display:inline;fill:#C9FF8B;}
	.st14{display:inline;fill:#FDCFA6;}
	.st15{display:inline;fill:#C9D2BB;}
	.st16{display:inline;fill:#C1CAB3;}
	.st17{fill:#0D6679;}
	.st18{fill:url(#SVGID_1_);}
	.st19{fill:#A00B4D;}
	.st20{fill:#95D1C7;}
	.st21{fill:#396E6E;}
	.st22{fill:#C9644A;}
	.st23{fill:#AA1155;}
	.st24{fill:#C9FF8B;}
	.st25{fill:#F5994B;}
	.st26{fill:#D97C2E;}
	.st27{fill:#FD9C4A;}
	.st28{fill:#9A0A4D;}
	.st29{fill:#0DB0B3;}
	.st30{fill:#FC9E4F;}
	.st31{fill:#2E9068;}
	.st32{fill:#63043C;}
	.st33{fill:url(#SVGID_00000030444573423289610800000016395025901813997458_);}
	.st34{fill:#004F5B;}
	.st35{fill:#085F68;}
	.st36{fill:#2D0631;}
	.st37{fill:#2E757B;}
	.st38{fill:#49867C;}
	.st39{fill:#CEDFDC;}
	.st40{fill:#CBCFBF;}
	.st41{display:inline;fill:#778783;}
	.st42{display:inline;fill:#858287;}
	.st43{display:inline;fill:#6F8783;}
	.st44{display:inline;fill:#808486;}
	.st45{display:inline;fill:#868A86;}
	.st46{display:inline;fill:#856D5E;}
	.st47{display:inline;fill:#7F908C;}
	.st48{display:inline;fill:#986031;}
	.st49{display:inline;fill:url(#SVGID_00000090269166862881249050000005022978449826171047_);}
	.st50{display:inline;fill:#986735;}
	.st51{display:inline;fill:url(#SVGID_00000111909800487888995830000005449296047648113849_);}
	.st52{display:inline;fill:url(#SVGID_00000119813897339137230240000012989918820862782091_);}
	.st53{display:inline;fill:#96572E;}
	.st54{fill:url(#SVGID_00000155137149250239527300000006877170608279571087_);}
	.st55{fill:#7B9C56;}
	.st56{fill:#90733A;}
	.st57{fill:url(#SVGID_00000173152440974341576780000002356048951241743786_);}
	.st58{fill:#4E0A2A;}
	.st59{fill:#2A0516;}
	.st60{fill:url(#SVGID_00000150100693017574909570000017668331380009060782_);}
	.st61{fill:url(#SVGID_00000082358903405784622490000017631883841962481339_);}
	.st62{fill:#070C0B;}
	.st63{fill:#0B1515;}
	.st64{fill:#6F5433;}
	.st65{fill:url(#SVGID_00000124145591428261292500000001940794007234584206_);}
	.st66{fill:#470824;}
	.st67{display:inline;fill:#DBFEBA;}
	.st68{fill:#F2E8EF;}
	.st69{fill:#473169;}
	.st70{fill:#B21A5B;}
	.st71{fill:#4D51A8;}
	.st72{fill:#C9FE8C;}
	.st73{fill:#6DB985;}
	.st74{fill:#C9F17C;}
	.st75{fill:#CAFE80;}
	.st76{fill:#65967E;}
	.st77{fill:#643172;}
	.st78{fill:#72BC85;}
	.st79{fill:#528D7D;}
	.st80{fill:#CCD8D7;}
	.st81{fill:#F99D50;}
	.st82{fill:#FA9E50;}
	.st83{fill:#96104D;}
	.st84{fill:url(#SVGID_00000137125801820628722710000001784650514724383902_);}
	.st85{fill:#F69A4B;}
	.st86{fill:#A91355;}
	.st87{fill:#B41C5D;}
	.st88{fill:#FBA161;}
	.st89{fill:#8196B7;}
	.st90{fill:#373964;}
	.st91{fill:#5B9F69;}
	.st92{fill:#A4DD74;}
</style>
<g>
	<g id="Background_00000091714511640130201690000012000003128496117173_" class="st0">
		<path class="st41" d="M200.04,33.43c4.23,0.03,8.46-0.02,12.69,0c0.02,5.07-0.03,10.15,0,15.22
			c-18.24,8.09-34.16,20.37-50.28,31.94c-0.61,1.03,6.89,0.34,8.88,0.12c12.14-1.35,26.5-7.29,37.6-12.45
			c1.3-0.61,1.87-1.57,3.81-1.61c0.01,5.07-0.01,10.15,0,15.22c-16.59,5.31-33.65,9.89-51.2,9.23c-1.22-4.49-4.44-12.77-6.69-16.84
			C172.32,63.83,187.52,49.46,200.04,33.43z"/>
		<path class="st42" d="M200.04,33.43c-12.52,16.03-27.72,30.41-45.21,40.82c-4.67-8.45-14.32-18.55-22.14-24.22
			c8.44-6.67,18.58-10.6,27.45-16.61C173.44,33.44,186.74,33.33,200.04,33.43z"/>
		<path class="st42" d="M29.82,33.43c2.51,2.68,22.83,18.04,23.3,19.49c0.11,0.34-0.12,0.54-0.23,0.81
			c-7.33,5.23-15.71,14.05-20.07,21.91c-3.2-1.9-6.05-4.2-9-6.46C17.42,63.6,10.98,58.06,4.91,52.11C1.42,48.68-1.83,45.1-5.12,41.5
			c-0.07-0.08-0.58,0.14-0.81-0.12c-0.38-0.42,0.02-0.67,0-0.69c-0.84-0.93-6.04-6.49-6.23-6.92c-0.01-0.03,0.28-0.17,0.23-0.35
			C1.99,33.31,15.91,33.44,29.82,33.43z"/>
		<path class="st43" d="M32.59,33.43c21.1,0,21.1,0,42.21,0c0.46,0,0.92,0,1.38,0c2.42,0,2.42,0,4.84,0c0.31,0,0.62,0,0.92,0
			c0.69,0,0.69,0,1.38,0c14.84-0.01,29.68-0.01,44.51,0c2.19,0,2.19,0,4.38,0c6.38,0,12.76-0.01,19.14,0c1.5,0,1.5,0,3,0
			c1.92,0,3.84,0,5.77,0c-8.87,6.01-19.01,9.94-27.45,16.61c-2.32-1.68-6.19-3.94-8.76-5.3c-0.26-0.14-0.43-0.33-0.69-0.46
			c-22.13-11.11-50.88-4.42-70.35,9.46c0.11-0.27,0.34-0.46,0.23-0.81c-0.47-1.45-20.78-16.81-23.3-19.49
			C30.75,33.43,31.67,33.43,32.59,33.43z"/>
		<path class="st41" d="M6.07,103.31c5.38,2.16,14.34,6.37,19.95,6.46c1.07,0.02,1.71,0.19,2.19-0.92c0.5,3.29,1.63,7.36,2.54,10.61
			c-0.69,1.38,3.85,11,3.34,11.3c-5.73-1.66-11.26-3.52-17.3-4.38c-14.35-1.37-18.21,3.75-28.14,11.53
			c-0.46,0.36-0.46,1.02-0.92,1.38c-0.03,0.02-0.21-0.38-0.69,0c-3.35,2.64-6.58,5.55-10.49,7.38c-0.02-5.07,0.01-10.15,0-15.22
			c0.4,0,0.4,0,0.81,0c4.71-3.67,13.8-9.76,19.14-11.76c12.52-4.7,22.24-1.98,22.26-3.11c-5.48-2.25-5.48-2.25-10.96-4.5
			c-8.41-2.54-21.87-2.12-31.25-3.46c0-2.92,0-5.84,0-8.76c6.3,0.76,12.49,2.3,18.8,3c1.73,0.19,4.6-0.06,5.3,0
			C0.92,102.87,3.49,104.15,6.07,103.31z"/>
		<path class="st41" d="M212.73,103.54c0,3.15,0,6.3,0,9.46c-7.29,0.41-25.53-1.8-29.64-1.38c-2.15,0.22-10.2,3.49-13.03,4.73
			c-0.1,0.74,7.72,1.7,8.65,1.96c0.48,0.14,4.56,1.63,5.77,2.08c9.59,3.5,18.34,9.44,28.25,11.99c-0.01,5.23,0.02,10.46,0,15.68
			c-5.36-2.65-5.36-2.65-10.73-5.3c-6.54-5.13-13.74-8.66-20.76-12.45c-5.23-1.94-11.28-3.89-16.84-4.38
			c-0.17-0.01,0.14,0.51-0.69,0.46c-0.11-0.01-0.73-1.12-1.96-0.23c1.51-5.4,2.31-11.08,3.23-16.61c0.6,0.92,6.09-0.17,8.65-0.69
			c5.25-1.07,10.5-2.89,15.57-4.61c0.33,0.69,4.33,0.54,6.57,0.46C201.43,104.5,207.05,103.51,212.73,103.54z"/>
		<path class="st44" d="M180.44,150.36c10.3,6.22,21.13,11.67,32.29,16.15c-0.03,0.41,0.06,0.9,0,1.15
			c-13.84,0.02-27.68-0.04-41.52,0c-1.09-0.65-3.27,0.09-4.27-0.23c-0.31-0.1-4.26-3.61-5.07-4.15
			c-6.27-4.21-13.08-8.47-18.57-13.61c1.64-0.51,3.58-1.44,5.07-2.31c4.12-2.37,6.8-5.79,9-9.92
			C165.29,141.28,172.42,146.71,180.44,150.36z"/>
		<path class="st44" d="M35.36,132.83c1.82,4.55,3.66,9.41,6.92,13.15c-10.77,3.45-18.43,12.86-24.91,21.68c-0.23,0-0.46,0-0.69,0
			c-13.38-0.02-26.75,0.01-40.13,0c-0.12-0.59,0.02-2.58,0-3.69c11.63-3.11,22.48-8.17,32.75-14.3c3.69-2.2,7.39-4.53,10.96-6.92
			c1.97-1.32,13.45-9.95,14.3-10.15C34.59,132.59,34.72,132.96,35.36,132.83z"/>
		<path class="st41" d="M-11.92,33.43c0.05,0.17-0.25,0.31-0.23,0.35c0.19,0.43,5.39,5.99,6.23,6.92c0.02,0.03-0.38,0.28,0,0.69
			c0.23,0.25,0.73,0.03,0.81,0.12c3.28,3.6,6.54,7.18,10.03,10.61c5.67,6.37,12.16,11.91,18.91,17.07c2.95,2.25,5.79,4.56,9,6.46
			c-1.07,1.94-1.94,3.94-2.77,6c-1.41-1.53-5.67-2.01-9.11-3.46c-5.93-2.49-13.67-7.82-18.91-11.76
			c-4.83-3.63-22.34-18.83-24.45-20.07c-0.27-0.16-0.71-0.27-1.04-0.23c0.03-4.23-0.02-8.46,0-12.69
			C-19.61,33.4-15.77,33.46-11.92,33.43z"/>
		<path class="st44" d="M212.73,81.86c0.01,4.46,0,8.92,0,13.38c-7.92,2.76-15.59,6.3-23.53,9c-5.07,1.72-10.32,3.54-15.57,4.61
			c-2.56,0.52-8.05,1.61-8.65,0.69c0.62-3.73,1.15-7.51,2.08-11.19c-0.23-0.65-3.31,0.15-3.92,0.35c-0.68-2.49-0.94-5.12-1.61-7.61
			C179.07,91.75,196.14,87.17,212.73,81.86z"/>
		<path class="st43" d="M35.36,132.83c-0.64,0.12-0.77-0.24-0.81-0.23c-0.85,0.2-12.33,8.83-14.3,10.15
			c-3.57,2.39-7.27,4.72-10.96,6.92c-1.23-0.69-5.63,2.7-6.23,1.5c-0.32-2.35-2.4-4.02-0.23-7.84c-0.97-3.63,2.02-5.44-3.34-3.34
			c-0.99,0.39-5.7,3.17-7.84,4.15c-0.22,0.1-0.93-0.1-1.15,0c-0.86,0.39-0.85,0.89-0.92,0.92c-4.28,1.96-8.51,3.93-13.03,5.3
			c0-1.23,0-2.46,0-3.69c3.91-1.83,7.15-4.74,10.49-7.38c0.48-0.38,0.66,0.02,0.69,0c0.46-0.36,0.46-1.02,0.92-1.38
			c9.93-7.79,13.79-12.9,28.14-11.53c6.04,0.86,11.56,2.72,17.3,4.38c0.51-0.3-4.04-9.92-3.34-11.3
			C31.87,123.47,33.8,128.93,35.36,132.83z"/>
		<path class="st44" d="M27.06,92.01c-0.12,0.58-0.12,0.58-0.23,1.15c-0.13,1.64,0.38,3.23,0.46,4.84
			c0.16,3.08,0.48,7.92,0.92,10.84c-0.48,1.12-1.12,0.94-2.19,0.92c-5.62-0.09-14.57-4.3-19.95-6.46
			c-9.88-3.97-19.53-8.53-29.52-12.22c0-4.07-0.01-8.15,0-12.22c9.66,3.23,18.67,9.07,28.48,11.76c3.95,1.08,17.93,3.23,21.22,2.31
			C26.75,92.79,26.36,91.84,27.06,92.01z"/>
		<path class="st43" d="M212.73,148.06c0,1,0,2,0,3c-8.03-1.97-14.76-7.46-22.95-9c-1.92-2.69-2.73-0.15-0.81,1.27
			c-1.61,3.51,0.73,4.7,0.46,6.92c-1.87,2.81,2.15,4.76-6.11,1.5c-0.53-0.21-0.65-0.83-1.38-1.15c-0.1-0.04-0.84,0.07-1.5-0.23
			c-8.02-3.66-15.14-9.08-23.06-12.92c1.86-3.5,3.31-7.49,4.38-11.3c1.23-0.89,1.85,0.22,1.96,0.23c0.83,0.05,0.53-0.48,0.69-0.46
			c5.56,0.49,11.61,2.44,16.84,4.38c7.01,3.79,14.22,7.32,20.76,12.45C207.36,145.41,207.36,145.41,212.73,148.06z"/>
		<path class="st43" d="M212.73,48.65c0.03,6-0.01,11.99,0,17.99c-1.93,0.04-2.5,1.01-3.81,1.61c-11.09,5.16-25.45,11.1-37.6,12.45
			c-1.99,0.22-9.49,0.91-8.88-0.12C178.56,69.02,194.48,56.74,212.73,48.65z"/>
		<path class="st41" d="M29.13,83.71c-0.82,2.35-1.82,5.87-2.08,8.3c-0.69-0.17-0.31,0.78-0.81,0.92
			c-3.29,0.92-17.27-1.22-21.22-2.31c-9.82-2.69-18.83-8.54-28.48-11.76c0.01-4.23-0.01-8.46,0-12.69c2.48,0.58,2.48,0.58,4.96,1.15
			c1.81,1.65,4.85,2.24,7.15,3.23c9.19,3.97,28.51,14.99,37.83,13.84C27.44,84.28,28.31,83.32,29.13,83.71z"/>
		<path class="st43" d="M30.05,81.63c-0.27,0.68-0.68,1.39-0.92,2.08c-0.82-0.39-1.69,0.57-2.65,0.69
			c-9.32,1.15-28.64-9.87-37.83-13.84c-2.3-0.99-5.34-1.58-7.15-3.23c-2.48-0.58-2.48-0.58-4.96-1.15c0.01-6.69-0.05-13.38,0-20.07
			c0.32-0.04,0.77,0.07,1.04,0.23c2.11,1.24,19.62,16.44,24.45,20.07c5.24,3.94,12.98,9.27,18.91,11.76
			C24.39,79.62,28.64,80.1,30.05,81.63z"/>
		<path class="st43" d="M212.73,113c-0.01,6.46,0.01,12.92,0,19.37c-9.92-2.55-18.67-8.49-28.25-11.99
			c-1.21-0.44-5.28-1.94-5.77-2.08c-0.93-0.26-8.75-1.22-8.65-1.96c2.83-1.23,10.89-4.51,13.03-4.73
			C187.19,111.2,205.43,113.4,212.73,113z"/>
		<path class="st43" d="M-23.46,131.45c-0.01-7.61,0.01-15.22,0-22.83c9.38,1.33,22.84,0.92,31.25,3.46
			c5.48,2.25,5.48,2.25,10.96,4.5c-0.02,1.13-9.74-1.59-22.26,3.11c-5.34,2.01-14.43,8.09-19.14,11.76
			C-23.05,131.45-23.05,131.45-23.46,131.45z"/>
		<path class="st41" d="M9.3,149.67c-10.27,6.13-21.12,11.19-32.75,14.3c-0.09-4.53,0.02-9.08,0-13.61
			c4.52-1.37,8.75-3.34,13.03-5.3c0.07-0.03,0.07-0.53,0.92-0.92c0.22-0.1,0.93,0.1,1.15,0c2.14-0.98,6.85-3.76,7.84-4.15
			c5.37-2.1,2.37-0.29,3.34,3.34c-2.17,3.82-0.09,5.49,0.23,7.84C3.66,152.38,8.07,148.98,9.3,149.67z"/>
		<path class="st41" d="M212.73,151.06c-0.02,4.59,0.27,11.46,0,15.45c-11.16-4.48-21.99-9.93-32.29-16.15
			c0.66,0.3,1.4,0.19,1.5,0.23c0.73,0.32,0.85,0.94,1.38,1.15c8.26,3.26,4.24,1.31,6.11-1.5c0.27-2.22-2.07-3.41-0.46-6.92
			c-1.93-1.42-1.11-3.96,0.81-1.27C197.96,143.6,204.69,149.09,212.73,151.06z"/>
		<path class="st42" d="M42.28,145.98c1.39,1.59,3.43,3.43,5.3,4.38c-0.87-0.14-0.31,2.79-0.46,5.07
			c-4.03,0.5-10.52,8.95-13.38,12.22c-0.04,0.04-0.62-0.24-0.46,0.69c-0.15,0-0.31,0-0.46,0c0.22-0.25,0.21-0.63-0.12-0.69
			c-0.99-0.19-12.37,0-15.34,0C23.85,158.84,31.5,149.43,42.28,145.98z"/>
		<path class="st43" d="M6.07,103.31c-2.58,0.83-5.14-0.44-5.42-0.46c-0.71-0.06-3.58,0.19-5.3,0c-6.31-0.7-12.5-2.24-18.8-3
			c0-2.92,0-5.84,0-8.76C-13.46,94.78-3.81,99.35,6.07,103.31z"/>
		<path class="st43" d="M212.73,95.24c0,2.77,0,5.54,0,8.3c-5.67-0.03-11.29,0.96-16.95,1.15c-2.24,0.08-6.25,0.23-6.57-0.46
			C197.13,101.54,204.81,98,212.73,95.24z"/>
		<path class="st41" d="M33.74,167.66c37.36,0.35,74.73,0.33,112.09,0.23c0.18,0,0.2-0.23,0.69-0.23c0,0.35,0,0.35,0,0.69
			c-37.75,0.03-75.5,0.03-113.25,0C33.13,167.42,33.71,167.71,33.74,167.66z"/>
		<path class="st45" d="M212.73,167.66c-0.05,0.2,0.03,0.47,0,0.69c-14.22,0.01-28.45-0.02-42.67,0c0-0.35,0-0.35,0-0.69
			c0.38,0,0.77,0,1.15,0C185.05,167.63,198.89,167.68,212.73,167.66z"/>
		<path class="st45" d="M16.68,167.66c0,0.35,0,0.35,0,0.69c-13.38-0.02-26.76,0.01-40.13,0c-0.03-0.22,0.04-0.48,0-0.69
			C-10.08,167.67,3.3,167.65,16.68,167.66z"/>
		<path class="st46" d="M170.06,167.66c0,0.35,0,0.35,0,0.69c-7.84,0.01-15.68-0.01-23.53,0c0-0.35,0-0.35,0-0.69
			C154.37,167.64,162.21,167.68,170.06,167.66z"/>
		<path class="st46" d="M17.37,167.66c2.97,0,14.34-0.19,15.34,0c0.33,0.06,0.34,0.44,0.12,0.69c-5.38-0.01-10.76,0.01-16.15,0
			c0-0.35,0-0.35,0-0.69C16.91,167.66,17.14,167.66,17.37,167.66z"/>
		<path class="st47" d="M74.8,33.43c-21.1,0-21.1,0-42.21,0C46.66,33.41,60.73,33.43,74.8,33.43z"/>
		<path class="st47" d="M81.03,33.43c-2.42,0-2.42,0-4.84,0C77.8,33.43,79.41,33.43,81.03,33.43z"/>
		<path class="st47" d="M132.23,33.43c-2.19,0-2.19,0-4.38,0C129.31,33.43,130.77,33.43,132.23,33.43z"/>
		<path class="st47" d="M154.37,33.43c-1.5,0-1.5,0-3,0C152.37,33.43,153.37,33.43,154.37,33.43z"/>
		<path class="st47" d="M83.33,33.43c-0.69,0-0.69,0-1.38,0C82.41,33.43,82.87,33.43,83.33,33.43z"/>
		<path class="st48" d="M132.69,50.03c7.82,5.67,17.47,15.77,22.14,24.22c2.25,4.07,5.47,12.34,6.69,16.84
			c0.68,2.49,0.94,5.12,1.61,7.61c-1.01,0.33-2.43,1.33-3.46,1.85c-0.88,0.44-7.25,4.09-7.38,4.5c-0.06,1.63-0.06,3.34-0.23,4.96
			c-1.08,0.17,0.19-2.29-0.23-3.58c-0.11-0.35-2.67-1.96-3.23-2.42c1.13-2.91,11.49-12.47,3.69-22.95c-1.8-2.42-2.4-2.75-3.92-2.65
			c-0.27,0.02-1.76,0.19-1.85,0.23c-1.6-3.15-2.41-2.62-2.54-2.77c-1.16-1.38-3.22-4.51-6.69-8.53c-0.05-0.06,0.06-0.57-0.69-1.5
			c-3.18-3.15-6.31-6.5-10.15-8.88c-0.02-2.14,0.34-4.25,0.69-6.34c-1.61-2.94-1.61-2.94-3.23-5.88
			C126.51,46.09,130.37,48.35,132.69,50.03z"/>
		<linearGradient id="SVGID_1_" gradientUnits="userSpaceOnUse" x1="64.6067" y1="49.9476" x2="83.8682" y2="84.6289">
			<stop  offset="0" style="stop-color:#986031"/>
			<stop  offset="1" style="stop-color:#986031"/>
		</linearGradient>
		<path style="display:inline;fill:url(#SVGID_1_);" d="M123.24,44.27c-1.76,1.67-4.67,3.7-6.23,5.3c-2.46-1.02-5.17-1.51-7.84-1.61
			c0.96-1.31,1.97-2.55,3-3.81c-4.05-4.48-4.4-3.68-9.46-1.96c-1.73,0.59-3.67,1.27-5.3,2.08c-10.55-0.45-24.19,3.5-33.44,8.53
			c-4.84,2.63-11.27,7.52-14.76,11.76c-0.96,0.05-1.92-0.03-2.88,0c-0.4,1.05,0.11,1.1,0.12,1.15c0.14,1.74,1.14,4.81,1.61,6.92
			c-5.06,3.31-6.03,8.41-5.77,14.18c0.24,5.29,2.89,10.29,6.92,13.72c0.12,0.72-0.18,0.95-0.23,1.15
			c-0.78,3.26-7.19,13.33,0.92,23.3c0.18,0.54,0.46,1.09,0.69,1.61c-9.64-6.5-7.09-14.41-9-19.72c-0.67-1.86-4.72-7.47-5.77-10.61
			c-3.1-0.53-5.6-3.16-9-3.11c0.12-0.58,0.12-0.58,0.23-1.15c0.25-2.43,1.26-5.95,2.08-8.3c0.24-0.69,0.65-1.4,0.92-2.08
			c0.83-2.05,1.69-4.06,2.77-6c4.36-7.86,12.73-16.69,20.07-21.91C72.35,39.85,101.11,33.16,123.24,44.27z"/>
		<path class="st44" d="M23.83,69.18c-6.75-5.16-13.24-10.69-18.91-17.07C10.98,58.06,17.42,63.6,23.83,69.18z"/>
		<path class="st42" d="M143.3,149.67c5.48,5.14,12.3,9.4,18.57,13.61c0.81,0.55,4.76,4.05,5.07,4.15c1,0.32,3.18-0.42,4.27,0.23
			c-0.38,0-0.77,0-1.15,0c-7.84,0.02-15.68-0.02-23.53,0c-0.49,0-0.51,0.23-0.69,0.23c-3.63-3.34-3.63-3.34-7.27-6.69
			c-0.29,0-0.29,0-0.58,0c0-0.23,0-0.23,0-0.46c0.32,0.24,3.25,2.16,3.46,1.96c-5.08-3.3-2.25-6.88-2.77-12.11
			C140.12,150.35,141.93,150.1,143.3,149.67z"/>
		<path class="st43" d="M97.4,157.98c1.5-1.27,1.5-1.27,3-2.54c3.07,0.14,6.15,0.45,9.23,0.46c2.71,4.04,2.71,4.04,5.42,8.07
			c0.75-0.93,4.99-4.99,5.19-5.3c8.88,1.27,8.88,1.27,17.76,2.54c0.29,0,0.29,0,0.58,0c3.63,3.34,3.63,3.34,7.27,6.69
			c-37.36,0.1-74.73,0.12-112.09-0.23c2.86-3.28,9.35-11.72,13.38-12.22c1.94-0.24,10.79,0,15.34-0.23
			c1.59-0.08,3.76-0.17,3.81-0.92c11.59,1.04,11.59,1.04,23.18,2.08c4.04,1.61,4.04,1.61,8.07,3.23c0.17-0.17,0.17-0.17,0.35-0.35
			C97.69,158.99,97.46,158.26,97.4,157.98z"/>
		<path class="st41" d="M47.58,150.36c5.27,2.68,12.87,3.26,18.68,3.92c-0.05,0.76-2.22,0.84-3.81,0.92
			c-4.54,0.23-13.4-0.01-15.34,0.23C47.28,153.16,46.71,150.22,47.58,150.36z"/>
		<path class="st46" d="M137.3,67.33c-1.27,1.85-1.27,1.85-2.54,3.69c-1.21-1.96-7.05-8.26-7.61-9.46c-0.67-1.41-0.68-3.1-0.69-4.61
			c3.84,2.38,6.97,5.73,10.15,8.88C137.36,66.76,137.25,67.27,137.3,67.33z"/>
		<path class="st46" d="M152.07,110c-0.42,3.93-0.34,8.98-2.08,12.45c0.58-3.44,3.55-10.34-2.31-9.92c0.2-2.98-0.26-5.49,0.92-8.53
			c0.56,0.46,3.12,2.08,3.23,2.42C152.26,107.71,150.99,110.17,152.07,110z"/>
		<path class="st50" d="M146.53,78.63c-0.07,0.03-0.21,0.59-1.38,0.81c0.55,3.72,1.67,7.1,0.23,10.73c0.11-3.46,1.44-4.3-3-3.46
			c0.37-4.18-1.17-7.34,1.61-10.84C144.12,76.01,144.93,75.49,146.53,78.63z"/>
		
			<linearGradient id="SVGID_00000037689181415318260580000009460739265237998491_" gradientUnits="userSpaceOnUse" x1="83.5249" y1="48.4233" x2="81.9859" y2="74.9029">
			<stop  offset="0" style="stop-color:#986738"/>
			<stop  offset="1" style="stop-color:#642629"/>
		</linearGradient>
		<path style="display:inline;fill:url(#SVGID_00000037689181415318260580000009460739265237998491_);" d="M97.4,44.27
			c-1.95,0.95-3.83,2.13-5.77,3.11c-0.52,8.37,1.71,9.98,4.84,15.11c3.98,6.49,5.35,5.75,4.84,11.76c-0.92,0.12-0.92,0.12-1.85,0.23
			c0.75-7.12-10.27-14.65-11.76-22.03c-0.9-4.48,1.57-6.01-3.69-2.19c-10,7.27-5,8.87-2.77,13.49c2.42,5.01,0.51,6.48-0.69,9.57
			c-2.71,3.82-5.49,8.02-4.84,12.92c-0.73-1.32-1.89-2.5-2.31-4.04c-1.75-6.54,1.65-10.34,4.15-15.91
			c-0.17-0.84-10.92-10.12-12.45-11.88c-0.56-0.64-1.2-1.2-1.15-1.61C73.21,47.76,86.85,43.82,97.4,44.27z"/>
		
			<linearGradient id="SVGID_00000173126826769319306140000013571676593174450066_" gradientUnits="userSpaceOnUse" x1="114.3038" y1="50.5216" x2="109.9362" y2="86.701">
			<stop  offset="0" style="stop-color:#986234"/>
			<stop  offset="1" style="stop-color:#642729"/>
		</linearGradient>
		<path style="display:inline;fill:url(#SVGID_00000173126826769319306140000013571676593174450066_);" d="M117.01,49.57
			c-1.48,1.53-5.5,6.51-5.77,8.42c-0.65,4.61,7.93,17.67,8.3,20.41c0.63,4.71-2,10.67-3.46,15.22c-0.62-0.9-2.14-2.55-2.31-2.88
			c-4.5-8.76,5.23-10.37-1.15-21.91c-5.7-10.3-13-7.85-3.46-20.87C111.84,48.06,114.55,48.55,117.01,49.57z"/>
		<path class="st46" d="M65.11,54.42c-0.57,0.19-1.23-1.26-1.61-1.04c-0.36,0.2-2.63,7.01-2.77,7.84c-0.74,4.55,0.09,5.62,0.92,9.34
			c-1.15,1.61-1.15,1.61-2.31,3.23c-0.7-3.18-2.23-6.28-3-9.46c-2.38,0.03-4.77,0.12-7.15,0.23c3.5-4.25,9.93-9.13,14.76-11.76
			C63.92,53.21,64.55,53.77,65.11,54.42z"/>
		<path class="st53" d="M145.38,90.17c-0.78,1.97-2.86,3.7-4.61,4.84c-0.58-0.16-0.42-0.61-0.46-0.69c0.99-2.41,1.84-5,2.08-7.61
			C146.81,85.86,145.49,86.71,145.38,90.17z"/>
		<path class="st42" d="M100.4,155.44c-1.5,1.27-1.5,1.27-3,2.54c-0.21-1.13-0.5-1.79-0.69-2.54
			C97.93,155.41,99.18,155.38,100.4,155.44z"/>
		<path class="st44" d="M138,160.74c-1.94-1.48-3.62-3.5-4.96-5.54c-3.38-0.31-9.52,0.72-10.49-0.69c1.31-0.63,2.81-1.83,3.69-3
			c4.03,0.29,8.48-0.23,12.45-0.92c0.52,5.22-2.31,8.81,2.77,12.11C141.25,162.9,138.32,160.99,138,160.74z"/>
		<path class="st50" d="M149.99,122.46c-0.68,1.36-2.3,3.51-3.69,4.15c1.33-3.23,1.13-10.31,1.38-14.07
			C153.54,112.12,150.57,119.01,149.99,122.46z"/>
		<path class="st41" d="M138,160.74c0,0.23,0,0.23,0,0.46c-8.88-1.27-8.88-1.27-17.76-2.54c0.62-0.94,0.75-2.36,0.69-3.46
			c0.55-0.16,1.09-0.44,1.61-0.69c0.98,1.41,7.12,0.38,10.49,0.69C134.37,157.24,136.06,159.27,138,160.74z"/>
		<path class="st44" d="M120.93,155.21c0.06,1.1-0.07,2.51-0.69,3.46c-0.2,0.31-4.44,4.38-5.19,5.3c-2.71-4.04-2.71-4.04-5.42-8.07
			C113.32,155.91,117.36,156.26,120.93,155.21z"/>
	</g>
	<g>
		
			<linearGradient id="SVGID_00000148630516408650354410000002056714534816596623_" gradientUnits="userSpaceOnUse" x1="115.6562" y1="93.2934" x2="37.8132" y2="133.0658">
			<stop  offset="0" style="stop-color:#17291E"/>
			<stop  offset="0.723" style="stop-color:#470824"/>
		</linearGradient>
		<path style="fill:url(#SVGID_00000148630516408650354410000002056714534816596623_);" d="M102.25,43.34
			c-5.9,14.86,0.45,18.77,3.69,24.68c-0.49,9.3-2.51,18.46-2.54,27.79c1.52,2.37,4.5,6.21,4.84,8.88
			c1.8,13.77-14.48,23.29-13.26,41.75c0.36-4.3,1.13-8.68,3.81-12.22c-0.56,1.78-1.08,10.15,0.23,10.38c-1.2,1.63-1.94,3.7-3,5.42
			c0.17,0.17,0.17,0.17,0.35,0.35c8.81-7.88,20.92-10.33,30.79-16.61c-2.43,2.36-4.43,6.31-10.73,9.69
			c-2.27,1.22-5.28,1.74-5.42,2.54c-4.81,0.61-9.97,0.99-13.15,5.19c4.79-1.79,9.86-2.76,14.99-1.96
			c-2.51-0.06-14.23,1.93-16.26,2.77c-0.28,0.11-0.86,0.43-0.81,0.81c0.39,0.79,0.71,1.8,0.92,2.65c0.19,0.74,0.48,1.4,0.69,2.54
			c0.05,0.29,0.28,1.01,0.46,1.27c-0.17,0.17-0.17,0.17-0.35,0.35c-4.04-1.61-4.04-1.61-8.07-3.23
			c-11.59-1.04-11.59-1.04-23.18-2.08c-5.81-0.66-13.41-1.24-18.68-3.92c-1.88-0.95-3.92-2.8-5.3-4.38
			c-3.26-3.74-5.1-8.59-6.92-13.15c-1.56-3.9-3.49-9.37-4.61-13.38c-0.91-3.25-2.04-7.32-2.54-10.61
			c-0.44-2.92-0.76-7.76-0.92-10.84c2.53,8.46,4.33,17.43,8.07,25.72c3.9,8.63,9.59,17.6,18.11,22.26
			c8.31,4.55,13.94,4.04,20.53,5.54c3.32,0.75,11.02,3.6,13.61,3.69c3.96,0.14-4.31-4.52-6.11-6c-0.51-0.42-0.99-0.8-1.61-1.04
			c-1.43-3.04-4.22-5.22-6-8.07c-8.24-13.2-3.97-25.03-5.07-30.68c-1.71-4.88-5.05-9.04-6.46-14.07c-1.95-6.98-1.43-14.49-3-21.57
			c1.15-1.61,1.15-1.61,2.31-3.23c0.76,3.4,2.1,6.77,2.54,10.26c2.11,9.49,10.99,16.14,12.45,22.83
			c2.21,10.09-3.25,11.78-3.46,19.84c-0.27,10.34,6.84,21.2,14.42,27.79c0.96,0.84,3.16,2.94,4.04,2.77
			c2.79-0.54,1.05-3.83,1.38-9.57c1.24-21.43,10.56-30.14,5.77-46.01c-0.12-7.55-0.12-7.55-0.23-15.11
			c1.72-2.82,2.49-5.85,2.77-9.11c0.51-6.01-0.87-5.27-4.84-11.76c-0.91-6.42-1.24-11.64,3-16.95
			C100.27,44.54,101.04,43.33,102.25,43.34z"/>
		<g>
			<path class="st55" d="M164.98,109.54c-0.92,5.53-1.72,11.21-3.23,16.61c-1.07,3.81-2.52,7.8-4.38,11.3
				c-2.2,4.13-4.88,7.55-9,9.92c3.85-3.47-1.52,0.25-3.34-1.85c-1.12-1.28,4.63-6.38,7.27-11.19c6.91-12.59,4.49-20.91,7.38-33.79
				c1.03-0.52,2.45-1.51,3.46-1.85c0.61-0.2,3.69-1,3.92-0.35C166.14,102.03,165.61,105.81,164.98,109.54z"/>
			<path class="st56" d="M148.38,147.37c-1.5,0.86-3.43,1.8-5.07,2.31c-1.37,0.42-3.18,0.67-4.61,0.92
				c-3.98,0.7-8.43,1.21-12.45,0.92c-4.5-0.32-8.87-2.2-13.38-2.31c-5.13-0.8-10.21,0.17-14.99,1.96c3.17-4.2,8.34-4.58,13.15-5.19
				c10.74-1.36,20.6-0.12,27.91-12.57c1.9-2.45,6.21-3.95,7.38-6.8c1.39-0.64,3.01-2.8,3.69-4.15c1.73-3.48,1.65-8.53,2.08-12.45
				c0.17-1.62,0.17-3.33,0.23-4.96c0.13-0.41,6.5-4.05,7.38-4.5c-2.89,12.88-0.47,21.2-7.38,33.79c-2.64,4.81-8.38,9.91-7.27,11.19
				C146.86,147.61,152.22,143.9,148.38,147.37z"/>
		</g>
		
			<linearGradient id="SVGID_00000036937020098011476490000003681696685779134639_" gradientUnits="userSpaceOnUse" x1="50.1954" y1="91.461" x2="63.2276" y2="149.9958">
			<stop  offset="0" style="stop-color:#0B1515"/>
			<stop  offset="0.7731" style="stop-color:#7A9B54"/>
		</linearGradient>
		<path style="fill:url(#SVGID_00000036937020098011476490000003681696685779134639_);" d="M50.58,126.61
			c5.02,11.4,19.15,19.87,30.91,22.6c1.81,1.47,10.07,6.14,6.11,6c-2.59-0.09-10.29-2.94-13.61-3.69
			c-6.59-1.49-12.22-0.98-20.53-5.54c-8.51-4.66-14.21-13.63-18.11-22.26c-3.74-8.29-5.55-17.26-8.07-25.72
			c-0.09-1.61-0.59-3.21-0.46-4.84c3.4-0.05,5.89,2.59,9,3.11c1.04,3.14,5.1,8.75,5.77,10.61
			C43.49,112.19,40.94,120.11,50.58,126.61z"/>
		<path class="st58" d="M148.61,104c-1.18,3.04-0.72,5.55-0.92,8.53c-0.25,3.76-0.06,10.84-1.38,14.07
			c-1.17,2.86-5.48,4.35-7.38,6.8c-7.31,12.45-17.17,11.21-27.91,12.57c0.14-0.8,3.15-1.32,5.42-2.54c6.29-3.38,8.3-7.33,10.73-9.69
			c1.35-1.31,4.6-2.93,6.46-5.42c4.36-5.83,4.59-15.47,6.23-22.26c2.33-9.66,8.96-14.75,9.46-17.18c0.55-2.68-0.72-7.62-0.92-10.49
			c1.52-0.1,2.12,0.23,3.92,2.65C160.09,91.53,149.74,101.09,148.61,104z"/>
		<path class="st58" d="M143.99,75.87c-2.78,3.5-1.24,6.66-1.61,10.84c-0.23,2.61-1.09,5.2-2.08,7.61
			c-0.29-0.63-1.18-0.68-2.08-5.07c-1.19-5.84-0.33-13.17-3.46-18.22c1.27-1.85,1.27-1.85,2.54-3.69
			C140.78,71.35,142.84,74.48,143.99,75.87z"/>
		<path class="st59" d="M148.38,78.4c0.2,2.88,1.47,7.82,0.92,10.49c-0.5,2.43-7.13,7.52-9.46,17.18c0.22-3.45-0.72-7.15,1.15-10.26
			c-0.12-0.4-0.12-0.4-0.23-0.81c1.75-1.15,3.83-2.87,4.61-4.84c1.44-3.63,0.32-7-0.23-10.73c1.17-0.21,1.31-0.77,1.38-0.81
			C146.62,78.59,148.1,78.42,148.38,78.4z"/>
		
			<linearGradient id="SVGID_00000007412524941863502270000005681781363464245171_" gradientUnits="userSpaceOnUse" x1="112.2728" y1="43.1046" x2="109.4969" y2="139.4747">
			<stop  offset="0" style="stop-color:#121F18"/>
			<stop  offset="0.0885" style="stop-color:#886A38"/>
			<stop  offset="0.3995" style="stop-color:#7B9C57"/>
			<stop  offset="0.5239" style="stop-color:#7B9C56"/>
			<stop  offset="1" style="stop-color:#0E1613"/>
		</linearGradient>
		<path style="fill:url(#SVGID_00000007412524941863502270000005681781363464245171_);" d="M109.17,47.96
			c-9.54,13.03-2.24,10.58,3.46,20.87c6.39,11.54-3.35,13.15,1.15,21.91c0.17,0.33,1.69,1.98,2.31,2.88
			c4.28,6.21,9.02,10.06,4.84,22.6c-1.12,3.36-3.3,5.33-2.31,5.77c-0.26,0.19-0.82,0.07-2.08,1.73
			c-4.25,8.44-15.32,17.88-17.53,20.87c-1.31-0.23-0.79-8.6-0.23-10.38c1.83-3.98,6.43-7.66,8.76-10.96
			c4.73-6.67,2.95-8.57,2.77-13.49c-0.48-12.83-1.99-25.58-2.54-38.4c-0.51-1.45-1.36-2.46-1.85-3.34
			c-3.24-5.91-9.59-9.82-3.69-24.68c0.15-0.38,0.47-0.71,0.46-1.15c5.06-1.72,5.41-2.52,9.46,1.96
			C111.14,45.41,110.13,46.64,109.17,47.96z"/>
		<path class="st59" d="M102.71,42.19c0.01,0.44-0.31,0.77-0.46,1.15c-1.2-0.02-1.97,1.2-2.77,2.19c-4.24,5.31-3.91,10.53-3,16.95
			c-3.14-5.12-5.36-6.74-4.84-15.11c1.93-0.99,3.82-2.16,5.77-3.11C99.04,43.47,100.97,42.78,102.71,42.19z"/>
		<g>
			<path class="st59" d="M49.2,100.54c-4.03-3.43-6.68-8.43-6.92-13.72c-0.26-5.77,0.71-10.87,5.77-14.18
				c0.26,1.15,1.18,3.38,1.38,4.73C50.6,85.09,49,92.79,49.2,100.54z"/>
			<path class="st59" d="M49.89,124.99c-8.12-9.97-1.7-20.03-0.92-23.3c0.69,3.63,0.69,3.63,1.38,7.27
				C50.78,115.35,47.64,118.16,49.89,124.99z"/>
		</g>
		<g>
			
				<linearGradient id="SVGID_00000035518457612678468930000000295036962030538396_" gradientUnits="userSpaceOnUse" x1="60.4997" y1="66.6276" x2="65.8918" y2="143.7057">
				<stop  offset="0" style="stop-color:#17291E"/>
				<stop  offset="0.3224" style="stop-color:#90723A"/>
				<stop  offset="1" style="stop-color:#0C1412"/>
			</linearGradient>
			<path style="fill:url(#SVGID_00000035518457612678468930000000295036962030538396_);" d="M59.35,73.79
				c1.57,7.07,1.05,14.59,3,21.57c1.41,5.03,4.75,9.19,6.46,14.07c1.1,5.64-3.16,17.47,5.07,30.68c1.78,2.85,4.57,5.04,6,8.07
				c0.63,0.24,1.1,0.62,1.61,1.04c-11.76-2.73-25.89-11.2-30.91-22.6c-0.23-0.52-0.51-1.08-0.69-1.61
				c-2.25-6.83,0.89-9.64,0.46-16.03c-0.69-3.63-0.69-3.63-1.38-7.27c0.05-0.21,0.35-0.43,0.23-1.15c-0.2-7.75,1.4-15.45,0.23-23.18
				c-0.2-1.35-1.12-3.57-1.38-4.73c-0.47-2.11-1.48-5.18-1.61-6.92c3.89-0.6,10.93,0.69,9.92-1.38
				C57.12,67.51,58.64,70.61,59.35,73.79z"/>
			<path class="st62" d="M56.35,64.33c1.01,2.07-6.03,0.78-9.92,1.38c0-0.06-0.51-0.1-0.12-1.15c0.96-0.03,1.93,0.05,2.88,0
				C51.57,64.45,53.97,64.37,56.35,64.33z"/>
		</g>
		<path class="st59" d="M123.93,112.77c-1.5,1.73-1.5,1.73-3,3.46c4.18-12.54-0.57-16.39-4.84-22.6c1.46-4.55,4.09-10.51,3.46-15.22
			c4.91,8.07,8.36,17.96,7.38,27.79C126.5,108.66,124.79,110.54,123.93,112.77z"/>
		<path class="st63" d="M134.77,71.02c3.13,5.05,2.27,12.38,3.46,18.22c-2.46-9.72-8.2-18.17-11.07-27.68
			C127.72,62.76,133.55,69.07,134.77,71.02z"/>
		<g>
			<path class="st56" d="M123.93,44.73c1.61,2.94,1.61,2.94,3.23,5.88c-0.35,2.1-0.71,4.21-0.69,6.34c0.01,1.52,0.03,3.2,0.69,4.61
				c2.87,9.51,8.61,17.96,11.07,27.68c0.89,4.39,1.78,4.45,2.08,5.07c0.04,0.08-0.11,0.53,0.46,0.69c0.12,0.4,0.12,0.4,0.23,0.81
				c-1.87,3.12-0.94,6.81-1.15,10.26c-1.64,6.79-1.87,16.42-6.23,22.26c-1.86,2.49-5.11,4.11-6.46,5.42
				c-9.87,6.28-21.98,8.72-30.79,16.61c-0.17-0.17-0.17-0.17-0.35-0.35c1.06-1.72,1.8-3.79,3-5.42
				c2.21-2.99,13.28-12.44,17.53-20.87c1.25-1.66,1.82-1.54,2.08-1.73c0.82-0.6,2.21-0.69,2.77-1.5c0.78-2.59,1.56-5.21,2.54-7.73
				c0.86-2.23,2.58-4.11,3-6.57c0.98-9.83-2.47-19.72-7.38-27.79c-0.37-2.75-8.95-15.8-8.3-20.41c0.27-1.9,4.29-6.89,5.77-8.42
				c1.55-1.61,4.47-3.64,6.23-5.3C123.5,44.4,123.66,44.59,123.93,44.73z"/>
			<path class="st64" d="M118.62,121.99c-1-0.43,1.19-2.4,2.31-5.77c1.5-1.73,1.5-1.73,3-3.46c-0.98,2.52-1.76,5.14-2.54,7.73
				C120.83,121.31,119.44,121.4,118.62,121.99z"/>
		</g>
		<path class="st64" d="M93.25,86.71c1.36,4.52,3.18,7.69,5.54,11.76c4.79,15.87-4.52,24.58-5.77,46.01
			c-0.33,5.75,1.41,9.03-1.38,9.57c-0.17-0.6,0.58-0.35,0.46-0.81c-0.15-0.58-3.11-2.25-6-10.26c-6.58-18.27-0.16-25.1,1.15-31.71
			c2.68-13.5-4.34-16.73-6.46-19.26c-7.01-8.37-1.53-14.34-0.46-17.18c0.04-0.11-0.05-0.77,0.23-1.5c1.2-3.1,3.11-4.56,0.69-9.57
			c-2.23-4.63-7.24-6.23,2.77-13.49c0.06,7.46,4.58,10.38,6,16.03C91.45,71.99,90.64,78.03,93.25,86.71z"/>
		
			<linearGradient id="SVGID_00000173148851748391327810000010000223303930250173_" gradientUnits="userSpaceOnUse" x1="64.1317" y1="57.7245" x2="87.2872" y2="138.4233">
			<stop  offset="0.1401" style="stop-color:#90723A"/>
			<stop  offset="1" style="stop-color:#785A35"/>
		</linearGradient>
		<path style="fill:url(#SVGID_00000173148851748391327810000010000223303930250173_);" d="M65.11,54.42
			c1.54,1.76,12.29,11.03,12.45,11.88c-2.51,5.58-5.9,9.38-4.15,15.91c0.41,1.54,1.58,2.71,2.31,4.04c1.82,3.31,2.92,4.28,3.69,5.54
			c2.03,3.33,5.07,7.74,5.54,11.65c1.49,12.55-7.28,19.03-1.38,35.52c0.41,1.14,3.05,7.75,2.54,4.04c2.89,8.01,5.84,9.68,6,10.26
			c0.12,0.46-0.63,0.21-0.46,0.81c-0.87,0.17-3.07-1.93-4.04-2.77c-7.57-6.59-14.69-17.45-14.42-27.79
			c0.21-8.06,5.67-9.74,3.46-19.84c-1.47-6.7-10.35-13.34-12.45-22.83c-0.44-3.5-1.78-6.86-2.54-10.26
			c-0.83-3.72-1.67-4.79-0.92-9.34c0.14-0.83,2.41-7.64,2.77-7.84C63.89,53.16,64.54,54.61,65.11,54.42z"/>
		<path class="st58" d="M112.86,149.21c4.5,0.1,8.88,1.98,13.38,2.31c-0.88,1.17-2.38,2.37-3.69,3c-0.52,0.25-1.06,0.53-1.61,0.69
			c-3.57,1.06-7.61,0.7-11.3,0.69c-3.07-0.01-6.16-0.32-9.23-0.46c-1.22-0.06-2.47-0.03-3.69,0c-0.21-0.85-0.53-1.86-0.92-2.65
			c-0.05-0.37,0.53-0.69,0.81-0.81C98.62,151.14,110.35,149.15,112.86,149.21z"/>
		<path class="st64" d="M110.32,109.77c-1.04-2.54-1.04-2.54-2.08-5.07c-0.35-2.67-3.32-6.51-4.84-8.88
			c0.02-9.33,2.05-18.49,2.54-27.79c0.48,0.88,1.34,1.9,1.85,3.34C108.33,84.19,109.84,96.94,110.32,109.77z"/>
		<path class="st66" d="M110.32,109.77c0.18,4.93,1.96,6.83-2.77,13.49c-2.34,3.3-6.93,6.97-8.76,10.96
			c-2.67,3.54-3.44,7.93-3.81,12.22c-1.21-18.46,15.06-27.98,13.26-41.75C109.28,107.23,109.28,107.23,110.32,109.77z"/>
		<path class="st66" d="M98.79,98.47c-2.36-4.07-4.17-7.24-5.54-11.76c0.91-6.28,5.89-9.05,6.23-12.22
			c0.92-0.12,0.92-0.12,1.85-0.23c-0.27,3.26-1.05,6.29-2.77,9.11C98.67,90.91,98.67,90.91,98.79,98.47z"/>
		<path class="st59" d="M99.48,74.48c-0.33,3.17-5.32,5.94-6.23,12.22c-2.61-8.68-1.81-14.72-3.23-20.41
			c-1.41-5.65-5.94-8.57-6-16.03c5.26-3.82,2.79-2.29,3.69,2.19C89.21,59.83,100.23,67.37,99.48,74.48z"/>
		<path class="st58" d="M80.8,92.01c-0.69-0.12-0.69-0.12-1.38-0.23c-0.77-1.25-1.87-2.22-3.69-5.54c-0.64-4.89,2.13-9.1,4.84-12.92
			c-0.28,0.73-0.19,1.38-0.23,1.5C79.27,77.67,73.78,83.64,80.8,92.01z"/>
		<path class="st59" d="M80.8,92.01c2.12,2.53,9.13,5.76,6.46,19.26c-1.31,6.62-7.73,13.45-1.15,31.71c0.51,3.71-2.13-2.9-2.54-4.04
			c-5.89-16.49,2.88-22.97,1.38-35.52c-0.47-3.91-3.5-8.32-5.54-11.65C80.1,91.9,80.1,91.9,80.8,92.01z"/>
	</g>
</g>
</svg>
