<?xml version="1.0" encoding="utf-8"?>
<!-- Generator: Adobe Illustrator 28.0.0, SVG Export Plug-In . SVG Version: 6.00 Build 0)  -->
<svg version="1.1" id="Layer_1" xmlns="http://www.w3.org/2000/svg" xmlns:xlink="http://www.w3.org/1999/xlink" x="0px" y="0px"
	 viewBox="0 0 147 173" style="enable-background:new 0 0 147 173;" xml:space="preserve">
<style type="text/css">
	.st0{display:none;}
	.st1{display:inline;fill:#A8C9B7;}
	.st2{display:inline;fill:#CBCFBF;}
	.st3{display:inline;fill:#D1EEE5;}
	.st4{display:inline;fill:#CEDFDC;}
	.st5{display:inline;fill:#B9C3B8;}
	.st6{display:inline;fill:#B78B94;}
	.st7{display:inline;fill:#E2F3EC;}
	.st8{display:inline;fill:#FFDDAD;}
	.st9{display:inline;fill:#E9ECD5;}
	.st10{display:inline;fill:#F5E5C6;}
	.st11{display:inline;fill:#F4DBC1;}
	.st12{display:inline;fill:#ABD3CD;}
	.st13{display:inline;fill:#C9FF8B;}
	.st14{display:inline;fill:#FDCFA6;}
	.st15{display:inline;fill:#C9D2BB;}
	.st16{display:inline;fill:#C1CAB3;}
	.st17{fill:#0D6679;}
	.st18{fill:url(#SVGID_1_);}
	.st19{fill:#A00B4D;}
	.st20{fill:#95D1C7;}
	.st21{fill:#396E6E;}
	.st22{fill:#C9644A;}
	.st23{fill:#AA1155;}
	.st24{fill:#C9FF8B;}
	.st25{fill:#F5994B;}
	.st26{fill:#D97C2E;}
	.st27{fill:#FD9C4A;}
	.st28{fill:#9A0A4D;}
	.st29{fill:#0DB0B3;}
	.st30{fill:#FC9E4F;}
	.st31{fill:#2E9068;}
	.st32{fill:#63043C;}
	.st33{fill:url(#SVGID_00000070815704213723651980000009426326962732037036_);}
	.st34{fill:#004F5B;}
	.st35{fill:#085F68;}
	.st36{fill:#2D0631;}
	.st37{fill:#2E757B;}
	.st38{fill:#49867C;}
	.st39{fill:#CEDFDC;}
	.st40{fill:#CBCFBF;}
	.st41{display:inline;fill:#778783;}
	.st42{display:inline;fill:#858287;}
	.st43{display:inline;fill:#6F8783;}
	.st44{display:inline;fill:#808486;}
	.st45{display:inline;fill:#868A86;}
	.st46{display:inline;fill:#856D5E;}
	.st47{display:inline;fill:#7F908C;}
	.st48{display:inline;fill:#986031;}
	.st49{display:inline;fill:url(#SVGID_00000114792100887296974040000018100914664479878542_);}
	.st50{display:inline;fill:#986735;}
	.st51{display:inline;fill:url(#SVGID_00000003088570740359598380000011332161063753048989_);}
	.st52{display:inline;fill:url(#SVGID_00000011714460294717366140000009429990821491576762_);}
	.st53{display:inline;fill:#96572E;}
	.st54{fill:url(#SVGID_00000146457400964323192790000002082873445490682805_);}
	.st55{fill:#7B9C56;}
	.st56{fill:#90733A;}
	.st57{fill:url(#SVGID_00000103240192763995597240000009035645919339467651_);}
	.st58{fill:#4E0A2A;}
	.st59{fill:#2A0516;}
	.st60{fill:url(#SVGID_00000102530278719674157360000010715009769473795501_);}
	.st61{fill:url(#SVGID_00000032640257049254516920000004500018286187188119_);}
	.st62{fill:#070C0B;}
	.st63{fill:#0B1515;}
	.st64{fill:#6F5433;}
	.st65{fill:url(#SVGID_00000161591313269084141710000002785914485691551659_);}
	.st66{fill:#470824;}
	.st67{display:inline;fill:#DBFEBA;}
	.st68{fill:#F2E8EF;}
	.st69{fill:#473169;}
	.st70{fill:#B21A5B;}
	.st71{fill:#4D51A8;}
	.st72{fill:#C9FE8C;}
	.st73{fill:#6DB985;}
	.st74{fill:#C9F17C;}
	.st75{fill:#CAFE80;}
	.st76{fill:#65967E;}
	.st77{fill:#643172;}
	.st78{fill:#72BC85;}
	.st79{fill:#528D7D;}
	.st80{fill:#CCD8D7;}
	.st81{fill:#F99D50;}
	.st82{fill:#FA9E50;}
	.st83{fill:#96104D;}
	.st84{fill:url(#SVGID_00000066474087179851856540000007391553894398856077_);}
	.st85{fill:#F69A4B;}
	.st86{fill:#A91355;}
	.st87{fill:#B41C5D;}
	.st88{fill:#FBA161;}
	.st89{fill:#8196B7;}
	.st90{fill:#373964;}
	.st91{fill:#5B9F69;}
	.st92{fill:#A4DD74;}
</style>
<g>
	<g id="Background_00000114035853230311565550000002192994221281002136_" class="st0">
		<path class="st67" d="M54.61,116.67c-0.16,1.64,0.18,5.03,0.87,6.53c3.54,7.66,25.9,9.24,33.82,2.66
			c4.79-3.98,2.05-8.91,3.63-10.35c6.8-3.51,11.02-10.48,13.55-17.47c0.08-0.9-0.56-1.19-0.58-1.26c-0.08-0.32,0.19-0.46,0.19-0.48
			c-0.08-2.4,1.13-1.89,0.97-3.19c1.02-0.67,1.88-2.27,2.9-2.56c-0.01,15.13,0,30.25,0,45.38c-36,0-36,0-71.99,0
			c-0.01-15.71,0.01-31.42,0-47.12c0.48,0.01,1.1,2.15,1.64,3.24c0.19,0.39,1.72,2.57,1.55,2.81c-0.69-0.07-0.9,0.82-1.16,1.35
			c0.49,0.94,0.69,2,1.16,2.81c0.09,0.22-0.11,0.54-0.1,0.58c0.06,0.21,0.71,0.81,0.77,0.97c0.2,0.54-0.11,0.46-0.1,0.48
			c2.05,4.77,5.42,9.23,9.34,12.63C52.36,114.78,54.32,115.84,54.61,116.67z"/>
		<path class="st67" d="M37.96,75.06c0.01-12.74-0.01-25.48,0-38.22c36,0,36,0,71.99,0c0.01,12.1-0.01,24.19,0,36.29
			c-1.26,0.74-0.75-0.59-1.02-0.68c-1.37-0.45-1.21,0.79-1.64,0.68c-0.13-0.03-0.17-0.44-0.39-0.39c-0.27,0.07,0.04,0.93-0.63,0.77
			c-0.1-0.29-0.18-0.58-0.29-0.87c0.58-0.64,1.65-2.14,1.74-2.95c0.4-3.44-6.36-11.93-8.85-14.47c-0.45-0.46-1.15-0.81-1.6-1.26
			c-0.2-0.2-0.4-0.45-0.58-0.68c-0.51-0.62-0.56-0.45-0.58-0.48c-0.29-0.51-0.19-1.64-1.06-3c-0.06-0.09,0.07-0.61-0.92-0.97
			c-0.8-0.29-2.58-0.33-3.48-0.39c-0.07-0.01-0.02-0.19-0.1-0.19c-2.8-0.18-4.96,1.76-5.37,0.63c-0.41-1.11,1.04-1.48,1.55-2.23
			c-0.05-0.17-2.54-0.52-3.44-0.92c-0.65-0.29-1.41-1.21-1.74-1.26c-1.19-0.19-4.34,2.16-5.66,2.61c-0.1-0.01-0.19,0.01-0.29,0
			c-1.02-1.77-1.02-1.77-2.03-3.53c-0.29-0.18-3.05,1.38-6.34,0.73c-0.58,0.12-1.69,2.72-3.24,2.9c-0.09,0.01-0.19-0.01-0.29,0
			c-2.13-0.9-7.56,1.56-8.95,3c-0.8,0.82-0.76,1.47-0.97,1.64c-0.34,0.28-8.57,2.87-4.4,4.89c-2.01,1.14-4.23,2.57-5.52,4.55
			c-1.11,1.71-3.38,7.6-3.39,9.53c0,0.13,0,0.26,0,0.39c-1.32,1.29,0.27,1.24,0.1,1.79c-0.22,0.68-0.85-0.37-1.02,1.11
			C38.67,73.98,38.96,75.03,37.96,75.06z"/>
		<path class="st67" d="M40.48,71.19c0.48,0.87,0.33,3.07,0.97,3.48c-0.61,2.12-0.75,3.33-0.87,5.52c-0.12,2.27-0.06,4.42,0.29,6.68
			c0.3,1.92,0.84,3.8,1.55,5.61c0.28,0.73,0.62,1.43,0.97,2.13c0.66,1.34,1.28,2.28,2.13,3.48c1.64,2.33,3.49,4.21,5.61,6.1
			c0.79,0.7,1.52,1.49,2.37,2.13c1.93,1.44,4.14,2.47,6.14,3.77c-2,1.85-4.73,3.54-5.03,6.58c-0.28-0.83-2.25-1.88-3.53-3
			c-3.92-3.4-7.28-7.86-9.34-12.63c-0.01-0.03,0.3,0.06,0.1-0.48c-0.06-0.16-0.71-0.76-0.77-0.97c-0.01-0.04,0.18-0.36,0.1-0.58
			c-0.47-0.81-0.67-1.87-1.16-2.81c0.26-0.53,0.48-1.42,1.16-1.35c0.17-0.24-1.36-2.42-1.55-2.81c-0.54-1.1-1.16-3.23-1.64-3.24
			c0-4.58,0-9.16,0-13.74c0.99-0.03,0.71-1.08,1.6-0.97c0.16-1.48,0.8-0.44,1.02-1.11C40.75,72.43,39.16,72.48,40.48,71.19z"/>
		<path class="st67" d="M109.95,73.12c0,5.81,0,11.61,0,17.42c-1.02,0.3-1.89,1.9-2.9,2.56c0.16,1.3-1.04,0.8-0.97,3.19
			c0,0.03-0.28,0.16-0.19,0.48c0.02,0.07,0.66,0.36,0.58,1.26c-2.53,6.99-6.75,13.95-13.55,17.47c0.09-0.31,0.14-0.35,0-0.68
			c-0.07-0.17-0.95-0.97-1.02-0.97c-0.08,0-0.36,0.51-0.63,0.48c-0.61-2.05-0.76-4.18-1.06-6.29c0.2-0.05,0.78-0.18,0.82-0.19
			c0.32-0.14,3.66-2.22,4.06-2.52c0.22-0.16,0.1-0.32,0.19-0.39c0.05-0.03,0.25,0.03,0.29,0c0.95-0.74,1.4-1.43,1.64-1.64
			c0.09-0.08,0.37-0.08,0.39-0.1c0.45-0.41,1.62-1.62,2.08-2.13c1.65-1.79,2.98-3.78,4.16-5.9c0.45-0.8,0.78-1.5,1.16-2.32
			c0.68-1.48,1.31-2.76,1.74-4.35c0.23-0.86,0.35-1.54,0.48-2.42c0.7-4.69,0.56-8.1-0.97-12.58c0.67,0.16,0.36-0.7,0.63-0.77
			c0.22-0.06,0.26,0.35,0.39,0.39c0.43,0.11,0.28-1.13,1.64-0.68C109.21,72.54,108.7,73.87,109.95,73.12z"/>
	</g>
	<g>
		<g>
		</g>
		<g>
			<path class="st69" d="M89.15,117.05c0.39,1.81,0.35,3.71-0.77,5.27c-5.05,7.04-31.69,6.39-30.77-3.87
				c0.14-1.54,0.89-2.46,1.84-3.53C55.7,126.76,87.7,127.61,89.15,117.05z"/>
			<path class="st70" d="M62.73,117.54c-0.15,0.62-1.55-1.79-2.13-1.64c-0.43,0.11-0.07,2.01,0.1,2.47
				c0.84,2.28,6.17,4.78,8.47,5.08c0.28,0.04,1.14,0.1,1.11-0.1c1.87,0.29,4.51-0.01,6.39-0.39c4.08-0.83,7.33-3.23,9.1-7.06
				c0.83,0.7,0.86-1.67,1.26-2.23c0.5,0.69,1.68,1.34,2.13,3.39c-1.45,10.56-33.45,9.71-29.71-2.13c2.13-2.43,4.71-3.35,6.48-6.34
				c1.43-2.4,1.97-5.14,2.23-7.89c0.27-0.27,0.25,2.83,0.19,3.63C67.75,112.37,61.74,113.79,62.73,117.54z"/>
			<path class="st71" d="M83.73,96.54c0.39,3.03,1.06,6,1.35,9.05c1.06,2.62,1.86,4.63,1.45,7.55c0.18,0.17,0.34,0.33,0.48,0.53
				c-0.4,0.56-0.42,2.93-1.26,2.23c-0.75-2-0.57-4.01-0.97-6.1c-0.35-1.84-0.74-2.13-1.06-3.29c-0.63-2.23-0.27-4.55-1.06-6.48
				c0.31-4.73-1.14-6.38-1.45-8.81c0.13-0.66,1.67-0.64,1.74-0.53c0.18,1.7,0.24,3.44,0.48,5.13
				C83.48,96.06,83.52,96.62,83.73,96.54z"/>
			<path class="st72" d="M91.47,87.83c-2.7,0.57-5.45,0.88-8.18,1.16c-0.11-0.07-0.02-0.36-0.05-0.48c0.59-0.09,1.07-0.44,1.64-0.58
				c1.54-0.37,3.19-0.37,4.74-0.68c8.19-1.6,7.39-3.98-0.63-5.81c-8.11-1.84-17.75-1.84-25.84,0.1c-1.18,0.28-8.31,2.41-8.56,3.34
				c-0.4,1.49,4.93,2.48,6,2.56c0.15-0.05,0.15-0.05,0.29-0.1c0.51,0.31,1.1,0.27,1.64,0.19c1.04,0.17,2.24,0.4,3.29,0.39
				c0.16,0,0.9,0.04,0.97-0.05c0.09-0.12-0.1-0.87,0-1.11c0.29-0.32,0.53-0.77,0.87-1.06c0.05,0.42,0.44,3.09,0.15,3.19
				c-0.98-0.11-2.9-0.49-3.24-0.19c-2.53-0.28-20.02-1.85-10.6-6.48c4.66-2.29,13.68-4.28,18.87-4.55
				c4.94-0.25,21.91,0.79,24.63,5.47C99.37,86.4,93.63,87.37,91.47,87.83z"/>
			<path class="st73" d="M73.28,92.19c0.14,0.43,0.93,1.99,1.26,2.47c0.21-1.67-0.73-4-0.68-4.21c1.6,2.38,1.46,5.43,0.19,7.93
				c-0.28,0.36-0.74,0.76-0.63,1.26c1.19-1.21,1.19-1.21,2.37-2.42c-0.05,1.3-0.96,3.16-1.06,4.26c-0.01,0.06-0.13,0.13-0.1,0.53
				c0.41,1.25,1.18,3.07,1.35,4.31c0.1,0.7,0.27,1.75-0.1,2.32c0.11-1.48-1.01-5.11-1.64-6.53c-0.41-0.93-0.88-1.71-0.58-0.63
				c-0.08-0.09-0.36-0.03-0.39,0c-0.13,0.13,0.11,2.4,0.48,2.52c0.29,1.29,0.75,2.08,0.58,3.82c-0.12,1.22-0.81,2.29-1.16,3.44
				c-1.8,1.86-2.42,2.09-3.58,4.79c-0.75,1.74-0.87,4.1-1.55,3c-0.09-0.15-0.37-1.26-0.39-1.45c-0.3-3.68,3.06-6.18,4.16-8.13
				c1.6-2.81,0.47-4.71,0.68-7.93c0.12-1.98,0.96-3.9,0.77-5.9c-1.15-2.01-2.26-3.98-2.85-6.24c0.36,8.35,0.36,8.35,0.73,16.69
				c-0.17,2.37-1.81,3.82-3,5.66c-0.55,0.04-0.63,0.72-1.06-0.1c5.02-6.87,1.71-7.46,2.13-15.92c0.05-0.99,1.47-10.87,1.64-11.42
				c0.33-1.04,0.17,1.07,0.29,2.03C71.41,88.37,72.1,90.51,73.28,92.19z"/>
			<path class="st70" d="M62.73,117.54c0.14,0.51,0.45,0.7,0.58,0.87c0.7,0.95,0.9,0.97,1.84,1.55c0.03,0.02-0.02,0.1,0.58,0.39
				c1.53,0.73,2.44,0.86,4.16,0.77c1.22,1.04,3.14,1.21,4.55,0.58c0.48-0.21,0.88-0.4,1.16-0.87c0.44,0.14,2.69-0.01,3.39-0.05
				c0.1,0.13-1.62,2.01-2.32,2.18c-1.88,0.38-4.52,0.68-6.39,0.39c-2.41-0.37-9.36-4.37-9.68-7.45
				C61.18,115.75,62.58,118.16,62.73,117.54z"/>
			<path class="st70" d="M78.31,110.28c-0.17,0.04-0.53,0.14-0.68,0.19c-0.47-2.05-0.82-0.68-2.03,0.39
				c-0.17,0.15-0.75,0.48-1.02,0.68c-1.55,1.67-1.97,3.2-2.47,5.32c-1.66-3.31,3.55-5.2,3.77-8.22c0.37-0.57,0.2-1.63,0.1-2.32
				c1.85-1.03,1.84-1.48,1.74-3.39c0.39-0.63,0.39-0.63,0.77-1.26C78.27,103.54,79.23,107.42,78.31,110.28z"/>
			<path class="st74" d="M74.06,90.35c1.18,2.27,5.62,5.71,0.68,11.13c0.11-1.1,1.01-2.96,1.06-4.26c0.03-0.33,1.1-2.09,0.82-2.23
				c-0.77,1.75-1.92,2.55-2.56,3.39c1.27-2.5,1.41-5.55-0.19-7.93C73.9,90.31,73.95,90.34,74.06,90.35z"/>
			<g>
				<path class="st72" d="M81.22,91.22c0.32,2.43,1.76,4.08,1.45,8.81c-0.29,4.41-1.24,3.58-2.03,6.68
					c-0.41-1.96,0.41-6.35,0.29-7.69c-0.01-0.13-0.17-0.59-0.39-0.63c0.66-1.37,0.69-2.13,0.29-3.58c0.45-2.22-0.44-4.5,0.1-6.68
					C81.59,88.71,80.96,89.27,81.22,91.22z"/>
				<path class="st75" d="M80.64,106.7c-0.25,0.99-0.24,2.35-0.68,3.19c-0.08-0.01-1.42,0.33-1.64,0.39
					c0.92-2.86-0.05-6.74,0.19-8.61c0.04-0.32,0.41-0.87,0.39-1.26c0.68-0.71,1.17-1.04,1.64-2.03c0.21,0.03,0.38,0.5,0.39,0.63
					C81.05,100.35,80.23,104.74,80.64,106.7z"/>
				<path class="st75" d="M80.93,88.12c-0.54,2.18,0.35,4.46-0.1,6.68c-0.38-1.35-2.16-3.87-2.23-4.21
					C78.38,89.4,79.55,86.91,80.93,88.12z"/>
			</g>
			<path class="st76" d="M68.15,111.73c-0.29,0.45-0.69,0.85-0.97,1.31c-1.07,1.78-2.85,5.74-0.48,7.21
				c-0.48,0.05-0.48,0.05-0.97,0.1c-0.6-0.29-0.55-0.37-0.58-0.39c-0.63-2.05-0.56-3.62-0.19-5.71c0.67-0.9,1.47-1.71,2.13-2.61
				C67.52,112.45,67.6,111.77,68.15,111.73z"/>
			<path class="st70" d="M65.15,119.96c-0.94-0.58-1.14-0.6-1.84-1.55c-0.33-2.27,0.93-3.2,1.64-4.16
				C64.59,116.34,64.52,117.91,65.15,119.96z"/>
			<path class="st72" d="M74.06,90.35c-0.11-0.01-0.16-0.04-0.19,0.1c-0.05,0.21,0.89,2.54,0.68,4.21
				c-0.32-0.48-1.12-2.04-1.26-2.47c-0.25-0.8-0.3-1.89-0.48-2.71c0.29-0.44,0.29-0.44,0.58-0.87
				C73.57,89.18,73.78,89.81,74.06,90.35z"/>
			<g>
				<path class="st72" d="M87.02,84.35c0.2,0.08,3.63,1.97,3.68,2.18c0.09,0.41-0.87,0.6-1.16,0.63c-1.62,0.13-5.91-1.8-6.29-2.23
					c-0.39-0.44-0.02-1.1,0.19-1.55c0.42,0.19,2.35,1.18,2.56,1.16C86.36,84.52,86.17,84.02,87.02,84.35z"/>
				<path class="st72" d="M87.22,84.06c-1.08-0.37-2.13-1.01-3.19-1.45c0.03-0.02,0.15-0.22,0.34-0.29c1.5-0.37,7.56,1.68,7.69,2.08
					C92.46,85.66,87.82,84.26,87.22,84.06z"/>
				<path class="st77" d="M89.54,87.16c0.05,0.05,0.05,0.05,0.1,0.1c-1.55,0.3-3.21,0.3-4.74,0.68c-0.05-1.34-1.35-1.49-1.74-2.13
					c-0.08-0.13-0.07-0.16-0.1-0.29c-0.06-0.32-0.29-0.38,0.19-0.58C83.63,85.36,87.92,87.29,89.54,87.16z"/>
				<path class="st70" d="M87.22,84.06c-0.1,0.15-0.1,0.15-0.19,0.29c-0.85-0.33-0.66,0.17-1.02,0.19
					c-0.21,0.02-2.14-0.97-2.56-1.16c0.11-0.23,0.38-0.63,0.58-0.77C85.08,83.04,86.13,83.69,87.22,84.06z"/>
				<path class="st72" d="M84.89,87.93c-0.58,0.14-1.06,0.49-1.64,0.58c-0.09-0.45-0.17-1.74-0.29-2.61c0.1-0.05,0.1-0.05,0.19-0.1
					C83.54,86.44,84.85,86.59,84.89,87.93z"/>
			</g>
			<path class="st72" d="M78.51,101.67c-0.39,0.63-0.39,0.63-0.77,1.26c-0.01-0.21-0.26-0.85-0.19-1.21
				c0.37-0.66,1.1-1.04,1.35-1.31C78.92,100.8,78.55,101.35,78.51,101.67z"/>
			<g>
				<path class="st69" d="M89.63,87.25c-0.05-0.05-0.05-0.05-0.1-0.1c0.29-0.02,1.25-0.22,1.16-0.63c-0.04-0.21-3.48-2.1-3.68-2.18
					c0.1-0.15,0.1-0.15,0.19-0.29c0.6,0.2,5.24,1.6,4.84,0.34c-0.13-0.4-6.19-2.45-7.69-2.08c-0.19,0.07-0.31,0.27-0.34,0.29
					c-0.2,0.15-0.47,0.54-0.58,0.77c-0.21,0.45-0.59,1.11-0.19,1.55c-0.49,0.2-0.25,0.26-0.19,0.58c-0.12-0.02-0.12,0.21-0.1,0.39
					c0.12,0.87,0.2,2.16,0.29,2.61c0.03,0.13-0.06,0.41,0.05,0.48c2.73-0.28,5.48-0.59,8.18-1.16c0.79,1.09,2.84,0.96,3.82,1.55
					c0.6-0.15,0.6-0.15,1.21-0.29c-2.22,0.98-4.97,1.77-7.35,2.23c-1.21,0.23-2.45,0.38-3.68,0.48c-0.06-0.2-0.46-1.42-0.53-1.45
					c-0.9,0.12-0.9,0.12-1.79,0.24c0.02,2,0.33,3.97,0.58,5.95c-0.21,0.08-0.26-0.48-0.29-0.73c-0.24-1.69-0.3-3.43-0.48-5.13
					c-0.08-0.11-1.61-0.13-1.74,0.53c-0.25-1.95,0.38-2.51-0.29-3.1c-1.38-1.22-2.55,1.28-2.32,2.47c0.07,0.34,1.85,2.86,2.23,4.21
					c0.4,1.45,0.37,2.21-0.29,3.58c-0.47,0.99-0.96,1.32-1.64,2.03c-0.25,0.26-0.99,0.64-1.35,1.31c-0.07,0.36,0.18,1,0.19,1.21
					c0.09,1.9,0.11,2.36-1.74,3.39c-0.18-1.24-0.94-3.05-1.35-4.31c-0.04-0.4,0.09-0.47,0.1-0.53c4.94-5.41,0.5-8.85-0.68-11.13
					c-0.28-0.54-0.48-1.16-0.68-1.74c-0.17-0.5-0.27-0.84-0.39-1.35c-0.49-2.11-0.59-3.52-0.44-5.71c-1.09,1.75-0.66,3.89-0.34,5.81
					c0.12,0.72,0.42,1.42,0.58,2.13c0.19,0.82,0.23,1.91,0.48,2.71c-1.19-1.68-1.87-3.82-2.13-5.85c-0.12-0.96,0.04-3.07-0.29-2.03
					c-0.17,0.55-1.6,10.43-1.64,11.42c-0.42,8.46,2.89,9.05-2.13,15.92c-0.66,0.9-1.46,1.71-2.13,2.61
					c-0.71,0.96-1.98,1.89-1.64,4.16c-0.13-0.18-0.45-0.36-0.58-0.87c-1-3.74,5.01-5.17,5.61-13.21c0.06-0.8,0.08-3.9-0.19-3.63
					c0.24-2.63,0.15-8.91,0-11.71c-0.09-1.69-0.1-4.45-1.06-5.81c-0.07-0.1,0.1-0.15-0.48-0.48c-1.02-0.58-2.12-0.1-3.19,0.1
					c-0.71,0.13-7.54,1.71-4.84,3c-1.55,1.64,1.4,1.05,2.03,1.64c-1.07-0.08-6.4-1.07-6-2.56c0.25-0.92,7.38-3.05,8.56-3.34
					c8.08-1.94,17.73-1.94,25.84-0.1C97.03,83.27,97.82,85.65,89.63,87.25z"/>
				<g>
					<path class="st74" d="M75.7,90.64c0.16-2.24,0.55-4.43,1.16-6.58c0.1-0.04,0.43-0.35,0.48-0.24
						c-2.13,7.91,6.02,10.67,0.1,15.68C79.26,94.53,77.61,94.12,75.7,90.64z"/>
					<path class="st73" d="M75.7,90.64c-0.91-1.66-1.32-3.35-1.64-5.27c0.95-0.39,1.87-0.89,2.81-1.31
						C76.25,86.21,75.86,88.4,75.7,90.64z"/>
					<path class="st78" d="M72.99,87.25c-0.39,0.05-0.39,0.05-0.77,0.1c-0.32-1.92-0.75-4.06,0.34-5.81
						C72.4,83.74,72.5,85.14,72.99,87.25z"/>
					<path class="st79" d="M72.99,87.25c0.12,0.52,0.22,0.85,0.39,1.35c-0.29,0.44-0.29,0.44-0.58,0.87
						c-0.16-0.71-0.46-1.41-0.58-2.13C72.6,87.3,72.6,87.3,72.99,87.25z"/>
					<path class="st80" d="M83.15,85.8c-0.1,0.05-0.1,0.05-0.19,0.1c-0.02-0.18-0.03-0.41,0.1-0.39
						C83.08,85.64,83.08,85.67,83.15,85.8z"/>
				</g>
			</g>
			<path class="st81" d="M82.96,112.89c-0.18,0.37-0.31,0.79-0.48,1.16c-0.38,0.82-1.06,1.45,0,0.97c-1.24,1.71-4.24,3.67-6.19,4.6
				c1.6,0.16,3.12-0.4,4.6-0.92c0.3,1.17-0.85,3.36,1.02,1.4c2.91-3.05,2.32-8.93,2.42-9.72c0.02-0.17,0.3-0.5,0.48-0.58
				c0.4,2.09,0.22,4.1,0.97,6.1c-1.77,3.84-5.01,6.23-9.1,7.06c0.71-0.17,2.42-2.05,2.32-2.18c-0.69,0.04-2.95,0.19-3.39,0.05
				c-0.04-0.01,0.12,0.01-0.68-0.58c0.01-0.4-0.3-0.43-0.48-0.87c1.45-0.3,2.51-0.88,3.39-2.08c0.52-0.71,2.94-5.68,3.1-6.82
				c0.11-0.25,0.32-0.72,0-0.77c0.48-0.76,1.17-1.36,1.74-2.03c-0.48,2.06-0.48,2.06-0.97,4.11c0.56-0.46,0.56-0.46,1.11-0.92
				C82.89,111.88,82.89,111.88,82.96,112.89z"/>
			<path class="st81" d="M60.61,115.89c0.32,3.08,7.26,7.08,9.68,7.45c0.03,0.19-0.83,0.13-1.11,0.1c-2.3-0.3-7.63-2.8-8.47-5.08
				C60.53,117.9,60.18,116,60.61,115.89z"/>
			<path class="st69" d="M83.73,106.51c-0.05,0-0.05,0-0.1,0c-0.48,0.25-0.66,0.79-0.97,1.16c-0.57,0.67-1.26,1.27-1.74,2.03
				c-0.1,0.25-0.55,0.37-0.58,0.39c-0.36,0.06-0.37-0.19-0.39-0.19c0.44-0.84,0.42-2.2,0.68-3.19c0.8-3.1,1.74-2.27,2.03-6.68
				C83.46,101.95,83.1,104.28,83.73,106.51z"/>
			<g>
				<path class="st71" d="M93.31,62.58c-0.1,0.05-0.1,0.05-0.19,0.1c-0.48-0.5-1.84-1.35-2.37-2.13c-0.08,0.03-0.04,0.19-0.05,0.19
					c-0.21,0-0.3-0.07-0.48-0.1c-0.24-0.53-0.51-0.99-0.87-1.45c-0.11-0.14-0.38-0.82-0.48-0.29c-0.03-0.34-0.09-0.36,0.1-0.68
					C90.59,59.53,91.91,61.05,93.31,62.58z"/>
				<path class="st82" d="M56.54,60.74c0.29-0.47,1.11-0.98,1.55-1.35c4.53-1.74-0.45,0.87-1.69,1.84
					C56.25,61.01,56.45,60.89,56.54,60.74z"/>
				<path class="st82" d="M90.22,60.64c0.32,0.7,1.36,2.88-0.1,2.32c0.16-0.09,0.28,0.06,0.29-0.05c0.04-0.41-0.88-2.91-1.06-3.73
					C89.71,59.65,89.97,60.11,90.22,60.64z"/>
				<path class="st83" d="M62.54,56.77c0,0.1,0,0.1,0,0.19c-1,0.32-2.21,1.16-3.19,1.45c0.73-0.54,1.46-1.07,2.23-1.55
					C61.73,56.88,62.5,56.79,62.54,56.77z"/>
				<g>
					<linearGradient id="SVGID_1_" gradientUnits="userSpaceOnUse" x1="92.2523" y1="62.7901" x2="54.364" y2="92.7211">
						<stop  offset="0" style="stop-color:#5062B1"/>
						<stop  offset="1" style="stop-color:#7B0C49"/>
					</linearGradient>
					<path class="st18" d="M78.02,53.09c0.12,1-0.15,1.38-0.73,2.13c2-0.2,2.63-0.52,1.02-2.13c3.8,0.68,7.64,2.74,10.64,5.13
						c-0.18,0.32-0.12,0.34-0.1,0.68c0.08,1.05,1.68,4.1,0.19,1.89c-0.23-0.35-0.93-1.92-0.77-1.16c0.05,0.24,0.92,1.61,1.06,2.03
						c0.42,1.23,0.36,2.57,0.87,3.77c0.46,0.37-0.13-2.12-0.29-2.32c-0.03-0.42,0.13-0.11,0.19-0.15c1.46,0.56,0.42-1.62,0.1-2.32
						c0.18,0.03,0.28,0.09,0.48,0.1c1.03,1.24,2.35,2.32,3.39,3.44c0.13-0.24-0.77-1.29-0.97-1.5c0.1-0.05,0.1-0.05,0.19-0.1
						c3.15,3.44,5.81,7.02,7.64,11.37c1.96,4.65,3.39,9.54-1.06,13.21c-1.02,0.84-2.19,1.41-3.39,1.94c-0.6,0.15-0.6,0.15-1.21,0.29
						c-0.98-0.58-3.03-0.46-3.82-1.55c2.15-0.46,7.89-1.43,6-4.69c-2.71-4.68-19.69-5.72-24.63-5.47
						c-5.19,0.26-14.21,2.26-18.87,4.55c-9.42,4.63,8.07,6.2,10.6,6.48c1.61,0.18,3.63,0.11,3.29,0.77c-0.04,0.36,0.03,0.75,0,1.11
						c-0.99,0.02-0.99,0.02-1.98,0.05c-0.01,0.42-0.11,0.85-0.15,1.26c-0.59-0.04-1.16-0.2-1.74-0.29c-0.15-0.02-0.33,0.02-0.48,0
						c-5.44-0.77-13.68-2.17-17.03-6.97c-0.26-0.99-1.05-1.73-0.87-4.64c1.24-0.22,2.05-6.2,0.48-1.79
						c-0.03,0.08-0.13,0.05-0.19,0.05c0.96-4.41,4.68-10.35,7.45-13.93c1.5-0.85,1.5-0.85,3-1.69c-0.04-0.46-1.95,0.69-2.23,0.73
						c0.72-0.88,1.49-1.98,2.42-2.61c-0.09,0.15-0.29,0.27-0.15,0.48c1.24-0.97,6.23-3.58,1.69-1.84c0.43-0.36,0.81-0.64,1.26-0.97
						c0.99-0.3,2.2-1.13,3.19-1.45c0.11-0.03,2.09-0.16,1.94-0.73c-0.14-0.51-1.84,0.5-1.94,0.53c-0.05,0.02-0.81,0.11-0.97,0.1
						C66.78,53.6,71.83,52.09,78.02,53.09z"/>
					<g>
						<g>
							<path class="st72" d="M57.99,72.16c1.94,2.39-1.99,5-3.29,2.52C55.25,73.03,55.78,71.35,57.99,72.16z"/>
							<path class="st82" d="M58.67,76.41c-0.3-0.7-2.54,0.61-4.35-0.48c0.16-1.03,0.37-1.2,0.39-1.26c1.3,2.49,5.23-0.12,3.29-2.52
								C59.71,72.78,59.46,75.15,58.67,76.41z"/>
							<path class="st82" d="M58.67,76.41c-1.1,1.75-4.54,2.64-4.55,0.15c0-0.03,0.18-0.56,0.19-0.63
								C56.13,77.02,58.37,75.71,58.67,76.41z"/>
						</g>
						<g>
							<path class="st72" d="M78.8,69.54c0.52,2.52-3.12,3.05-3.77,0.68c0.12-0.25,0.34-1.26,1.31-1.45
								C77.35,68.57,78.06,68.88,78.8,69.54z"/>
							<g>
								<path class="st82" d="M79.09,72.93c-1.46-0.07-3.77-0.43-4.35-1.94c0.07-0.22,0.19-0.58,0.29-0.77
									c0.66,2.37,4.29,1.85,3.77-0.68C79.97,70.61,80.12,71.68,79.09,72.93z"/>
								<path class="st82" d="M79.09,72.93c-1.3,1.59-4.57,0.8-4.74,0.15c-0.24-0.91,0.35-1.97,0.39-2.08
									C75.32,72.5,77.63,72.86,79.09,72.93z"/>
							</g>
						</g>
						<g>
							<path class="st72" d="M64.48,65.38c-0.88,1.36-3.34,1.17-3.68-0.48C61.74,62.7,64.69,62.65,64.48,65.38z"/>
							<path class="st85" d="M64.48,65.38c-0.27,3.42-5.32,3.34-3.68-0.48C61.14,66.55,63.6,66.74,64.48,65.38z"/>
						</g>
						<g>
							<path class="st82" d="M95.54,72.16c0.78,1.51,0.9,3-1.16,3.39c1.22-0.88,0.48-0.2-0.82-0.68c-1.18-0.43-2.24-1.72-1.79-3
								c0.24-0.33,0.26-0.39,0.58-0.68C91.54,73.25,95.37,74.33,95.54,72.16z"/>
							<path class="st72" d="M95.54,72.16c-0.17,2.18-3.99,1.1-3.19-0.97C93.89,69.82,94.68,70.5,95.54,72.16z"/>
							<path class="st82" d="M94.38,75.54c-1.69,0.32-5.01-0.32-2.61-3.68c-0.45,1.28,0.61,2.57,1.79,3
								C94.86,75.34,95.59,74.67,94.38,75.54z"/>
						</g>
						<g>
							<path class="st72" d="M84.02,57.55c-0.18,2.63-5.14,1.88-4.64-0.77C80.84,54.98,83.24,55.52,84.02,57.55z"/>
							<path class="st82" d="M84.02,57.55c0.04,0.09,0.76,1.06-0.15,1.74c-1.17,0.89-6.64,0.1-4.5-2.52
								C78.89,59.43,83.84,60.18,84.02,57.55z"/>
						</g>
						<g>
							<path class="st72" d="M71.25,74.29c-1.18,0.95-3,0.54-3.29-1.06C69.47,70.75,72.14,71.86,71.25,74.29z"/>
							<path class="st85" d="M71.25,74.29c-0.7,1.91-5.3,2.22-3.29-1.06C68.25,74.82,70.07,75.24,71.25,74.29z"/>
						</g>
						<g>
							<path class="st72" d="M76.96,62.87c0.29,2.21-3.29,2.48-3.87,0.97C72.32,61.84,75.52,60.56,76.96,62.87z"/>
							<g>
								<path class="st82" d="M73.57,66.25c1.04-0.16,2.7,0.45,3.19-0.82c-1.32-0.07-2.61-0.33-3.87-0.73c0-0.3,0.08-0.6,0.19-0.87
									c0.58,1.51,4.16,1.24,3.87-0.97C78.65,65.58,75.48,67.2,73.57,66.25z"/>
								<path class="st85" d="M73.57,66.25c-0.58-0.29-0.68-0.97-0.68-1.55c1.26,0.4,2.55,0.65,3.87,0.73
									C76.27,66.7,74.61,66.1,73.57,66.25z"/>
							</g>
						</g>
						<path class="st82" d="M89.34,59.19c0.19,0.82,1.11,3.31,1.06,3.73c-0.01,0.11-0.13-0.04-0.29,0.05
							c-0.06,0.03-0.22-0.27-0.19,0.15c0.16,0.2,0.75,2.69,0.29,2.32c-0.51-1.21-0.45-2.55-0.87-3.77c-0.14-0.42-1.02-1.8-1.06-2.03
							c-0.16-0.76,0.54,0.82,0.77,1.16c1.48,2.22-0.11-0.83-0.19-1.89C88.96,58.37,89.23,59.05,89.34,59.19z"/>
						<path class="st86" d="M76.14,59.19c0.54-0.13,1.23,0.14,1.5,0.63c0.74,1.33-1.69,0.65-2.47,1.02
							C74.85,60.33,75.77,59.28,76.14,59.19z"/>
						<g>
							<path class="st72" d="M88.09,65.87c-1.35,1.38-3.85,0.92-3.87-1.16C85.47,62.32,88.65,63.53,88.09,65.87z"/>
							<path class="st82" d="M88.09,65.87c-0.52,2.15-4.51,1.61-4.26-0.53c0.03-0.26,0.3-0.47,0.39-0.63
								C84.23,66.79,86.74,67.25,88.09,65.87z"/>
						</g>
						<path class="st82" d="M97.91,71.19c2.66,2.73-0.15,5.94,0,2.03C99.26,74.94,97.5,71.52,97.91,71.19z"/>
						<path class="st82" d="M73.62,53.97c2.42-0.53,4.82,1.48,0.63,0.92c1.83-0.62-1,0-1.16-0.39C72.98,54.24,73.46,54,73.62,53.97z
							"/>
						<g>
							<path class="st87" d="M93.7,66.93c-0.17-0.08-1.88-3.11-1.94-3.29c1.41,0.01,1.86,1.57,2.03,2.76
								C93.8,66.44,94.26,66.44,93.7,66.93z"/>
							<path class="st88" d="M93.7,66.93c0.56-0.5,0.1-0.49,0.1-0.53c-0.18-1.19-0.62-2.74-2.03-2.76
								c-0.49-1.52,1.57,0.13,1.94,0.73C94.25,65.28,94.52,67.29,93.7,66.93z"/>
						</g>
						<path class="st82" d="M52.24,71c0.56,1.44-0.67,2.38-1.94,2.81C50.39,73.39,52.07,70.97,52.24,71z"/>
						<path class="st82" d="M78.31,53.09c1.61,1.61,0.98,1.93-1.02,2.13c0.58-0.75,0.84-1.12,0.73-2.13
							C78.12,53.11,78.22,53.08,78.31,53.09z"/>
						<path class="st87" d="M45.61,79.99c0.04-0.59,0.16-1.17,0.29-1.74c0.06,0,0.17,0.03,0.19-0.05
							C47.66,73.8,46.84,79.77,45.61,79.99z"/>
						<g>
							<path class="st82" d="M56.15,70.42c1.46-0.4,2.86-3.46,0.48-1.26c0.46-0.83,0.84-1.09,1.6-1.64
								C58.99,68.45,56.23,72.21,56.15,70.42z"/>
							<path class="st86" d="M56.15,70.42c-0.02-0.52,0.25-0.84,0.48-1.26C59.02,66.96,57.61,70.01,56.15,70.42z"/>
						</g>
						<g>
							<path class="st82" d="M85.86,74.09c0.13-0.62,0.42-0.31,0.53-0.39c0.51-0.34,1.06-1.44,0.34-1.74
								c-4.25,2.55-3.44-1.1-0.15-0.58C88.6,71.7,87.37,74.89,85.86,74.09z"/>
							<path class="st86" d="M85.86,74.09c-1.03-0.55,0.74-1.4,0.87-2.13c0.72,0.3,0.17,1.4-0.34,1.74
								C86.28,73.78,85.99,73.47,85.86,74.09z"/>
						</g>
						<path class="st88" d="M53.35,64.32c0.26-0.33,0.5-0.64,0.77-0.97c0.28-0.04,2.19-1.19,2.23-0.73
							C54.85,63.47,54.85,63.47,53.35,64.32z"/>
						<path class="st82" d="M93.12,62.67c0.2,0.21,1.1,1.26,0.97,1.5c-1.04-1.11-2.35-2.19-3.39-3.44c0.01,0-0.04-0.16,0.05-0.19
							C91.28,61.32,92.64,62.18,93.12,62.67z"/>
						<path class="st87" d="M49.91,72.45c0.34,0.01-0.3,0.85-0.44,1.02C48.23,75,47.41,74.51,49.91,72.45z"/>
						<path class="st82" d="M62.54,56.97c0-0.1,0-0.1,0-0.19c0.1-0.04,1.79-1.05,1.94-0.53C64.63,56.81,62.65,56.93,62.54,56.97z"/>
						<g>
							<path class="st82" d="M53.69,66.64c0.49,0.42-1.52,2.57-1.74,2.71C50.15,70.45,52.42,67.85,53.69,66.64z"/>
							<g>
								<path class="st87" d="M55.96,66.54c-0.84,1.93-4.57,4.12-2.23,1.26C54.85,67.17,54.85,67.17,55.96,66.54z"/>
								<path class="st85" d="M55.96,66.54c-1.11,0.63-1.11,0.63-2.23,1.26c0.73-0.89,2.34-1.92,2.42-1.79
									C56.21,66.38,55.97,66.52,55.96,66.54z"/>
							</g>
						</g>
						<g>
							<path class="st82" d="M67.14,58.32c1.23-0.11-0.91,1.98-1.64,2.42c-1.77,1.06-0.97-0.09,0.44-1.4
								c-2.79,2.39-1.67-0.2,0.24-0.24C66.48,58.95,66.95,58.34,67.14,58.32z"/>
							<g>
								<path class="st82" d="M68.78,57.45c1.06-0.2-0.71,2.11-1.02,2.37c0.21,0.43,3.44-2.39,2.23-0.39
									c-0.55,0.9-4.71,2.01-1.94-1.26C68.14,58.07,68.73,57.46,68.78,57.45z"/>
								<path class="st82" d="M69.36,58.32c0.16-0.02,0.38-0.04,0.34,0.15C67.32,60.14,69.09,58.36,69.36,58.32z"/>
							</g>
						</g>
						<path class="st89" d="M97.23,70.8c0.14,0.1-0.08,0.66-0.1,0.87C97.08,71.67,96.96,70.61,97.23,70.8z"/>
						<g>
							<path class="st82" d="M99.94,73.8c3.66,6.83,0.25,5.34-0.63,1.98c-0.57-2.2,0.8,1.19,0.97,1.45
								C102.16,80.12,99.32,74.1,99.94,73.8z"/>
							<g>
								<path class="st86" d="M98.15,81.06c0.04-0.14,0.19-0.2,0.29-0.29c0.59-0.5,1.11-1.26,0.77-2.03
									c0.18-0.41,0.74,0.23,0.1-0.77C101.07,78.82,99.29,82.23,98.15,81.06z"/>
								<path class="st82" d="M95.92,77.87c0.12,0.05,0.12,0.05,0.24,0.1c-0.8,0.58-0.8,0.58-1.6,1.16
									C94.65,78.57,95.44,78.05,95.92,77.87z"/>
								<g>
									<path class="st82" d="M99.31,77.96c0.65,1.01,0.08,0.37-0.1,0.77c-0.2,0.46-0.26,1.42-0.77,2.03
										c-0.11,0.09-0.25,0.15-0.29,0.29c-0.83-0.86,0.48-2.04,0.34-2.13c-2.21-0.09-4.15,1.8-3.92,0.19
										c0.8-0.58,0.8-0.58,1.6-1.16c-0.12-0.05-0.12-0.05-0.24-0.1C96.94,77.47,98.3,77.47,99.31,77.96z"/>
									<path class="st70" d="M98.44,80.77c0.51-0.61,0.58-1.57,0.77-2.03C99.55,79.51,99.03,80.27,98.44,80.77z"/>
									<path class="st70" d="M96.46,78.25c0.62-0.12-1.43,1.38-1.5,1.11C95.36,79.14,96.03,78.33,96.46,78.25z"/>
								</g>
							</g>
						</g>
						<g>
							<path class="st82" d="M62.11,60.16c0.98,0.06-0.82,2.57-2.13,3.29C56.14,65.57,61.16,60.1,62.11,60.16z"/>
							<path class="st70" d="M61.33,61.13c0.16,0.12-0.31,0.52-0.68,0.87C58.25,64.27,60.09,61.87,61.33,61.13z"/>
						</g>
						<g>
							<path class="st82" d="M68.2,69.16c0.3-0.02,1.86,0.23,1.94,0.29c0.98,0.78-3.2,2.72-3.44,1.02
								C66.58,69.61,67.51,69.2,68.2,69.16z"/>
							<path class="st77" d="M69.07,69.83c1.19-0.01-1.84,0.84-1.89,0.53C67.7,70.2,68.56,69.84,69.07,69.83z"/>
						</g>
						<g>
							<path class="st82" d="M82.43,74.67c1.75-0.21,0.43,2.03-0.58,2.61C79.21,78.79,80.42,74.91,82.43,74.67z"/>
							<path class="st69" d="M82.33,75.54c0.35-0.03-0.86,1.46-1.06,1.55C79.71,77.77,81.82,75.76,82.33,75.54z"/>
						</g>
						<g>
							<path class="st82" d="M84.94,68.09c1.07-0.11,1.09,2.81-1.06,2.23C81.28,72.65,83.67,68.22,84.94,68.09z"/>
							<path class="st71" d="M85.04,68.58c0.36,0.24-0.49,0.75-1.21,0.92C84.04,68.97,84.6,68.83,85.04,68.58z"/>
						</g>
						<g>
							<path class="st82" d="M68.4,62.87c0.61-0.01,0.79,2.08-0.68,3C64.98,67.58,67.66,62.88,68.4,62.87z"/>
							<path class="st69" d="M68.3,63.64c-0.12,0.46-0.12,0.46-0.24,0.92C66.05,66.49,67.49,64.68,68.3,63.64z"/>
						</g>
						<g>
							<path class="st82" d="M91.13,68.09c1.41-0.24-1.37,4.62-1.98,2.76c-0.51-1.53,1.43-2.18,1.6-2.27
								C90.87,68.51,91,68.12,91.13,68.09z"/>
							<path class="st71" d="M90.75,68.96c0.14,0.06-0.1,0.55-0.15,0.63C90.04,70.54,88.76,70.75,90.75,68.96z"/>
						</g>
						<g>
							<path class="st85" d="M79.91,63.45c0.99-0.08-0.26,3.36-1.45,3C77.2,66.06,79.72,63.46,79.91,63.45z"/>
							<path class="st87" d="M79.62,64.42c0.11,0.22-0.21,0.76-0.34,0.92C78.5,66.33,78.12,65.88,79.62,64.42z"/>
						</g>
						<g>
							<path class="st82" d="M71.3,54.26c1.31-0.18,1.28,1.45-0.29,1.84C68.25,56.77,70.36,54.38,71.3,54.26z"/>
							<path class="st69" d="M71.3,54.93c0.08-0.01,0.2-0.02,0.24,0.05C69.18,56.94,70.51,55.04,71.3,54.93z"/>
						</g>
						<g>
							<path class="st82" d="M61.86,71.77c0.07,0.23,0.22,0.17,0.29,0.19c0.47,0.13,1.49-0.7,1.74-1.06c0.02-0.03,0.39-0.1-0.1-0.58
								c1.2-0.31,1.63-0.36,0.77,0.82C63.82,72.19,60.95,73.79,61.86,71.77z"/>
							<path class="st82" d="M63.9,70.9c-0.29-0.11-1.26,0.63-1.74,1.06c-0.07-0.02-0.22,0.04-0.29-0.19
								c0.33-0.73,1.19-1.26,1.94-1.45C64.29,70.8,63.92,70.87,63.9,70.9z"/>
							<path class="st69" d="M63.9,70.9c-0.25,0.36-1.28,1.19-1.74,1.06C62.63,71.53,63.61,70.79,63.9,70.9z"/>
						</g>
						<g>
							<path class="st82" d="M72.6,68c-0.15,0.36,0,0.4,0,0.58c0,0.27-0.29,0.74,0.24,0.68c0.06-0.01,0.94-0.86,0.63-0.87
								c0.35-0.23,0.49-0.61,0.39-0.97c2.15,0.37-2.32,5.11-1.64,1.21C72.26,68.36,72.45,68.19,72.6,68z"/>
							<path class="st82" d="M73.86,67.42c0.1,0.35-0.04,0.74-0.39,0.97c-0.27,0.18-0.59,0.3-0.87,0.19c0-0.18-0.15-0.22,0-0.58
								C72.92,67.61,73.34,67.33,73.86,67.42z"/>
							<path class="st71" d="M72.6,68.58c0.28,0.11,0.6-0.02,0.87-0.19c0.31,0.01-0.57,0.86-0.63,0.87
								C72.32,69.31,72.6,68.84,72.6,68.58z"/>
						</g>
						<g>
							<path class="st82" d="M83.25,62.38c1.1-0.87,1.23-2.21,0.19-1.16c0.32-0.57,0.73-1.18,1.06-0.34
								C84.94,61.96,83.57,63.34,83.25,62.38z"/>
							<path class="st87" d="M83.25,62.38c-0.18-0.55-0.15-0.55,0.19-1.16C84.48,60.17,84.34,61.52,83.25,62.38z"/>
							<g>
								<path class="st82" d="M84.22,60.16c1.39,0.72,1.75-1.77,1.5-1.94c-0.23-0.02-0.06,0.16-0.24,0.29
									c-0.4,0.29-0.5,0.49-0.77,0.87c-0.06,0.08-0.14,0.23-0.29,0.19c0.13-0.35,1.01-2.09,1.31-2.03
									C86.61,57.73,86.77,61.43,84.22,60.16z"/>
								<path class="st86" d="M84.22,60.16c0.04-0.2,0.13-0.39,0.19-0.58c0.15,0.04,0.23-0.11,0.29-0.19
									c0.12,0.29,0.69-0.39,0.77-0.87c0.18-0.13,0.01-0.31,0.24-0.29C85.97,58.39,85.6,60.88,84.22,60.16z"/>
								<path class="st77" d="M85.47,58.51c-0.08,0.48-0.65,1.16-0.77,0.87C84.97,59.01,85.07,58.8,85.47,58.51z"/>
							</g>
						</g>
						<g>
							<path class="st82" d="M50.88,75.16c1.17-0.21,0.13,1.51-0.68,2.13C47.71,79.2,50.07,75.3,50.88,75.16z"/>
							<path class="st77" d="M50.78,75.54c0.12,0.06,0,0.35-0.05,0.44C50.36,76.73,48.24,77.71,50.78,75.54z"/>
						</g>
					</g>
				</g>
			</g>
			<path class="st69" d="M73.19,111.25c1.18-1.22,1.75-1.88,1.94-3.73c0.31-3.05-0.98-4.37-1.45-6.05c-0.3-1.08,0.17-0.3,0.58,0.63
				c0.63,1.42,1.75,5.05,1.64,6.53c-0.22,3.02-5.43,4.91-3.77,8.22c-0.14,0.59,0.2,3.28-2.52,3.77c-0.93,0.17-2.07,0.13-2.9-0.39
				c-2.37-1.47-0.59-5.42,0.48-7.21c0.27-0.46,0.68-0.86,0.97-1.31c1.19-1.84,2.83-3.29,3-5.66c-0.36-8.35-0.36-8.35-0.73-16.69
				c0.59,2.26,1.71,4.23,2.85,6.24c0.18,2-0.65,3.92-0.77,5.9c-0.2,3.23,0.92,5.13-0.68,7.93c-1.1,1.95-4.46,4.45-4.16,8.13
				c0.02,0.2,0.29,1.3,0.39,1.45c0.68,1.1,0.8-1.26,1.55-3C70.77,113.34,71.39,113.11,73.19,111.25z"/>
			<path class="st79" d="M73.67,101.48c0.47,1.68,1.77,3,1.45,6.05c-0.19,1.84-0.76,2.5-1.94,3.73c0.35-1.14,1.04-2.22,1.16-3.44
				c0.17-1.74-0.29-2.53-0.58-3.82c-0.19-0.83-0.27-1.69-0.48-2.52C73.31,101.45,73.59,101.38,73.67,101.48z"/>
			<path class="st90" d="M75.8,97.22c-1.19,1.21-1.19,1.21-2.37,2.42c-0.11-0.5,0.35-0.89,0.63-1.26c0.64-0.83,1.79-1.64,2.56-3.39
				C76.89,95.13,75.83,96.89,75.8,97.22z"/>
			<path class="st91" d="M73.77,103.99c-0.37-0.12-0.61-2.38-0.48-2.52C73.5,102.3,73.58,103.16,73.77,103.99z"/>
			<path class="st73" d="M75.7,111.35c-0.65,0.45-1.55,1.71-1.31,1.84c0.99-0.74,2.16-1.11,3.24-1.64c-0.1,1.35-0.1,1.35-0.19,2.71
				c-0.32,0.34-0.74,0.63-1.06,0.97c-1.35,1.37-2.92,1.82-1.94,4.16c0.18,0.44,0.49,0.47,0.48,0.87c-0.33-0.24-0.37-0.47-0.44-0.48
				c-0.32-0.06-0.49,1.74-0.05,1.94c-1.41,0.63-3.33,0.46-4.55-0.58c-0.02-0.02-0.31-0.4-0.29-0.48c2.71-0.5,2.38-3.19,2.52-3.77
				c0.5-2.12,0.92-3.65,2.47-5.32c0.27-0.2,0.84-0.53,1.02-0.68C75.65,111.1,75.65,111.1,75.7,111.35z"/>
			<path class="st79" d="M74.93,120.25c0.8,0.59,0.63,0.57,0.68,0.58c-0.28,0.47-0.68,0.66-1.16,0.87c-0.44-0.19-0.27-2,0.05-1.94
				C74.56,119.78,74.6,120.01,74.93,120.25z"/>
			<path class="st70" d="M66.7,120.25c0.83,0.52,1.98,0.56,2.9,0.39c-0.02,0.08,0.27,0.47,0.29,0.48c-1.72,0.09-2.63-0.04-4.16-0.77
				C66.22,120.3,66.22,120.3,66.7,120.25z"/>
			<path class="st69" d="M80.35,110.09c-0.78,0.56-1.83,1.02-2.71,1.45c-1.09,0.53-2.25,0.9-3.24,1.64
				c-0.24-0.13,0.66-1.38,1.31-1.84c0.52-0.36,1.34-0.67,1.94-0.87c0.15-0.05,0.51-0.15,0.68-0.19c0.22-0.06,1.56-0.4,1.64-0.39
				C79.98,109.9,79.98,110.15,80.35,110.09z"/>
			<path class="st79" d="M77.64,110.47c-0.6,0.2-1.42,0.51-1.94,0.87c-0.05-0.24-0.05-0.24-0.1-0.48
				C76.82,109.8,77.16,108.42,77.64,110.47z"/>
			<g>
				<path class="st72" d="M68.15,88.99c-0.18-0.09-0.28,0.43-0.29,0.48c0.34-0.66-1.68-0.6-3.29-0.77c0.34-0.29,2.26,0.09,3.24,0.19
					c0.29-0.1-0.09-2.77-0.15-3.19c-0.01-0.05,0.21-0.32-0.15-1.06c-1.18,1.11-3.39,2.68-4.98,2.9c-0.54,0.08-1.13,0.11-1.64-0.19
					c0.47-0.73,1.24-0.97,2.03-1.21c-1.07-0.93,1.16-1.71,1.79-1.02c0.69-0.79,2.01-0.97,2.37-1.94
					C68.06,84.54,68.06,87.3,68.15,88.99z"/>
				<path class="st70" d="M67.09,83.19c-0.36,0.97-1.68,1.14-2.37,1.94c-0.63-0.7-2.86,0.09-1.79,1.02
					c-0.79,0.24-1.56,0.48-2.03,1.21c-0.15,0.05-0.15,0.05-0.29,0.1c-0.63-0.59-3.58,0-2.03-1.64c1.29,0.62,4.53-1.3,5.9-1.94
					c0.68-0.31,1.97-0.73,2.13-1.16C67.19,83.04,67.02,83.09,67.09,83.19z"/>
				<path class="st70" d="M67.67,85.7c-0.34,0.29-0.58,0.74-0.87,1.06c-0.05,0.06-0.56,0.17-0.97,1.16
					c-1.05,0.01-2.25-0.22-3.29-0.39c1.6-0.22,3.8-1.8,4.98-2.9C67.88,85.38,67.66,85.65,67.67,85.7z"/>
				<path class="st86" d="M66.8,86.77c-0.1,0.24,0.09,0.99,0,1.11c-0.07,0.09-0.8,0.05-0.97,0.05
					C66.24,86.94,66.75,86.83,66.8,86.77z"/>
				<g>
					<path class="st72" d="M63.41,82.8c-0.04,0.68-0.15,0.43-0.48,0.68c-2.25,0.44-6.81,2.74-1.74,0.77
						c1.05,0.05-1.14,1.1-2.18,1.35c-0.74-0.83-0.71,0.02-0.1,0.19c1.28,0.36,4.18-1.9,5.56-1.94c-1.37,0.64-4.61,2.55-5.9,1.94
						C55.87,84.51,62.7,82.93,63.41,82.8z"/>
					<path class="st72" d="M66.61,82.7c-0.16,0.43-1.45,0.85-2.13,1.16c-1.38,0.04-4.28,2.29-5.56,1.94
						c-0.61-0.17-0.65-1.03,0.1-0.19c1.04-0.25,3.23-1.31,2.18-1.35c0.71-0.27,1.18-0.35,1.74-0.77c0.33-0.25,0.44,0,0.48-0.68
						C64.49,82.6,65.58,82.12,66.61,82.7z"/>
					<path class="st82" d="M62.93,83.48c-0.56,0.42-1.03,0.5-1.74,0.77C56.12,86.22,60.68,83.92,62.93,83.48z"/>
				</g>
			</g>
			<path class="st70" d="M82.47,115.02c0.23-0.31,0.4-0.63,0.58-0.97c0.47-0.85,1.31-2.23,0.97-3.19c0.05-0.18,0.09-0.33,0.19-0.48
				c0.05,0,0.05,0,0.1,0c-0.1,0.8,0.49,6.68-2.42,9.72c-1.87,1.96-0.72-0.23-1.02-1.4c-1.48,0.52-2.99,1.08-4.6,0.92
				C78.23,118.69,81.23,116.74,82.47,115.02z"/>
			<path class="st70" d="M74.44,119.38c-0.99-2.34,0.59-2.79,1.94-4.16c0.94-0.2,1.77-0.67,2.42-1.35c0.4-0.42,1.91-2.88,2.13-3.39
				c-0.16,1.14-2.58,6.11-3.1,6.82C76.95,118.5,75.89,119.08,74.44,119.38z"/>
			<g>
				<path class="st72" d="M84.8,109.8c-0.18,0.08-0.46,0.41-0.48,0.58c-0.05,0-0.05,0-0.1,0c-0.29-1.94-0.29-1.94-0.58-3.87
					c0.05,0,0.05,0,0.1,0C84.06,107.67,84.44,107.96,84.8,109.8z"/>
				<path class="st74" d="M84.22,110.38c-0.1,0.16-0.14,0.31-0.19,0.48c-0.06,0.22-0.89,1.65-1.06,2.03
					c-0.07-1.02-0.07-1.02-0.15-2.03c-0.56,0.46-0.56,0.46-1.11,0.92c0.48-2.06,0.48-2.06,0.97-4.11c0.31-0.37,0.49-0.92,0.97-1.16
					C83.93,108.44,83.93,108.44,84.22,110.38z"/>
			</g>
			<path class="st72" d="M80.93,110.47c-0.22,0.51-1.73,2.97-2.13,3.39c0.07-0.82,0.07-0.82,0.15-1.64c-0.48,0.7-0.92,1.4-1.5,2.03
				c0.1-1.35,0.1-1.35,0.19-2.71c0.88-0.43,1.93-0.89,2.71-1.45c0.03-0.02,0.48-0.14,0.58-0.39
				C81.24,109.76,81.03,110.22,80.93,110.47z"/>
			<path class="st87" d="M83.05,114.06c-0.29,0-0.29,0-0.58,0c0.17-0.37,0.31-0.79,0.48-1.16c0.18-0.38,1-1.81,1.06-2.03
				C84.37,111.83,83.52,113.2,83.05,114.06z"/>
			<path class="st92" d="M83.05,114.06c-0.18,0.34-0.35,0.65-0.58,0.97c-1.06,0.48-0.38-0.15,0-0.97
				C82.76,114.06,82.76,114.06,83.05,114.06z"/>
			<path class="st81" d="M78.8,113.86c-0.65,0.69-1.47,1.16-2.42,1.35c0.33-0.33,0.75-0.62,1.06-0.97c0.58-0.63,1.02-1.33,1.5-2.03
				C78.87,113.04,78.87,113.04,78.8,113.86z"/>
		</g>
	</g>
</g>
</svg>
