<?xml version="1.0" encoding="utf-8"?>
<!-- Generator: Adobe Illustrator 28.0.0, SVG Export Plug-In . SVG Version: 6.00 Build 0)  -->
<svg version="1.1" id="Layer_1" xmlns="http://www.w3.org/2000/svg" xmlns:xlink="http://www.w3.org/1999/xlink" x="0px" y="0px"
	 viewBox="0 0 187 176" style="enable-background:new 0 0 187 176;" xml:space="preserve">
<style type="text/css">
	.st0{display:none;}
	.st1{display:inline;fill:#A8C9B7;}
	.st2{display:inline;fill:#CBCFBF;}
	.st3{display:inline;fill:#D1EEE5;}
	.st4{display:inline;fill:#CEDFDC;}
	.st5{display:inline;fill:#B9C3B8;}
	.st6{display:inline;fill:#B78B94;}
	.st7{display:inline;fill:#E2F3EC;}
	.st8{display:inline;fill:#FFDDAD;}
	.st9{display:inline;fill:#E9ECD5;}
	.st10{display:inline;fill:#F5E5C6;}
	.st11{display:inline;fill:#F4DBC1;}
	.st12{display:inline;fill:#ABD3CD;}
	.st13{display:inline;fill:#C9FF8B;}
	.st14{display:inline;fill:#FDCFA6;}
	.st15{display:inline;fill:#C9D2BB;}
	.st16{display:inline;fill:#C1CAB3;}
	.st17{fill:#0D6679;}
	.st18{fill:url(#SVGID_1_);}
	.st19{fill:#A00B4D;}
	.st20{fill:#95D1C7;}
	.st21{fill:#396E6E;}
	.st22{fill:#C9644A;}
	.st23{fill:#AA1155;}
	.st24{fill:#C9FF8B;}
	.st25{fill:#F5994B;}
	.st26{fill:#D97C2E;}
	.st27{fill:#FD9C4A;}
	.st28{fill:#9A0A4D;}
	.st29{fill:#0DB0B3;}
	.st30{fill:#FC9E4F;}
	.st31{fill:#2E9068;}
	.st32{fill:#63043C;}
	.st33{fill:url(#SVGID_00000172441547821288190890000016389492553156507066_);}
	.st34{fill:#004F5B;}
	.st35{fill:#085F68;}
	.st36{fill:#2D0631;}
	.st37{fill:#2E757B;}
	.st38{fill:#49867C;}
	.st39{fill:#CEDFDC;}
	.st40{fill:#CBCFBF;}
	.st41{display:inline;fill:#778783;}
	.st42{display:inline;fill:#858287;}
	.st43{display:inline;fill:#6F8783;}
	.st44{display:inline;fill:#808486;}
	.st45{display:inline;fill:#868A86;}
	.st46{display:inline;fill:#856D5E;}
	.st47{display:inline;fill:#7F908C;}
	.st48{display:inline;fill:#986031;}
	.st49{display:inline;fill:url(#SVGID_00000129207220496671073730000015835676588663489189_);}
	.st50{display:inline;fill:#986735;}
	.st51{display:inline;fill:url(#SVGID_00000044157500946092808780000007084030236516644482_);}
	.st52{display:inline;fill:url(#SVGID_00000094596297810768634340000010522982301081015714_);}
	.st53{display:inline;fill:#96572E;}
	.st54{fill:url(#SVGID_00000034800953270435965790000015045936874909925282_);}
	.st55{fill:#7B9C56;}
	.st56{fill:#90733A;}
	.st57{fill:url(#SVGID_00000128478175655724249860000003725879102568767398_);}
	.st58{fill:#4E0A2A;}
	.st59{fill:#2A0516;}
	.st60{fill:url(#SVGID_00000129170433041264532130000003732765147136476574_);}
	.st61{fill:url(#SVGID_00000046320648812330080780000008979728217612853664_);}
	.st62{fill:#070C0B;}
	.st63{fill:#0B1515;}
	.st64{fill:#6F5433;}
	.st65{fill:url(#SVGID_00000096025255931881886370000002597131937731718278_);}
	.st66{fill:#470824;}
	.st67{display:inline;fill:#DBFEBA;}
	.st68{fill:#F2E8EF;}
	.st69{fill:#473169;}
	.st70{fill:#B21A5B;}
	.st71{fill:#4D51A8;}
	.st72{fill:#C9FE8C;}
	.st73{fill:#6DB985;}
	.st74{fill:#C9F17C;}
	.st75{fill:#CAFE80;}
	.st76{fill:#65967E;}
	.st77{fill:#643172;}
	.st78{fill:#72BC85;}
	.st79{fill:#528D7D;}
	.st80{fill:#CCD8D7;}
	.st81{fill:#F99D50;}
	.st82{fill:#FA9E50;}
	.st83{fill:#96104D;}
	.st84{fill:url(#SVGID_00000088847572240240250440000016812086489500656560_);}
	.st85{fill:#F69A4B;}
	.st86{fill:#A91355;}
	.st87{fill:#B41C5D;}
	.st88{fill:#FBA161;}
	.st89{fill:#8196B7;}
	.st90{fill:#373964;}
	.st91{fill:#5B9F69;}
	.st92{fill:#A4DD74;}
</style>
<g>
	<g id="Background_00000182501662339176873340000006368825535847795110_" class="st0">
		<path class="st1" d="M63.54,121.75c-0.18-0.01-0.36,0.01-0.54,0c0-30.46,0-30.46,0-60.91c30.46,0,30.46,0,60.91,0
			c0,30.46,0,30.46,0,60.91c-0.08,0.01-0.16-0.01-0.24,0c-1.24-0.3-2.62,0.03-3.9-0.18c-2.93,0.16-5.87-0.02-8.8,0.06
			c-0.01,0-0.2,0.08-0.21,0.12c-9.7,0.01-19.39,0.01-29.09,0c-0.04-0.06-0.04-0.06-0.09-0.12c-4.3,0.09-8.61-0.04-12.91-0.06
			c-0.71,0-4.81-0.04-5.06,0C63.59,121.58,63.52,121.69,63.54,121.75z"/>
		<path class="st1" d="M81.68,121.75c-4.28,0-14.92,0.2-18.14,0c-0.02-0.06,0.04-0.17,0.09-0.18c0.25-0.04,4.35,0,5.06,0
			c4.3,0.02,8.61,0.15,12.91,0.06C81.64,121.69,81.64,121.69,81.68,121.75z"/>
		<path class="st1" d="M123.68,121.75c-0.64,0.1-11.07,0-12.91,0c0.01-0.04,0.2-0.12,0.21-0.12c2.93-0.08,5.87,0.1,8.8-0.06
			C121.06,121.78,122.44,121.45,123.68,121.75z"/>
		<path class="st2" d="M107.68,65.36c1.91,0.72,1.01-0.16,1.52-0.36c1.34,0.06,1.99,1.41,3.15,1.9c0.76,0.65,0.93,1.4,1.28,1.31
			c-1.21,1.52-0.83,3.58,0,0.83c1.1,0.93,2,2.06,2.86,3.21c0.44,0.64,0.79,1.33,1.19,1.99c0.04,0.06,0.14,0,0.18,0.06
			c0.2,0.33,0.35,0.83,0.42,0.95c0.3,0.54,0.51,0.73,0.54,0.77c0.04,0.08,0.33,1,0.71,1.49c0.39,1.18,0.97,2.31,1.19,3.51
			c0.06,0.03,0.06,0.03,0.12,0.06c0.35,1.85,0.68,3.59,0.95,5.41c0,3.36,0,3.36,0,6.72c-0.2,0.66-0.15,1.26-0.24,1.9
			c0,0.02-0.12,0.02-0.18,0.42c-0.06,0.43-0.06,0.88-0.06,1.31c-0.35,1.31-0.66,2.55-0.83,3.87c-0.45,0.9-0.6,1.95-0.95,2.91
			c-0.04,0.1-0.23,0.22-0.24,0.24c-0.03,0.08-0.09,0.58-0.12,0.65c-0.03,0.07-0.34,0.51-0.36,0.54c-0.25,0.6-0.41,1.26-0.71,1.84
			c-0.96,1.63-1.85,3.39-3.15,4.76c-0.33,0.76-1.15,1.28-1.55,1.99c-0.29-0.05-0.42,0.29-0.3,0.54c-2.18-0.59-4.13-0.6-6.36-0.48
			c0.08-0.08,0.16-0.16,0.24-0.24c2.75-1.7,5.44-3.56,7.55-6.04c2.29-2.68,3.69-5.2,0.18-7.7c0.03-0.08,0.09-0.1,0.12-0.18
			c0.72,0.51,1.35,1.15,1.81,1.9c0.32-0.97,0.59-1.91,1.1-2.8c-0.44,1.01-1.3,3.21-0.8,4.16c1.54-2.31,2.54-5,2.62-7.79
			c-2.04,1.19-2.04,1.19-4.07,2.38c0.09-0.3,0.11-0.28,0.12-0.3c0.56-0.36,3.62-2.05,3.78-2.2c0.57-0.52,0.79-3.67,0.24-3.75
			c-0.21-0.03-2.64,2.36-3.24,2.56c0.09-0.42,0.07-0.83,0.18-1.25c0.04-0.17,0.07-0.34,0.12-0.51c1.38-1.82,2.79-3.74,3.09-6.07
			c0.22-1.66-0.18-0.33-0.54,0.3c-0.42,0.74-1.05,1.74-1.55,2.44c-0.62,0.89-1.39,2.07-1.19,1.13c0.07-0.31,2.56-3.35,2.86-4.1
			c0.52-1.34,0.27-3.08-0.45-4.31c-0.23,3.2-2.12,2.62-1.93,1.87c0.04-0.15,1.33-1.2,1.46-2.59c-0.54,0.46-1.25,0.76-1.73,1.31
			c-0.03-1.46,2.02-3.09-0.33-0.92c-0.07,0.67-0.07,0.67-0.15,1.34c-0.76,0.39-1.54,0.79-2.41,0.83c-0.05-0.08-0.12-0.16-0.18-0.24
			c0.21-0.75,0.63-1.44,0.89-2.17c0.32-0.91,0.64-2.73,0.48-0.77c-0.01,0.1-0.09,0.42-0.12,0.57c-0.15,0.73-0.51,1.4-0.71,2.11
			c0.14,0.28,2.07-2.05,2.14-2.44c0.08-0.41-0.2-1.23-0.33-1.22c-0.42,0.47-0.71,1.29-0.8,1.43c0.4-1.36,0.79-3.17-0.51-4.16
			c-0.07,0-0.44,0.6-0.51,0.71c-0.51-0.48-0.4-0.77-0.48-0.92c-0.13-0.26-0.33-0.47-0.48-0.71c-0.05-0.07,0.09-0.45-0.42-0.45
			c1.4-1.62,1.82-4.56,1.22-4.34c-0.18,0.06-0.06,1.45-0.8,2.47c-0.59,0.8-3.13,2.31-4.16,2.74c1.9-1.33,4.74-2.28,3.66-5.09
			c-0.42,0.49-1.19,0.89-1.64,1.25c-0.04-0.87-0.29-0.82-0.3-0.86c-0.03-0.14,0.15-0.29,0.12-0.36c-0.08-0.18-0.48,0.07-0.42-0.15
			c1.28-0.78,2.21-1.87,1.22-3.33c-0.48,0.26-2.55,1.81-2.68,1.96c-0.21,0.25-0.15,0.27-0.21,0.48c-0.36-0.52,0.08-0.74-0.65-0.71
			c0.55-1.7,1.53-1.88,1.31-2.94c-1.45,0.29-1.7,3.58-2.02,4.97c-0.1-0.15-0.07-2.07-0.06-2.41c0.05-1.2,0.4-1.81-0.48-0.09
			c-0.31-0.47-1.04-0.41-1.4-0.54c-0.18-0.06-0.42-0.3-0.59-0.36c-0.25-0.09-1.22-0.25-1.31-0.3c-0.15-0.08-0.01-0.3-0.27-0.24
			c0.04-0.62-0.07-0.75-0.3-1.25c-0.85-1.9-2.77-0.74-4.28,0.3c-0.33-0.58-3.53-0.86-4.43-0.89c-1.91-0.08-5.83,0.04-7.32,1.19
			c-0.6,0.11-2.06,0.08-2.11,0.65c-0.9,0.01-2.9-0.07-3.45,0.42c-0.93,0.17-3.62,0.83-4.4,1.13c-0.18-0.2-0.7-1.16-1.16-1.55
			c-0.99,0.68-0.94,3.71-0.68,4.64c-0.09,0.06-0.09,0.06-0.18,0.12c-0.73-2.87-1.94-2.36-1.78-1.4c0.03,0.18,1.01,1.78,1.19,1.99
			c-0.06,0.06-0.06,0.06-0.12,0.12c-0.34-0.41-0.6-0.87-0.98-1.25c-0.18,0,0.24,1.1,0.89,1.73c0.18,0.17,0.48,0.32,0.68,0.48
			c-0.42,0.46,0.02,0.69,0,0.8c-0.01,0.05-0.26,0.02-0.3,0.86c-0.9-0.46-1.63-0.75-2.65-0.83c-0.04,0.04-0.04,0.04-0.09,0.09
			c0.18,0.27,0.31,0.58,0.48,0.86c-0.15,0.03-0.15,0.03-0.3,0.06c-0.43-0.8-0.53-1.03-0.48,0.21c0.06,1.44,0.43,2.2,1.31,3.24
			c-0.3,0.02-0.56,0.54-0.89,0.8c0.24,1.04-0.89,1.13-0.77,2.5c-0.92-0.16,0.17,0.75-0.42,0.86c-0.18-1.39-1.6-1.85-2.83-1.96
			c-0.1,2.27,0.59,2.09,1.28,2.56c-0.19-0.11-1.15-0.42-1.46-0.48c-0.11-0.08-0.59-1.49-0.68-1.28c0.21,2.02,0.21,2.02,0.42,4.04
			c0.06,0.07,0.06,0.07,0.12,0.15c-0.03,0.06-0.03,0.06-0.06,0.12c-0.12-0.1-0.29-0.16-0.39-0.3c-0.04,0.04-0.04,0.04-0.09,0.09
			c-0.01,0.11,0.76,1.45,0.89,1.64c-0.06,0.09-0.06,0.09-0.12,0.18c-0.39-0.55-0.64-1.19-1.04-1.73c-0.04,3.01,2.22,4.7,4.07,6.81
			c0.09,0.62,0.09,0.62,0.18,1.25c-0.85-0.42-3.15-1.96-3.9-2.11c-0.71-0.14-0.56,0.52-0.03,1.22c0.85,1.11,3.56,2.28,4.31,2.94
			c0.08,0.07-0.04,0.25,0.15,0.12c0.01,0.03-0.01,0.09,0,0.12c-0.24,0.16-0.75-0.4-1.34-0.77c-1.23-0.78-2.6-1.37-3.57-2.5
			c0.13,2.45,2.74,4.14,3.24,5.03c0.59,1.05-0.26,1.32,3.21,2.65c0.03,0.03,0.03,0.03,0.06,0.06c-0.51-0.14-1.29-0.33-1.75-0.54
			c-0.23-0.1-1.53-0.94-1.58-0.86c-0.08,1.39,0.37,2.8,1.07,3.99c0.03,0.11-0.18,0.11-0.18,0.18c0.06,2.25,2.07,4.38,3.72,5.74
			c0.71,0.58,5.33,3.73,5.95,4.04c0.02,0.01,0.24,0.07,0.21,0c0.06,0.06,0.12,0.12,0.18,0.18c-2.38-0.02-5.07-0.05-7.38,0.65
			c0.02-0.1,0.41-0.36,0.42-0.39c0.01-0.15-0.16-0.07-0.18-0.09c-0.53-0.64-1.42-1.42-2.02-2.05c-0.83-1.1-0.83-1.1-1.67-2.2
			c-0.56-1.08-1.34-2.07-1.9-3.15c-0.11-0.21-0.11-0.51-0.12-0.54c-0.07-0.14-0.23-0.22-0.24-0.24c-0.74-1.54-1.27-3.13-1.78-4.76
			c0.03-0.51-0.33-0.96-0.24-1.49c-0.45-1.52-0.62-3.06-0.71-4.76c-0.22-0.16-0.08-0.79-0.12-1.37c0-0.05-0.12-0.01-0.12-0.06
			c-0.05-0.87-0.06-5.72,0-6.54c0-0.05,0.12-0.01,0.12-0.06c0.04-0.57,0.04-1.6,0.12-2.14c0.01-0.05,0.11-0.01,0.12-0.06
			c0.03-0.18-0.03-0.42,0-0.59c0.01-0.05,0.11-0.01,0.12-0.06c0.1-0.56,0.24-1.74,0.36-2.2c0.02-0.07,0.41-0.87,0.36-1.25
			c0.4-1.15,0.92-2.23,1.31-3.39c0.93-1.54,1.84-3.1,2.91-4.55c0.19-0.26,0.42-0.7,0.65-0.98c2.19-1.97,3.89-4.6,6.63-5.86
			c0.8,0.5,1.37-0.02,2.17-0.3c1.48-0.52,2.93-1.2,4.43-1.67c5.92-1.85,12.06-1.91,18.02-0.24c0.87,0.39,1.88,0.48,2.68,0.95
			C105.81,64.37,106.76,65.01,107.68,65.36z"/>
		<path class="st3" d="M88.52,117.29c1.61,0.06,3.24,0.11,4.85,0.12c6.83,0.03,13.61-0.73,20.43-0.95c0.03,0,0.03,0,0.06,0
			c-11.23,2.61-20.59,2.62-31.97,1.49c-3.59-0.36-7.22-0.75-10.74-1.55c1.76,0.21,6.94,0.22,9.43,0.36
			C83.23,116.9,85.87,117.19,88.52,117.29z"/>
		<path class="st4" d="M73.71,113.72c0.02,0.02,0.19-0.06,0.18,0.09c0,0.03-0.4,0.29-0.42,0.39c-0.15,0.05-2.11,0.8-1.64,1.01
			c1.42-0.14,2.86-0.13,4.28-0.24c0.04,0,0.25-0.13,0.86-0.18c0.08,0.27-0.39,0.22-0.77,0.33c0.89,0.09,0.74,0.36,1.04,0.45
			c1.95,0.08,3.91,0.33,5.86,0.03c-0.5-0.27-1.07,0.38-1.01-0.54c-0.38-0.42-0.9-0.12-1.01-0.51c0.32,0,0.64-0.03,0.95,0.06
			c2,1.61,3.99,2.5,6.6,2.14c-0.04,0.31,0.45,0.31-0.12,0.54c-2.65-0.1-5.29-0.39-7.94-0.54c-2.49-0.13-7.67-0.14-9.43-0.36
			c-0.57-0.07-2.92-0.55-3.15-1.04C67.39,114.09,72.97,113.9,73.71,113.72z"/>
		<path class="st5" d="M79.66,65.12c-0.8,0.28-1.37,0.8-2.17,0.3c-2.74,1.26-4.45,3.89-6.63,5.86c-0.23,0.28-0.46,0.72-0.65,0.98
			c-0.85,0.51,1.13-1.14,0.95-2.35c1.01-1.23,1.78-3.32,3.06-4.25c1.02-0.74,2.69-1.18,3.93-1.01C79.28,64.8,78.24,65.3,79.66,65.12
			z"/>
		<path class="st5" d="M116.48,72.26c-0.86-1.15-1.76-2.28-2.86-3.21c0.04-0.12,0.26-1.11,0.21-1.13c-0.09,0.09-0.13,0.2-0.21,0.3
			c-0.34,0.09-0.52-0.66-1.28-1.31c-1.16-0.5-1.81-1.84-3.15-1.9c-0.5,0.2,0.39,1.07-1.52,0.36c0.66-0.07,0.11-0.38,0.57-0.59
			c3.68-0.29,5.86,0.83,6.75,4.49c-0.58,0.66,0.13-0.05,0.24,0.3c0.09,0.29-0.29,0.23-0.24,0.48
			C115.02,70.16,116.52,71.81,116.48,72.26z"/>
		<path class="st6" d="M113.39,113.66c5.22,0.73,7.11,1.79,0.48,2.8c-0.03,0-0.03,0-0.06,0c0.03-0.47,0.33-0.42,0.06-1.01
			c0.6,0.07,1.15-0.12,0.95-0.62c-0.07-0.19-1.47-0.55-1.73-0.62C112.97,113.95,113.1,113.61,113.39,113.66z"/>
		<path class="st7" d="M73.24,100.81c1.25,2.79,2.53,5.55,4.16,8.15c0.9,1.44,2.1,3.19,3.27,4.4c0.03,0.07-0.19,0.01-0.21,0
			c-0.62-0.31-5.24-3.46-5.95-4.04c-1.65-1.36-3.66-3.49-3.72-5.74c0-0.07,0.21-0.07,0.18-0.18c-0.7-1.18-1.15-2.6-1.07-3.99
			c0.05-0.08,1.35,0.76,1.58,0.86C71.94,100.48,72.73,100.67,73.24,100.81z"/>
		<path class="st3" d="M106.96,113.48c2.43-2.49,4.74-6.99,6.19-10.17c0.5-1.11,1.13-2.45,1.55-3.57c3.51,2.5,2.11,5.03-0.18,7.7
			C112.4,109.92,109.71,111.78,106.96,113.48z"/>
		<path class="st8" d="M106.91,68.51c-0.44,0.86-0.77,1.78-1.19,2.65c-0.61,1.26-1.48,1.99-1.22,3.72c0.05-0.08,0.14-0.12,0.21-0.18
			c0.06,0.48-0.19,0.92-0.3,1.4c-0.18,0.81-0.22,1.66-0.42,2.47c-0.26,0.02-0.52,0.02-0.77,0.06c-0.01-0.03-0.17-0.12-0.18-0.12
			c0.09-1.7,0.43-2.52,0.06-4.22c-0.06-0.27-0.2-0.67-0.3-0.95c0.09-0.07,0.17-0.05,0.18-0.06c0.32-0.25,0.02-1.38,0.12-1.81
			c-0.4,0.04-0.5,0.58-0.48,0.92c-0.06,0.09-0.06,0.09-0.12,0.18c-0.08-0.18-0.67-1.4-0.74-1.43c-0.63-0.22-1.13,4.01-0.98,4.55
			c-0.33-0.38-0.54-0.93-0.71-1.4c-0.66-1.81-0.46-2.56-0.36-4.4c1.22-0.95,1.4-0.89,2.56-1.55c0.56-0.32,1.01-0.32,1.07-1.25
			c0.26-0.06,0.12,0.16,0.27,0.24c0.09,0.05,1.06,0.21,1.31,0.3c0.17,0.06,0.42,0.29,0.59,0.36
			C105.87,68.11,106.59,68.05,106.91,68.51z"/>
		<path class="st7" d="M116.54,92.48c0.14-0.56-0.25-3.45-0.42-4.16c0.07-0.02,0.06,0.14,0.09,0.12c0.17-0.1,2.44-2.42,2.65-2.83
			c-1.4,1.29-1.4,1.29-2.8,2.59c-0.17-0.73-0.43-1.51-0.71-2.2c0.57-0.63,0.95-1.55,1.43-2.29c-0.77,0.94-0.77,0.94-1.55,1.87
			c-0.26-0.59-1.03-1.82-1.43-2.38c0.87-0.04,1.65-0.44,2.41-0.83c0.07-0.67,0.07-0.67,0.15-1.34c2.34-2.17,0.3-0.54,0.33,0.92
			c0.48-0.55,1.18-0.85,1.73-1.31c-0.13,1.39-1.42,2.44-1.46,2.59c-0.19,0.75,1.7,1.33,1.93-1.87c0.72,1.23,0.96,2.97,0.45,4.31
			c-0.29,0.76-2.79,3.79-2.86,4.1c-0.2,0.94,0.57-0.24,1.19-1.13c0.49-0.7,1.13-1.69,1.55-2.44c0.35-0.63,0.76-1.96,0.54-0.3
			c-0.31,2.33-1.72,4.25-3.09,6.07C116.61,92.15,116.58,92.31,116.54,92.48z"/>
		<path class="st7" d="M69.25,83.56c0.05,0.03,0.2,0.14,0.24,0.18c0.45,0.42,0.83,2.68,2.08,3.99c-0.77,2.95-0.67,5.57,0.06,8.51
			c-0.19,0.13-0.07-0.05-0.15-0.12c-0.75-0.66-3.46-1.83-4.31-2.94c-0.53-0.7-0.69-1.36,0.03-1.22c0.75,0.15,3.04,1.7,3.9,2.11
			c-0.09-0.62-0.09-0.62-0.18-1.25c-1.86-2.11-4.12-3.81-4.07-6.81c0.4,0.54,0.66,1.17,1.04,1.73c0.83,1.18,1.95,2.3,3.06,3.21
			c0.12-0.72-0.81-2.14-1.28-2.77c-0.36-0.48-1.96-2.04-2.02-2.17c-0.06-0.07-0.06-0.07-0.12-0.15c-0.21-2.02-0.21-2.02-0.42-4.04
			c0.1-0.21,0.57,1.2,0.68,1.28C68.1,83.14,69.06,83.45,69.25,83.56z"/>
		<path class="st8" d="M97.51,67.08c-0.72,0.81-1.3,1.31-2.02,2.26c-0.31,0.21-0.64-0.04-0.98-0.06c-1.17-0.07-2.21,0.03-3.3,0.24
			c-2.49-2.5-5.7-2.61-8.98-2.14c-0.26,0.04-0.51,0.07-0.77,0.12c0.55-0.49,2.55-0.4,3.45-0.42c0.18,0,1.11,0.02,1.16,0
			c0.14-0.06-0.19-0.19,0-0.3c2.39-0.38,4.82-0.79,7.26-0.77c0.37,0,4.77,0.25,4.73,0.57C97.78,66.67,97.67,66.9,97.51,67.08z"/>
		<path class="st7" d="M117.73,98.67c0.02-0.03,0.08-0.01,0.3-0.54c0-0.01,0.19-0.07,0.09-0.18c-0.12,0.08-0.08,0.17-0.09,0.18
			C117.69,98.53,117.78,98.56,117.73,98.67c-0.51,0.89-0.78,1.82-1.1,2.8c-0.46-0.76-1.09-1.39-1.81-1.9
			c0.25-0.68,0.45-1.44,0.65-2.14c2.04-1.19,2.04-1.19,4.07-2.38c-0.08,2.79-1.07,5.49-2.62,7.79
			C116.43,101.88,117.29,99.68,117.73,98.67z"/>
		<path class="st9" d="M74.61,75.17c2.32,1.18,2.38,2.28,3.15,4.64c-0.21,0.1-0.45,0.24-0.65,0.36c-0.42,0.24-1,0.6-1.37,0.89
			c-0.83-2.09-2.28-3.85-3.39-5.77c-0.16-0.28-0.3-0.59-0.48-0.86c0.04-0.04,0.04-0.04,0.09-0.09
			C72.98,74.43,73.71,74.72,74.61,75.17z"/>
		<path class="st8" d="M80.08,73.09c0.03,0.36-0.68,2.77-0.77,2.88c-0.06,0.07-0.24-0.01-0.3,0.06c-0.1,0.12,0.29,1.72,0.36,3.06
			c0,0.04,0,0.08,0,0.12c-0.55,0.17-1.09,0.35-1.61,0.59c-0.77-2.36-0.83-3.46-3.15-4.64c0.03-0.84,0.29-0.81,0.3-0.86
			c0.02-0.11-0.42-0.34,0-0.8c0.44,0.32,2.41,1.54,2.88,1.78c0.39,0.2,1.54,0.78,0.68,0.03c0.03-1.74,0.03-1.74,0.06-3.48
			C78.97,72.19,79.7,72.82,80.08,73.09z"/>
		<path class="st9" d="M112.79,74.94c-0.29,0.34-1.36,1.15-1.78,1.37c-1.83,0.92-2.67,0.18-3.99,0.95c0.05-0.08,0.04-0.32,0.21-0.36
			c2.71-1.29,1.98-2.25,2.97-4.28c0.32-0.18,0.58-0.43,0.86-0.65c0.45-0.36,1.21-0.75,1.64-1.25c1.08,2.81-1.76,3.75-3.66,5.09
			c1.03-0.43,3.58-1.93,4.16-2.74c0.74-1.02,0.63-2.4,0.8-2.47C114.62,70.38,114.2,73.31,112.79,74.94z"/>
		<path class="st8" d="M108.81,69.7c-0.28,0.95,0.15,1.21-0.86,2.08c0.84-0.37,1.75-0.71,2.53-1.19c-0.06,0.22,0.34-0.03,0.42,0.15
			c0.03,0.06-0.15,0.22-0.12,0.36c0.01,0.05,0.26-0.01,0.3,0.86c-0.28,0.23-0.54,0.48-0.86,0.65c-0.99,2.03-0.27,3-2.97,4.28
			c-0.17,0.04-0.15,0.28-0.21,0.36c-0.02,0.03,0.02,0.18,0,0.21c-0.28,0.38-0.79,0.65-1.01,1.1c-0.33-0.03-0.68-0.06-1.01-0.06
			c0-0.07-0.09-0.06-0.03-0.12c2.24-2.41,3.35-1.06,3.12-5.8c-1.83,0.31-2.13,1.21-3.39,2.11c0.15-0.14,1.61-2.23,2.74-3.06
			c0.07-0.19,0.17-0.37,0.24-0.57c0.15-0.43,0.22-1.28,0.48-2.08C108.89,68.96,108.45,69.18,108.81,69.7z"/>
		<path class="st3" d="M71.63,96.35c0.38,1.51,1.01,2.95,1.55,4.4c-3.47-1.33-2.62-1.6-3.21-2.65c-0.5-0.88-3.11-2.57-3.24-5.03
			c0.97,1.13,2.34,1.72,3.57,2.5C70.88,95.95,71.39,96.51,71.63,96.35z"/>
		<path class="st9" d="M77.04,68.63c-0.29,0.11-0.9,0.17-0.83,1.07c0.03,0.47,1.84,1.75,2.32,2.14c-0.03,1.74-0.03,1.74-0.06,3.48
			c0.86,0.75-0.3,0.17-0.68-0.03c-0.48-0.25-2.44-1.46-2.88-1.78c-0.21-0.15-0.5-0.31-0.68-0.48c-0.65-0.62-1.07-1.72-0.89-1.73
			c0.38,0.38,0.64,0.84,0.98,1.25c0.07,0.09,0.2,0.42,0.57,0.71c1.61,0.71,1.61,0.71,3.21,1.43c-0.45-0.94-1.4-1.63-1.81-2.59
			c-0.46-1.08-0.35-2.62-0.48-1.9c-0.05,0.26,0,1.13,0.06,1.43c0.16,0.83,1.21,2.29,0.45,1.64c-0.33-0.29-0.99-1.13-1.1-1.55
			c-0.25-0.93-0.3-3.96,0.68-4.64C76.34,67.47,76.86,68.43,77.04,68.63z"/>
		<path class="st8" d="M72.88,78.8c0.76,0.91,1.69,1.7,2.44,2.62c-0.91,0.81-1.85,2.09-2.44,3.15c-0.5-0.22-0.95-0.68-1.37-0.83
			c-0.22-0.08-0.48-0.13-0.71-0.18c-0.01-0.19,0.02-0.42,0-0.59c0.59-0.11-0.5-1.02,0.42-0.86c-0.11-1.37,1.01-1.45,0.77-2.5
			C72.32,79.34,72.58,78.83,72.88,78.8z"/>
		<path class="st3" d="M115.59,97.12c0.32-1.12,0.53-2.25,0.77-3.39c0.6-0.2,3.04-2.59,3.24-2.56c0.55,0.08,0.33,3.23-0.24,3.75
			C119.21,95.07,116.15,96.77,115.59,97.12z"/>
		<path class="st8" d="M114.16,77.02c-0.19,0.3-0.33,0.64-0.51,0.95c-0.58-0.69-0.22-0.48-0.39-0.09c-0.12,0.29-0.42,0.64-0.48,0.95
			c-0.15,0.93,0.18,2.02-0.12,2.94c-0.38-0.41-0.8-0.74-1.25-1.07c-0.1-0.07-0.3-0.28-0.42-0.36c0.06-0.25,0.32-0.28,0.36-0.39
			c0.03-0.08,0.12-1.56,0.12-1.67c-0.03-0.67-0.43-1.32-0.48-1.99c0.43-0.21,1.49-1.03,1.78-1.37c0.51,0,0.37,0.37,0.42,0.45
			c0.15,0.24,0.34,0.46,0.48,0.71C113.77,76.25,113.65,76.54,114.16,77.02z"/>
		<path class="st9" d="M115.17,80.47c-0.1,0.14-0.13,0.24-0.3,0.12c0.03-0.15,0.11-0.46,0.12-0.57c0.16-1.95-0.15-0.13-0.48,0.77
			c-0.26,0.73-0.68,1.42-0.89,2.17c-0.15-0.2-0.85-1.08-0.95-1.19c0.3-0.93-0.04-2.02,0.12-2.94c0.05-0.31,0.35-0.67,0.48-0.95
			c0.17-0.39-0.19-0.6,0.39,0.09c0.17-0.31,0.32-0.65,0.51-0.95c0.07-0.11,0.43-0.72,0.51-0.71
			C115.96,77.3,115.57,79.11,115.17,80.47z"/>
		<path class="st2" d="M80.85,113.54c0.25,0.25,0.92,0.85,1.19,1.07c-0.31-0.09-0.63-0.06-0.95-0.06c-1.37,0-2.74,0.14-4.1,0.24
			c-0.61,0.05-0.82,0.18-0.86,0.18c-1.42,0.11-2.86,0.1-4.28,0.24c-0.48-0.21,1.48-0.97,1.64-1.01
			C75.78,113.49,78.47,113.52,80.85,113.54z"/>
		<path class="st7" d="M113.09,114.2c0.26,0.07,1.65,0.44,1.73,0.62c0.2,0.5-0.35,0.69-0.95,0.62c-0.7-0.08-1.38-0.57-2.94-0.18
			c-1.22-0.61-3.65-0.53-5.15-0.71c0.29-0.24,0.68-0.57,0.95-0.83C108.97,113.6,110.91,113.6,113.09,114.2z"/>
		<path class="st8" d="M98.76,66.13c-0.43,0.3-0.81,0.67-1.25,0.95c0.17-0.19,0.28-0.41,0.54-0.51c0.04-0.31-4.36-0.56-4.73-0.57
			c-2.43-0.02-4.86,0.39-7.26,0.77c-0.19,0.11,0.14,0.24,0,0.3c-0.05,0.02-0.98,0-1.16,0c0.05-0.57,1.51-0.55,2.11-0.65
			c1.49-1.15,5.41-1.27,7.32-1.19C95.23,65.28,98.43,65.55,98.76,66.13z"/>
		<path class="st3" d="M67.32,96.11c1.2,1.38,1.2,1.38,2.41,2.77c-0.25,1.27,0.17,2.51,0.51,3.72
			C68.56,101.03,66.57,98.47,67.32,96.11z"/>
		<path class="st9" d="M107.44,71.01c0.01,0.01,0.2,0.05,0.24,0.06c-0.07,0.19-0.17,0.37-0.24,0.57c-1.13,0.83-2.58,2.93-2.74,3.06
			c-0.07,0.06-0.16,0.1-0.21,0.18c-0.26-1.73,0.61-2.46,1.22-3.72c0.42-0.87,0.75-1.79,1.19-2.65c0.88-1.72,0.53-1.11,0.48,0.09
			C107.37,68.94,107.34,70.86,107.44,71.01z"/>
		<path class="st9" d="M110.47,70.59c-0.78,0.48-1.69,0.82-2.53,1.19c1.01-0.87,0.58-1.13,0.86-2.08c0.06-0.2,0-0.22,0.21-0.48
			c0.13-0.16,2.2-1.7,2.68-1.96C112.68,68.72,111.76,69.81,110.47,70.59z"/>
		<path class="st9" d="M70.8,82.97c0.02,0.18-0.01,0.4,0,0.59c0.04,0.84,0,1.72-0.03,2.56c-0.46-1.06-0.46-1.06-0.92-2.11
			c-0.26-0.38-0.34-0.25-0.36-0.27c-0.06-0.05,0.05-0.01-0.24-0.18c-0.69-0.47-1.38-0.29-1.28-2.56
			C69.2,81.12,70.62,81.58,70.8,82.97z"/>
		<path class="st9" d="M72.05,75.35c1.16,2.15,1.83,2.95,2.8,4.55c0.37,0.62,0.58,1.45,0.83,1.22c-0.1,0.08-0.26,0.21-0.36,0.3
			c-0.75-0.92-1.68-1.71-2.44-2.62c-0.88-1.05-1.25-1.8-1.31-3.24C71.52,74.32,71.61,74.55,72.05,75.35z"/>
		<path class="st10" d="M74.31,72.56c0.06-0.06,0.06-0.06,0.12-0.12c0.08,0.1,0.74,0.78,0.8,0.77c0.04-0.04,0.04-0.04,0.09-0.09
			c-0.18-0.4-0.19-0.85-0.3-1.28c0.09-0.06,0.09-0.06,0.18-0.12c0.11,0.42,0.77,1.26,1.1,1.55c0.76,0.66-0.29-0.8-0.45-1.64
			c-0.06-0.3-0.11-1.17-0.06-1.43c0.13-0.71,0.01,0.82,0.48,1.9c0.41,0.96,1.37,1.65,1.81,2.59c-1.61-0.71-1.61-0.71-3.21-1.43
			C74.5,72.98,74.38,72.65,74.31,72.56z"/>
		<path class="st9" d="M75.02,71.84c0.11,0.42,0.12,0.87,0.3,1.28c-0.04,0.04-0.04,0.04-0.09,0.09c-0.06,0-0.72-0.67-0.8-0.77
			c-0.18-0.21-1.16-1.82-1.19-1.99C73.08,69.48,74.29,68.97,75.02,71.84z"/>
		<path class="st9" d="M114.88,80.59c0.16,0.12,0.2,0.02,0.3-0.12c0.1-0.14,0.38-0.96,0.8-1.43c0.13-0.01,0.4,0.81,0.33,1.22
			c-0.07,0.39-2,2.71-2.14,2.44C114.36,81.99,114.73,81.32,114.88,80.59z"/>
		<path class="st2" d="M67.88,87.73c0.06-0.09,0.06-0.09,0.12-0.18c0.4,0.59,1.57,1.85,2.2,2.23c-0.37-1.05-1.83-3-2.62-3.66
			c0.03-0.06,0.03-0.06,0.06-0.12c0.07,0.13,1.66,1.69,2.02,2.17c0.47,0.63,1.4,2.04,1.28,2.77C69.84,90.03,68.71,88.91,67.88,87.73
			z"/>
		<path class="st8" d="M72.35,75.29c1.11,1.92,2.56,3.68,3.39,5.77c0,0-0.01,0.02-0.06,0.06c-0.26,0.23-0.46-0.6-0.83-1.22
			c-0.96-1.6-1.63-2.4-2.8-4.55C72.2,75.32,72.2,75.32,72.35,75.29z"/>
		<path class="st7" d="M67.59,86.12c0.79,0.66,2.25,2.61,2.62,3.66c-0.64-0.38-1.8-1.64-2.2-2.23c-0.13-0.19-0.9-1.53-0.89-1.64
			c0.04-0.04,0.04-0.04,0.09-0.09C67.3,85.96,67.46,86.02,67.59,86.12z"/>
		<path class="st9" d="M108.15,68.99c-0.26,0.8-0.33,1.65-0.48,2.08c-0.04-0.01-0.23-0.05-0.24-0.06c0.32-1.38,0.57-4.68,2.02-4.97
			C109.69,67.11,108.7,67.29,108.15,68.99z"/>
		<path class="st9" d="M113.63,69.05c-0.83,2.75-1.21,0.68,0-0.83c0.08-0.09,0.12-0.21,0.21-0.3
			C113.89,67.94,113.66,68.93,113.63,69.05z"/>
		<path class="st11" d="M113.86,115.45c0.27,0.59-0.03,0.54-0.06,1.01c-6.82,0.22-13.6,0.98-20.43,0.95
			c-1.61-0.01-3.24-0.06-4.85-0.12c0.57-0.22,0.08-0.22,0.12-0.54c0.93-0.13,1.4-0.33,2.26-0.59c2.19,0.16,4.41,0.23,6.6,0.12
			c3.42,1.02,5.52,0.49,8.27-1.73c1.49,0.19,3.92,0.1,5.15,0.71C112.48,114.88,113.17,115.36,113.86,115.45z"/>
		<path class="st4" d="M81.09,114.55c0.11,0.39,0.63,0.09,1.01,0.51c-0.06,0.92,0.52,0.27,1.01,0.54c-1.95,0.3-3.91,0.05-5.86-0.03
			c-0.3-0.08-0.15-0.36-1.04-0.45c0.39-0.11,0.85-0.06,0.77-0.33C78.35,114.69,79.72,114.55,81.09,114.55z"/>
		<path class="st12" d="M97.09,116.1c0.15,0.04,0.28,0.14,0.42,0.18c-2.2,0.11-4.41,0.04-6.6-0.12c0.02-0.01,0.06-0.09,0.36-0.18
			C93.2,116.14,95.16,115.8,97.09,116.1z"/>
		<path class="st13" d="M90.31,76.9c0.7,0.78,1.26,1.63,1.84,2.5c-0.01,0.65,0.06,1.29,0.12,1.93c-4-0.54-5.99-3.09-10.59-2.65
			c0.6-0.53,1.28-0.89,1.99-1.25c0.75-0.35,2.19-0.6,2.68-0.77c0.05-0.02,0.03-0.08,0.03-0.12C87.71,76.89,88.94,77.01,90.31,76.9z"
			/>
		<path class="st14" d="M95.48,69.34c-1.01,1.33-1.57,2.41-2.14,3.99c-0.04,0-0.11,0.01-0.12-0.03c-0.39-1.53-0.88-2.63-2.02-3.78
			c1.1-0.21,2.13-0.31,3.3-0.24C94.85,69.31,95.18,69.55,95.48,69.34z"/>
		<path class="st14" d="M82.75,74.94c1.13,0.68,2.35,1.27,3.63,1.61c0,0.04,0.02,0.1-0.03,0.12c-0.49,0.17-1.92,0.42-2.68,0.77
			c-0.71,0.36-1.4,0.72-1.99,1.25c-0.02,0-0.04,0-0.06,0c0-0.04-0.01-0.09,0-0.12c0.07-0.24,0.59-1.04,0.77-1.7
			c0.22-0.79,0.21-1.81,0.24-1.9C82.65,74.92,82.72,74.94,82.75,74.94z"/>
		<path class="st14" d="M81.62,78.56c-0.01,0.03,0,0.08,0,0.12c-0.78,0.08-1.52,0.3-2.26,0.54c0-0.04,0-0.08,0-0.12
			c0.42-0.16,0.42-0.16,0.83-0.33c0.02-2.07,0.39-2.88,0.3-0.06C81.06,78.64,81.06,78.64,81.62,78.56z"/>
		<path class="st5" d="M72.61,105.87c1.06,1.54,2.64,2.57,4.19,3.54C75.31,108.78,73.17,107.36,72.61,105.87z"/>
		<path class="st5" d="M72.37,105.51c0.02-0.01,0.19,0.16,0.15,0.27C72.5,105.84,72.28,105.54,72.37,105.51z"/>
		<path class="st2" d="M115.08,104.32c-1.09,1.38-1.09,1.38-2.17,2.77c-0.79,0.91-1.81,1.58-2.41,2.65
			c-0.04-0.02-0.04-0.11-0.03-0.15C110.63,109.08,114.41,105.11,115.08,104.32z"/>
		<path class="st13" d="M102.5,72.56c0.13,0.28,0.2,0.48,0.3,0.77c0.1,0.28,0.24,0.68,0.3,0.95c-0.37,0.13-0.09,2.1-0.18,2.17
			c-0.17,0.15-0.29-0.26-0.48-0.12c0,0.34-0.33,2.08,0,2.26c0.13,0.07,0.45-0.09,0.59-0.09c0.01,0,0.17,0.09,0.18,0.12
			c-3.21,0.45-5.34,2.5-8.51,2.8c0-0.02-0.08,0.02-0.06-0.48c0.12-2.77,0.96-5.85,2.44-8.21c0.2,0.81-0.46,2.19-0.65,3.84
			c-0.17,1.44-0.11,2.92-0.21,4.37c2.02-0.24,1.14-0.7,1.28-3.48c0.01-0.21,0.17-1.9,0.27-1.93c1.66,1.92,2.65,1.76,0.98,4.43
			c0.95-0.39,0.95-0.39,1.9-0.77c-0.22-1.51-0.42-3.01-0.59-4.52c0-0.02-0.26-0.01,0-0.39c0.17,0.47,0.39,1.01,0.71,1.4
			c-0.15-0.54,0.35-4.77,0.98-4.55C101.84,71.16,102.42,72.38,102.5,72.56z"/>
		<path class="st14" d="M99.71,69.88c-0.1,1.84-0.31,2.59,0.36,4.4c-0.26,0.38,0,0.36,0,0.39c0.18,1.51,0.37,3.01,0.59,4.52
			c-0.95,0.39-0.95,0.39-1.9,0.77c1.67-2.68,0.67-2.52-0.98-4.43c-0.09,0.04-0.26,1.72-0.27,1.93c-0.14,2.78,0.74,3.24-1.28,3.48
			c0.1-1.45,0.04-2.93,0.21-4.37c0.2-1.65,0.85-3.03,0.65-3.84C97.84,71.54,98.6,70.74,99.71,69.88z"/>
		<path class="st9" d="M105,78.51c-0.35,0-0.67,0.03-1.01,0.06c0.2-0.81,0.24-1.66,0.42-2.47c0.1-0.48,0.36-0.92,0.3-1.4
			c1.26-0.9,1.56-1.81,3.39-2.11c0.22,4.74-0.88,3.39-3.12,5.8C104.92,78.45,105,78.43,105,78.51z"/>
		<path class="st9" d="M104.67,67.86c0.11,0.4-0.47,7.36-0.89,7.14C103.28,72.66,103.76,70.04,104.67,67.86z"/>
		<path class="st14" d="M103.04,78.51c-0.14,0-0.47,0.16-0.59,0.09c-0.33-0.18,0-1.92,0-2.26c0.18-0.14,0.31,0.27,0.48,0.12
			c0.08-0.08-0.2-2.04,0.18-2.17C103.47,75.99,103.13,76.81,103.04,78.51z"/>
		<path class="st9" d="M102.98,73.27c-0.12-0.24-0.34-0.64-0.36-0.89c-0.03-0.34,0.08-0.89,0.48-0.92
			C103,71.9,103.3,73.02,102.98,73.27z"/>
		<path class="st14" d="M102.98,73.27c-0.01,0.01-0.09-0.01-0.18,0.06c-0.1-0.29-0.17-0.49-0.3-0.77c0.06-0.09,0.06-0.09,0.12-0.18
			C102.64,72.63,102.86,73.03,102.98,73.27z"/>
		<path class="st15" d="M116.13,88.32c0-0.01-0.02,0.05-0.06-0.12c1.4-1.29,1.4-1.29,2.8-2.59c-0.2,0.4-2.48,2.73-2.65,2.83
			C116.19,88.46,116.2,88.3,116.13,88.32z"/>
		<path class="st15" d="M115.35,86c-0.11-0.28-0.11-0.4-0.12-0.42c0.77-0.94,0.77-0.94,1.55-1.87
			C116.3,84.45,115.92,85.37,115.35,86z"/>
		<path class="st2" d="M71.51,83.74c0.09,0.9,0.04,2.11,0.42,2.91c-0.1,0.3-0.29,0.8-0.36,1.07c-1.25-1.31-1.63-3.56-2.08-3.99
			c0.02,0.01,0.1-0.11,0.36,0.27c0.46,1.06,0.46,1.06,0.92,2.11c0.03-0.84,0.07-1.72,0.03-2.56C71.03,83.61,71.29,83.66,71.51,83.74
			z"/>
		<path class="st2" d="M69.49,83.74c-0.04-0.03-0.19-0.15-0.24-0.18C69.54,83.73,69.43,83.69,69.49,83.74z"/>
		<path class="st9" d="M72.88,84.57c-0.37,0.66-0.7,1.37-0.95,2.08c-0.38-0.8-0.32-2.01-0.42-2.91
			C71.93,83.89,72.38,84.35,72.88,84.57z"/>
		<path class="st16" d="M117.73,98.67c0.05-0.11-0.04-0.14,0.3-0.54C117.81,98.66,117.75,98.64,117.73,98.67z"/>
		<path class="st16" d="M118.03,98.14c0.01-0.01-0.03-0.1,0.09-0.18C118.22,98.07,118.03,98.13,118.03,98.14z"/>
		<path class="st9" d="M82.75,74.94c-0.04,0-0.1-0.02-0.12,0.03c-0.03,0.09-0.02,1.11-0.24,1.9c-0.18,0.66-0.7,1.46-0.77,1.7
			c-0.57,0.07-0.57,0.07-1.13,0.15c0.09-2.82-0.28-2.01-0.3,0.06c-0.42,0.16-0.42,0.16-0.83,0.33c-0.07-1.35-0.46-2.94-0.36-3.06
			c0.06-0.07,0.24,0.01,0.3-0.06c0.09-0.12,0.8-2.53,0.77-2.88C80.81,73.63,82,74.49,82.75,74.94z"/>
		<path class="st9" d="M75.35,74.94c0.44-0.07,2.73,0.53,3.24,0.92c-0.63,0.07-3.28-0.67-3.33-0.83C75.3,75,75.33,74.94,75.35,74.94
			z"/>
		<path class="st14" d="M111.01,80.35c-1.31-0.83-3.45-1.63-5-1.78c0.22-0.45,0.73-0.72,1.01-1.1c0.02-0.03-0.02-0.18,0-0.21
			c1.32-0.77,2.16-0.03,3.99-0.95c0.05,0.68,0.45,1.32,0.48,1.99c0,0.1-0.09,1.59-0.12,1.67C111.33,80.07,111.07,80.1,111.01,80.35z
			"/>
		<path class="st14" d="M112.29,74.94c-0.63,1.17-3.8,2.05-3.84,1.81C109.83,76.39,111.18,75.87,112.29,74.94z"/>
		<path class="st10" d="M77.25,71.9c1.13,1.37,1.57,4.77,0.21,0.98C77.36,72.39,77.36,72.39,77.25,71.9z"/>
		<path class="st10" d="M109.17,70.83c0.88-0.7,1.84-1.29,2.62-2.11C111.24,69.76,110.14,70.29,109.17,70.83z"/>
		<path class="st10" d="M109.17,70.83c-0.01,0.01,0.04,0.16-0.3,0.21C108.87,70.94,109.06,70.89,109.17,70.83z"/>
	</g>
	<g>
		<g>
			<path class="st17" d="M113.09,83.62c2.23,2.96,2.76,6.97,2.44,10.59c-0.32,3.64-2.38,8.32-2.44,8.77
				c-0.02,0.15,0.05,0.2,0.06,0.33c-1.44,3.18-3.76,7.68-6.19,10.17c-0.08,0.08-0.16,0.16-0.24,0.24c-0.27,0.26-0.66,0.6-0.95,0.83
				c-2.75,2.21-4.85,2.74-8.27,1.73c-0.14-0.04-0.27-0.13-0.42-0.18c-1.89-0.55-2.25-1.18-4.82-0.48c-1.31-0.3-1.31-0.3-2.62-0.59
				c8.26-4.52,9.95,4.49,17.25-4.31c1.29-1.56,3.67-5.13,4.4-6.96c0.19-0.49,1.21-3.84,1.43-4.61c0.23-0.81,0.55-1.71,0.71-2.53
				c0.94-4.75,0.51-11.08-4.02-13.95c-0.34-0.21-1.74-0.95-1.99-0.83c-4.39-2.19-7.63,1.19-11.72,1.96c-0.31,0.06-0.66-0.07-0.95,0
				c0.04-0.36-0.03-0.71-0.06-1.07c4.46-0.49,6.05-3.24,11.03-2.86c1.62,0.13,4.81,1.28,6.07,2.32
				C112.2,82.51,112.78,83.2,113.09,83.62z"/>
			<linearGradient id="SVGID_1_" gradientUnits="userSpaceOnUse" x1="95.9252" y1="87.397" x2="75.6544" y2="107.0804">
				<stop  offset="0" style="stop-color:#123D41"/>
				<stop  offset="0.64" style="stop-color:#612A4A"/>
			</linearGradient>
			<path class="st18" d="M82.64,80.05c0.29,0,0.6-0.02,0.89,0c3.33,0.2,5.73,2.43,8.98,2.68c0.22,0.68,0.4,2.53,1.22,2.8
				c0.01,0,0.22-0.05,0.27-0.06c-0.15,0.12-0.15,0.12-0.3,0.24c-0.2-0.36-0.53-0.58-0.83-0.83c-1.55-1.29-3.65-1.52-5.47-2.56
				c-1.29-0.65-3.28-1.18-4.7-0.95c-1.62-0.1-3.46,0.62-4.82,1.49c-0.44,0.28-0.89,0.56-1.25,0.95c-0.05-0.11-0.47,0.26-0.62,0.42
				c-3.75,3.63-3.2,10-1.7,14.54c0.76,2.29,1.88,4.38,2.97,6.51c1.36,2.65,2.5,5.08,4.64,7.23c2.27,2.28,4.37,3.54,7.67,2.53
				c0.03,0,0.03,0,0.06,0c1.31,0.3,1.31,0.3,2.62,0.59c-0.34,0.09-0.67,0.25-1.01,0.36c-0.3,0.09-0.34,0.17-0.36,0.18
				c-0.86,0.26-1.33,0.47-2.26,0.59c-2.61,0.36-4.6-0.53-6.6-2.14c-0.27-0.22-0.94-0.82-1.19-1.07c-0.06-0.06-0.12-0.12-0.18-0.18
				c-1.17-1.21-2.37-2.96-3.27-4.4c0.13-0.04-0.02-0.41-0.06-0.51c-0.44-1.05-1.63-3.17-2.2-4.46c-1.98-4.5-3.82-9.61-2.97-14.57
				c0.37-2.17,1.9-5.82,3.69-7.17C77.54,80.98,80.53,80.08,82.64,80.05z"/>
			<path class="st19" d="M77.82,80.71c-0.63,0.35-1.53,0.98-1.96,1.55c-1.79,1.35-3.32,5-3.69,7.17c-0.84,4.96,1,10.07,2.97,14.57
				c0.57,1.29,1.76,3.41,2.2,4.46c0.04,0.09,0.19,0.46,0.06,0.51c-1.63-2.6-2.91-5.36-4.16-8.15c-0.03-0.03-0.03-0.03-0.06-0.06
				c-0.53-1.45-1.16-2.9-1.55-4.4c-0.01-0.03,0.01-0.08,0-0.12c-0.73-2.94-0.83-5.55-0.06-8.51c0.07-0.27,0.25-0.77,0.36-1.07
				c0.25-0.71,0.59-1.42,0.95-2.08c0.59-1.07,1.53-2.34,2.44-3.15c0.1-0.09,0.25-0.21,0.36-0.3c0.05-0.04,0.06-0.06,0.06-0.06
				c0.37-0.29,0.95-0.66,1.37-0.89C77.12,81.22,77.37,80.72,77.82,80.71z"/>
			<path class="st20" d="M112.68,81.78c0.1,0.11,0.8,0.99,0.95,1.19c0.06,0.08,0.12,0.16,0.18,0.24c0.39,0.55,1.17,1.79,1.43,2.38
				c0.01,0.02,0.01,0.14,0.12,0.42c0.28,0.69,0.54,1.48,0.71,2.2c0.04,0.17,0.06,0.11,0.06,0.12c0.16,0.72,0.56,3.6,0.42,4.16
				c-0.51,0.86-0.51,0.86-1.01,1.73c0.32-3.61-0.21-7.63-2.44-10.59c0.14-0.02,0.53-0.36,0.54-0.45c0.01-0.17-1.94-2.24-2.26-2.47
				c0.03,0,0.03,0,0.06,0C111.88,81.04,112.29,81.37,112.68,81.78z"/>
			<path class="st20" d="M116.54,92.48c-0.1,0.41-0.09,0.83-0.18,1.25c-0.24,1.14-0.46,2.27-0.77,3.39c0,0.02-0.03,0-0.12,0.3
				c-0.21,0.7-0.4,1.46-0.65,2.14c-0.03,0.08-0.09,0.1-0.12,0.18c-0.42,1.12-1.04,2.46-1.55,3.57c-0.01-0.12-0.08-0.18-0.06-0.33
				c0.06-0.45,2.11-5.14,2.44-8.77C116.04,93.35,116.04,93.35,116.54,92.48z"/>
			<path class="st20" d="M112.73,99.15c-0.21,0.77-1.23,4.12-1.43,4.61c-0.73,1.83-3.11,5.4-4.4,6.96c-7.3,8.8-8.99-0.2-17.25,4.31
				c-0.03,0-0.03,0-0.06,0c-0.68-0.4-1.52-0.6-2.08-1.19c1.66-0.19,2.25-1.89,2.38-2.05c0.25-0.33,0.92-0.79,1.25-1.1
				c0.51-0.16,0.21,0.18,0.3,0.33c0.09,0.14,0.19-0.01,0.3,0.39c0.01,0.02-0.14,0.08,0,0.45c0.54,1.41,4.15-0.32,5.44-0.57
				c2.7-0.52,5.98,0.19,8.57-2.14c0.86-0.77,1.41-1.78,2.11-2.65c1.16-1.42,1.94-2.16,2.86-3.84c0.71-1.3,1.2-2.67,1.87-3.87
				C112.88,98.93,112.49,98.85,112.73,99.15z"/>
			<path class="st21" d="M112.73,99.15c-0.24-0.3,0.14-0.22-0.15-0.36c-0.68,1.19-1.16,2.56-1.87,3.87
				c-0.55,0.21-1.13,0.31-1.67,0.54c0.39-0.93,0.92-1.78,1.25-2.74c0.57-1.66,0.82-3.62,1.01-5.35c0.09-0.12,0.17-0.28,0.24-0.42
				c0.77-1.43,0.74-3.88,0.54-5.47c-0.22-1.65-0.57-2.36-1.37-3.75c-0.11-0.19-0.24-0.35-0.36-0.54c-0.78-1.21-1.57-2.42-2.91-3.09
				c0.25-0.12,1.66,0.62,1.99,0.83c4.52,2.87,4.96,9.2,4.02,13.95C113.28,97.44,112.96,98.33,112.73,99.15z"/>
			<path class="st20" d="M111.37,80.71c0.32,0.22,2.27,2.3,2.26,2.47c0,0.09-0.39,0.43-0.54,0.45c-0.32-0.42-0.89-1.11-1.28-1.43
				c-1.26-1.04-4.45-2.19-6.07-2.32c-4.98-0.39-6.58,2.36-11.03,2.86c0-0.02-0.04-0.08-0.06-0.42c4.52-0.65,6.71-3.55,11.63-2.91
				C108.61,79.7,110.29,81.31,111.37,80.71z"/>
			<path class="st22" d="M99.71,83.68c-0.52,0.5-2.22,1.52-2.86,1.84c-0.36-0.36-1.5-0.79-1.73-0.95c-0.45-0.33-0.04-0.61-0.42-0.71
				c-0.01-0.06,0.03-0.05,0.06-0.06c0.29-0.07,0.64,0.06,0.95,0C96.6,84.01,98.94,83.9,99.71,83.68z"/>
			<path class="st19" d="M76.63,83.8c-0.77,0.86-1.68,2.84-1.73,3.99c-0.02,0.43,0.1,0.95,0.45,1.25c0.48,0.41,1.13,0.16,1.4,0.48
				c-0.18,0.57-0.35,1.13-0.36,1.73c-0.25-0.24-0.62,1.17-0.65,1.52c-0.35,3.13,1.52,9.57,2.68,12.7c-0.29-0.09-0.93-0.32-1.13-0.18
				c-1.09-2.13-2.22-4.23-2.97-6.51c-1.5-4.54-2.05-10.91,1.7-14.54C76.16,84.06,76.58,83.69,76.63,83.8z"/>
			<path class="st23" d="M78.41,105.45c0.35,0.11,0.69,0.32,1.07,0.36c0.67,1.38,2.41,2.51,3.75,1.25c1.04,0.77,1.04,0.77,2.08,1.55
				c-0.27,0.31-2.22,2.76-2.26,2.94c-0.11,0.56,0.42,0.65,0.54,0.74c1.03,0.8,2.6,1.7,3.93,1.55c0.56,0.59,1.4,0.79,2.08,1.19
				c-3.3,1.01-5.41-0.25-7.67-2.53c-2.14-2.15-3.28-4.58-4.64-7.23C77.48,105.13,78.12,105.36,78.41,105.45z"/>
			<path class="st24" d="M87.39,82.31c0.4,0.39,1.7,0.78,1.99,1.01c0.1,0.08,0.91,1.22,1.7,1.84c1.18,0.95,1.79,0.86,2.35,1.07
				c0.05,0.02,0.03,0.08,0.03,0.12c-3.1-0.24-4.55-2.46-5.92-2.74c-1.11-0.22-1.13,0.24-1.34,0.65c-4.61-3.7-4.24,0.97-6.28-0.24
				c-1.54-0.92,1.73-2.51,2.77-2.68C84.11,81.13,86.1,81.66,87.39,82.31z"/>
			<path class="st25" d="M82.7,81.36c-1.04,0.17-4.31,1.76-2.77,2.68c2.03,1.21,1.66-3.46,6.28,0.24c-0.09,0.18,0.09,0.12-0.24,0.24
				c-2.11-0.75-3.94-0.32-5.83,0.77c-0.69,0.4-1.37,0.88-1.9,1.49c-0.37-0.89-0.84-1.83-0.71-2.83c0.04-0.34,0.47-0.89,0.36-1.1
				C79.24,81.98,81.08,81.27,82.7,81.36z"/>
			<path class="st25" d="M78.23,86.77c-0.15,0.17-0.66,0.88-0.77,1.07c-1.52-1.26-1.47-0.65-2.56-0.06
				c0.05-1.14,0.95-3.13,1.73-3.99c0.35-0.39,0.81-0.67,1.25-0.95c0.11,0.21-0.31,0.76-0.36,1.1
				C77.39,84.94,77.86,85.88,78.23,86.77z"/>
			<path class="st26" d="M92.51,82.73c-3.25-0.25-5.65-2.48-8.98-2.68c-0.04-0.21,0.34-0.1,0.65-0.06c0.45,0.06,1.98,0.51,0.89-0.18
				c2.5,0.58,4.7,2.2,7.29,2.44C92.43,82.31,92.45,82.56,92.51,82.73z"/>
			<path class="st27" d="M81.8,79.52c-0.01,0.67,0.42,0.36,1.16,0.36c0.04,0.15-0.37-0.06-0.33,0.18c-2.1,0.03-5.09,0.93-6.78,2.2
				c0.43-0.57,1.33-1.2,1.96-1.55C78.95,80.08,80.51,79.6,81.8,79.52z"/>
			<path class="st24" d="M92.87,84.87c-0.89,0.15-0.89,0.15-1.78,0.3c-0.78-0.63-1.6-1.77-1.7-1.84c-0.29-0.23-1.59-0.62-1.99-1.01
				C89.21,83.35,91.32,83.58,92.87,84.87z"/>
			<path class="st24" d="M93.7,85.7c0.11,0.2,0.2,0.42,0.18,0.65c-0.14,0-0.28,0.01-0.42,0c0-0.04,0.02-0.1-0.03-0.12
				c-0.56-0.21-1.17-0.12-2.35-1.07c0.89-0.15,0.89-0.15,1.78-0.3C93.17,85.12,93.5,85.35,93.7,85.7z"/>
			<path class="st28" d="M94.95,84.99c0.16,0.43,0.27,1.12,0.48,1.13c-0.31,0.1-0.65,0.27-0.98,0.3c-0.35,0.03-0.5-0.06-0.57-0.06
				c0.02-0.24-0.07-0.45-0.18-0.65c0.15-0.12,0.15-0.12,0.3-0.24C94.05,85.45,94.91,85.02,94.95,84.99z"/>
			<path class="st25" d="M84.24,79.64c-0.03,0.18-0.03,0.18-0.06,0.36c-0.32-0.04-0.69-0.15-0.65,0.06c-0.29-0.02-0.6,0-0.89,0
				c-0.04-0.23,0.37-0.03,0.33-0.18c-0.74,0.01-1.17,0.31-1.16-0.36C82.6,79.47,83.45,79.52,84.24,79.64z"/>
			<path class="st24" d="M92.45,76.54c-0.18,0.98-0.28,1.86-0.3,2.86c-0.58-0.86-1.15-1.72-1.84-2.5
				C91.06,76.84,91.72,76.71,92.45,76.54z"/>
			<path class="st24" d="M96.85,85.52c-0.46,0.23-0.94,0.44-1.43,0.59c-0.21-0.01-0.31-0.7-0.48-1.13c0.13-0.1,0.26-0.27,0.18-0.42
				C95.35,84.74,96.49,85.16,96.85,85.52z"/>
			<path class="st25" d="M85.07,79.81c1.09,0.69-0.44,0.23-0.89,0.18c0.03-0.18,0.03-0.18,0.06-0.36
				C84.51,79.67,84.81,79.75,85.07,79.81z"/>
			<path class="st29" d="M105,78.51c0.33,0,0.68,0.03,1.01,0.06c1.54,0.16,3.68,0.95,5,1.78c0.12,0.08,0.32,0.29,0.42,0.36
				c-0.03,0-0.03,0-0.06,0c-1.07,0.61-2.76-1.01-5.09-1.31c-4.91-0.64-7.11,2.26-11.63,2.91c-0.05-0.96,0.06-0.84,0.06-0.89
				c3.17-0.3,5.3-2.34,8.51-2.8c0.26-0.04,0.52-0.04,0.77-0.06C104.33,78.54,104.65,78.5,105,78.51z"/>
			<path class="st30" d="M91.74,111.4c0.45-0.3,0.91-0.62,1.37-0.89c2.14-1.27,7.29-3.99,9.49-4.76c1.15-0.4,3-0.72,3.87-1.07
				c0.9-0.37,1.65-1.1,2.59-1.49c0.54-0.22,1.12-0.33,1.67-0.54c-0.92,1.68-1.69,2.41-2.86,3.84c-0.71,0.86-1.26,1.87-2.11,2.65
				c-2.59,2.34-5.87,1.63-8.57,2.14c-1.29,0.25-4.91,1.97-5.44,0.57C91.6,111.48,91.74,111.42,91.74,111.4z"/>
			<path class="st24" d="M92.93,109.08c-0.57,0.55-1.21,1.05-1.78,1.61c-0.33,0.31-1,0.77-1.25,1.1c-0.13,0.16-0.72,1.86-2.38,2.05
				c-1.32,0.15-2.9-0.75-3.93-1.55c3.49-1.62,7.36-4.22,10.97-5.41c0.15-0.05,0.66-0.24,0.62-0.09
				C94.4,107.52,93.7,108.34,92.93,109.08z"/>
			<path class="st31" d="M92.93,109.08c0.53,0.01,0.24,1,0.18,1.43c-0.46,0.28-0.92,0.59-1.37,0.89c-0.1-0.39-0.21-0.24-0.3-0.39
				c-0.09-0.15,0.22-0.49-0.3-0.33C91.72,110.13,92.35,109.63,92.93,109.08z"/>
			<path class="st24" d="M112.08,89.21c0.21,1.59,0.24,4.04-0.54,5.47c-0.27-0.4-0.37-1.12-0.59-1.64
				c-0.28-0.65-0.69-1.22-1.07-1.81c-0.02-0.03-0.04-0.09-0.06-0.12c0.52-0.13,1.21-0.65,1.61-1.07
				C111.76,89.68,111.9,89.27,112.08,89.21z"/>
			<g>
				<path class="st24" d="M107.44,81.84c1.34,0.67,2.14,1.88,2.91,3.09c-1.01-0.21-1.89-0.48-2.08,0.83
					c-1.55-1.37-3.63-2.15-5.71-1.67c-1.04-1.91-2.16-0.62-2.86-0.42c-0.77,0.22-3.1,0.33-3.99,0.12
					C99.81,83.03,103.05,79.65,107.44,81.84z"/>
				<path class="st24" d="M112.08,89.21c-0.18,0.06-0.32,0.47-0.65,0.83c-0.56-1.2-1.33-2.29-2.2-3.27
					c0.74-0.65,0.74-0.65,1.49-1.31C111.51,86.86,111.86,87.56,112.08,89.21z"/>
			</g>
			<path class="st24" d="M110.3,100.46c-0.15-1.95-0.15-1.95-0.3-3.9c0.2-0.58,1.03-1.09,1.31-1.46
				C111.12,96.84,110.86,98.8,110.3,100.46z"/>
			<path class="st24" d="M110.36,84.93c0.12,0.18,0.25,0.34,0.36,0.54c-0.74,0.65-0.74,0.65-1.49,1.31
				c-0.24-0.27-0.72-0.8-0.95-1.01C108.47,84.45,109.34,84.72,110.36,84.93z"/>
			<path class="st24" d="M108.27,85.76c0.24,0.21,0.72,0.75,0.95,1.01c0.87,0.98,1.64,2.07,2.2,3.27c-0.39,0.42-1.08,0.94-1.61,1.07
				c-0.36-0.54-0.78-1.04-1.19-1.55c-0.89-1.08-1.34-1.75-2.65-2.5c-1.04-0.59-4.64-2.04-5.32-0.65c0.07-0.38,0.12-0.38,0.54-0.62
				c-0.17-0.34-4.52,1.65-5.26,1.87c-1.68,0.51-3.46,0.75-5.2,0.89c-0.23-0.1-0.43-0.25-0.65-0.36c-1.18-1.67-4.97-3.48-6.99-3.45
				c-1,0.01-2.02,0.39-2.94,0.54c1.89-1.09,3.72-1.53,5.83-0.77c1.45,0.52,4.02,2.42,6.39,2.8c4.7,0.74,7.83-2.66,10.2-3.21
				C104.64,83.61,106.72,84.39,108.27,85.76z"/>
			<path class="st32" d="M102.56,84.1c-2.37,0.55-5.51,3.95-10.2,3.21c-2.37-0.37-4.94-2.28-6.39-2.8c0.33-0.12,0.14-0.06,0.24-0.24
				c0.21-0.41,0.23-0.88,1.34-0.65c1.36,0.27,2.82,2.5,5.92,2.74c0.14,0.01,0.28,0,0.42,0c0.07,0,0.22,0.09,0.57,0.06
				c0.33-0.03,0.67-0.2,0.98-0.3c0.49-0.16,0.97-0.37,1.43-0.59c0.64-0.32,2.33-1.35,2.86-1.84
				C100.41,83.48,101.52,82.19,102.56,84.1z"/>
			<path class="st25" d="M90.07,88.2c-0.28-0.14-0.39-0.25-0.48-0.3c-0.25-0.14-0.78-0.57-1.04-0.59c-1.06-0.12-2.07,1.34-2.86,1.9
				c-0.42,0.3-1.45,0.73-1.73,0.95c-1.37,1.07-1.02,2.81-1.25,2.91c-0.47,0.22-0.58-1.75-0.45-2.05c0.2-0.42,2.9-0.96,2.32-2.2
				c-0.36-0.76-3.9-1.1-5.83,1.49c-2.09,2.81-0.05,4.37-1.37,7.29c-0.25-1.24-1.02-5.5-1.01-6.36c0.01-0.6,0.18-1.16,0.36-1.73
				c0.17-0.55,0.42-1.17,0.71-1.67c0.12-0.2,0.63-0.9,0.77-1.07c0.53-0.61,1.21-1.09,1.9-1.49c0.93-0.15,1.94-0.52,2.94-0.54
				C85.1,84.72,88.9,86.53,90.07,88.2z"/>
			<path class="st19" d="M76.39,91.24c-0.01,0.86,0.76,5.12,1.01,6.36c-0.06,0.57,0.68,2.99,1.01,3.57
				c0.13,1.16,0.61,3.68,1.07,4.64c-0.38-0.04-0.72-0.25-1.07-0.36c-1.16-3.13-3.02-9.57-2.68-12.7
				C75.77,92.4,76.14,90.99,76.39,91.24z"/>
			<path class="st19" d="M77.46,87.84c-0.29,0.5-0.54,1.11-0.71,1.67c-0.27-0.31-0.92-0.06-1.4-0.48c-0.35-0.3-0.46-0.82-0.45-1.25
				C75.99,87.19,75.94,86.59,77.46,87.84z"/>
			<path class="st25" d="M83.65,105.99c0.02,0.42-0.11,0.78-0.42,1.07c-1.33,1.26-3.08,0.13-3.75-1.25
				c-0.46-0.96-0.94-3.48-1.07-4.64c1.37,2.41,2.63,0.14,2.86,2.53C81.43,104.05,83.58,104.68,83.65,105.99z"/>
			<g>
				<g>
					<path class="st32" d="M103.04,65.84c-1.12-0.27-3.41,1.28-4.31,2.02c-4.7,3.86-6.15,10.69-4.97,16.45
						c0.15,0.28,0.83-0.32,0.95-0.45c0.38,0.1-0.03,0.39,0.42,0.71c0.08,0.14-0.05,0.32-0.18,0.42c-0.04,0.03-0.9,0.46-0.95,0.48
						c-0.04,0.01-0.25,0.06-0.27,0.06c-0.81-0.26-0.99-2.12-1.22-2.8c-0.06-0.17-0.08-0.42-0.15-0.48
						c-2.59-0.24-4.79-1.86-7.29-2.44c-0.26-0.06-0.57-0.14-0.83-0.18c-0.79-0.12-1.64-0.17-2.44-0.12
						c-1.29,0.08-2.86,0.57-3.99,1.19c-0.44,0.01-0.69,0.51-0.71-0.54c0.21-0.12,0.44-0.25,0.65-0.36c0.52-0.25,1.06-0.42,1.61-0.59
						c0.74-0.24,1.48-0.45,2.26-0.54c0.02,0,0.04,0,0.06,0c4.6-0.45,6.59,2.1,10.59,2.65c-0.06-0.64-0.13-1.28-0.12-1.93
						c0.02-0.99,0.12-1.88,0.3-2.86c0.08-0.43,0.05-0.45,0.06-0.48c0.02-0.1,0.12-0.34,0.18-0.59c0.11-0.46,0.32-1.15,0.48-1.61
						c0.06-0.18,0.11-0.36,0.18-0.54c0.57-1.57,1.13-2.66,2.14-3.99c0.72-0.95,1.31-1.45,2.02-2.26c0.44-0.29,0.82-0.66,1.25-0.95
						C100.27,65.09,102.19,63.94,103.04,65.84z"/>
					
						<linearGradient id="SVGID_00000047023912957966266300000004374575208933919931_" gradientUnits="userSpaceOnUse" x1="104.4765" y1="73.3403" x2="92.5593" y2="76.6666">
						<stop  offset="0" style="stop-color:#D25D2F"/>
						<stop  offset="1" style="stop-color:#A40D4C"/>
					</linearGradient>
					<path style="fill:url(#SVGID_00000047023912957966266300000004374575208933919931_);" d="M103.04,65.84
						c0.22,0.5,0.34,0.63,0.3,1.25c-0.06,0.93-0.51,0.93-1.07,1.25c-0.4-0.85-2.23,0.35-2.83,0.77c-3.24,2.32-5.49,7.93-4.79,11.84
						c-0.02,0.49,0.06,0.45,0.06,0.48c0,0.05-0.11-0.07-0.06,0.89c0.02,0.34,0.06,0.4,0.06,0.42c0.03,0.36,0.1,0.71,0.06,1.07
						c-0.03,0.01-0.07,0-0.06,0.06c-0.12,0.12-0.8,0.73-0.95,0.45c-1.18-5.76,0.27-12.58,4.97-16.45
						C99.63,67.12,101.91,65.57,103.04,65.84z"/>
					<path class="st28" d="M102.27,68.33c-1.16,0.66-1.34,0.6-2.56,1.55c-1.1,0.86-1.87,1.66-2.62,2.86
						c-1.48,2.36-2.32,5.44-2.44,8.21c-0.7-3.91,1.54-9.51,4.79-11.84C100.04,68.68,101.86,67.49,102.27,68.33z"/>
				</g>
				<g>
					<path class="st29" d="M82.22,67.38c0.03,0.09,0.03,0.09,0.06,0.18c-1.74,0.25-3.42,0.95-5.15,1.25
						c-0.03-0.01-0.04-0.13-0.09-0.18c0.78-0.3,3.48-0.96,4.4-1.13C81.71,67.45,81.96,67.42,82.22,67.38z"/>
					<path class="st34" d="M92.39,76.07c0.02-0.01,0.08,0,0.12,0c0,0.02,0.02,0.05-0.06,0.48c-0.73,0.17-1.39,0.3-2.14,0.36
						c-1.37,0.11-2.6-0.01-3.93-0.36c-1.28-0.33-2.5-0.93-3.63-1.61c-0.75-0.45-1.95-1.31-2.68-1.84c-0.38-0.28-1.11-0.9-1.55-1.25
						c-0.48-0.39-2.29-1.68-2.32-2.14c3.29,1.66,5.84,4.56,9.31,5.95C87.41,76.41,90.5,76.88,92.39,76.07z"/>
					<path class="st20" d="M91.2,69.52c1.14,1.15,1.63,2.25,2.02,3.78c0.01,0.04,0.08,0.03,0.12,0.03
						c-0.07,0.18-0.12,0.36-0.18,0.54c-0.34,0.42-0.59-0.95-0.77-1.34c-0.5-1.07-0.8-1.55-1.61-2.41c-0.24-0.25-0.45-0.49-0.71-0.71
						c-2.38-2.03-4.75-2.28-7.79-1.84c-0.03-0.09-0.03-0.09-0.06-0.18C85.51,66.91,88.71,67.02,91.2,69.52z"/>
					<path class="st24" d="M84.12,71.07c0.13,0.02,1.86,0.66,2.14,0.77c0.34,0.14,0.69,0.25,1.01,0.42c0.93,0.46,1.57,1.3,2.41,1.9
						c1.09,0.24,2.02,0.81,3,1.31c-0.06,0.25-0.16,0.5-0.18,0.59c-0.04,0-0.1-0.01-0.12,0c-0.33-0.15-1.99-1.23-2.11-1.25
						c-0.04,0-0.27,0.1-0.51,0.12c-0.95-0.28-1.48-1.12-2.2-1.73c-0.62-0.52-0.7-0.48-1.37-0.83c-0.68-0.35-1.03-0.5-1.73-0.77
						c-0.14-0.05-0.27-0.12-0.42-0.18C83.88,71.17,83.31,70.96,84.12,71.07z"/>
					<path class="st35" d="M87.28,72.26c-0.32-0.17-0.67-0.28-1.01-0.42c0.39-2.17-1.16-2.21-1.19-2.35
						C86.36,68.3,87.83,70.45,87.28,72.26z"/>
					<path class="st20" d="M89.77,74.94c-0.25,0.02-0.52,0.21-0.8,0.12c-0.2-0.06-0.66-0.99-0.71-1.01
						c-0.1-0.04-1.69,0.32-0.68-0.83C88.3,73.82,88.82,74.66,89.77,74.94z"/>
					<path class="st35" d="M90.07,69.4c0.26,0.23,0.48,0.46,0.71,0.71c-0.57,0.97-1.73-0.53-1.61-0.68
						C89.63,69.42,89.63,69.42,90.07,69.4z"/>
					<g>
						<path class="st36" d="M90.07,69.4c-0.45,0.01-0.45,0.01-0.89,0.03c-0.12,0.15,1.04,1.65,1.61,0.68
							c0.8,0.86,1.11,1.34,1.61,2.41c0.18,0.39,0.43,1.76,0.77,1.34c-0.15,0.46-0.36,1.14-0.48,1.61c-0.99-0.5-1.91-1.07-3-1.31
							c-0.84-0.6-1.48-1.44-2.41-1.9c0.56-1.81-0.91-3.96-2.2-2.77c0.03,0.14,1.58,0.18,1.19,2.35c-0.28-0.12-2.01-0.76-2.14-0.77
							c-0.87-0.42-1.81-0.69-2.74-0.95c-1.46-0.41-3.19-0.84-4.7-0.86c1.54,0.45,3.1,0.82,4.64,1.28c0.93,0.28,1.83,0.55,2.74,0.89
							c0.15,0.06,0.28,0.12,0.42,0.18c0.24,0.98,0.91,0.83,1.73,0.77c0.67,0.35,0.74,0.31,1.37,0.83c-1.01,1.15,0.59,0.79,0.68,0.83
							c0.06,0.02,0.52,0.95,0.71,1.01c0.28,0.09,0.55-0.1,0.8-0.12c0.24-0.02,0.47-0.12,0.51-0.12c0.12,0.01,1.78,1.1,2.11,1.25
							c-1.9,0.81-4.98,0.34-6.87-0.42c-3.46-1.39-6.02-4.29-9.31-5.95c-0.07-0.9,0.54-0.96,0.83-1.07c0.05,0.05,0.06,0.17,0.09,0.18
							c1.72-0.3,3.4-1,5.15-1.25C85.32,67.12,87.69,67.37,90.07,69.4z"/>
						<path class="st37" d="M81.39,70.12c-0.03,0.21-0.03,0.21-0.06,0.42c-1.54-0.46-3.1-0.83-4.64-1.28
							C78.2,69.28,79.92,69.71,81.39,70.12z"/>
						<path class="st38" d="M84.12,71.07c-0.81-0.11-0.24,0.1-0.06,0.36c-0.91-0.34-1.81-0.61-2.74-0.89
							c0.03-0.21,0.03-0.21,0.06-0.42C82.31,70.38,83.25,70.65,84.12,71.07z"/>
						<path class="st20" d="M90.58,71.25c0.56-0.1,1.63,1.72,1.25,2.26C91.57,72.19,89.57,71.42,90.58,71.25z"/>
						<path class="st35" d="M83.62,69.46c0.65-0.08,0.57,1.23-0.06,1.07C83.2,70.44,83.19,69.52,83.62,69.46z"/>
					</g>
					<path class="st20" d="M86.2,72.38c-0.81,0.06-1.49,0.2-1.73-0.77C85.18,71.88,85.53,72.03,86.2,72.38z"/>
				</g>
			</g>
			<path class="st30" d="M109.82,91.12c0.02,0.03,0.04,0.09,0.06,0.12c-0.47,0.35-2.84,1.63-2.91,2.05c0.04,1,1.64,2.87,0.45,3.6
				c-0.18,0.11-2.83,0.83-4.1,1.37c-0.68,0.29-3.91,2.04-4.22,2.08c-0.13,0.02-0.24-0.1-0.33-0.18c0.56-0.4,0.56-0.62,0.59-0.65
				c0.23-0.22,0.38-0.51,0.62-0.71c2.24-0.86,4.49-0.69,3.66-3.81c1.81-1.55,0.54-1.93,1.13-3c0.56-1.02,1.85-0.27,3-0.92
				c0.48-0.27,0.99-0.91,0.86-1.49C109.04,90.07,109.46,90.57,109.82,91.12z"/>
			<g>
				<path class="st30" d="M111.54,94.69c-0.07,0.13-0.15,0.29-0.24,0.42c-0.28,0.37-1.11,0.88-1.31,1.46
					c0.15,1.95,0.15,1.95,0.3,3.9c-0.33,0.95-0.86,1.81-1.25,2.74c-0.94,0.39-1.69,1.12-2.59,1.49c-0.87,0.35-2.72,0.67-3.87,1.07
					c-2.19,0.77-7.35,3.49-9.49,4.76c0.06-0.43,0.35-1.41-0.18-1.43c0.77-0.74,1.48-1.56,2.26-2.29c0.04-0.15-0.47,0.04-0.62,0.09
					c-3.61,1.19-7.49,3.79-10.97,5.41c-0.12-0.09-0.65-0.19-0.54-0.74c0.04-0.18,1.99-2.64,2.26-2.94c0.62-0.69,1.32-1.33,1.99-1.96
					c2.32-1.39,4.14-3.45,6.54-4.7c1.46-0.45,3.66-0.91,4.91-1.78c0.09,0.08,0.2,0.2,0.33,0.18c0.31-0.04,3.54-1.79,4.22-2.08
					c1.28-0.54,3.92-1.25,4.1-1.37c1.19-0.73-0.41-2.6-0.45-3.6c0.08-0.42,2.45-1.7,2.91-2.05c0.38,0.59,0.79,1.16,1.07,1.81
					C111.17,93.57,111.28,94.29,111.54,94.69z"/>
				<path class="st23" d="M101.94,102c1.12-0.08-0.48,2.78-0.83,3.03c-0.49,0.35-2.7,0.64-3.57,1.13c-0.49,0.09-0.96-0.28-0.8-0.8
					C96.84,104.99,101.63,102.02,101.94,102z"/>
			</g>
			<path class="st25" d="M100.66,86.42c-0.17,0.97,0.84,1.27,0.95,1.64c0.45,1.51-3.67,0.28-4.37,2.11
				c-0.49,0.16-5.73-1.28-6.51-1.61c1.75-0.14,3.52-0.38,5.2-0.89c0.75-0.23,5.1-2.21,5.26-1.87
				C100.78,86.04,100.72,86.04,100.66,86.42z"/>
			<path class="st23" d="M89.6,87.9c0.62,0.65-1.23,1.82-1.78,2.65c-0.71,2.45-1.85,3.54-2.74,5.12c-0.23,0.4-1.52,3.12-1.55,3.33
				c-0.17,1.69,3.05,3.56,1.96,5.95c-0.12,0.21-1.51,0.99-1.84,1.04c-0.07-1.31-2.21-1.94-2.38-2.29c-0.23-2.39-1.49-0.12-2.86-2.53
				c-0.33-0.58-1.07-3-1.01-3.57c1.32-2.91-0.73-4.47,1.37-7.29c1.93-2.59,5.47-2.24,5.83-1.49c0.58,1.24-2.12,1.78-2.32,2.2
				c-0.13,0.3-0.02,2.28,0.45,2.05c0.22-0.11-0.12-1.85,1.25-2.91c0.28-0.22,1.31-0.65,1.73-0.95c0.79-0.56,1.8-2.02,2.86-1.9
				C88.81,87.34,89.34,87.76,89.6,87.9z"/>
			<g>
				<path class="st23" d="M108.63,89.57c0.12,0.57-0.38,1.21-0.86,1.49c-1.15,0.65-2.44-0.1-3,0.92c-0.59,1.07,0.68,1.45-1.13,3
					c-2.51,1-4.81,2.61-6.57,4.64c1.15-0.06,1.15-0.06,2.29-0.12c-0.03,0.03-0.03,0.26-0.59,0.65c-1.25,0.88-3.45,1.33-4.91,1.78
					c-2.4,1.25-4.23,3.31-6.54,4.7c-0.68,0.64-1.38,1.27-1.99,1.96c-1.04-0.77-1.04-0.77-2.08-1.55c0.31-0.29,0.44-0.65,0.42-1.07
					c0.34-0.05,1.72-0.84,1.84-1.04c1.09-2.39-2.14-4.26-1.96-5.95c0.02-0.21,1.32-2.93,1.55-3.33c0.88-1.57,2.03-2.67,2.74-5.12
					c0.56-0.82,2.41-2,1.78-2.65c0.09,0.05,0.2,0.16,0.48,0.3c0.22,0.11,0.42,0.26,0.65,0.36c0.78,0.33,6.02,1.77,6.51,1.61
					c0.71-1.83,4.82-0.6,4.37-2.11c-0.11-0.37-1.12-0.66-0.95-1.64c0.68-1.38,4.28,0.06,5.32,0.65
					C107.29,87.82,107.74,88.48,108.63,89.57z"/>
				<path class="st30" d="M103.63,94.98c0.83,3.11-1.42,2.94-3.66,3.81c-0.25,0.21-0.4,0.49-0.62,0.71
					c-1.15,0.06-1.15,0.06-2.29,0.12C98.83,97.59,101.12,95.98,103.63,94.98z"/>
			</g>
		</g>
		<g>
			<path class="st39" d="M97.09,116.1c-1.93-0.3-3.89,0.04-5.83-0.12c0.34-0.11,0.67-0.26,1.01-0.36
				C94.84,114.92,95.2,115.55,97.09,116.1z"/>
			<path class="st40" d="M110.39,109.79c0.07,0.03-0.09,0.27-0.12,0.3C110.05,110.27,110.33,109.77,110.39,109.79z"/>
		</g>
	</g>
</g>
</svg>
