<?xml version="1.0" encoding="utf-8"?>
<!-- Generator: Adobe Illustrator 28.0.0, SVG Export Plug-In . SVG Version: 6.00 Build 0)  -->
<svg version="1.1" id="Layer_1" xmlns="http://www.w3.org/2000/svg" xmlns:xlink="http://www.w3.org/1999/xlink" x="0px" y="0px"
	 viewBox="0 0 238 478" style="enable-background:new 0 0 238 478;" xml:space="preserve">
<style type="text/css">
	.st0{display:none;}
	.st1{display:inline;fill:#EAC2CA;}
	.st2{display:inline;fill:#B7D7C6;}
	.st3{display:inline;fill:#FAD1C5;}
	.st4{display:inline;fill:#B4CBC4;}
	.st5{display:inline;fill:#AFE5CD;}
	.st6{display:inline;fill:#F8F3D3;}
	.st7{display:inline;fill:#18538B;}
	.st8{display:inline;fill:#894D81;}
	.st9{display:inline;fill:#9EB888;}
	.st10{display:inline;fill:#25A8BC;}
	.st11{display:inline;fill:#E3F3C7;}
	.st12{display:inline;fill:#314988;}
	.st13{display:inline;fill:#78BA8C;}
	.st14{display:inline;fill:#F5D4D6;}
	.st15{display:inline;fill:#68DBCA;}
	.st16{display:inline;fill:#FAE3CF;}
	.st17{display:inline;fill:#E9BEA6;}
	.st18{display:inline;fill:#71A0D8;}
	.st19{display:inline;fill:#75508E;}
	.st20{display:inline;fill:#DBD9E9;}
	.st21{display:inline;fill:#94C7D5;}
	.st22{display:inline;fill:#5097A0;}
	.st23{display:inline;fill:#D2D6DC;}
	.st24{display:inline;fill:#6D77A0;}
	.st25{display:inline;fill:#67E3E3;}
	.st26{display:inline;fill:#B1C282;}
	.st27{display:inline;fill:#3F2E68;}
	.st28{display:inline;fill:#F3E5CD;}
	.st29{display:inline;fill:#C996B9;}
	.st30{display:inline;fill:#9C70A5;}
	.st31{display:inline;fill:#F7F4F0;}
	.st32{display:inline;fill:#55ACAE;}
	.st33{display:inline;fill:#EDFDEC;}
	.st34{display:inline;fill:#564985;}
	.st35{display:inline;fill:#BCBBCE;}
	.st36{display:inline;fill:#5AA991;}
	.st37{display:inline;fill:#985A85;}
	.st38{display:inline;fill:#D1AAC3;}
	.st39{display:inline;fill:#C1ECE9;}
	.st40{display:inline;fill:#32748D;}
	.st41{display:inline;fill:#25846E;}
	.st42{display:inline;fill:#AADCEB;}
	.st43{display:inline;fill:#BD7E9F;}
	.st44{display:inline;fill:#3C2548;}
	.st45{display:inline;fill:#74BFBC;}
	.st46{display:inline;fill:#A2B8C8;}
	.st47{display:inline;fill:#678CAF;}
	.st48{display:inline;fill:#C8EEC7;}
	.st49{display:inline;fill:#CAD7B9;}
	.st50{display:inline;fill:#458297;}
	.st51{display:inline;fill:#D3E9E4;}
	.st52{display:inline;fill:#DCE6DA;}
	.st53{display:inline;fill:#C1B98F;}
	.st54{display:inline;fill:#97A7C8;}
	.st55{display:inline;fill:#66ADCD;}
	.st56{display:inline;fill:#3CBCC5;}
	.st57{display:inline;fill:#AA7885;}
	.st58{display:inline;fill:#835E95;}
	.st59{display:inline;fill:#F5DFD6;}
	.st60{display:inline;fill:#AF6792;}
	.st61{display:inline;fill:#F3E4E9;}
	.st62{display:inline;fill:#AC8887;}
	.st63{display:inline;fill:#9A9781;}
	.st64{display:inline;fill:#9C5F9A;}
	.st65{display:inline;fill:#1F7881;}
	.st66{display:inline;fill:#ACF1EA;}
	.st67{display:inline;fill:#F1DBFA;}
	.st68{display:inline;fill:#BCBBDD;}
	.st69{display:inline;fill:#215054;}
	.st70{display:inline;fill:#C0B1CA;}
	.st71{display:inline;fill:#8F387B;}
	.st72{display:inline;fill:#86C3E2;}
	.st73{display:inline;fill:#96BCE1;}
	.st74{display:inline;fill:#CBA3D7;}
	.st75{display:inline;fill:#856678;}
	.st76{display:inline;fill:#505E70;}
	.st77{display:inline;fill:#B9BBF1;}
	.st78{display:inline;fill:#DFBFDA;}
	.st79{display:inline;fill:#3699C5;}
	.st80{display:inline;fill:#197262;}
	.st81{display:inline;fill:#24A38E;}
	.st82{display:inline;fill:#ABA383;}
	.st83{display:inline;fill:#87899F;}
	.st84{display:inline;fill:#602E6F;}
	.st85{display:inline;fill:#53649E;}
	.st86{display:inline;fill:#D1C96C;}
	.st87{fill:#18538B;}
	.st88{fill:#314988;}
	.st89{fill:#1F7881;}
	.st90{fill:#2D9D9A;}
	.st91{fill:#10345A;}
	.st92{fill:#38C5B9;}
	.st93{fill:#82514B;}
	.st94{fill:#581941;}
	.st95{fill:#A16F4C;}
	.st96{fill:#3C2548;}
	.st97{fill:#B1814C;}
</style>
<g>
	<g id="Background_00000025430498682967143630000006814996320751804596_" class="st0">
		<path class="st1" d="M53.6-4.82c0.16,0.12,2.37,0.12,3.57,0.56c1.32,0.49,2.65,0.59,3.96,1.11c-0.04,0.44,0.09,0.58,0.4,0.56
			c4.6,26.37,5.26,32.23,22.19,45.42c2.64,57.07,3.74,114.25,5.55,171.37c-26,20.06-22.48,36.34,1.58,55.17
			c0.02,0.56-0.02,1.12,0,1.67c0.84,26.19,1.79,52.4,2.77,78.58c0.1,2.77,0.29,5.56,0.4,8.36c-2,1.67-4.43,5-5.55,7.8
			c-1.07,2.68-1.49,5.96-1.98,8.92c-1.3,7.85-2.13,13.7,1.19,21.18c11.32,38.14,78.6,36.8,89.15,0.56c0.74-2.55,1.79-6.21,1.98-8.92
			c0.3-4.32-0.09-8.6-0.79-12.82c-0.15-0.89-0.56-1.93-0.79-2.79c-1.6-5.92-2.84-7.58-6.34-11.7c0.74-15.29,0.75-30.91,1.19-46.26
			c13.76,11.87,24.13,30.66,31.7,50.44c11.26,29.44,19.3,71.32,2.77,100.04c-0.83,1.45-1.8,2.65-2.77,3.9
			c-13.9,4.59-61.49,4.76-71.12,15.05c-5.31,5.67,0.87,12.71-7.53,17.28c-4.83,2.62-24.11,5.02-31.5,8.36
			c-7.67-14.21-19.24-33.44-22.98-50.44c-5.2-23.58,0.51-57.88-6.34-90.28c-2.33-11.01-6.85-23.07-11.09-32.88
			c-22.51-51.97-49.83-66.23-64.98-143.23c-1.09-5.56-1.86-14.84-3.17-20.06c-0.11-0.44-0.53-0.28-0.79-0.28c0-6.69,0-13.38,0-20.06
			c13.23,8.17,55.03,23.58,63.39,1.39c9.08-24.08-31.54-31.04-37.44-35.95c-14.39-11.96,22.2-29.2,27.73-31.77
			c2.78-1.29,8.52-3.89,8.52-2.23c-2.48,3.51-2.32,13.74-1.19,18.39c-1.76,2.93,7.1-1.5,7.53-3.62c0.14-0.7-0.57-0.95-0.4-1.95
			c0.56,0.1,1.15-0.03,1.58-0.56c0.29-0.07,0.46,0.16,0.4,0.56c-0.71,4.7,2.52,13.39,4.75,17.28c6.02,10.45,2.97,1.3,2.77-14.21
			c-0.88-2.88-1.58-7.18-4.36-7.52c-0.2,0-0.2,0-0.4,0c0.49-1.79,0.89-3.62,0.79-5.57c2.97,2.94,7.58,4.61,11.29,5.02
			c8.7,0.95,5.46-0.68,4.56-2.79c-1.14-2.65-2.15-4.86-3.57-7.24c2.58-3.07,2.58-3.07,5.15-6.13c0.96,0.47,6.19,2.97,6.74,1.95
			c-3.19-6.47-6.89-15.96-11.09-20.9c-0.01-3.63-1.79-6.29-2.77-9.47c-0.83-2.69-0.72-4.78-0.79-5.02c-1-3.35-1.01-2.14-1.58,0
			c-0.77-0.07-0.11-1.75-0.59-2.23c-0.06-0.06,0.28,0.54-1.39,0c-4.1-7.34-8.76-18.73-15.45-20.06c0.38-4.04-0.75-2.62-2.38-1.11
			c-4.51-3.45-1.76-2.18-1.58-5.02c0.18-2.93-1.12-8.22-1.98-11.15c1.25,0.02,1.58-3.51,1.58-5.02c9.01,33.53,7.2,17.23,5.55-6.41
			c2.99,1.43,1.55,8.09,2.18,8.64C52.71-2.87,52.71-2.87,53.6-4.82z"/>
		<path class="st2" d="M279.04,363.56c-0.03,55.36,0.02,110.72,0,166.08c-27.6,0.04-55.2-0.05-82.81,0
			c-11.76-2.34-43.17-6.7-52.1-15.6c-14.41-14.37,26.39-14.38,30.71-19.23c-6.23-0.15-30-7.57-23.18-10.87
			c6.56-3.17,37.52,3.2,52.1-15.6c0.97-1.25,1.94-2.45,2.77-3.9c0.07,3.14,5.06-3.65,7.73-5.57c15.5-11.16,32.06-14.62,42.99-36.5
			c9.27-18.55,11.08-41.21,7.53-62.98c-0.48-3.32,0.48-7.12,0.4-10.31C270.93,352.06,275.07,357.15,279.04,363.56z"/>
		<path class="st3" d="M186.33,38.1c0.32,0.42,5.38,8.91,5.55,9.47c0.14,0.48,0.36,0.68,0.4,1.11c0.09,0.94-0.5,3.83-0.79,5.02
			c-0.85,2.94,0.26,2.61,1.58,3.9c-0.35,0.66-0.29,1.1-0.4,1.67c-0.89,4.72,1.78,19.73,3.96,23.69c3.72,6.74,12.91,6.78,13.67,10.87
			c0.3-0.28,0.3-0.28,0.59-0.56c0.76,0.08,3.81-3.05,4.75-3.9c1.98,3.07,1.98,3.07,3.96,6.13c-2.12,5.26-1.96,11.28-3.17,17
			c0.3,0.42,0.3,0.42,0.59,0.84c3.66-4.46,3.66-4.46,7.33-8.92c-0.03,4.14,1.28,8.5,2.38,12.26c1.21,4.15,2.19,5.47,3.17,8.92
			c-1.2-0.84-1.83-4.58-3.37-5.57c-10.24,0.34-27.07-2.01-36.45-0.56c-10.15,1.57-4.22,6.06,1.19,11.15
			c14.3,13.43,29.94,16.67,29.72,46.81c5.35-38.81,32.33-35,43.58-39.01c0.3-0.11,0.2-0.74,0.2-1.11c1.49,0.88,3.01,0.04,4.36,0.56
			c0.03,0.44-0.05,0.99,0,1.11c-4.75,2.93-4.75,2.93-9.51,5.85c-0.47,1.56,2.26,3.83,2.77,4.74c0.55,0.97,0.15,1.48,1.58,2.79
			c0.4,0.36,0.19,1.23,1.58,1.67c0,0.28,0,0.28,0,0.56c-0.21-0.05-1.9,0.68-4.16,0c-1.84,10.41,5.04,7.69,2.97,12.26
			c-0.83,0.93-2.08,1-2.77,1.67c-0.09,0.09-0.31-0.09-0.4,0c-0.79-8.87-6.49-4.63-9.11-3.9c-0.84,0.23-6.34,1.29-6.34,2.51
			c5.74,2.65,5.74,2.65,11.49,5.29c-0.06,0.05,0.21,1.01-0.59,1.67c-1.7,1.4-7.89,1.73-3.76,5.57c-0.34,0.29-0.83,1.16-1.19,1.67
			c-4.58-4.09-10.19-2.07-1.98,3.34c-0.2,0.52-0.68,1.79-0.79,2.23c-4.28,15.99,3.84,4.92,4.75-2.23c0.51-0.42,0.37-0.54,0.4-0.56
			c0.44-0.39,0.34-0.81,1.19-1.67c0.07-0.07,1.24,0.04,1.78-0.56c3.01-3.31,4.05-7.83,5.35-7.24c-3.32,11.71,1.49,2.16,2.77,1.11
			c0.18-0.15,0.09,0.96,3.96-2.23c0.99,0.42,0.99,0.42,1.98,0.84c-0.2-4.18-0.2-4.18-0.4-8.36c0.07-0.51,1.17-0.19,1.19-0.28
			c0.12,2.57,1.44,0.35,2.38-0.56c0.57,2.35,3.08,7.75,4.75,8.36c0,2.41,0,4.83,0,7.24c-1.94,0.8-5.07,1.66-6.74,2.79
			c-4.22,2.84-2.92,5.81-2.58,17.83c3.31-3.81,2.89-5.53,3.37-6.69c1.81-0.7,2.77-3.65,3.96-5.02c0.31-0.36,1.49-1.33,1.98-1.11
			c0,1.67,0,3.34,0,5.02c-3.96,5.16-3.96,5.16-7.92,10.31c-0.2,0.72,0.79,1.84,0.79,1.95c0.01,0.42-2.01,0.29,1.98,6.69
			c-1.91,7.96,1.78,24.77,5.15,22.29c0.01,42.91,0.02,85.82,0,128.74c-3.97-6.41-8.11-11.5-13.87-14.49
			c-0.5-19.63,0.22-39.5-2.77-58.8c-3.74-24.15-17.24-59.58-30.71-76.07c-21.95-16.81-34.4-49.38-54.87-67.99
			c0.99-33.42,1.66-66.91,2.77-100.31c1.08-0.17,2.18,0.51,3.17-0.56c1.16-1.25,0.7-7.9,0.79-10.03
			C184.47,36.21,185.51,37.02,186.33,38.1z"/>
		<path class="st4" d="M-13.36,316.19c0.57,11.64,0.4,23.19,0.4,34.83c10.3,13.93,10.3,13.93,20.6,27.87
			c-5.21,6.14-3.6,14.48-11.49,1.11c-3.96-6.71-12.47-33.63-9.11-18.95c2,8.76,9.94,29.55,17.63,29.82
			c6.36-19.9,4.98-2.19,11.69,15.88c-0.02,0.92-3.65,7.29-2.38,11.42c-0.24,0.3-0.38,1.53-0.59,1.67c-0.93-1.84-7,2.16-6.93,4.18
			c0.88,1.64,1.12,0.32,1.58,0.28c-0.65,3.13,4.98,9.74,3.96,1.67c1.73,1.13,4.45-1.87,5.74-2.23c1.14-0.32,1.27,1.27,1.98,1.11
			c0.28-0.06,2.41-1.65,2.58-1.67c4.02-0.62,1.86,2.24,1.98,2.51c0.11,0.23,2.4,4.3,2.58,4.18c0.88-0.61-1.43-5.36,0.99-3.34
			c0.28,0.7,0.32,0.71,0.79,1.11c0.02,0.02,0.05,0.17,0.4,0.56c0.4,6.05,2.7,9.8,1.78,3.34c6.39-0.28,7.84,4.64,9.51,2.23
			c0.6,0.36,2.58,3.83,2.77,3.9c2.19,0.81-2.57-3.78,1.19-3.34c5.32,0.62,8.2,8.65,8.72,8.92c3.37,1.73-2.53-6.13,0-5.57
			c2.02,0.44,8.82,16.33,9.71,19.51c2.87,10.29,3.96,25.46,9.51,36.5c-1.53,3.92-5.02,6.1-7.92,7.52
			c-8.68,4.27-45.07,6.42-52.5,1.11c-1.29-0.92-4.54-5.53-5.35-7.24c-0.06-0.12-0.04-2.15-0.59-2.79c0.3,1.39,0.3,1.39,0.59,2.79
			c0.76,3.36,3.41,6.84,5.55,8.36c-0.08,0.57-1.06,1.13-1.39,1.11c-6.7-0.25-16.7-6.54-23.38-8.92c1.2,5.14,3.67,9.4,6.93,12.26
			c1.91,1.68,4.99,3.59,7.13,4.46c-3.32,1.43-0.3,2.36-5.55,2.79c-5.15-1.52-8.59-4.41-11.49-10.59c-0.46-91-0.03-182.07,0-273.08
			c0.65-0.46,1.15,1.62,1.19,1.95c0.37,3.22,0.73,55.97,0.79,65.2c0.03,4.84-1.38,10.14-0.79,15.05
			C-14.18,316.8-13.37,316.04-13.36,316.19z"/>
		<path class="st3" d="M15.96,12.46c0.18,0.05-0.4,2.93,2.77,0.56c0.53,3.07-0.12,1.59-0.79,3.34c-0.14,0.37-0.31,0.71-0.4,1.11
			c-0.2,0.92-0.72,0.37-0.79,0.84c-0.12,0.76-0.58,14.87-0.4,15.6c0.24,0.95,1.14,0.78,1.19,0.84c-0.99,4.46-0.99,4.46-1.98,8.92
			c-6.85-0.98-12.94-8.91-20.01-5.02c-7.39,4.07-1.53,18.08,4.36,19.51c4.58,1.11,11.09-1.92,15.85-2.23
			c0.88-0.73,0.72-7.97,0.59-9.47c1.69-1.21,1.41,1.64,1.78,1.67c0.72,0.06,2.42-7.43,2.58-7.8c0.06-0.14-0.06-0.42,0-0.56
			c0.36-0.82,7.85-14.82,8.52-15.05C32,23.78,30.71,31.8,33,31.41c-8.91,2.04-9.79,19.96-10.3,29.54c-0.08,1.49-0.46,3.73-0.4,3.9
			c0.64,1.76,5.11,0.73,6.74-2.23c0.67,0.15,2.44-2.71,2.77-3.34c0.21,1.24,1.02,3.11,1.19,3.9c0.47,2.24,0.18,2.49,1.19,5.02
			c1.88,4.72,1.48,1.71,1.98,2.23c3.8,3.96,0.47,2.31,0.2,5.57c1.43,0.9,5.75-5.11,7.33-6.13c0.49,1.07,5.88,9.38,6.34,9.47
			c0,0.84,0,0.84,0,1.67c-1.02,0.95-1.88-0.16-3.57,2.23c0-1.66-5.74,0.94-8.52,2.23c-5.54,2.57-42.13,19.8-27.73,31.77
			c5.9,4.91,46.52,11.87,37.44,35.95c-8.36,22.19-50.17,6.78-63.39-1.39c0.01-18.95-0.01-37.9,0-56.84
			c3.96,1.25,3.96,1.25,7.92,2.51c-2.25-6.29-5.69-24.09-6.74-26.75c-0.23-0.58-0.69-0.98-1.19-0.84c0.02-18.76-0.04-37.53,0-56.29
			c3.31,3.17,9.61,17.28,13.67,16.72c0.62-0.64,0.54-1.11,0.59-1.11c4.45-0.55,8.81-0.74,13.27-0.56c1.89-1.07-3.32-7.87-3.37-10.59
			c4.63-2.17,6.34-5.5,6.74-5.57C15.41,12.42,15.73,12.4,15.96,12.46z"/>
		<path class="st2" d="M57.56,355.2c-0.78,1.7,1.16,6.24,1.58,8.64c0.66,3.72,2.54,20.07,2.77,23.96
			c0.52,8.51-1.67,30.08,2.38,27.59c0.12,2.02-0.16,3.27-1.19,2.23c-1.01-3.41-19.35-17.6-20.4-19.51
			c-1.46-2.63-1.22-11.68-2.77-3.9c-2.34-3.7-2.52-0.65-3.17-1.11c-0.29-0.2,0.62-1.23-0.2-3.07c-2.32-5.24-7.73-12.73-7.92-18.95
			c-0.24-0.64-0.72,0.77-0.99,0.28c-3.1-5.62-12.52-18.42-16.84-24.52c0.89-2.17,9.12-1.98,10.9-2.79c6.28-2.87-9.57-3.65-12.88,0
			c-2.72-3.78-19.47-28.11-20.8-28.98c-0.4-0.26-1.66-0.25-1.39,1.11c-0.01-0.15-0.82,0.61-1.19-2.51
			c-0.59-4.91,0.83-10.21,0.79-15.05c-0.06-9.23-0.42-61.99-0.79-65.2c-0.04-0.33-0.54-2.41-1.19-1.95c0-8.17,0-16.35,0-24.52
			c5.05,13.04,8.98,27.23,14.26,40.4c1.58,3.94,10,23.2,11.49,26.19c0.6,1.22,1.43,0.47,1.98,1.67c-0.86,0.86,0,2.58,0.4,3.34
			c5.35,10.19,12.82,18.25,18.23,28.42c9.31,20.9,9.31,20.9,18.62,41.8C52.94,352.33,51.54,343.91,57.56,355.2z"/>
		<path class="st3" d="M203.76,468.33c-14.58,18.81-45.54,12.43-52.1,15.6c-6.82,3.3,16.94,10.72,23.18,10.87
			c-4.32,4.85-45.12,4.85-30.71,19.23c8.93,8.91,40.34,13.27,52.1,15.6c-30.51,0.05-61.02,0.03-91.52,0
			c-4.23-6.36-7.44-13.85-11.09-20.62c7.39-3.34,26.67-5.74,31.5-8.36c8.4-4.57,2.22-11.61,7.53-17.28
			C142.27,473.09,189.86,472.92,203.76,468.33z"/>
		<path class="st2" d="M93.62,509.02c3.66,6.77,6.87,14.26,11.09,20.62c-2.25,0-4.49,0-6.74,0c-6.04-8.92-6.04-8.92-12.08-17.83
			c-0.42-0.27-6.16,3.43-5.94,5.57c-3.19-0.46-6.7,0.07-7.33-5.57c8.26-3.69,5.43-8.13,0.59-15.05c-1.83,2.26-5.1,4.92-7.33,6.13
			c-0.79-0.84-0.79-0.84-1.58-1.67c2.9-1.43,6.4-3.6,7.92-7.52c-5.55-11.04-6.64-26.21-9.51-36.5c3.24-0.75-1.99-10.57-1.19-12.54
			c0.38-0.92,2.14,1.13,2.38-0.56c0.13-0.95-3.31-18-3.17-18.95c0.47-3.19,4.15-1.57,2.38-7.52c1.03,1.04,1.31-0.21,1.19-2.23
			c-0.23-10.56,0.89-21.52,0-32.04c-0.73-8.59-3.05-21.23-6.74-28.14c-6.02-11.29-4.62-2.87-8.32-6.41
			c-9.31-20.9-9.31-20.9-18.62-41.8c-5.41-10.18-12.88-18.23-18.23-28.42c-0.4-0.76-1.26-2.49-0.4-3.34
			c-0.55-1.2-1.38-0.45-1.98-1.67c-1.49-3-9.91-22.25-11.49-26.19c-5.29-13.17-9.22-27.37-14.26-40.4c0-11.7,0-23.41,0-35.11
			c0.26,0,0.68-0.16,0.79,0.28c1.31,5.22,2.08,14.5,3.17,20.06c15.15,76.99,42.47,91.25,64.98,143.23
			c4.25,9.81,8.77,21.87,11.09,32.88c6.85,32.4,1.14,66.7,6.34,90.28C74.38,475.58,85.94,494.81,93.62,509.02z"/>
		<path class="st5" d="M59.94,521.83c0,0.39-0.11,0.97,0.2,1.11c1.56,0.77,28.69,1.05,33.08,1.11c1.12,1.16,3.28,3.76,3.57,5.57
			c-24.96-0.03-49.92,0.12-74.88,0c-0.49-2.31-0.48-9.11-0.79-9.75c-1.2-2.49-21.59-3.62-25.36-4.74c5.25-0.42,2.23-1.36,5.55-2.79
			c5.29,2.14,11.01,2.16,16.44,2.79C32.66,524.83,44.57,522.65,59.94,521.83z"/>
		<path class="st2" d="M72.62,511.8c0.63,5.64,4.14,5.12,7.33,5.57c-0.21-2.14,5.52-5.84,5.94-5.57c6.04,8.92,6.04,8.92,12.08,17.83
			c-0.4,0-0.79,0-1.19,0c-0.28-1.82-2.45-4.41-3.57-5.57c-0.6-0.62-1.04-2.28-2.18-2.79c-7.49-3.33-23.27,0.14-31.1,0.56
			c-15.36,0.81-27.28,3-42.2-6.69c-5.43-0.63-11.15-0.65-16.44-2.79c-2.15-0.87-5.22-2.78-7.13-4.46c0.3-4.16,1.57-0.35,3.76,0.56
			c6.67,2.76,17.1,4.02,24.17,4.46c0.1-3.1,0.69,0.55,0.79,0.56C34.13,514.63,62.89,516.14,72.62,511.8z"/>
		<path class="st3" d="M-4.25,515.15c3.77,1.12,24.16,2.25,25.36,4.74c0.31,0.64,0.31,7.45,0.79,9.75
			c-12.55-0.06-25.09,0.04-37.64,0c-0.03-8.36,0.04-16.72,0-25.08C-12.84,510.74-9.39,513.62-4.25,515.15z"/>
		<path class="st3" d="M107.88-41.04c-0.09,1.16,0.14,2.84,0,3.34c-0.43,1.54-6.97,9.68-5.94,12.26c-4.04-1.77-7.08-3.18-10.5-7.24
			c-1.18,5.57,1.15,10.93,3.37,15.33c0.34,0.67-0.42,0.8-0.4,0.84C89.21-14.8,84-12.9,78.96-10.39c-0.72-0.65-1.12-1.6-1.19-1.67
			c2.05,1.03,8.36-7.35,8.72-10.31c0.6-4.99-2.43-13.56-3.57-18.67C91.24-41.05,99.56-41.03,107.88-41.04z"/>
		<path class="st6" d="M116.99-41.04c0.35,1.62,1.3,1.2,1.98,0c0.92,0,1.85,0,2.77,0c-0.4,12.4-0.4,12.4-0.79,24.8
			c-0.27,0.75-1.17-0.61-2.38-1.39c-9.91-6.45-8.79-4.37-16.64-7.8c-1.02-2.58,5.51-10.72,5.94-12.26c2.49-0.44,4.37,1.34,4.75-3.34
			C114.09-41.04,115.54-41.04,116.99-41.04z"/>
		<path class="st6" d="M82.92-41.04c1.14,5.11,4.16,13.68,3.57,18.67c-0.35,2.96-6.67,11.34-8.72,10.31
			c-2.45-2.72-5.31-6.06-7.92-8.36c3.54-6.15,4.16-16.55,10.3-20.62C81.07-41.04,81.99-41.04,82.92-41.04z"/>
		<path class="st7" d="M239.02-26.55c-0.32,1.98,0.11,4.67,0.4,6.69c2.42,16.97,9,22.07,19.02,30.09c1.62,1.3,3.03,2.78,4.75,3.9
			c5.02,3.25,5.26,4.87,11.49,4.46c1.49-0.1,2.87-0.67,4.36-0.56c0,0.74,0,1.49,0,2.23c-1.81,0.05-3.76,0.18-5.55,0.56
			c-2.15,0.46-1.89-0.19-0.4,1.11c1.87,1.64,3.89,3.3,5.94,4.46c0,0.93,0,1.86,0,2.79c-0.92-0.31-1.97-1.02-2.77-1.67
			c-5.56-4.48-11.07-8.89-16.84-12.82c1.88,4.74,1.88,4.74,3.76,9.47c-0.15,0.03-2.26,2.88-1.98,0.56
			c-0.25-3.18-1.54-4.38-1.98-5.57c-1.84-4.99-0.9-4.22-4.36-7.24c-1.79-1.56-2.91-3.2-4.56-2.23c-1.52-4.78-7.03-5.78-10.5-11.98
			c-3.68-6.58-4.23-16.26-5.15-24.24C236.09-26.33,237.59-26.71,239.02-26.55z"/>
		<path class="st8" d="M207.72-41.04c0.51,2.94,2.36,6.94,2.77,5.57c2.42,0.52,5.39-1.58,9.51-1.11c0.18,0.02,1.4,0.6,3.57,1.11
			c0.45,0.11,5.2,2.66,8.52,3.34c2.5,0.51,2.82-0.59,2.97-0.56c0.26,0.05-0.57,0.87,3.96,1.67c0.64,0.11,1.34-0.1,1.98,0
			c4.41,0.69,8.61,1.55,13.07,1.67c0.19,0.01,1.97,2.07,3.17-1.11c0.02,0.03,0.15,0.16,0.4,0.56c0.96,2.5,0.35,2.66,0.4,2.79
			c-1.6,1.74-4.38,3.04-6.34,3.34c-0.26,0.04-0.53-0.03-0.79,0c-6.23,0.64-8.65-1.6-9.11-1.67c-0.05-0.01,0.03-0.47-0.59-1.11
			c-1.09,0-1.09,0-2.18,0c-1.43-0.16-2.94,0.22-4.36,0c-2.85-0.44-5.82-0.25-7.53-0.56c-3.6-0.65-7.14-1.93-10.7-2.79
			c-0.13-0.03-0.27,0.03-0.4,0c-3.05-0.76-3.39,0.05-3.57,0c-5.98-1.63-2.81-5.46-5.94-6.69c0.11-1.05-0.27-1.79-0.4-2.79
			c-0.07-0.53,0.04-1.13,0-1.67C206.67-41.04,207.19-41.04,207.72-41.04z"/>
		<path class="st1" d="M270.72-12.62c0.36,0.3,2.32,3.53,5.94,2.79c0.97,3.05-0.35,7.92,2.38,9.47c0,0.56,0,1.11,0,1.67
			c-6.19,2.67-8.92,9.7-4.36,17.28c-6.23,0.41-6.47-1.21-11.49-4.46c2.97-13.93,2.97-13.93,5.94-27.87
			C270.38-12.42,270.64-12.68,270.72-12.62z"/>
		<path class="st1" d="M25.47-41.04c4.91,2.52,10.36,3.2,14.66,7.8c-1.14,6.01-5.38-1.63-5.15,1.11c-2.25,0.87-2.16,2.29-4.75,0.84
			c0.17,0.78,1.59,1.83,2.77,3.07c-3.74,1-0.78,10.53,0.79,13.38C34-10.64,35.95-5.16,36.17-3.7c0.08,0.52-0.11,6.51,0.79,10.59
			c-0.89-1.39-0.89-1.39-1.78-2.79c-1.83,4.21-0.55-1.69-0.59-1.95c-0.41-2.26-11.4-31.82-12.28-43.19
			C23.36-41.05,24.41-41.04,25.47-41.04z"/>
		<path class="st6" d="M183.16-41.04c-0.73,12.35-0.21,24-11.49,21.73c-0.2,0-0.2,0-0.4,0c-0.97-1.57-2.65-2.55-3.96-3.34
			c-0.34-1.73,2-0.88,2.38-1.95c0.21-0.59-0.31-7.88,1.19-13.1c0.29-1,1.23-2.28,1.58-3.34C176.03-41.04,179.59-41.05,183.16-41.04z
			"/>
		<path class="st1" d="M276.27,27.51c-6.66,7.4-1.02,17.11,2.77,24.52c0.01,5.02-0.01,10.03,0,15.05
			c-5.74-10.03-5.74-10.03-11.49-20.06c0.79-1.51,5.68-15.74,5.55-17c-0.46-4.25-7.49-6.32-9.91-5.85
			c-1.88-4.74-1.88-4.74-3.76-9.47C265.2,18.61,270.71,23.03,276.27,27.51z"/>
		<path class="st3" d="M167.71-41.04c0.28,2.11,1.61,3.14,3.17,3.34c-1.5,5.22-0.98,12.51-1.19,13.1c-0.38,1.07-2.72,0.22-2.38,1.95
			c-2.52-1.51-14.94-10.8-15.85-12.82c-0.11-0.24-0.54-4.63-0.79-5.57C156.35-41.04,162.03-41.05,167.71-41.04z"/>
		<path class="st3" d="M-1.08-41.04C-5.51-33-8.48-27.82-8.21-17.08C-8.03-9.96-5.37-3.09-5.44,4.1C-7.1,4.42-7.69,3.51-7.81,3.54
			c-2.16-12.32-3.14-29.07-7.92-39.57c0.07-1.66-0.05-3.35,0-5.02C-10.85-41.09-5.96-40.97-1.08-41.04z"/>
		<path class="st3" d="M80.14-41.04c-6.14,4.07-6.76,14.47-10.3,20.62c-1.39-1.22-3.98-2.14-5.15-3.9c0.05-0.12-0.03-0.67,0-1.11
			c1.24-1.11,1.46-3.8,2.38-5.29c-3.27-0.14-3.27-0.14-6.54-0.28c5.86-9.49-7.93-9.65-12.08-8.92c-0.2-0.56-0.2-0.56-0.4-1.11
			C58.75-41.07,69.45-41.03,80.14-41.04z"/>
		<path class="st7" d="M22.3-41.04C23.18-29.67,34.17-0.11,34.58,2.15c0.05,0.26-1.23,6.16,0.59,1.95c0.89,1.39,0.89,1.39,1.78,2.79
			c0.23,1.04,1.56,4.77,1.98,5.57c-0.86,2.08-3.01-1.6,0,5.57c-0.79,0.84-0.79,0.84-1.58,1.67c-3.48-8.42-4-12.65-3.57-7.24
			c-1.85,0.6-1.08-2.5-1.58-5.02c-1.94-9.67-5.92-18.18-8.32-27.59c-0.4,0-0.4,0-0.79,0c-0.13,2.55-0.09,7.68-0.4,9.75
			c-0.02,0.16-0.86,2.06-1.19,2.79c-0.09-0.05-0.25,0.02-0.4,0c-0.59-0.84-0.59-0.84-1.19-1.67c0.56-0.41,2.2-1.76,2.38-2.51
			c1-10.15,0.03-14.74-1.19-24.24c-0.22-1.68-0.65-3.21-0.4-5.02C21.24-41.04,21.77-41.04,22.3-41.04z"/>
		<path class="st7" d="M279.04,67.08c0,1.49,0,2.97,0,4.46c-3.76-5.99-3.76-5.99-7.53-11.98c2.37,5.79,5.39,20.81,7.53,18.67
			c0.01,7.43,0,14.86,0,22.29c-0.79,0-0.79,0-1.58,0c0.01-0.17-0.43-2.17-0.4-3.34c0.16-5.48,0.65-10.93,0.4-16.44
			c-2.94-6.58-10.24-26.2-11.49-32.04c0.38-0.34,1.53-1.56,1.58-1.67C273.29,57.04,273.29,57.04,279.04,67.08z"/>
		<path class="st6" d="M279.04,234.82c-3.37,2.48-7.06-14.33-5.15-22.29c0.54-2.27,3.74-8.55,5.15-10.59
			C279.04,212.9,279.04,223.86,279.04,234.82z"/>
		<path class="st1" d="M191.48-41.04c-7.14,9.04-5.32,11.58-5.55,12.26c-0.05,0.15,0.05,0.4,0,0.56
			c-0.92,2.85-3.83,10.11-4.36,12.26c0.04-3.53-3.34-1.52-3.96,3.9c-0.96,4.11-1.69-4.12-3.96-3.9c-0.08-0.19-1.54-2.09-1.98-3.34
			c11.28,2.27,10.76-9.38,11.49-21.73C185.93-41.04,188.7-41.05,191.48-41.04z"/>
		<path class="st3" d="M127.69-41.04c-0.98,8.47-2.54,17.1-3.17,25.64c-1.58,0.84-1.58,0.84-3.17,1.67c-0.2,0-0.2,0-0.4,0
			c-0.28-1.3-1.99-2.5-2.38-3.9c1.2,0.78,2.11,2.14,2.38,1.39c0.4-12.4,0.4-12.4,0.79-24.8C123.73-41.04,125.71-41.04,127.69-41.04z
			"/>
		<path class="st1" d="M-7.81,3.54c-0.44,0.12-1.76,0.86-2.38,1.11c-0.87-5.68-2.53-1.53-5.55-1.11c0-1.67-0.01-3.34,0-5.02
			c0.65,0.74,3.66,0.85,3.96,0.28c0.5-0.93-2.6-20.31-3.96-22.57c0.04-4.06-0.18-8.22,0-12.26C-10.96-25.53-9.97-8.78-7.81,3.54z"/>
		<path class="st6" d="M276.27-41.04c0.91,0.11,1.86-0.08,2.77,0c0.03,8.73-0.04,17.46,0,26.19c-1.03-0.97-1.62-2.57-2.38-3.9
			c-1.32-2.31-2.31-3.75-3.96-5.57c-0.76-0.84-1.69-2.23-2.38-2.79C273.29-34.07,273.29-34.07,276.27-41.04z"/>
		<path class="st9" d="M272.7-22.09c1.31,0.79,2.67,2.41,3.96,3.34c0.76,1.33,1.35,2.93,2.38,3.9c0.01,1.3-0.01,2.6,0,3.9
			c-1.22-0.22-2.25,1.09-2.38,1.11c-3.62,0.75-5.58-2.48-5.94-2.79c-0.97-3.39-4.48-9.78-7.13-9.47c-1.38-1.87-2.65-3.6-3.96-5.57
			c2.25-0.83,1.4,0.41,1.78,0.56C265.08-25.68,269.21-24.19,272.7-22.09z"/>
		<path class="st1" d="M252.89-41.04c-0.58,4.04-0.58,8.16,1.19,11.7c-4.46-0.12-8.66-0.98-13.07-1.67c0.4-5.02,0.4-5.02,0.79-10.03
			C245.49-41.02,249.19-41.07,252.89-41.04z"/>
		<path class="st6" d="M-15.74,94.94c0.01-8.36-0.01-16.72,0-25.08c0.5-0.15,0.96,0.25,1.19,0.84c1.04,2.66,4.48,20.46,6.74,26.75
			C-11.77,96.19-11.77,96.19-15.74,94.94z"/>
		<path class="st10" d="M147.1-41.04c0.4,0,0.79,0,1.19,0c0.79,0,1.58,0,2.38,0c0.25,0.94,0.68,5.33,0.79,5.57
			c-0.59,1.11-0.59,1.11-1.19,2.23c-0.25-0.06-0.53,0.03-0.79,0c-5.14,2.6-7.83-3.71-13.07-2.79c0.07-0.98-0.9-3.52-0.79-5.02
			C139.44-41.04,143.27-41.04,147.1-41.04z"/>
		<path class="st1" d="M276.27-41.04c-2.97,6.97-2.97,6.97-5.94,13.93c-1.62-1.3-3.26-2.43-5.15-2.79c0.2-5.57,0.2-5.57,0.4-11.15
			C268.91-40.98,273.19-41.41,276.27-41.04z"/>
		<path class="st6" d="M279.04,29.18c0.01,7.62-0.01,15.23,0,22.85c-3.79-7.41-9.43-17.12-2.77-24.52
			C277.07,28.16,278.12,28.87,279.04,29.18z"/>
		<path class="st1" d="M6.45-41.04c0,0.56,0,0.56,0,1.11C-1.41-38.91-4.74-28.62-5.04-18.75c-2.13,1.87,0.89,4.88-3.17,1.67
			C-8.48-27.82-5.51-33-1.08-41.04C1.43-41.08,3.94-41.02,6.45-41.04z"/>
		<path class="st1" d="M235.85-41.04c-0.4,4.18-0.4,4.18-0.79,8.36c-0.15-0.03-0.47,1.07-2.97,0.56c-3.32-0.68-8.07-3.24-8.52-3.34
			c0.4-2.79,0.4-2.79,0.79-5.57C228.19-41.03,232.02-41.06,235.85-41.04z"/>
		<path class="st6" d="M279.04,1.31c0.02,5.57-0.01,11.15,0,16.72c-1.49-0.11-2.87,0.46-4.36,0.56
			C270.12,11.02,272.85,3.99,279.04,1.31z"/>
		<path class="st1" d="M-12.57,7.44c-1.18,8.7,6.89,15.93,11.09,21.73c-0.05,0.01,0.03,0.47-0.59,1.11
			c-4.06,0.57-10.35-13.54-13.67-16.72c0-2.23-0.01-4.46,0-6.69C-14.62,6.57-13.68,7.77-12.57,7.44z"/>
		<path class="st6" d="M263.98-41.04c-0.73,2.86-3.47,8.93-4.75,11.15c-0.03,0.05-0.62,0.5-0.79,0.56
			c-0.03-0.05-0.76-0.51-0.79-0.56c-0.25-0.4-0.38-0.53-0.4-0.56c-1.67-2.78-4.79-4.74,0-10.59
			C259.49-41.02,261.74-41.07,263.98-41.04z"/>
		<path class="st3" d="M279.04,160.15c-1.3-0.3-2.77,0.96-3.57,2.23c0.27-6.31,0.54-12.63,0.79-18.95c1.39-0.84,1.39-0.84,2.77-1.67
			C279.04,147.88,279.04,154.01,279.04,160.15z"/>
		<path class="st3" d="M11.21-41.04c-0.12,1.64,1.54,2.59,2.38,2.79c-0.43,6.28-4.42,12.56-2.38,12.26
			c-0.34,0.47-2.74,4.43-2.77,4.74c-0.04,0.41,0.78-0.01,0.79,0.84c0.05,4.15,1.24,10.63-3.17,3.9c0.88-1.24,2.75-9.65,3.17-12.26
			c0.68-1.12,1.68-0.86,1.98-3.07c0.76-5.51-1-8.57-4.75-8.08c0-0.56,0-0.56,0-1.11C8.04-41.06,9.62-41.03,11.21-41.04z"/>
		<path class="st11" d="M222.78-41.04c-1.39,2.23-1.39,2.23-2.77,4.46c-4.11-0.47-7.09,1.64-9.51,1.11c-0.2-2.79-0.2-2.79-0.4-5.57
			C214.33-41.03,218.55-41.05,222.78-41.04z"/>
		<path class="st6" d="M-15.74-1.47c0.02-7.43-0.07-14.86,0-22.29c1.36,2.26,4.46,21.64,3.96,22.57
			C-12.08-0.62-15.09-0.73-15.74-1.47z"/>
		<path class="st12" d="M279.04,100.51c0,2.79,0,5.57,0,8.36c-1.39,2.25-1.98,14.95-2.38,21.73c-0.79,0.56-0.79,0.56-1.58,1.11
			c0.01-0.18-0.01-0.37,0-0.56c0.37-4.71,0.49-9.26,0.79-13.93c0.02-0.37-0.02-0.75,0-1.11c0.28-4.52,1.08-10.99,1.19-13.93
			c0.02-0.42,0.35-0.47,0.4-1.67C278.25,100.51,278.25,100.51,279.04,100.51z"/>
		<path class="st1" d="M279.04,71.53c0,2.23,0,4.46,0,6.69c-2.14,2.14-5.16-12.88-7.53-18.67
			C275.28,65.54,275.28,65.54,279.04,71.53z"/>
		<path class="st5" d="M48.05-41.04c0.2,0.56,0.2,0.56,0.4,1.11c-3.09,0.54-4.34,1.64-6.34,5.02c-4.16-3.07-4.16-3.07-8.32-6.13
			C38.54-41.05,43.3-41.03,48.05-41.04z"/>
		<path class="st13" d="M279.04,160.15c0,4.46,0,8.92,0,13.38c-1.67-0.61-4.18-6.01-4.75-8.36c-0.04-0.17,0.03-0.38,0-0.56
			c1.4-0.9,1.12-2.12,1.19-2.23C276.26,161.11,277.74,159.85,279.04,160.15z"/>
		<path class="st5" d="M265.57-41.04c-0.2,5.57-0.2,5.57-0.4,11.15c-2.23-0.42-4.29,0.98-5.94,0c1.29-2.22,4.02-8.28,4.75-11.15
			C264.51-41.03,265.04-41.05,265.57-41.04z"/>
		<path class="st1" d="M279.04,201.94c-1.41,2.04-4.61,8.32-5.15,10.59c-3.99-6.39-1.97-6.27-1.98-6.69c3.57-3.9,3.57-3.9,7.13-7.8
			C279.04,199.34,279.04,200.64,279.04,201.94z"/>
		<path class="st8" d="M202.18-41.04c0.11,1.41-1.52,5.69-0.59,6.69c0.23,0.25,2.49-4.27,4.56-5.02c0.13,1,0.5,1.74,0.4,2.79
			c-0.05,0.46-0.35,2.66-0.4,2.79c-0.12,0.29-2.86,3.46-3.57,4.46c-0.41,0.58-1.48,2.11-1.58,2.23c-1.44-1.86-0.89-4.9,0.4-6.41
			c-2.72-0.42,0.51-4.95-0.4-6.97c0-0.28,0-0.28,0-0.56C201.38-41.04,201.78-41.04,202.18-41.04z"/>
		<path class="st7" d="M239.42-41.04c-0.2,5.02-0.2,5.02-0.4,10.03c-4.53-0.8-3.71-1.62-3.96-1.67c0.4-4.18,0.4-4.18,0.79-8.36
			C237.04-41.04,238.23-41.05,239.42-41.04z"/>
		<path class="st14" d="M279.04,108.87c0,7.24,0,14.49,0,21.73c-1.19,0.56-1.19,0.56-2.38,1.11c0.02-0.37-0.02-0.75,0-1.11
			C277.06,123.82,277.65,111.13,279.04,108.87z"/>
		<path class="st15" d="M257.25-41.04c-4.79,5.85-1.67,7.81,0,10.59c-1.2,3.18-2.98,1.12-3.17,1.11c-1.77-3.54-1.77-7.66-1.19-11.7
			C254.34-41.03,255.8-41.06,257.25-41.04z"/>
		<path class="st16" d="M279.04,198.04c-3.57,3.9-3.57,3.9-7.13,7.8c0-0.11-0.99-1.23-0.79-1.95c3.96-5.16,3.96-5.16,7.92-10.31
			C279.04,195.07,279.04,196.56,279.04,198.04z"/>
		<path class="st3" d="M135.61-41.04c-0.1,1.5,0.86,4.04,0.79,5.02c-0.5,7.02-4.71,0.83-5.15-3.34c0-0.84,0-0.84,0-1.67
			C132.71-41.04,134.16-41.04,135.61-41.04z"/>
		<path class="st16" d="M279.04,141.75c-1.39,0.84-1.39,0.84-2.77,1.67c0.16-3.92,0.18-7.76,0.4-11.7c1.19-0.56,1.19-0.56,2.38-1.11
			C279.04,134.32,279.04,138.04,279.04,141.75z"/>
		<path class="st17" d="M194.25-41.04c-0.2,1.39-0.2,1.39-0.4,2.79c-4.04,2.31-5.71,3.76-7.92,9.47c0.23-0.68-1.6-3.22,5.55-12.26
			C192.4-41.04,193.33-41.04,194.25-41.04z"/>
		<path class="st15" d="M241.8-41.04c-0.4,5.02-0.4,5.02-0.79,10.03c-0.65-0.1-1.34,0.11-1.98,0c0.2-5.02,0.2-5.02,0.4-10.03
			C240.21-41.04,241-41.04,241.8-41.04z"/>
		<path class="st18" d="M-10.19,4.66c-0.15,0.06-1.76,2.6-2.38,2.79c-1.11,0.33-2.05-0.87-3.17-0.56c0-1.11,0-2.23,0-3.34
			C-12.72,3.13-11.06-1.02-10.19,4.66z"/>
		<path class="st16" d="M279.04,20.26c0,2.04,0,4.09,0,6.13c-2.05-1.16-4.07-2.82-5.94-4.46c0.2-0.56,0.2-0.56,0.4-1.11
			C275.28,20.44,277.23,20.31,279.04,20.26z"/>
		<path class="st19" d="M20.71-41.04c-0.26,1.81,0.18,3.33,0.4,5.02c-1.14,1.28-0.44,1.75-0.4,2.23c-1.29,0.75-0.78,2.15-1.98,3.34
			c-0.58-2.58-0.25-5.2-0.4-7.8c-0.06-1.08-0.55-1.65-0.4-2.79C18.87-41.05,19.79-41.04,20.71-41.04z"/>
		<path class="st6" d="M279.04-10.95c0.02,3.53-0.01,7.06,0,10.59c-2.72-1.55-1.41-6.42-2.38-9.47
			C276.79-9.86,277.82-11.17,279.04-10.95z"/>
		<path class="st20" d="M279.04,180.77c0,0.74,0,1.49,0,2.23c-2.77,1.95-2.77,1.95-5.55,3.9c-0.49-1.57-0.18-2.84-1.19-3.34
			C273.97,182.43,277.1,181.56,279.04,180.77z"/>
		<path class="st15" d="M17.94-41.04c-0.16,1.14,0.33,1.7,0.4,2.79c-1.45-0.23-3.45,0.31-4.75,0c-0.83-0.2-2.5-1.15-2.38-2.79
			C13.45-41.06,15.7-41.03,17.94-41.04z"/>
		<path class="st15" d="M206.14-41.04c0.04,0.54-0.07,1.14,0,1.67c-2.06,0.74-4.33,5.26-4.56,5.02c-0.93-0.99,0.71-5.28,0.59-6.69
			C203.5-41.04,204.82-41.04,206.14-41.04z"/>
		<path class="st6" d="M279.04,182.99c0,0.37,0,0.74,0,1.11c-1.31,1.12-2.15,2.92-3.17,4.46c-0.27,0.41-0.76,1.05-0.79,1.11
			c-1.62-0.68-1.4-2.21-1.58-2.79C276.27,184.95,276.27,184.95,279.04,182.99z"/>
		<path class="st21" d="M112.63-41.04c-0.39,4.68-2.27,2.9-4.75,3.34c0.14-0.5-0.09-2.18,0-3.34
			C109.46-41.04,111.05-41.04,112.63-41.04z"/>
		<path class="st15" d="M224.36-41.04c-0.4,2.79-0.4,2.79-0.79,5.57c-2.17-0.51-3.38-1.09-3.57-1.11c1.39-2.23,1.39-2.23,2.77-4.46
			C223.31-41.04,223.84-41.04,224.36-41.04z"/>
		<path class="st22" d="M200.99-41.04c0,0.28,0,0.28,0,0.56c-1.48,0.24-2.9,1.38-4.36,1.67c-0.17-2.68-1.1-0.05-1.19,0
			c-0.39,0.21-1.21,0.34-1.58,0.56c0.2-1.39,0.2-1.39,0.4-2.79C196.5-41.04,198.74-41.05,200.99-41.04z"/>
		<path class="st15" d="M172.46-41.04c-0.35,1.07-1.3,2.34-1.58,3.34c-1.56-0.21-2.89-1.23-3.17-3.34
			C169.29-41.04,170.88-41.04,172.46-41.04z"/>
		<path class="st23" d="M279.04,188.57c-0.49-0.21-1.67,0.76-1.98,1.11c-0.59-0.56-0.59-0.56-1.19-1.11
			c1.02-1.53,1.86-3.34,3.17-4.46C279.04,185.6,279.04,187.08,279.04,188.57z"/>
		<path class="st24" d="M118.97-41.04c-0.68,1.2-1.63,1.62-1.98,0C117.65-41.04,118.31-41.04,118.97-41.04z"/>
		<path class="st25" d="M148.29-41.04c-0.4,0-0.79,0-1.19,0C147.7-41.04,147.7-41.04,148.29-41.04z"/>
		<path class="st5" d="M265.17,349.07c0.08,3.19-0.88,6.99-0.4,10.31c3.55,21.77,1.74,44.42-7.53,62.98
			c-10.93,21.88-27.49,25.34-42.99,36.5c-2.66,1.92-7.65,8.71-7.73,5.57c16.52-28.72,8.49-70.6-2.77-100.04
			c-7.56-19.78-17.94-38.57-31.7-50.44c0.21-7.41,0.18-14.86,0.4-22.29c3.37-3.45,17.34,7.06,20.4,10.59
			c9.03,10.39,10.12,23.8,7.53,39.01c4.05-5.37,10.36-22.61,11.69-30.37c4.06-23.8-2.26-50.38-15.65-66.04
			c-6.64-7.76-14.9-12.12-21.99-18.95c0.8-26.57,1.59-53.13,2.38-79.69c20.47,18.61,32.93,51.18,54.87,67.99
			c13.47,16.49,26.96,51.92,30.71,76.07C265.39,309.57,264.68,329.45,265.17,349.07z"/>
		<path class="st5" d="M89.26,214.2c0.58,18.39,1,36.79,1.58,55.17C66.78,250.54,63.26,234.27,89.26,214.2z"/>
		<path class="st6" d="M33-28.22c1.51,1.57,3.07,2.72,4.75,3.9c2,1.4,3.95,2.26,6.14,2.79c1.09,1.11,1.09,1.11,2.18,2.23
			C46.14-17,53.03-5.24,53.6-4.82c-0.89,1.95-0.89,1.95-1.78,3.9c-0.63-0.55,0.81-7.21-2.18-8.64c1.65,23.64,3.46,39.94-5.55,6.41
			c-1.18-1.1-2.14-2.56-3.17-3.9c1.39-3.2,1.39-3.2,2.77-6.41c-1.78,2.65-1.78,2.65-3.57,5.29c-1.82-2.33-4.78-3.86-6.34-6.69
			C32.22-17.69,29.25-27.22,33-28.22z"/>
		<path class="st26" d="M69.84-20.42c2.61,2.3,5.48,5.64,7.92,8.36c0.07,0.07,0.46,1.02,1.19,1.67c-1.94,0.96-6.55,3.26-7.53,5.02
			c-2.71,0.29-3.38-0.07-6.34,2.23c-0.09-0.55-0.4-0.64-0.4-1.11c1.96-0.97,11.51-8.8,5.35-7.24c-1.51,0.38-8.09,5.67-8.91,8.36
			c-1.31-0.53-2.64-0.63-3.96-1.11c1.13-1.45,2.64-1.82,3.96-2.79c0.2-0.15,0.74,0.8,3.57-3.07c-0.3-0.42-0.3-0.42-0.59-0.84
			c-4.28-1.35-8.47-6-12.48-7.8c2.39-0.55,3.22,1.23,3.37,1.11c0.67-0.51-0.44-2.28-0.2-3.34c3.29,0.36,7.88,1.55,9.91-3.34
			C65.87-22.56,68.46-21.64,69.84-20.42z"/>
		<path class="st27" d="M38.94,18.03c0.58,1.37,1.32,1.62,1.58,2.23c0.14,0.32,0.26,0.79,0.4,1.11c1.24,2.93,2.34,5.98,3.57,8.92
			c3.25,7.78,6.42,15.55,9.91,23.13c0.73,0.98,1.13-0.8,1.19-0.84c2.11,2.4,3.37,6.97,4.36,10.59c-4.41-4.54-3.91-5.78-5.15-7.24
			c-0.04-0.04-0.02-0.52-0.59-1.11c-0.64,1.65,0.19,1.59,0.2,1.67c0.48,5.61,1.83,12.4,2.38,18.39c0.34,3.71,0.48,7.52,1.19,11.15
			c0.1,1.95-0.3,3.78-0.79,5.57c-0.41,1.48-1.54,5.2-2.77,4.46c0.06-0.4-0.11-0.62-0.4-0.56c0.45-0.56,1.91-4.59,1.98-5.29
			c0.17-1.76-1.37-18.53-2.38-17c1.67-6.75-1.63-16.58-3.96-22.85c-0.42-1.12-1.09-2.25-1.58-3.34c-0.49-1.09-2.48-7.09-2.97-7.24
			C44.16,39.79,43.4,41.9,43.3,42c-0.44,0.4-0.75,0.68-1.19,1.11c-4.64,4.59,2.36-5,2.38-5.85c-2.34-5.89-4.72-11.73-7.13-17.56
			C38.15,18.87,38.15,18.87,38.94,18.03z"/>
		<path class="st6" d="M43.69,18.59c2.74,2.56,1.31,0.49,1.98,0.56c0.55,0.05,1.11-0.33,2.77,0c6.69,1.33,11.36,12.72,15.45,20.06
			c-2.01-0.65-6.9-1.87-6.34,0.56c-1.18-1.08-3.1-2.74-4.36-3.34c-0.25-2.78-3.47-3.52-5.15-4.46c-1.18-0.66-2.15-2.03-3.57-1.67
			c-1.22-2.94-2.33-5.99-3.57-8.92c6.89,3.73,6.62,0.2,0-1.11C42.31,19.43,42.31,19.43,43.69,18.59z"/>
		<path class="st9" d="M71.03,55.93c4.21,4.94,7.9,14.43,11.09,20.9c-0.55,1.02-5.77-1.48-6.74-1.95c-4.05-1.97-6.77-4.85-10.3-7.8
			c0.08-5.1-5.53-12.44-2.18-11.7c3,0.66,6.33,7.78,5.74-1.67C69.5,54.46,70.24,55,71.03,55.93z"/>
		<path class="st28" d="M59.94,63.17c2.17,2.24,3.45,2.48,5.15,3.9c3.53,2.95,6.25,5.83,10.3,7.8c-2.58,3.07-2.58,3.07-5.15,6.13
			c-3.47-5.83-5.14-12.25-11.09-4.46c-0.15-0.31-1.79-1.13-2.38-1.67c-0.55-5.99-1.89-12.78-2.38-18.39c0.2-0.28,0.2-0.28,0.4-0.56
			C56.03,57.39,55.53,58.63,59.94,63.17z"/>
		<path class="st16" d="M48.05,31.97c0.17,3.77,1.86,4.24,1.98,4.46c4.58,7.88,7.13,5.03,2.77,7.52c3.11,1.4,7.65,9.36,9.11,1.95
			c0.3,0.29,3.15,1.69,3.37,1.11c0.35-1.58,0.17-4.01,0.59-5.57c0.58-2.14,0.59-3.35,1.58,0c-1.23,2.34-2.44,4.4-0.79,6.13
			c0.73,0.76,1.54,2.79,1.58-0.56c0-0.28,0-0.28,0-0.56c0.98,3.18,2.76,5.84,2.77,9.47c-0.79-0.93-1.53-1.47-2.38-2.23
			c-3.79-3.38-4.63-4.5-7.92-3.9c-0.89,0.16-1.08,0.16-1.98,0.56c-2.69,1.19-3.01,2.13-3.17,2.23c-0.06,0.04-0.46,1.81-1.19,0.84
			c-3.49-7.58-6.66-15.35-9.91-23.13C45.9,29.94,46.88,31.31,48.05,31.97z"/>
		<path class="st8" d="M52.81,89.37c-0.8,3.89-4.89,10.02-7.53,12.26c-1.14-4.65-1.29-14.88,1.19-18.39
			c1.69-2.39,2.54-1.28,3.57-2.23c0.07-0.06,0.38,0.27,1.19-0.56C53.86,79.89,53.34,86.78,52.81,89.37z"/>
		<path class="st6" d="M42.51,1.87c0.86,2.93,2.16,8.21,1.98,11.15c-1.19,1.39-1.19,1.39-2.38,2.79c-0.16-0.19-0.94,0.95-3.17-3.34
			c-0.42-0.81-1.75-4.53-1.98-5.57c-0.9-4.08-0.72-10.07-0.79-10.59C40.11,1.07,38.29-12.43,42.51,1.87z"/>
		<path class="st3" d="M59.15,76.55c0.08,0.17-0.37,2.08,0.99,3.9c0.61,0.82,11.48,7.27,13.67,7.8c0.91,2.11,4.14,3.73-4.56,2.79
			c-3.71-0.4-8.32-2.08-11.29-5.02c-0.71-3.63-0.85-7.44-1.19-11.15C57.35,75.42,58.99,76.24,59.15,76.55z"/>
		<path class="st29" d="M70.24,81.01c1.42,2.39,2.42,4.59,3.57,7.24c-2.19-0.53-13.05-6.98-13.67-7.8c-1.36-1.82-0.91-3.73-0.99-3.9
			C65.1,68.76,66.77,75.17,70.24,81.01z"/>
		<path class="st13" d="M57.56,91.6c-1.81,2.87,0.78,0.96,1.98,4.74c-0.37,10.39,3.34,21.13-0.4,17
			c-2.24-3.88-5.47-12.57-4.75-17.28c1.23,0.74,2.37-2.98,2.77-4.46C57.36,91.6,57.36,91.6,57.56,91.6z"/>
		<path class="st30" d="M40.13-8.16c0.25,0.33,0.51,0.74,0.79,1.11c1.03,1.35,1.99,2.81,3.17,3.9c0,1.5-0.33,5.04-1.58,5.02
			c-4.22-14.3-2.39-0.8-6.34-5.57c-0.22-1.46-2.16-6.94-2.38-11.15C35.35-12.02,38.31-10.49,40.13-8.16z"/>
		<path class="st9" d="M59.15,113.33c3.74,4.13,0.03-6.61,0.4-17c-1.2-3.78-3.79-1.87-1.98-4.74c2.77,0.34,3.48,4.64,4.36,7.52
			C62.11,114.63,65.17,123.78,59.15,113.33z"/>
		<path class="st3" d="M54,95.5c-0.43,0.53-1.02,0.66-1.58,0.56c0.15-0.86-0.17-2.49,0-3.07c0.12-0.42,3.22-0.23,0.4-3.62
			c0.53-2.58,1.05-9.48-1.58-8.92c0.57-0.57,2.54-6.03,1.98-6.69c0.23-0.78,0.39-0.52,0.4-0.56c1.01-1.53,2.54,15.24,2.38,17
			C55.91,90.91,54.45,94.94,54,95.5z"/>
		<path class="st1" d="M63.9,39.21c1.67,0.54,1.33-0.06,1.39,0c0.49,0.48-0.18,2.16,0.59,2.23c-0.42,1.56-0.24,3.99-0.59,5.57
			c-0.21,0.57-3.07-0.82-3.37-1.11c-0.25-0.25-0.58-2.68-4.36-6.13C57,37.34,61.89,38.56,63.9,39.21z"/>
		<path class="st9" d="M52.41,96.06c-0.18,1.01,0.54,1.25,0.4,1.95c-0.42,2.12-9.29,6.55-7.53,3.62c2.63-2.24,6.73-8.37,7.53-12.26
			c2.82,3.39-0.27,3.21-0.4,3.62C52.24,93.56,52.56,95.2,52.41,96.06z"/>
		<path class="st8" d="M46.07,18.03c-0.04,0.03-0.35,0.88-0.4,1.11c-0.67-0.06,0.76,2-1.98-0.56c-0.19-0.18-1.26-2.39-1.58-2.79
			c1.19-1.39,1.19-1.39,2.38-2.79C44.31,15.85,41.56,14.58,46.07,18.03z"/>
		<path class="st31" d="M68.26,46.46c0,0.28,0,0.28,0,0.56c-0.79,0.28-0.79,0.28-1.58,0.56c-1.65-1.73-0.44-3.79,0.79-6.13
			C67.54,41.68,67.43,43.77,68.26,46.46z"/>
		<path class="st21" d="M65.68,34.19c2.02-1.86,2.17,4.2,0.79,3.9C65.71,37.93,65.34,34.51,65.68,34.19z"/>
		<path class="st21" d="M48.45,19.15c-1.67-0.33-2.22,0.05-2.77,0c0.04-0.24,0.36-1.08,0.4-1.11C47.7,16.53,48.83,15.11,48.45,19.15
			z"/>
		<path class="st15" d="M215.65,476.69c-8.25-3.28-8.39,9.98-9.51,5.85c-0.35-1.28,0.21-2.97,0.4-4.18
			c1.69-3.64,3.92-4.85,6.74-6.13c0.13,0.02,0.27-0.04,0.4,0C214.42,473.63,215.23,475,215.65,476.69z"/>
		<path class="st11" d="M251.9,438.8c4.83-0.65,0.41,5.2-2.38,3.9c-1.69,11.46,11.25,1.47,3.96,7.8
			C246.18,452.34,247.27,439.41,251.9,438.8z"/>
		<path class="st32" d="M215.65,476.69c-0.42-1.69-1.23-3.06-1.98-4.46c3.45,1.01,4.06,5.23,2.38,9.75
			C216.07,480.41,216.01,478.15,215.65,476.69z"/>
		<path class="st33" d="M213.27,472.23c-2.82,1.28-5.05,2.49-6.74,6.13C207.43,472.6,209.45,471.73,213.27,472.23z"/>
		<path class="st1" d="M234.66-26.55c0.92,7.99,1.47,17.67,5.15,24.24c3.47,6.2,8.98,7.21,10.5,11.98c1.65-0.97,2.77,0.66,4.56,2.23
			c0.01,0.37-0.01,0.74,0,1.11c-6.94-3.44-6.66,5.95-4.75,12.82c1.23,4.45,3.74,7.3,5.55,11.15c-0.19,0.65-1.4,4.72-0.99,5.02
			c5.15-4.05,6.86,2.67,10.7-1.67c-0.52,4.33-0.07,5.25,0.59,8.36c1.25,5.85,8.55,25.47,11.49,32.04c0.26,5.51-0.24,10.96-0.4,16.44
			c-0.38-0.07-0.82,0.11-1.19,0c-6.8-2.07-11.14,3.87-16.24,9.75c0.17,1.73,10.75-0.11,13.07-1.39c1.12-0.62,1.81-1.28,2.38-2.79
			c0.69-0.13,0.77-1.92,1.98-0.56c-0.11,2.95-0.91,9.41-1.19,13.93c-4.63-3.97-12.22,12-7.53,10.59c-2.33,2.52-7.97,7.99-3.57,10.59
			c0,0.38,0.1,1.01-0.2,1.11c-11.25,4.01-38.23,0.2-43.58,39.01c0.23-30.15-15.41-33.38-29.72-46.81
			c-5.41-5.08-11.34-9.58-1.19-11.15c9.38-1.45,26.21,0.9,36.45,0.56c1.54,1,2.16,4.73,3.37,5.57c0.39,0.27,0.97,1,1.19,0.28
			c-0.72-10.42,3.84-21.94-0.79-31.49c-0.42-0.87-0.86-1.8-1.58-2.23c1.13-3.88,0.82-15.65,0.79-20.62
			c1.45-0.39,2.01-4.85,2.97-5.02c0.62-0.11,9.46,7.13,11.49,6.69c-0.62-5.12-1.8-6.01,0.59-5.02c1.6,0.67,6.86,7.07,16.44,8.92
			c1.27-0.73-13.51-28.63-15.25-30.37c-0.66-1.22-1.35-1.61-2.38-1.95c-2.78-5.98-7.04-5.33-11.09-2.23c-0.26-0.01-0.53,0.02-0.79,0
			c-1.6-0.14-4.59-3.44-4.75-6.13c1.72-1.09,1.97-0.14,2.77-1.39c-0.4-4.46-0.4-4.46-0.79-8.92c0.59,0.42,0.59,0.42,1.19,0.84
			c1.26,2.18,4.35,4.82,5.35,7.8c1.06,0.55-0.19-4.18-0.99-6.69c0.68-0.69,0.69-0.2,1.58,0c0.13,1.37,4.37,14.66,5.55,11.42
			c-1.49-7-1.75-35.74-9.91-33.16c-0.79-2.4,0.54-1.26-0.79-2.79c-1.06-1.21-5.77-3.39-7.73-5.02c-0.75,0.33,0.21,7.89,1.39,7.8
			c-1.06,1.14-0.5,3.39,0.79,3.9c-2.48,9.53-1.78,1.5-1.98,0.28c-1.43-8.77-3.36-17.81-5.15-26.47c3.2,3.06,5.21,7.95,8.32,11.15
			c1.1,1.13,8.24,7.23,8.72,5.85c-1.49-10.1-4-19.41-7.92-28.14C228.84-26.8,231.82-26.99,234.66-26.55z"/>
		<path class="st1" d="M211.29,77.66c2.13,3.21-1.2,4.93-0.4,15.6c-0.3,0.28-0.3,0.28-0.59,0.56c-0.76-4.08-9.95-4.12-13.67-10.87
			c-2.18-3.95-4.85-18.96-3.96-23.69C196.9,72.84,209.47,74.94,211.29,77.66z"/>
		<path class="st6" d="M270.32,126.15c0.23,2.09,3.3,4.58,4.75,5.02c-0.01,0.18,0.01,0.37,0,0.56c-0.23,2.85-1.1,17.04-1.58,18.11
			c-0.2,0.44-2.24,1.28-2.38,1.67c-0.09,0.27,0.79,0.77,0.79,0.84c-0.2,0.56-0.2,0.56-0.4,1.11c-0.96,0.15-0.75-0.52-0.79-0.56
			c0.11-1.27-0.11-1.03-0.79-1.11c-1.54-0.18-1.07,1.06-1.19,1.11c-0.15,0.08-1.02,1.81-3.17,1.11c-1.39-0.45-1.19-1.31-1.58-1.67
			c-0.02-4.5,6.97,0.18,7.53-3.07c0.76-4.4-7.81-0.29-9.11,0.28c-0.51-0.9-3.25-3.18-2.77-4.74c4.75-2.93,4.75-2.93,9.51-5.85
			c1.43,3.46,3.58,0.25,0-1.11c-1.35-0.51-2.87,0.32-4.36-0.56c-4.41-2.6,1.24-8.06,3.57-10.59
			C269.28,125.69,270.24,126.24,270.32,126.15z"/>
		<path class="st34" d="M276.66,131.72c-0.22,3.94-0.24,7.78-0.4,11.7c-0.25,6.31-0.52,12.64-0.79,18.95
			c-0.07,0.1,0.21,1.33-1.19,2.23c-0.49-2.5-0.16-4.27-0.79-5.57c0.15-0.63,1.07-4.15,0.59-4.46c-3.07,6.59-8.13,9.49-6.14,15.05
			c-2.09-4.36-1.95-2.13-3.96,1.67c-0.09,0.16-0.75,0.39-1.58,3.34c-1.3-0.58-2.34,3.93-5.35,7.24c-0.55,0.6-1.71,0.48-1.78,0.56
			c-0.99-1.39-0.99-1.39-1.98-2.79c0.04-0.02-0.14-1.03,0.2-1.11c2.71,3.78,8.84-6.13,8.12-10.03c0.69-0.67,1.94-0.75,2.77-1.67
			c0.74-0.82,9.09-11.84,8.72-12.54c-0.48-0.88-1.8-0.07-2.38,0.28c-0.99-0.84-0.99-0.84-1.98-1.67c0.12-0.06-0.35-1.3,1.19-1.11
			c0.02,0.68,0.47,0.84,0.79,1.11c0.04,0.03-0.16,0.7,0.79,0.56c1.65-0.25,0.41-1.01,0.4-1.11c-0.01-0.07-0.89-0.57-0.79-0.84
			c0.14-0.4,2.18-1.23,2.38-1.67c0.48-1.07,1.35-15.26,1.58-18.11c0.79-0.56,0.79-0.56,1.58-1.11
			C276.64,130.98,276.68,131.36,276.66,131.72z"/>
		<path class="st6" d="M201.38,63.73c3.77,3.68,6.76,8.75,9.91,13.38c0,0.28,0,0.28,0,0.56c-1.81-2.73-14.38-4.83-18.62-18.39
			c0.11-0.57,0.04-1.01,0.4-1.67C194.83,59.31,197.38,59.82,201.38,63.73z"/>
		<path class="st35" d="M224.17,184.67c10.63,4.11,9.13,12.44,8.72,26.19c-1.31,1.29-0.73-4.71-4.75-8.92
			c-1.54-1.61-8.42-3.71,0-2.79C234.02,194.83,226.68,188.24,224.17,184.67z"/>
		<path class="st36" d="M226.74,116.68c-1.1-3.76-2.41-8.12-2.38-12.26c0.03-3.18,1.31-6.68,2.77-8.92
			c0.56,0.22,0.75-0.37,1.19-0.56C229.9,98.51,229.48,114.05,226.74,116.68z"/>
		<path class="st6" d="M264.38,166.83c2.07-4.57-4.81-1.85-2.97-12.26c2.26,0.68,3.95-0.05,4.16,0c3.52,0.8,0.69,3.06,2.18,3.34
			c0.52,0.1,2.22-2.89,2.97-3.34c0.58-0.35,1.9-1.16,2.38-0.28C273.47,154.99,265.12,166.01,264.38,166.83z"/>
		<path class="st6" d="M273.49,186.9c0.18,0.58-0.03,2.1,1.58,2.79c-3.41,6.22-1.87,4.74-1.98,5.02c-0.48,1.16-0.06,2.88-3.37,6.69
			c-0.35-12.03-1.64-14.99,2.58-17.83C273.31,184.05,273,185.33,273.49,186.9z"/>
		<path class="st16" d="M265.96,208.63c-1.94-4.91-3.19-11.17-5.55-15.05c-0.79-1.3,0.06-1.09-1.98-2.23
			c0.32-3.08,2.86-3.65,2.38-6.13c1.49,1.08,6.24,19.87,5.94,22.57C266.71,208.23,265.99,208.57,265.96,208.63z"/>
		<path class="st37" d="M261.21,168.5c-0.61,0.58-0.79,1.41-2.38,2.79c-3.2,0.79-5.15-3.44-6.74-6.69
			C254.72,163.88,260.42,159.64,261.21,168.5z"/>
		<path class="st6" d="M273.49,159.03c-0.57,2.37-1.08,4.22-1.58,6.69c-0.02,0.09-1.12-0.24-1.19,0.28c0.2,4.18,0.2,4.18,0.4,8.36
			c-0.99-0.42-0.99-0.42-1.98-0.84c-0.39-1.6-0.48-2.43-1.19-3.9c-1.99-5.56,3.07-8.46,6.14-15.05
			C274.56,154.88,273.65,158.4,273.49,159.03z"/>
		<path class="st6" d="M261.61,168.5c0.72,3.9-5.41,13.81-8.12,10.03c-0.34,0.09-0.16,1.09-0.2,1.11c-0.12,0.07-0.31-0.08-0.4,0
			c-4.13-3.85,2.07-4.17,3.76-5.57c0.8-0.66,0.54-1.62,0.59-1.67c0.09-0.08,0.36-0.05,1.58-1.11c1.58-1.38,1.76-2.2,2.38-2.79
			C261.3,168.42,261.52,168.59,261.61,168.5z"/>
		<path class="st1" d="M265.96,208.63c-0.2,0.46,0.46,1.61-0.59,1.67c-2.42,0.13-5.94-12.67-6.14-16.16
			c0.59-0.28,0.59-0.28,1.19-0.56C262.78,197.46,264.03,203.72,265.96,208.63z"/>
		<path class="st13" d="M252.1,164.6c1.59,3.25,3.53,7.48,6.74,6.69c-1.22,1.07-1.49,1.03-1.58,1.11
			c-5.74-2.65-5.74-2.65-11.49-5.29C245.76,165.89,251.26,164.84,252.1,164.6z"/>
		<path class="st6" d="M183.55,35.31c-0.09,2.13,0.36,8.78-0.79,10.03c-1.18-1.09-2.64-1.57-2.77-1.67c-0.02-0.02,0.1-0.12-0.4-0.56
			c0.2-3.07,0.2-3.07,0.4-6.13C180.2,36.96,178.96,35.94,183.55,35.31z"/>
		<path class="st9" d="M253.68,184.67c-0.92,7.14-9.03,18.22-4.75,2.23C249.1,188.6,251.23,186.68,253.68,184.67z"/>
		<path class="st29" d="M267.95,169.62c0.71,1.47,0.8,2.3,1.19,3.9c-3.87,3.19-3.78,2.08-3.96,2.23c-0.59-2.23-0.59-2.23-1.19-4.46
			C266,167.49,265.86,165.26,267.95,169.62z"/>
		<path class="st38" d="M263.98,152.34c-1.43-1.31-1.03-1.82-1.58-2.79c1.31-0.57,9.87-4.68,9.11-0.28
			C270.95,152.52,263.96,147.84,263.98,152.34z"/>
		<path class="st6" d="M251.7,181.32c-0.07,0.1,0.07,0.46,0,0.56c-0.33,0.5-1.91,2.61-1.98,2.79
			C241.51,179.25,247.12,177.24,251.7,181.32z"/>
		<path class="st39" d="M265.17,175.75c-1.28,1.04-6.1,10.59-2.77-1.11c0.84-2.95,1.5-3.18,1.58-3.34
			C264.58,173.52,264.58,173.52,265.17,175.75z"/>
		<path class="st40" d="M217.23,88.25c1.98,2.93,1.98,2.93,3.96,5.85c-0.94,1.77-1.54,1.28-1.58,1.39
			c-1.98-3.07-1.98-3.07-3.96-6.13C216.92,88.22,217.16,88.32,217.23,88.25z"/>
		<path class="st41" d="M254.08,184.11c-0.02,0.02,0.12,0.13-0.4,0.56c-2.45,2.02-4.58,3.93-4.75,2.23
			c0.12-0.44,0.59-1.71,0.79-2.23c0.07-0.17,1.65-2.29,1.98-2.79C252.89,182.99,252.89,182.99,254.08,184.11z"/>
		<path class="st42" d="M260.81,185.22c0.49,2.48-2.06,3.05-2.38,6.13c-0.43-0.24-0.65-0.74-1.19-0.56
			C256.86,188.6,258.93,183.86,260.81,185.22z"/>
		<path class="st29" d="M274.29,164.6c0.03,0.17-0.04,0.39,0,0.56c-0.94,0.91-2.26,3.13-2.38,0.56c0.51-2.47,1.01-4.31,1.58-6.69
			C274.13,160.33,273.79,162.1,274.29,164.6z"/>
		<path class="st39" d="M277.06,189.68c-1.2,1.36-2.15,4.32-3.96,5.02c0.11-0.27-1.43,1.2,1.98-5.02c0.03-0.06,0.52-0.7,0.79-1.11
			C276.46,189.12,276.46,189.12,277.06,189.68z"/>
		<path class="st29" d="M270.72,154.57c-0.75,0.45-2.45,3.45-2.97,3.34c-1.48-0.29,1.34-2.54-2.18-3.34c0-0.28,0-0.28,0-0.56
			c2.15,0.69,3.02-1.04,3.17-1.11C269.73,153.74,269.73,153.74,270.72,154.57z"/>
		<path class="st43" d="M255.27,182.44c-0.85,0.86-0.74,1.29-1.19,1.67c-1.19-1.11-1.19-1.11-2.38-2.23c0.07-0.1-0.07-0.46,0-0.56
			c0.36-0.51,0.85-1.38,1.19-1.67c0.09-0.08,0.27,0.07,0.4,0C254.28,181.04,254.28,181.04,255.27,182.44z"/>
		<path class="st44" d="M258.44,191.35c2.04,1.14,1.19,0.93,1.98,2.23c-0.59,0.28-0.59,0.28-1.19,0.56
			c-0.18-0.62-1.57-1.06-1.98-3.34C257.79,190.61,258.01,191.12,258.44,191.35z"/>
		<path class="st45" d="M182.76,45.34c-0.99,1.07-2.09,0.38-3.17,0.56c0.03-0.95-0.04-1.38,0.4-2.23
			C180.12,43.78,181.58,44.25,182.76,45.34z"/>
		<path class="st46" d="M259.43,151.79c1,0.19,0.68,3.04,0.4,3.34C259.14,155.87,257.99,151.51,259.43,151.79z"/>
		<path class="st47" d="M269.13,138.97c-0.05-0.12,0.03-0.67,0-1.11C272.71,139.22,270.57,142.43,269.13,138.97z"/>
		<path class="st2" d="M8.83,344.05c0.66,0.91,1.33,1.86,1.98,2.79c4.32,6.1,13.73,18.9,16.84,24.52c0.27,0.49,0.75-0.92,0.99-0.28
			c0.2,6.22,5.6,13.71,7.92,18.95c0.81,1.84-0.09,2.86,0.2,3.07c0.65,0.46,0.83-2.58,3.17,1.11c1.55-7.77,1.32,1.27,2.77,3.9
			c1.06,1.91,19.39,16.1,20.4,19.51c1.77,5.96-1.91,4.33-2.38,7.52c-0.14,0.95,3.3,17.99,3.17,18.95c-0.24,1.68-2-0.36-2.38,0.56
			c-0.8,1.97,4.43,11.79,1.19,12.54c-0.89-3.17-7.69-19.06-9.71-19.51c-2.53-0.56,3.37,7.31,0,5.57c-0.52-0.27-3.39-8.3-8.72-8.92
			c-3.76-0.44,1,4.16-1.19,3.34c-0.19-0.07-2.17-3.54-2.77-3.9c-1.67,2.41-3.12-2.51-9.51-2.23c0.92,6.45-1.38,2.71-1.78-3.34
			c0.1,0.12-0.46-1.76,1.98,1.11c0.1,0.12-0.2,1.48,0.2,1.67c0.39,0.19,7.13-0.52,8.32-0.56c0.13,0,2.07,1.23,2.38,1.11
			c4.77-1.79-8.8-6.57-9.71-7.8c2.47-16.11,4.6-17.68,4.75-18.67c1.7-11.07-6.41,0.02-8.32,16.44c-2.86-5.03-7.3-8.98-8.72-15.33
			c-4.55-3.89,7.82,17.87,8.32,18.95c0.26,0.55-0.54,1.04-0.4,1.39c-2.42-2.02-0.11,2.73-0.99,3.34c-0.18,0.12-2.47-3.95-2.58-4.18
			c-0.12-0.27,2.04-3.13-1.98-2.51c-1.67-3.45,0.35-2.36-0.2-3.9c-9.17-3.12-2.07-6.7-4.36-7.24c-0.32-0.08-2.44,4.48-3.76,6.13
			c-1.28-4.14,2.36-10.5,2.38-11.42c-6.71-18.07-5.32-35.78-11.69-15.88c-7.69-0.26-15.63-21.06-17.63-29.82
			c-3.36-14.68,5.15,12.24,9.11,18.95c7.89,13.37,6.28,5.03,11.49-1.11c-10.3-13.93-10.3-13.93-20.6-27.87
			c0-11.64,0.17-23.19-0.4-34.83c-0.27-1.36,0.99-1.38,1.39-1.11C-10.65,315.95,6.11,340.27,8.83,344.05z"/>
		<path class="st2" d="M12,503.44c9.76,6.95,43.17,5.24,53.88-0.56c2.23-1.21,5.5-3.87,7.33-6.13c4.84,6.91,7.67,11.36-0.59,15.05
			c-9.73,4.34-38.49,2.82-49.72,1.67c-0.11-0.01-0.69-3.65-0.79-0.56c-7.07-0.44-17.5-1.7-24.17-4.46
			c-2.19-0.91-3.46-4.72-3.76-0.56c-3.26-2.86-5.74-7.12-6.93-12.26c6.67,2.38,16.67,8.67,23.38,8.92
			C10.93,504.57,11.92,504.01,12,503.44z"/>
		<path class="st15" d="M23.88,485.61c0.55,2.87,2.68,9.24,2.38,11.7c-0.47,3.81-7.84,7.09-9.51,3.07c-0.69-1.66,0.05-3.34,0-4.74
			c0.15-0.4,3.16-3.4-0.79-7.8C16.57,483.48,21.6,483.68,23.88,485.61z"/>
		<path class="st11" d="M64.3,501.21c0.79,0.84,0.79,0.84,1.58,1.67c-10.72,5.8-44.13,7.5-53.88,0.56c-2.14-1.52-4.79-5-5.55-8.36
			c0.81,1.72,4.06,6.33,5.35,7.24C19.22,507.63,55.61,505.49,64.3,501.21z"/>
		<path class="st4" d="M22.3,423.19c-0.17,0.03-2.29,1.61-2.58,1.67c-0.71,0.16-0.84-1.43-1.98-1.11c-1.3,0.36-4.01,3.36-5.74,2.23
			c-0.06-0.44-0.5-1.51-0.59-2.79c-2.79,1.94-2.32-0.15-3.17,0c-0.33,0.06-0.16,1.11-0.2,1.11c-0.46,0.04-0.7,1.36-1.58-0.28
			c-0.07-2.02,6.01-6.02,6.93-4.18c0.22-0.14,0.35-1.37,0.59-1.67c1.33-1.65,3.44-6.21,3.76-6.13c2.29,0.54-4.81,4.13,4.36,7.24
			C22.64,420.84,20.63,419.75,22.3,423.19z"/>
		<path class="st48" d="M32.2,423.75c-0.28,1.8-1.09,3.66-1.19,5.57c-2.44-2.87-1.88-1-1.98-1.11c-0.34-0.39-0.37-0.54-0.4-0.56
			c0.55-5.05-0.04-5.83,0-6.13c1.91-16.42,10.02-27.51,8.32-16.44C36.81,406.07,34.68,407.64,32.2,423.75z"/>
		<path class="st49" d="M13.78,468.33c5.65-1.32,3.46,1.96,3.76,2.51c0.56,1.02,1.88-0.41,2.18-0.28c4.31,1.84-4.58,0.59-8.32,3.9
			c-1.22,1.08-4.96,7.86-5.55,10.59c-0.66-3.85,3.82-9.19,3.76-9.75c-0.03-0.27-1.27-0.3-1.19-1.67
			C8.51,472.25,12.69,468.59,13.78,468.33z"/>
		<path class="st5" d="M57.96,471.12c-2.95-0.37-0.69,1.06,0,5.57c-0.05,0.33-0.38,0.37-0.79,3.34c-2.78,5.37-4.22,1.85-4.36-3.34
			c-0.03-1.09-0.61-1.8-0.4-3.07C52.79,471.59,56.65,470.03,57.96,471.12z"/>
		<path class="st49" d="M29.63,438.24c0.61,0.19,6.31,8.83,0,14.49c-1.31-0.01,2.43-8.31-1.19-3.34c-2.21-2.6,1.39-2.61,1.78-4.18
			C30.71,443.24,27.51,437.58,29.63,438.24z"/>
		<path class="st2" d="M28.64,421.52c-0.04,0.3,0.55,1.08,0,6.13c-0.47-0.41-0.51-0.41-0.79-1.11c-0.14-0.35,0.65-0.84,0.4-1.39
			c-0.5-1.08-12.87-22.84-8.32-18.95C21.34,412.54,25.77,416.49,28.64,421.52z"/>
		<path class="st49" d="M12,425.98c1.01,8.06-4.61,1.46-3.96-1.67c0.04,0-0.13-1.06,0.2-1.11c0.85-0.15,0.38,1.94,3.17,0
			C11.5,424.47,11.94,425.54,12,425.98z"/>
		<path class="st39" d="M26.26,497.31c0.2,0,0.2,0,0.4,0c0,0.1,0.59-0.3,0.4,1.95c-1.9,3.7-11.39,5.81-11.89,0
			c-0.19-2.22,1.46-3.3,1.58-3.62c0.05,1.4-0.69,3.07,0,4.74C18.42,504.4,25.79,501.12,26.26,497.31z"/>
		<path class="st49" d="M32.01,461.09c3.63-1.41-5.77,9.73-6.93,9.2C24.09,468.71,31.52,461.28,32.01,461.09z"/>
		<path class="st39" d="M57.16,480.04c-0.12,0.88,0.32,3.81,0.2,3.9c-2.44,1.9-7.3-2.8-4.56-7.24
			C52.94,481.88,54.38,485.4,57.16,480.04z"/>
		<path class="st49" d="M42.7,463.32c1.61-0.94,4.44,1.7-3.57,6.69C41.76,466.64,42.43,463.48,42.7,463.32z"/>
		<path class="st49" d="M42.31,492.85c2.12-0.27,1.37,6.4-0.79,5.02C39.99,496.89,41.54,492.95,42.31,492.85z"/>
		<path class="st50" d="M26.66,497.31c-0.2,0-0.2,0-0.4,0c0.31-2.47-1.83-8.83-2.38-11.7C26.41,487.74,26.7,493.27,26.66,497.31z"/>
		<path class="st33" d="M57.96,471.12c2.4,2,0.22,4.2,0,5.57C57.26,472.18,55.01,470.75,57.96,471.12z"/>
		<path class="st39" d="M16.75,495.64c-0.03-0.77,0.64-1.91,0.4-4.18c-0.12-1.09-1.51-1.33-1.19-3.62
			C19.92,492.24,16.91,495.24,16.75,495.64z"/>
		<path class="st51" d="M5.46,486.17c0.19,0,0.36,4.76,0.2,5.29C5.21,492.89,5.05,486.17,5.46,486.17z"/>
		<path class="st52" d="M6.45,495.08c-0.3-1.39-0.3-1.39-0.59-2.79C6.41,492.93,6.39,494.96,6.45,495.08z"/>
		<path class="st6" d="M10.81,0.2C9.32,2.95,2.62,17.24,5.06,19.7c0.89-1.01,2.42-1.23,3.37-1.67c0.05,2.72,5.26,9.52,3.37,10.59
			c-4.46-0.19-8.82,0.01-13.27,0.56c-4.21-5.8-12.28-13.03-11.09-21.73c0.62-0.18,2.23-2.72,2.38-2.79c0.62-0.26,1.94-1,2.38-1.11
			C-7.69,3.51-7.1,4.42-5.44,4.1C0.07,3.03,5.45,2.6,10.81,0.2z"/>
		<path class="st6" d="M15.56,43.67c0.4,0.14,0.4,0.14,0.79,0.28c0.05,0.82-0.07,1.69,0,2.51c0.13,1.5,0.29,8.74-0.59,9.47
			C11,56.24,4.49,59.27-0.09,58.16c-5.89-1.43-11.75-15.43-4.36-19.51C2.63,34.76,8.71,42.69,15.56,43.67z"/>
		<path class="st37" d="M35.37,32.52c0.04,0.18,0.46,0.57,1.19,3.34c0.25,2.99-1.14,5.82-1.19,6.13c-4.86,3.04-1.48,4.62-3.57,9.2
			c-0.31,0.68-7.76,8.44-9.11,9.75c0.51-9.58,1.39-27.5,10.3-29.54c0.13-0.03,0.27,0.01,0.4,0C33.55,31.4,34.82,32.24,35.37,32.52z"
			/>
		<path class="st13" d="M21.11-7.6c0.15,0.02,0.31-0.05,0.4,0c0.04,0.02,0.31,0.88,0.4,1.11c-6.44,8.35-3.16,8.05-3.17,8.64
			C18.71,3.1,6.07,13.84,15.17,11.9c0,0.28,0,0.28,0,0.56c-0.39,0.07-2.11,3.4-6.74,5.57c-0.95,0.45-2.47,0.66-3.37,1.67
			C2.62,17.24,9.32,2.95,10.81,0.2c1.32-2.43,2.52-4.92,4.36-6.69C11.45,6.14,17.06-8.24,21.11-7.6z"/>
		<path class="st28" d="M37.35,19.7c2.41,5.83,4.79,11.67,7.13,17.56c-0.01,0.85-7.02,10.44-2.38,5.85
			c-0.49,8.5-5.34,14.18-9.11,20.06c-0.17-0.79-0.98-2.66-1.19-3.9c2.53-4.88,7.47-14.24,6.74-20.06c6.75,4.93-1.05-8.27-3.96-20.06
			c-0.2-2.21-0.61-4.46-0.79-6.69C33.35,7.05,33.87,11.28,37.35,19.7z"/>
		<path class="st1" d="M31.02,8.56c-0.05,0.13-0.1,1.33-0.59,2.23c-2.45-0.38-4.4,1.72-6.54,2.79c-1.97,0.98-3.99,1.74-5.94,2.79
			c0.67-1.76,1.33-0.27,0.79-3.34c3.14-2.34,10.14-12.29,8.72-18.95C28.5-2.99,32.11,5.48,31.02,8.56z"/>
		<path class="st9" d="M49.64,69.86c0.19,3.67,1.33,6.33,0.79,9.47c-0.2,0-0.2,0-0.4,0c-0.46-0.1-5.85-8.41-6.34-9.47
			c-1.12-2.45-1.94-4.19-1.58-7.24c1.37-1.42,1.66-4.34,3.17-5.57c0.07,0.44,3.43,6.92,3.57,7.52
			C49.24,66.37,48.08,70.26,49.64,69.86z"/>
		<path class="st28" d="M27.45-5.93c1.42,6.65-5.57,16.6-8.72,18.95c-3.18,2.37-2.59-0.51-2.77-0.56c4.05-6.85,6.36-8.56,7.92-17.28
			c0.18-1.02-0.18-2.85,0-3.9c0.23-1.39,1.49-3.6,1.78-3.34C26.09-10,26.77-7.85,27.45-5.93z"/>
		<path class="st6" d="M33.39,26.95c0.09,1.47-0.06,2.99,0,4.46c-0.13,0.01-0.27-0.03-0.4,0c-2.28,0.4-1-7.63-3.76-6.69
			c-0.66,0.23-8.16,14.23-8.52,15.05c-0.79-0.56-0.79-0.56-1.58-1.11c-0.03-0.75-0.76-0.51,0-2.79c1.18-3.55,10.39-12.13,10.7-13.65
			c0.05-0.24-0.4-0.96-0.4-3.07c1.05,0.07,1.77-3.91,1.58-6.13C32.92,15.24,33.17,23.43,33.39,26.95z"/>
		<path class="st6" d="M19.92,26.39c-0.48,1.34-0.86,6.02-1.98,8.36c-0.12-0.07-0.32,0.08-0.4,0c-0.05-0.06-0.95,0.11-1.19-0.84
			c-0.19-0.74,0.27-14.84,0.4-15.6c0.08-0.47,0.59,0.08,0.79-0.84c0.27-0.04,0.63,0.08,0.79,0c0.59,0,0.59,0,1.19,0
			c0.76-0.34,0.72-1.4,4.75-2.79C30.24,12.64,22.84,18.27,19.92,26.39z"/>
		<path class="st1" d="M43.3,42c0.14,0.95,0.76,0.93,1.19,1.67c-1.81-0.71-1.19,1.75-1.58,6.69c-3.17,4.88-3.17,4.88-6.34,9.75
			c1.72,1.61,1.53,3.06,2.38,3.62c0.12,0.08,0.8,0.03,1.19,0c-2.97,2.23-2.97,2.23-5.94,4.46c-1.01-2.53-0.72-2.78-1.19-5.02
			c3.78-5.88,8.62-11.57,9.11-20.06C42.55,42.68,42.86,42.4,43.3,42z"/>
		<path class="st36" d="M31.81,54.82c-2.85,3.23-6,8.67-9.51,10.03c-0.06-0.18,0.32-2.41,0.4-3.9c1.35-1.31,8.8-9.07,9.11-9.75
			c2.09-4.58-1.29-6.16,3.57-9.2c-0.04,0.26,0.64,1.36-0.4,5.29C34.29,49.91,32.76,52.36,31.81,54.82z"/>
		<path class="st17" d="M38.54,39.21c0.74,5.83-4.21,15.19-6.74,20.06c-0.33,0.64-2.11,3.5-2.77,3.34c1.14-2.07,1.89-5.51,2.77-7.8
			c0.95-2.46,2.48-4.9,3.17-7.52c1.04-3.93,0.35-5.03,0.4-5.29c0.05-0.31,1.44-3.14,1.19-6.13C36.62,36.07,38.23,36.72,38.54,39.21z
			"/>
		<path class="st1" d="M42.11,62.62c-0.35,3.05,0.47,4.8,1.58,7.24c-1.58,1.02-5.9,7.03-7.33,6.13c0.28-3.26,3.6-1.61-0.2-5.57
			c2.11-1.79,5.32-4.93,4.36-6.69C40.61,63.71,42.04,62.69,42.11,62.62z"/>
		<path class="st1" d="M19.13,35.87c-0.76,2.28-0.03,2.03,0,2.79c0.03,0.66-1.55,3.86,1.58,1.67c-0.16,0.37-1.86,7.86-2.58,7.8
			c-0.38-0.03-0.1-2.88-1.78-1.67c-0.07-0.82,0.05-1.68,0-2.51c-0.4-0.14-0.4-0.14-0.79-0.28c0.99-4.46,0.99-4.46,1.98-8.92
			c0.07,0.08,0.27-0.07,0.4,0C18.44,35.03,18.63,35.67,19.13,35.87z"/>
		<path class="st9" d="M29.03,62.62c-1.62,2.96-6.09,3.99-6.74,2.23c3.51-1.36,6.66-6.8,9.51-10.03
			C30.92,57.11,30.17,60.55,29.03,62.62z"/>
		<path class="st53" d="M23.88-4.82c-1.57,8.72-3.87,10.43-7.92,17.28c-0.23-0.06-0.55-0.04-0.79,0c0-0.28,0-0.28,0-0.56
			c2.31-5.17,7.14-9.93,7.13-16.16C23.09-4.54,23.09-4.54,23.88-4.82z"/>
		<path class="st28" d="M36.17,70.42c-0.5-0.52-0.11,2.49-1.98-2.23c2.97-2.23,2.97-2.23,5.94-4.46c0.13-0.01,0.27,0.03,0.4,0
			C41.49,65.49,38.28,68.63,36.17,70.42z"/>
		<path class="st54" d="M23.88,13.57c0.2,0.56,0.2,0.56,0.4,1.11c-4.04,1.39-3.99,2.44-4.75,2.79c-0.06,0.03,0.34-0.78-1.19,0
			c-0.16,0.08-0.53-0.04-0.79,0c0.09-0.41,0.25-0.74,0.4-1.11C19.9,15.31,21.92,14.56,23.88,13.57z"/>
		<path class="st24" d="M51.22,80.45c-0.81,0.83-1.12,0.5-1.19,0.56c0-0.84,0-0.84,0-1.67c0.2,0,0.2,0,0.4,0
			c0.54-0.21,2.52-4.71,2.77-5.57C53.76,74.42,51.79,79.88,51.22,80.45z"/>
		<path class="st55" d="M20.71,39.77c-0.06,0.14,0.06,0.42,0,0.56c-3.13,2.19-1.56-1.01-1.58-1.67
			C19.92,39.21,19.92,39.21,20.71,39.77z"/>
		<path class="st2" d="M-6.43,247.08c10.25,20.27,21.96,38.83,33.68,57.4c-10.12-11.36-24.79-30.89-31.1-46.53
			C-5.27,254.44-8.13,247-6.43,247.08z"/>
		<path class="st4" d="M64.3,415.39c-4.04,2.5-1.86-19.07-2.38-27.59c-0.24-3.89-2.11-20.24-2.77-23.96
			c-0.43-2.4-2.36-6.94-1.58-8.64c3.69,6.92,6.01,19.55,6.74,28.14C65.19,393.87,64.06,404.83,64.3,415.39z"/>
		<path class="st2" d="M24.28,308.39c-0.15,0.19-2.12,3.91-2.38,4.46c-1.29-1.39-1.29-1.39-2.58-2.79c-5.1,5.76-4.51,1.25-5.15,1.11
			c-0.32-0.07-6.79,3.75-2.18-1.39c-5.56-5.1,3.68-6.82,6.54-6.97C21.41,305.6,21.41,305.6,24.28,308.39z"/>
		<path class="st48" d="M10.81,346.84c-0.65-0.92-1.32-1.87-1.98-2.79c3.3-3.65,19.16-2.87,12.88,0
			C19.93,344.87,11.7,344.67,10.81,346.84z"/>
		<path class="st48" d="M21.9,312.85c0.26-0.54,2.23-4.27,2.38-4.46c3.1-4.03,4.78-0.68,4.75-0.28
			C28.96,309.23,15.87,325.7,21.9,312.85z"/>
		<path class="st48" d="M20.52,325.66c0.24-0.16,1.04,1.24,4.56,1.39c-0.1,1.49-3.24,14.68-4.75,6.69
			c-0.75-3.97,0.74-5.81,0.79-6.13C21.13,327.51,20.11,325.94,20.52,325.66z"/>
		<path class="st2" d="M9.42,312.29c6.93,4.86-1.67,4.65-1.19,7.24c-7.32-0.72-1.03,0.17-1.58-6.69
			C8.55,315.85,9.1,312.3,9.42,312.29z"/>
		<path class="st2" d="M26.46,292.78c0.33-0.05,4.07,6.1,4.56,6.97c0.64,1.15,11.42,23.54,10.9,24.8
			c-1.07,2.55-5.6-11.46-6.14-12.54c-3-6.04-10.21-15.62-10.3-16.72C25.44,295.01,26.36,292.8,26.46,292.78z"/>
		<path class="st2" d="M93.22,524.06c-4.39-0.07-31.52-0.35-33.08-1.11c-0.3-0.15-0.2-0.73-0.2-1.11c7.84-0.41,23.61-3.89,31.1-0.56
			C92.18,521.78,92.62,523.44,93.22,524.06z"/>
		<path class="st1" d="M250.91-23.76c0.24,5.96,1.98,15.91,5.94,18.39c-0.53,5.37,1.13,10.33,1.58,15.6
			c-10.01-8.02-16.6-13.12-19.02-30.09c2.53,0.11,2.51-2.63,2.38-5.57C242.26-25.36,244.68-23.13,250.91-23.76z"/>
		<path class="st56" d="M267.55,47.01c-0.06,0.11-1.21,1.33-1.58,1.67c-0.66-3.11-1.12-4.03-0.59-8.36
			c-3.83,4.34-5.55-2.38-10.7,1.67c-0.41-0.3,0.8-4.37,0.99-5.02c0.47-1.57,1.39-3.42,1.98-5.02c0.47-1.27,3.48-6.03,3.57-7.24
			c-0.28,2.32,1.83-0.53,1.98-0.56c2.42-0.46,9.44,1.6,9.91,5.85C273.23,31.27,268.34,45.5,267.55,47.01z"/>
		<path class="st15" d="M265.17-19.31c1.55,1.98,3.52,5.1,3.96,5.57c-2.97,13.93-2.97,13.93-5.94,27.87
			c-1.72-1.12-3.13-2.6-4.75-3.9c-0.45-5.27-2.12-10.24-1.58-15.6c1.33,0.83,7.25,2.91,7.53,0.84c0.1-0.72-1.41-4.53-1.19-5.57
			c0.8-3.77,5.15,1.65-0.4-9.2C263.98-19.31,263.98-19.31,265.17-19.31z"/>
		<path class="st15" d="M254.87,13.02c0.24,6.04,1.13,4.69,4.36,6.13c0.44,1.2,1.73,2.39,1.98,5.57c-0.08,1.21-3.09,5.98-3.57,7.24
			c-4.75-8.41-3.54-12.12-7.53-6.13C248.21,18.96,247.94,9.57,254.87,13.02z"/>
		<path class="st15" d="M241.8-25.44c0.13,2.94,0.16,5.68-2.38,5.57c-0.29-2.01-0.72-4.71-0.4-6.69c1.09,0,1.09,0,2.18,0
			C241.82-25.91,241.75-25.44,241.8-25.44z"/>
		<path class="st30" d="M259.23,19.15c-3.23-1.44-4.12-0.09-4.36-6.13c-0.01-0.37,0.01-0.74,0-1.11
			C258.33,14.93,257.39,14.15,259.23,19.15z"/>
		<path class="st54" d="M273.49,20.82c-0.2,0.56-0.2,0.56-0.4,1.11C271.61,20.63,271.34,21.28,273.49,20.82z"/>
		<path class="st6" d="M227.14-27.11c3.92,8.73,6.44,18.04,7.92,28.14c-0.47,1.38-7.61-4.72-8.72-5.85
			c-1.68-8.83-5.17-11.87-9.51-17.83c-0.08-0.43-0.17-0.47-0.4-1.67c3.25,1.32,0.97-3.31,0-5.57
			C220-29.04,223.54-27.76,227.14-27.11z"/>
		<path class="st16" d="M216.04-29.89c-2.68,1.13,0.23,4.7,0.4,5.57c0.22,1.2,0.31,1.24,0.4,1.67c0.01,0.07-0.69-0.06-0.4,1.39
			c0.34,1.73,1.23,3.6,1.58,5.29c1.79,8.66,3.72,17.7,5.15,26.47c0.2,1.23-0.5,9.26,1.98-0.28c0.11,0.04,0.28,0,0.4,0
			c0.39,2.35,1.82,3.76,2.77,5.57c-2.96,4.19-0.45,7.62,1.58,11.15c-0.59-0.42-0.59-0.42-1.19-0.84c0.4,4.46,0.4,4.46,0.79,8.92
			c-0.81,1.25-1.05,0.3-2.77,1.39c-0.11,0.07-0.29-0.07-0.4,0c-0.25-3.39-1.66-6.32-2.38-9.47c-0.56-2.48-0.98-6.16-1.58-8.92
			c-0.9-4.09-1.89-8.16-2.77-12.26c-1.68-7.79-3.64-15.55-5.15-23.41c-0.56-2.9-1.1-5.99-1.58-8.92c-0.17-0.99-0.04-2.3-0.4-3.34
			C212.65-29.85,212.99-30.66,216.04-29.89z"/>
		<path class="st6" d="M251.7-23.76c2.25,1.83,6,1.2,8.72,1.11c0.1,0.19,1.36,1.36,2.38,3.34c5.55,10.85,1.2,5.43,0.4,9.2
			c-0.22,1.05,1.29,4.85,1.19,5.57c-0.28,2.08-6.2,0-7.53-0.84c-3.96-2.48-5.7-12.43-5.94-18.39
			C251.17-23.79,251.44-23.72,251.7-23.76z"/>
		<path class="st15" d="M260.42-22.65c-2.71,0.09-6.47,0.72-8.72-1.11c1.96-0.3,4.74-1.61,6.34-3.34
			C258.14-26.87,260-23.43,260.42-22.65z"/>
		<path class="st12" d="M258.44-29.34c0.4,0.62,0.81,1.1,1.19,1.67c1.31,1.97,2.58,3.7,3.96,5.57c0.54,0.74,1.03,2.08,1.58,2.79
			c-1.19,0-1.19,0-2.38,0c-1.01-1.98-2.28-3.16-2.38-3.34c-0.42-0.78-2.28-4.22-2.38-4.46c-0.05-0.12,0.56-0.29-0.4-2.79
			C257.67-29.85,258.4-29.39,258.44-29.34z"/>
		<path class="st21" d="M216.44-24.32c-0.16-0.87-3.08-4.44-0.4-5.57c0.13,0.03,0.27-0.03,0.4,0
			C217.41-27.63,219.69-23.01,216.44-24.32z"/>
		<path class="st57" d="M270.72-12.62c-0.08-0.06-0.34,0.2-1.58-1.11c-0.44-0.47-2.41-3.6-3.96-5.57c-0.56-0.71-1.04-2.05-1.58-2.79
			C266.24-22.4,269.75-16.01,270.72-12.62z"/>
		<path class="st20" d="M40.13-33.24c4.73,5.07,4.05,9.39,11.49,11.7c-0.43,2.75-2.61-1.92-5.55,2.23
			c-1.09-1.11-1.09-1.11-2.18-2.23c-2.19-0.52-4.14-1.38-6.14-2.79c-1.39-3.9-1.39-3.9-2.77-7.8
			C34.75-34.87,38.99-27.23,40.13-33.24z"/>
		<path class="st8" d="M34.98-32.12c1.39,3.9,1.39,3.9,2.77,7.8c-1.68-1.18-3.25-2.33-4.75-3.9c-1.19-1.24-2.6-2.28-2.77-3.07
			C32.82-29.84,32.73-31.25,34.98-32.12z"/>
		<path class="st7" d="M167.31-22.65c1.32,0.79,2.99,1.77,3.96,3.34c0,0.28,0,0.28,0,0.56c-1.55-1.55-3.39-2.43-5.15-3.34
			c-2.23-1.15-4.56-1.89-6.74-3.34c-1.77-1.19-7.9-7.52-9.11-7.8c0.59-1.11,0.59-1.11,1.19-2.23
			C152.37-33.45,164.79-24.16,167.31-22.65z"/>
		<path class="st30" d="M165.33-20.98c2.94,0.19,5.63,3.71,5.94,2.23c0-0.28,0-0.28,0-0.56c0.2,0,0.2,0,0.4,0
			c0.44,1.25,1.9,3.16,1.98,3.34c0.08,0.18,0.41,2.33,1.19,3.9c-5.55-3.07-5.55-3.07-11.09-6.13
			C162.94-21.37,163.22-21.12,165.33-20.98z"/>
		<path class="st3" d="M19.92-9.27c-1.3,0.95-2.25,0.38-4.75,2.79c-1.84,1.77-3.04,4.25-4.36,6.69C5.45,2.6,0.07,3.03-5.44,4.1
			c0.06-7.19-2.59-14.07-2.77-21.18c4.06,3.21,1.04,0.2,3.17-1.67C-5.38-7.67-3.02-3.65-1.08-8.44c0.13-0.33-0.31-1.73,0.4-3.62
			c1.34-0.71,6.24-3.75,6.74-4.46c4.41,6.73,3.22,0.25,3.17-3.9c1.91,0.27,11.41-3.56,11.89-5.85c0.35-1.67-0.21-5.54-0.4-7.52
			c-0.05-0.48-0.75-0.95,0.4-2.23c1.22,9.51,2.19,14.09,1.19,24.24C22.12-11.03,20.48-9.69,19.92-9.27z"/>
		<path class="st10" d="M48.45-39.93c4.16-0.73,17.94-0.57,12.08,8.92c3.27,0.14,3.27,0.14,6.54,0.28
			c-0.91,1.49-1.14,4.18-2.38,5.29c-4.55,4.09-18.75,1.39-22.58-9.47C44.11-38.29,45.35-39.38,48.45-39.93z"/>
		<path class="st58" d="M33.79,12.46c0.18,2.22,0.6,4.48,0.79,6.69c0.19,2.18,0.12,5.08,0.4,7.24c-0.79,0.28-0.79,0.28-1.58,0.56
			c-0.22-3.52-0.48-11.71-2.38-13.93c-0.13-0.15-0.75-3.27-2.38,1.11c-1.14,3.07,2.54,5.01-8.72,12.26
			c2.92-8.12,10.32-13.75,4.36-11.7c-0.2-0.56-0.2-0.56-0.4-1.11c2.14-1.07,4.09-3.16,6.54-2.79c0.5-0.9,0.55-2.1,0.59-2.23
			C31.61,8,31.61,8,32.2,7.44C32.71,9.96,31.94,13.06,33.79,12.46z"/>
		<path class="st59" d="M32.2,7.44C31.61,8,31.61,8,31.02,8.56c1.1-3.07-2.52-11.55-3.57-14.49c-0.68-1.92-1.36-4.07-1.78-6.13
			c-0.29-0.25-1.55,1.95-1.78,3.34c-0.59-0.84-0.59-0.84-1.19-1.67c0.31-2.07,0.26-7.2,0.4-9.75c0.4,0,0.4,0,0.79,0
			C26.28-10.74,30.26-2.22,32.2,7.44z"/>
		<path class="st1" d="M42.11,15.8c0.33,0.39,1.39,2.61,1.58,2.79c-1.39,0.84-1.39,0.84-2.77,1.67c-0.2,0-0.2,0-0.4,0
			c-0.26-0.61-1.01-0.86-1.58-2.23c-3.01-7.17-0.86-3.49,0-5.57C41.17,16.76,41.95,15.61,42.11,15.8z"/>
		<path class="st36" d="M21.11-7.6c-4.05-0.64-9.66,13.74-5.94,1.11c2.5-2.41,3.46-1.83,4.75-2.79C20.52-8.44,20.52-8.44,21.11-7.6z
			"/>
		<path class="st60" d="M23.88-8.72c-0.18,1.05,0.18,2.88,0,3.9c-0.79,0.28-0.79,0.28-1.58,0.56c0-1.23,0-1.18-0.4-2.23
			c-0.09-0.23-0.36-1.09-0.4-1.11c0.33-0.73,1.16-2.63,1.19-2.79C23.29-9.55,23.29-9.55,23.88-8.72z"/>
		<path class="st6" d="M136.41-36.03c5.25-0.92,7.94,5.39,13.07,2.79c0.03,3.09,4.16,16.62,3.57,18.11
			c-0.18,0.44-4.22,1.95-6.34,0.84c-0.96-3.44-7.28-14.91-8.91-16.16c-3.92-3.01-0.28,2.66,0.2,5.02
			c0.43,2.11,1.27,14.79,1.78,15.05c7.43-1.25,7.43-1.25,14.86-2.51c0.34,2.51,7.35,15.8,7.13,16.72c-0.43,1.78-4.43,0.01-4.75,1.95
			c-1.43-0.97-2.95-1.84-4.36-2.79c-3.58-2.41-9.32-7.25-12.68-8.92c-4.75-10.87-4.75-10.87-9.51-21.73
			c0.3-3.88,0.37-7.83,0.79-11.7C131.69-35.2,135.9-29,136.41-36.03z"/>
		<path class="st3" d="M139.97-5.93c-3.49-1.74-7.04-2.72-10.7-3.34c-0.14-6.2,0.72-12.27,1.19-18.39
			C135.22-16.8,135.22-16.8,139.97-5.93z"/>
		<path class="st8" d="M277.06,97.17c-0.03,1.17,0.4,3.17,0.4,3.34c-0.04,1.2-0.38,1.25-0.4,1.67c-1.21-1.36-1.29,0.43-1.98,0.56
			c-0.1,0.02,0.31-0.58-1.98,0c-1.76,0.45-3.69,0.45-5.35,1.67c-2.94-0.98,6.81-7.19,8.12-7.24
			C276.24,97.28,276.68,97.1,277.06,97.17z"/>
		<path class="st37" d="M200.99-40.48c0.9,2.01-2.32,6.54,0.4,6.97c-1.29,1.51-1.83,4.55-0.4,6.41c-0.63,0.72-0.76,0.52-0.79,0.56
			c-7-1.06-8.07,8.34-12.68,1.11c-0.1-0.16,0.68-0.37-1.58-2.79c0.05-0.15-0.05-0.4,0-0.56c2.21-5.72,3.88-7.17,7.92-9.47
			c0.38-0.22,1.19-0.35,1.58-0.56c0.39-0.05,0.8,0.08,1.19,0C198.08-39.1,199.5-40.25,200.99-40.48z"/>
		<path class="st9" d="M186.33-15.41c-2.09,4.62,2.29-3.41,4.36-1.11c-0.06,0.13,0.06,0.41,0,0.56c-0.61,1.61-1.94-0.59-0.79,6.13
			c-0.9,1.53-6.91,5.27-7.73,5.57c-2.97,1.11-3.2,0.44-4.56,0.56c0-2.51,0-2.51,0-5.02c0.08-1.07-0.12-2.32,0-3.34
			c0.62-5.42,4-7.43,3.96-3.9c-0.15,0.61-1,4.55-0.2,3.9c0.85-2.28,2.69-5.53,3.37-7.24C185.54-17.36,185.54-17.36,186.33-15.41z"/>
		<path class="st57" d="M187.52-25.44c-1.28-0.82-2.42,5.24-2.77,6.13c-0.68,1.72-2.51,4.96-3.37,7.24c-0.8,0.65,0.05-3.29,0.2-3.9
			c0.53-2.15,3.44-9.41,4.36-12.26C188.19-25.8,187.41-25.6,187.52-25.44z"/>
		<path class="st61" d="M177.61-12.06c-0.12,1.02,0.08,2.27,0,3.34c-0.32-0.04-0.71,0.07-0.79,0c-0.13-0.11-1.71-2.8-1.98-3.34
			c-0.78-1.57-1.11-3.72-1.19-3.9C175.92-16.18,176.66-7.95,177.61-12.06z"/>
		<path class="st62" d="M265.17-29.89c1.89,0.35,3.53,1.49,5.15,2.79c0.69,0.55,1.61,1.94,2.38,2.79c0.03,1.76,1.59,2.21,0,2.23
			c-3.49-2.09-7.62-3.59-11.29-5.02c-0.38-0.15,0.47-1.38-1.78-0.56c-0.38-0.57-0.79-1.05-1.19-1.67c0.17-0.06,0.76-0.51,0.79-0.56
			C260.88-28.91,262.95-30.31,265.17-29.89z"/>
		<path class="st63" d="M276.66-18.75c-1.29-0.93-2.65-2.56-3.96-3.34c1.59-0.02,0.03-0.47,0-2.23
			C274.35-22.5,275.34-21.06,276.66-18.75z"/>
		<path class="st1" d="M150.27-33.24c1.21,0.28,7.34,6.61,9.11,7.8c-0.89-0.26-1.15,0.37-1.58,0.56c-4,1.74,1.39,11.22,4.36,13.38
			c4.18,9.92,5.14,7.9,13.07,7.8c0.79-0.01,1.59,0.07,2.38,0c1.36-0.12,1.59,0.55,4.56-0.56c0.82-0.31,6.83-4.05,7.73-5.57
			c0.01,0.09,1.27-0.27,0.79,1.39c-0.95,3.34-13.88,5.77-5.55,37.06c-0.46,0.58-0.94,0.8-1.19,1.67
			c-14-19.23-13.39-11.18-17.04-11.7c-0.2-1.19,0.98-2.05,1.58-2.23c1.05-0.32,4.98,0.64,5.35,0.56c0.33-0.07,0.16-1.1,0.2-1.11
			c0.16-0.05,0.31,0.88,2.18-0.56c0.41-1.02-9.11-19.54-10.9-15.88c1.9,4.71,7.31,14.63,3.57,14.77c-0.13-0.03-0.27,0.02-0.4,0
			c-3.4-3.91-7.61-5.73-11.49-8.36c0.32-1.94,4.33-0.17,4.75-1.95c0.22-0.92-6.79-14.21-7.13-16.72c-7.43,1.25-7.43,1.25-14.86,2.51
			c-0.51-0.26-1.35-12.93-1.78-15.05c2.15,2.1,6.96,10.22,8.72,11.15c2.12,1.12,6.16-0.39,6.34-0.84
			c0.59-1.49-3.54-15.02-3.57-18.11C149.74-33.21,150.02-33.3,150.27-33.24z"/>
		<path class="st6" d="M9.22-28.78c-0.84,1.39-2.3,2.54-3.17,3.9c-0.94,0.21-0.75-0.55-0.79-0.56c2.03-3.18,0.47-8.18-2.97-6.13
			c-3.1,1.85-4.31,13.5,0.59,8.92c0.2,0.84,0.2,0.84,0.4,1.67c-1.99,3.46-2.57,5.19-3.96,8.92c-0.7,1.89-0.26,3.29-0.4,3.62
			c-1.95,4.79-4.3,0.77-3.96-10.31c0.3-9.87,3.63-20.16,11.49-21.18c3.75-0.48,5.51,2.57,4.75,8.08C10.9-29.64,9.9-29.9,9.22-28.78z
			"/>
		<path class="st30" d="M20.71-33.8c0.19,1.98,0.75,5.85,0.4,7.52c-0.48,2.29-9.97,6.13-11.89,5.85c-0.01-0.84-0.83-0.43-0.79-0.84
			c0.03-0.3,2.43-4.27,2.77-4.74c4.06-5.65,1.84-1.44,3.76-1.67c0.21-0.03,3.54-2.56,3.76-2.79C19.94-31.65,19.43-33.04,20.71-33.8z
			"/>
		<path class="st6" d="M18.34-38.25c0.15,2.6-0.18,5.23,0.4,7.8c-0.22,0.22-3.55,2.76-3.76,2.79c-1.92,0.23,0.3-3.97-3.76,1.67
			c-2.05,0.3,1.95-5.99,2.38-12.26C14.89-37.94,16.88-38.48,18.34-38.25z"/>
		<path class="st64" d="M6.05-16.52c-0.5,0.7-5.4,3.74-6.74,4.46c1.39-3.72,1.97-5.46,3.96-8.92c0.23-0.4,1.72-2.26,2.77-3.9
			c0.87-1.36,2.33-2.51,3.17-3.9C8.8-26.17,6.93-17.76,6.05-16.52z"/>
		<path class="st13" d="M275.87,116.12c-0.02,0.37,0.02,0.75,0,1.11c-2.21,3.91-2.68,5.81-5.55,8.92c-0.08,0.09-1.04-0.46-1.98,0.56
			C263.65,128.12,271.24,112.15,275.87,116.12z"/>
		<path class="st1" d="M275.08,131.17c-1.45-0.44-4.53-2.92-4.75-5.02c2.87-3.11,3.34-5.01,5.55-8.92
			C275.57,121.9,275.45,126.46,275.08,131.17z"/>
		<path class="st1" d="M206.14-33.8c1.55,2.22,2.31,5.03,3.17,7.8c-5.94,6.13-5.94,6.13-11.89,12.26c0.26-1.77,0.41-3.75,0.4-5.57
			c1.36-2.38,6.25-7.88,4.75-10.03C203.27-30.33,206.02-33.5,206.14-33.8z"/>
		<path class="st6" d="M197.82-19.31c-0.36,0.63-2.08,2.21-2.38,2.79c-1.78-0.84-1.78-0.84-3.57-1.67c0.07-0.1-0.07-0.47,0-0.56
			c2.47-3.38,5.32-4.56,8.32-7.8c0.04-0.04,0.16,0.17,0.79-0.56c0.11-0.12,1.17-1.65,1.58-2.23
			C204.07-27.19,199.18-21.69,197.82-19.31z"/>
		<path class="st65" d="M196.63-38.81c-0.38,0.08-0.8-0.05-1.19,0C195.53-38.86,196.46-41.5,196.63-38.81z"/>
		<path class="st66" d="M172.46,291.67c0.14-4.64,0.26-9.29,0.4-13.93c0.52-17.28,1.06-34.55,1.58-51.83
			c7.09,6.83,15.35,11.19,21.99,18.95c13.39,15.66,19.71,42.24,15.65,66.04c-1.32,7.76-7.64,25-11.69,30.37
			c2.59-15.21,1.5-28.62-7.53-39.01C189.8,298.72,175.83,288.22,172.46,291.67z"/>
		<path class="st1" d="M165.73,308.39c0.09,0.07,0.68,1.38,1.98,1.11c-0.45,15.96-1.28,31.98-1.58,47.93
			c-3.49-2.12-6.97-3.86-10.7-5.02c-12.92-4.02-35.29-4.96-48.14-1.11c-1.05,0.32-8.14,3.36-8.52,3.9
			c-2.07-27.21-2.29-54.61-3.17-81.92C117.42,288.37,146.8,294.3,165.73,308.39z"/>
		<path class="st5" d="M137.2,75.99c-1.11,9.44,10.81,23.42,17.83,22.29c-0.52,0.16-2.68,0.69-2.77,0.84
			c-1.84,2.78-0.25,24.31,1.58,28.98c0.89,2.11,1.87,3.2,3.17,4.74c2,4.22,11.33,8.97,15.06,10.59
			c-1.19,40.54-1.19,40.54-2.38,81.09c-17.28-13.5-58.29-15.97-61.41,20.62c-3.35,39.19,41.94,36.53,59.23,43.75
			c-0.6,9.09,0.98,21.04-1.78,19.51c-18.93-14.09-48.3-20.02-70.13-35.11c-0.19-5.93-0.61-11.88-0.79-17.83
			c-0.46-14.86-0.73-29.73-1.19-44.58c7.76-4.1,23.14-14.41,28.13-23.13c12-20.96-5.33-43.46-6.34-56.84
			c-1.05-13.95,6.25-33.53,9.51-47.09c0.4,5.42,4.15,10.08,6.93,13.38c-0.58-6.64,2.33-15.05,2.18-21.18
			C134.96,75.79,136.33,76.25,137.2,75.99z"/>
		<path class="st1" d="M91.63,47.01c0.99,0.56,6.1,3.89,6.74,4.46c2.71,2.44,5.71,7.22,7.92,10.59c-3.34,6.41,4.77,9.36,7.92,7.24
			c-0.17,0.88-0.94,6.34-0.59,6.69c2.26,0.3,3.88-1.54,5.74-2.79c1.9-1.27,3.77-2.89,5.55-4.46c1.55,2.26,2.63,1.66,4.75,1.67
			c-0.35,0.84-0.82,1.4-1.19,2.23c-0.24,0.54-4.14,3.36-3.57,11.15c-3.26,13.56-10.56,33.15-9.51,47.09
			c1.01,13.39,18.34,35.88,6.34,56.84c-4.99,8.72-20.37,19.02-28.13,23.13c-1.37-44.47-2.31-89.03-3.96-133.47
			c-0.13-3.42-2.52-32.18-1.39-32.6C89.26,45.92,90.48,46.37,91.63,47.01z"/>
		<path class="st6" d="M84.11,2.43c0.25,2.65,2.27,5.31,2.38,7.8c0.01,0.3-1.98-0.26-0.2,5.02c20.2-4.43,20.07,7.78,32.29,24.52
			c-2.94-0.33-5.97,0.24-8.91,0c-0.32,0.54-0.02,0.7-0.59,1.11c-10.08-3.77-12.89,4.61-16.64,6.13c-1.39-1.6-2.88-3.03-4.36-4.46
			c-1.75-17.34-8.88-23.62,1.58-19.23c-1.28-4.69-8.07-6.09-10.1-8.08C73.81,9.62,76.68-0.98,84.11,2.43z"/>
		<path class="st3" d="M99.16-10.95C90.95-8.51,86.07,0.51,84.9,1.31c-0.24,0.17-0.96-0.46-0.79,1.11
			c-7.43-3.41-10.3,7.19-4.56,12.82c2.03,1.99,8.82,3.39,10.1,8.08c-10.47-4.39-3.34,1.88-1.58,19.23
			C71.57,26.6,69.61,25.18,65.09-3.14c2.96-2.3,3.63-1.94,6.34-2.23c2.24-0.24,3.2,1.13,3.37,1.11c1.11-0.13,12.7-9.11,20.8-10.59
			C95.75-14.62,98.97-11.11,99.16-10.95z"/>
		<path class="st4" d="M40.92-7.05c-0.28-0.37-0.54-0.79-0.79-1.11c1.78-2.65,1.78-2.65,3.57-5.29
			C42.31-10.25,42.31-10.25,40.92-7.05z"/>
		<path class="st66" d="M172.86,143.43c-1.43,52.2-3.26,104.4-4.75,156.6c-0.09,3.15-0.31,6.3-0.4,9.47
			c-1.3,0.27-1.89-1.04-1.98-1.11c2.77,1.54,1.18-10.41,1.78-19.51c-17.29-7.22-62.58-4.56-59.23-43.75
			c3.12-36.59,44.13-34.12,61.41-20.62c1.19-40.54,1.19-40.54,2.38-81.09C172.26,143.51,172.6,143.38,172.86,143.43z"/>
		<path class="st36" d="M68.65,53.7c0.59,9.45-2.74,2.33-5.74,1.67c-3.35-0.74,2.26,6.6,2.18,11.7c-1.7-1.42-2.98-1.66-5.15-3.9
			c-0.99-3.62-2.25-8.19-4.36-10.59c0.16-0.1,0.48-1.04,3.17-2.23c0.99-0.28,0.99-0.28,1.98-0.56C64.02,49.2,64.86,50.32,68.65,53.7
			z"/>
		<path class="st6" d="M49.64,50.36c2.34,6.27,5.63,16.1,3.96,22.85c-0.01,0.04-0.16-0.22-0.4,0.56c-0.26,0.86-2.23,5.37-2.77,5.57
			c0.54-3.15-0.6-5.8-0.79-9.47c-0.59-11.04,2.6-12.73-1.58-20.06C49.31,50.5,48.74,51.18,49.64,50.36z"/>
		<path class="st38" d="M48.05,47.01c-1.39-0.56-1.39-0.56-2.77-1.11c-0.41-3.37-0.36-1.47-0.79-2.23
			c-0.43-0.74-1.05-0.72-1.19-1.67c0.1-0.1,0.86-2.2,1.78-2.23C45.58,39.92,47.56,45.92,48.05,47.01z"/>
		<path class="st31" d="M48.05,47.01c0.49,1.09,1.17,2.22,1.58,3.34c-0.9,0.82-0.32,0.14-1.58-0.56c-0.94-0.52-1.91-0.88-2.77-1.67
			c-0.04-0.72,0.08-1.55,0-2.23C46.67,46.46,46.67,46.46,48.05,47.01z"/>
		<path class="st52" d="M40.92,21.38c-0.14-0.32-0.26-0.79-0.4-1.11c0.2,0,0.2,0,0.4,0C47.54,21.58,47.81,25.1,40.92,21.38z"/>
		<path class="st67" d="M54.79,55.93c-0.2,0.28-0.2,0.28-0.4,0.56c-0.01-0.08-0.84-0.02-0.2-1.67
			C54.77,55.41,54.75,55.88,54.79,55.93z"/>
		<path class="st37" d="M53.2,36.42c1.26,0.61,3.18,2.26,4.36,3.34c3.78,3.45,4.1,5.88,4.36,6.13c-1.47,7.41-6-0.55-9.11-1.95
			c4.36-2.5,1.8,0.36-2.77-7.52C48.79,34.65,52.74,36.2,53.2,36.42z"/>
		<path class="st68" d="M53.2,36.42c-0.46-0.22-4.42-1.77-3.17,0c-0.12-0.21-1.81-0.68-1.98-4.46
			C49.74,32.91,52.96,33.65,53.2,36.42z"/>
		<path class="st47" d="M68.26,47.01c-0.05,3.35-0.86,1.32-1.58,0.56C67.47,47.29,67.47,47.29,68.26,47.01z"/>
		<path class="st69" d="M60.73,49.8c-0.99,0.28-0.99,0.28-1.98,0.56C59.65,49.96,59.84,49.96,60.73,49.8z"/>
		<path class="st9" d="M243.38,44.78c1.03,0.34,1.72,0.73,2.38,1.95c1.74,1.74,16.52,29.65,15.25,30.37
			c-9.58-1.85-14.84-8.25-16.44-8.92c-0.8-2.96-3.02-3.81-4.75-5.57C237.38,56.26,234.34,41.77,243.38,44.78z"/>
		<path class="st6" d="M235.85,28.06c0.35,0.08,1.88,0.55,1.98,0.28c-0.17-1.2-0.83-6.65-1.39-6.97c-0.21-0.12-3.4,2.28-4.16,2.23
			c-1.08-2.52-2.7-5.39-3.96-7.8c-0.95-1.81-2.38-3.23-2.77-5.57c1.46-0.04,4.45-3.43,5.94-3.9c8.15-2.58,8.41,26.16,9.91,33.16
			C240.22,42.73,235.98,29.44,235.85,28.06z"/>
		<path class="st6" d="M229.51,43.67c1.4,2.54,1.3,6.68,5.55,13.38c1.79,2.82,2.72,3.51,4.75,5.57c1.73,1.76,3.95,2.61,4.75,5.57
			c-2.39-0.99-1.21-0.1-0.59,5.02c-2.03,0.44-10.87-6.8-11.49-6.69c-0.96,0.17-1.53,4.63-2.97,5.02c-0.02-2.71-0.29-6.05-0.4-8.92
			c-0.26-6.95-0.7-11.24-1.19-17.83c-0.03-0.39-0.85-1.54-0.2-3.34C228.37,42.42,228.88,42.52,229.51,43.67z"/>
		<path class="st70" d="M224.56,127.26c7.04-1.9,7.11,10.96-7.53,20.62C214.15,142.24,220.81,128.28,224.56,127.26z"/>
		<path class="st36" d="M243.38,44.78c-9.05-3.02-6,11.48-3.57,17.83c-2.03-2.07-2.96-2.75-4.75-5.57
			c-1.39-7.24-1.39-7.24-2.77-14.49C236.34,39.45,240.6,38.81,243.38,44.78z"/>
		<path class="st9" d="M275.87,97.17c-1.32,0.06-11.06,6.26-8.12,7.24c1.66-1.22,3.59-1.23,5.35-1.67c-0.2,1.39-0.2,1.39-0.4,2.79
			c-2.32,1.28-12.9,3.12-13.07,1.39C264.73,101.04,269.07,95.1,275.87,97.17z"/>
		<path class="st30" d="M232.29,23.61c0.65,1.51,1.46,2.83,1.98,4.46c0.8,2.51,2.06,7.24,0.99,6.69c-1-2.98-4.09-5.62-5.35-7.8
			c-2.03-3.53-4.54-6.96-1.58-11.15C229.59,18.22,231.2,21.09,232.29,23.61z"/>
		<path class="st5" d="M257.64,31.97c-0.59,1.59-1.51,3.44-1.98,5.02c-1.81-3.85-4.31-6.7-5.55-11.15
			C254.11,19.85,252.89,23.56,257.64,31.97z"/>
		<path class="st8" d="M226.34-4.82c-3.11-3.2-5.12-8.08-8.32-11.15c-0.35-1.7-1.24-3.56-1.58-5.29c-0.29-1.45,0.41-1.32,0.4-1.39
			C221.17-16.69,224.66-13.65,226.34-4.82z"/>
		<path class="st6" d="M230.7,3.54c-1.34,0.88-5.82,2.23-6.34,2.79c-1.18,0.08-2.13-7.47-1.39-7.8
			C224.93,0.16,229.64,2.33,230.7,3.54z"/>
		<path class="st71" d="M232.29,42.55c1.39,7.24,1.39,7.24,2.77,14.49c-4.25-6.7-4.14-10.83-5.55-13.38
			c0.99-0.56,0.99-0.56,1.98-1.11C231.76,42.58,232.02,42.54,232.29,42.55z"/>
		<path class="st18" d="M231.5,6.33c-1.49,0.47-4.48,3.86-5.94,3.9c-0.12,0-0.29,0.04-0.4,0c-1.29-0.51-1.86-2.76-0.79-3.9
			c0.52-0.55,5-1.91,6.34-2.79C232.03,5.07,230.7,3.93,231.5,6.33z"/>
		<path class="st38" d="M239.02,79.34c0.57,0.57,0.26,0.82,0.79,1.11c0.19,0.94-0.46,1.24-0.4,1.67c-0.13-0.01-2.18,0.7-2.38,1.11
			c-1.3-0.46-2.63-0.86-3.96-1.11c-1-2.77,1-2.06,0.79-5.02C234.19,77.39,238.68,80.07,239.02,79.34z"/>
		<path class="st6" d="M239.82,80.45c-0.54-0.3-0.23-0.55-0.79-1.11c-0.55-0.55-2.35-3.8-3.17-5.02c2.5-0.1,7.41,1.97,7.53,2.51
			C243.46,77.18,242.1,81.73,239.82,80.45z"/>
		<path class="st52" d="M235.85,28.06c-0.89-0.2-0.9-0.69-1.58,0c-0.52-1.63-1.33-2.95-1.98-4.46c0.76,0.05,3.95-2.34,4.16-2.23
			c0.56,0.31,1.22,5.77,1.39,6.97C237.73,28.62,236.2,28.14,235.85,28.06z"/>
		<path class="st8" d="M235.85,74.32c0.82,1.22,2.62,4.47,3.17,5.02c-0.35,0.73-4.83-1.94-5.15-2.23
			C229.61,73.28,234.56,74.37,235.85,74.32z"/>
		<path class="st43" d="M237.04,83.24c3.11,1.11,14.22,5.78,10.5,5.57c-0.77-0.04-13.92-5.2-14.46-6.69
			C234.41,82.38,235.74,82.77,237.04,83.24z"/>
		<path class="st72" d="M217.43,125.59c1.47-0.42,1.89,2.11,0.79,2.79C216,129.75,216.11,125.97,217.43,125.59z"/>
		<path class="st65" d="M275.08,102.74c-0.57,1.5-1.26,2.17-2.38,2.79c0.2-1.39,0.2-1.39,0.4-2.79
			C275.39,102.16,274.98,102.76,275.08,102.74z"/>
		<path class="st21" d="M236.45,2.99c3.06,4.31,0.29,4.43-0.2,3.07C236.13,5.71,236.19,3.55,236.45,2.99z"/>
		<path class="st38" d="M239.42,82.12c4.87,0.44,2.54,3.92,0.2,1.11C239.27,82.82,239.48,82.5,239.42,82.12z"/>
		<path class="st1" d="M150.67,6.89c1.31,0.51,3.36,0.21,4.56,1.11c0.44,0.33,5.95,8.6,6.93,10.03c1.32,1.92,3.16,5.38,4.75,7.8
			c2.81,4.27,5.8,7.89,8.72,11.98c0,0.7,0,0.7,0,1.39c-1.14,34.73-1.82,69.48-2.77,104.22c-0.26-0.04-0.6,0.08-0.79,0
			c-3.73-1.62-13.05-6.37-15.06-10.59c2.34,2.76,14.64,10.2,15.06,9.2c0.79-32.88,0.79-32.88,1.58-65.76
			c-7.81,0.91-20.47,21.08-19.81,10.87c10.38-16.23-7.76-38.8-16.64-30.65c-1.53-10-1.97-23.33-2.77-33.72
			c1.54-0.2,3.64,4.37,5.94,6.97c1.85,2.09,1.62,3.25,4.75,3.9c-9.73,11.09,4.77,19.4,15.45,13.65c-3.96-6.83-3.96-6.83-7.92-13.65
			c2.07-0.12,5.61,0.56,5.94-0.84c-2.37-4.52-4.7-11.57-9.11-11.98c-0.2-7.24-0.2-7.24-0.4-14.49
			C149.58,6.55,150.17,6.69,150.67,6.89z"/>
		<path class="st6" d="M193.86-12.06c-0.59,3.57-0.01,4.6,1.19,7.8c-0.51,0.02-1.73-0.61-2.18-1.11c-0.3,0.42-0.3,0.42-0.59,0.84
			c2.95,8.55,0.77,6.24,5.15,4.18c-0.05,0.15,0.05,0.4,0,0.56c-2.32,7.47-3.41,10.79,1.98,16.16c-3.62,4.6-6.63,20-7.13,26.75
			c-1.1-2.67-3.76-4.6-4.75-7.24c-0.36-0.95-0.43-0.66,0-1.67c11.87-1.02,5.33-15.26-2.38-5.57c-8.33-31.29,4.6-33.73,5.55-37.06
			c0.47-1.67-0.78-1.31-0.79-1.39c-1.14-6.72,0.18-4.52,0.79-6.13C192.27-14.01,192.27-14.01,193.86-12.06z"/>
		<path class="st1" d="M208.52,33.08c1.58,8.78,1.58,8.78,3.17,17.56c0.98,0.38-0.37-3.44,1.19-3.07c-0.2,1.7-0.49,3.25-0.4,5.02
			c0.26,4.81,5.3,15.38,8.32,17.28c0,0.28,0,0.28,0,0.56c-1.63,0.07-5.68,1.46-5.94,1.67c-4.19-4.5-5.7-2.64-1.19,1.67
			c-0.03,0.04,0.18,0.29-0.4,1.11c-2.28-2.3-9.72-13.56-11.09-14.49c0.59-0.56,0.59-0.56,1.19-1.11c0.29,0.09,0.75,0.85,2.38,0.56
			c2.18-0.4,1.34-1.16,1.58-1.67c0.53-1.11,1.09,1.24,0-3.34c-0.13-0.56-0.33-2.1-0.4-2.23c1.89,0.05-0.45-9.77-1.58-13.38
			c0.41-0.86,0.79-1.88,1.19-2.79C208.48,32.06,208.44,33.27,208.52,33.08z"/>
		<path class="st1" d="M208.91-0.36c-0.05,4.53-0.27,5.16-1.58,8.92c-0.21,0.59-2.72,3.24-0.79,3.34c0,0.28,0,0.28,0,0.56
			c-2.34-0.32-5.42,1.72-7.13,3.9c-5.39-5.38-4.3-8.69-1.98-16.16c0.79,0.56,0.79,0.56,1.58,1.11c-0.12,0.28-1.16,3.23-0.99,3.34
			c8.41-4.6,4.28-8.45,10.1-14.49C208.47-6.7,208.95-3.55,208.91-0.36z"/>
		<path class="st6" d="M218.42,29.74c-0.59,3.14-1.36,4.28-1.98,6.69c-1.76,2.57-3.16,7.7-3.57,11.15
			c-1.56-0.38-0.21,3.45-1.19,3.07c-1.58-8.78-1.58-8.78-3.17-17.56c0.14-0.34,0.26-0.76,0.4-1.11c1.82-1.2,2.44-4.76,2.97-5.02
			c0.17-0.08,0.69,0.59,2.18,0.56c0.21,0-0.75,0.8,0.79,0.56C217.44,27.66,216.48,24.43,218.42,29.74z"/>
		<path class="st1" d="M211.68,11.35c0.55,1.76,4.56,10,4.75,11.15c0.77,4.64-1.26,0.93-3.57-2.23c-0.83-1.13-1.47-2.22-2.38-3.34
			c-1.15-1.42-0.91-2.81-2.77-3.9C209.21,6.34,211.84,19.91,211.68,11.35z"/>
		<path class="st34" d="M210.5-0.92c0.12,3.11-0.61,5.28-0.4,7.52c0.67,1.46,1.09,3.15,1.58,4.74c0.15,8.57-2.48-5.01-3.96,1.67
			c-0.15-0.09-1.13-0.55-1.19-0.56c0-0.28,0-0.28,0-0.56c0.4-1.67,0.4-1.67,0.79-3.34c1.31-3.76,1.54-4.39,1.58-8.92
			C209.7-0.64,209.7-0.64,210.5-0.92z"/>
		<path class="st17" d="M212.87,20.26c-1.09,1.53,1.21,5.14,1.19,7.24c-1.49,0.03-2.01-0.64-2.18-0.56
			c-0.53,0.26-1.15,3.82-2.97,5.02c2.25-5.97,2.8-8.29,1.58-15.05C211.41,18.04,212.05,19.13,212.87,20.26z"/>
		<path class="st73" d="M205.35,81.01c-0.12-0.11-1.55-2.25-1.98-2.79C211.74,83.16,208.99,84.41,205.35,81.01z"/>
		<path class="st6" d="M203.36,78.22c0.43,0.53,1.86,2.68,1.98,2.79c-0.84-0.43-2.84-1-2.97-1.11
			C198.34,76.42,198.37,75.28,203.36,78.22z"/>
		<path class="st47" d="M270.72,152.9c-0.32-0.28-0.78-0.43-0.79-1.11C270.61,151.87,270.83,151.63,270.72,152.9z"/>
		<path class="st74" d="M271.51,153.46c0.2-0.56,0.2-0.56,0.4-1.11C271.92,152.45,273.17,153.2,271.51,153.46z"/>
		<path class="st16" d="M225.16,93.27c-1.16,0.26-1.41-1.94-1.58-3.34c-0.06-0.49,0.59-0.99,0.79-1.39c-5.2-7.8,1.57-5.67-0.4-17.56
			c1.39-2.23,1.39-2.23,2.77-4.46C226.68,75.77,227.17,84.97,225.16,93.27z"/>
		<path class="st11" d="M220.8,87.14c0.09,1.05-0.14,2.4,0,3.34c-1.02,1.29-2.25-2.26-1.98-4.46
			C221.21,84.47,219.55,85.62,220.8,87.14z"/>
		<path class="st16" d="M205.74,51.47c0.79,1.67,0.79,1.67,1.58,3.34c1.09,4.58,0.53,2.23,0,3.34c-2.63-1.17-5.73-5.2-7.53-6.13
			c-1.85-2.2,0.88-3.97,1.98-6.13C202.71,47.67,205.05,50.21,205.74,51.47z"/>
		<path class="st6" d="M206.93,52.59c-0.04-0.08-1.12-0.99-1.19-1.11c-0.69-1.26-3.03-3.8-3.96-5.57c0.69-1.34,1.14-1.58,1.19-1.67
			c0.99,1.25,0.99,1.25,1.98,2.51c-0.79-1.81-0.79-1.81-1.58-3.62c0.64-1.29,1.37-2.63,1.98-3.9
			C206.48,42.82,208.82,52.63,206.93,52.59z"/>
		<path class="st75" d="M205.74,59.83c-1.63,0.3-2.09-0.47-2.38-0.56c-0.31-0.09-1-0.72-1.98-1.11
			C200.77,56.36,204.88,58.32,205.74,59.83z"/>
		<path class="st76" d="M202.97,44.23c0.03-0.05-0.04-0.23,0.4-1.11c0.79,1.81,0.79,1.81,1.58,3.62
			C203.96,45.48,203.96,45.48,202.97,44.23z"/>
		<path class="st2" d="M31.02,429.32c0.1-1.91,0.91-3.78,1.19-5.57c0.91,1.23,14.48,6.02,9.71,7.8c-0.31,0.11-2.25-1.12-2.38-1.11
			c-1.19,0.04-7.93,0.75-8.32,0.56C30.81,430.8,31.12,429.44,31.02,429.32z"/>
		<path class="st77" d="M-8.41,10.23c2.86-1.83,4.05,4.1,1.19,4.46C-8.95,14.91-9.74,11.09-8.41,10.23z"/>
		<path class="st78" d="M-1.28,15.25c0.25-0.12,3.65,4.03,4.16,4.74C0.04,22.84-2.9,16.02-1.28,15.25z"/>
		<path class="st3" d="M38.54,39.21c-0.32-2.5-1.93-3.14-1.98-3.34c-0.73-2.77-1.15-3.16-1.19-3.34c-0.06-0.3-0.03-3.22-0.4-6.13
			c-0.27-2.16-0.2-5.07-0.4-7.24C37.49,30.94,45.3,44.14,38.54,39.21z"/>
		<path class="st12" d="M34.98,26.39c0.37,2.91,0.34,5.83,0.4,6.13c-0.55-0.28-1.83-1.12-1.98-1.11c-0.06-1.47,0.09-2.99,0-4.46
			C34.19,26.67,34.19,26.67,34.98,26.39z"/>
		<path class="st36" d="M22.3-4.26c0.01,6.23-4.83,11-7.13,16.16c-9.1,1.94,3.54-8.8,3.57-9.75c0.01-0.59-3.27-0.29,3.17-8.64
			C22.3-5.44,22.3-5.49,22.3-4.26z"/>
		<path class="st62" d="M48.05,49.8c4.18,7.34,1,9.02,1.58,20.06c-1.56,0.4-0.4-3.49-0.79-5.29c-0.13-0.6-3.49-7.08-3.57-7.52
			c-0.25-1.56,0.15-6.06,0-8.92C46.14,48.92,47.11,49.28,48.05,49.8z"/>
		<path class="st73" d="M44.49,43.67c0.44,0.76,0.39-1.15,0.79,2.23c0.08,0.67-0.04,1.5,0,2.23c0.15,2.86-0.25,7.36,0,8.92
			c-1.51,1.23-1.8,4.15-3.17,5.57c-0.07,0.07-1.5,1.09-1.58,1.11c-0.12,0.03-0.27-0.01-0.4,0c-0.39,0.03-1.07,0.08-1.19,0
			c5.22-5.95,3.42-6.51,3.96-13.38C43.29,45.42,42.67,42.96,44.49,43.67z"/>
		<path class="st1" d="M29.43,19.15c0,2.1,0.44,2.83,0.4,3.07c-0.31,1.53-9.51,10.1-10.7,13.65c-0.5-0.2-0.69-0.84-1.19-1.11
			c1.12-2.34,1.5-7.02,1.98-8.36c11.26-7.25,7.57-9.19,8.72-12.26C28.91,17.58,29.43,18.89,29.43,19.15z"/>
		<path class="st55" d="M31.02,13.02c0.18,2.22-0.54,6.2-1.58,6.13c0-0.26-0.52-1.56-0.79-5.02C30.27,9.75,30.89,12.87,31.02,13.02z
			"/>
		<path class="st20" d="M19.53,17.48c-0.59,0-0.59,0-1.19,0C19.87,16.69,19.47,17.5,19.53,17.48z"/>
		<path class="st6" d="M38.94,63.73c-0.84-0.56-0.66-2.01-2.38-3.62c3.17-4.88,3.17-4.88,6.34-9.75
			C42.36,57.22,44.16,57.78,38.94,63.73z"/>
		<path class="st3" d="M109.07-6.49c5.35,0.85,10.07-0.5,11.29,0c2.04,0.84,1.17,1.56,1.39,3.9c-0.59,0.26-9.03,0.21-9.91,7.52
			c-0.71,5.91,2.74,17.98,6.34,22.01c0.9,3.6,1.85,5.04,3.57,7.8c0.9,1.44,1.49,3.23,2.58,4.46c5.73-31.57,7.57-17.76,0.2-38.45
			c-0.14-0.38-0.34-0.7-0.4-1.11c1.29-0.94,2.77-1.5,3.96-2.79c1.26,8.04,5.76,46.27,5.15,51.55c-0.05,0.45-0.78,0.77-0.79,0.84
			c2.26-2.58-8.33-8.74-8.91-8.92c-1.21-0.36-3.55-0.4-4.95-0.56c-12.22-16.74-12.09-28.95-32.29-24.52
			c-1.78-5.27,0.21-4.72,0.2-5.02c0.79,0,0.79,0,1.58,0c5.45,0,5.45,0,10.9,0c4.66-8.36,4.66-8.36,9.31-16.72
			C108.53-6.44,108.81-6.53,109.07-6.49z"/>
		<path class="st6" d="M99.16-10.95c2.06,1.7,6.76,3.98,9.11,4.46c-4.66,8.36-4.66,8.36-9.31,16.72c-5.45,0-5.45,0-10.9,0
			c-1.58-4.46-1.58-4.46-3.17-8.92C86.07,0.51,90.95-8.51,99.16-10.95z"/>
		<path class="st6" d="M209.31-25.99c0.13,0.41,0.28,0.7,0.4,1.11c0.68,2.41,1,4.85,1.58,7.24c1.12,4.58,2.12,9.31,3.17,13.93
			c1.68,7.43,3.17,14.83,4.75,22.29c-0.97,1.95-0.49,4.16-2.77,3.9c-0.19-1.15-4.21-9.39-4.75-11.15c-0.49-1.59-0.91-3.27-1.58-4.74
			c-0.21-2.24,0.51-4.41,0.4-7.52c-0.15-4.11,0.56-13.56-1.58-15.6c-0.05-0.05,0.26-1.33-0.59-1.11c-5.05,6.04-12.8,16.94-10.9,3.9
			C203.36-19.86,203.36-19.86,209.31-25.99z"/>
		<path class="st6" d="M159.39-25.44c2.17,1.46,4.51,2.19,6.74,3.34c-0.4,0.56-0.4,0.56-0.79,1.11c-2.1-0.14-2.39-0.39-1.58,2.79
			c0.52,2.04,5.07,6.53,5.94,9.47c-0.58-0.16-1.3-0.15-2.38-0.56c1.41-2.6-5.12-2.84-7.92-8.64c-0.93-1.93-1.51-4.62-1.58-6.97
			C158.24-25.07,158.5-25.69,159.39-25.44z"/>
		<path class="st78" d="M171.27-18.75c-0.31,1.48-3.01-2.04-5.94-2.23c0.4-0.56,0.4-0.56,0.79-1.11
			C167.89-21.18,169.72-20.3,171.27-18.75z"/>
		<path class="st38" d="M174.84-12.06c0.27,0.54,1.85,3.23,1.98,3.34c0.83,1.25-0.65,1.73-1.58,1.67c-0.28-0.02-4.4-1.35-5.55-1.67
			c-0.88-2.94-5.43-7.43-5.94-9.47C169.29-15.13,169.29-15.13,174.84-12.06z"/>
		<path class="st8" d="M146.71-14.29c-1.76-0.93-6.57-9.04-8.72-11.15c-0.48-2.35-4.12-8.03-0.2-5.02
			C139.43-29.2,145.75-17.73,146.71-14.29z"/>
		<path class="st6" d="M134.03-2.59c2.85,1.32,8.62,6.39,10.3,7.24c-5.08,3.97-3.14,14.9-11.09,8.92c-0.29-1.98-1.87-16.24-1.58-17
			C132.47-3.68,133.29-2.93,134.03-2.59z"/>
		<path class="st3" d="M144.33,4.66c1.31,0.66,1.5,1.07,1.58,1.11c-3.13,1.81-4.08,16.95-1.58,16.16c-1.81,0.64-3.61,2.5-5.55,2.79
			c-2.62-3.8-3.81,0.65-5.55-11.15C141.19,19.56,139.25,8.63,144.33,4.66z"/>
		<path class="st6" d="M149.08,6.33c0.2,7.24,0.2,7.24,0.4,14.49c-1.61-0.15-3.58,0.56-5.15,1.11c-2.49,0.79-1.54-14.35,1.58-16.16
			C146.14,5.88,147.77,5.75,149.08,6.33z"/>
		<path class="st6" d="M127.69-5.37c-0.19,1.32,0.31,1.69,0.4,2.23c-1.19,1.29-2.67,1.85-3.96,2.79c-0.1,0.08-0.29-0.08-0.4,0
			c-0.59-1.39-0.59-1.39-1.19-2.79C123.94-5.37,119.45-5.82,127.69-5.37z"/>
		<path class="st79" d="M123.73-0.36c-0.47,0.37-1.51,1.04-1.58,1.11c-0.03-1.16-0.29-2.19-0.4-3.34c0.18-0.08,0.76-0.51,0.79-0.56
			C123.13-1.75,123.13-1.75,123.73-0.36z"/>
		<path class="st13" d="M200.19-26.55c-3,3.25-5.85,4.43-8.32,7.8c-2.23-1.05-4.37,0.74-5.55,3.34c-0.79-1.95-0.79-1.95-1.58-3.9
			c0.35-0.89,1.49-6.95,2.77-6.13C192.12-18.21,193.2-27.61,200.19-26.55z"/>
		<path class="st1" d="M195.44-16.52c-0.32,0.62-1.46,3.7-1.58,4.46c-1.58-1.95-1.58-1.95-3.17-3.9c0.06-0.15-0.06-0.42,0-0.56
			c0.04-0.1,0.92-1.27,1.19-1.67C193.66-17.36,193.66-17.36,195.44-16.52z"/>
		<path class="st80" d="M191.87-18.75c-0.07,0.09,0.07,0.46,0,0.56c-0.27,0.4-1.14,1.57-1.19,1.67c-2.07-2.3-6.45,5.74-4.36,1.11
			C187.51-18.01,189.64-19.8,191.87-18.75z"/>
		<path class="st17" d="M177.61-8.72c0,2.51,0,2.51,0,5.02c-0.78,0.07-1.59-0.01-2.38,0c0.82-1.42-1.57-2.29,0-3.34
			c0.94,0.06,2.42-0.42,1.58-1.67C176.91-8.65,177.29-8.76,177.61-8.72z"/>
		<path class="st1" d="M174.05,15.8c-0.55-3.73-2.1-1.03-5.15-1.67c3.75-0.14-1.66-10.06-3.57-14.77
			c1.78-3.66,11.31,14.87,10.9,15.88C174.35,16.69,174.2,15.76,174.05,15.8z"/>
		<path class="st6" d="M167.31-9.27c1.07,0.4,1.79,0.4,2.38,0.56c1.14,0.32,5.26,1.65,5.55,1.67c-1.57,1.06,0.82,1.92,0,3.34
			c-7.94,0.1-8.89,2.12-13.07-7.8C162.71-11.1,166.16-9.71,167.31-9.27z"/>
		<path class="st15" d="M157.8-24.88c0.08,2.34,0.65,5.03,1.58,6.97c2.8,5.8,9.34,6.04,7.92,8.64c-1.15-0.43-4.6-1.83-5.15-2.23
			C159.19-13.66,153.8-23.13,157.8-24.88z"/>
		<path class="st1" d="M5.26-25.44c-1.56-0.38-1.5,1.96-2.38,2.79c-4.91,4.58-3.7-7.07-0.59-8.92C5.73-33.62,7.3-28.62,5.26-25.44z"
			/>
		<path class="st16" d="M5.26-25.44c0.04,0.01-0.14,0.77,0.79,0.56c-1.05,1.64-2.54,3.5-2.77,3.9c-0.2-0.84-0.2-0.84-0.4-1.67
			C3.77-23.47,3.7-25.82,5.26-25.44z"/>
		<path class="st35" d="M197.42-13.73c-1.9,13.04,5.85,2.14,10.9-3.9c0.85-0.22,0.54,1.06,0.59,1.11c-0.3,0.99-0.72,1.94-1.19,2.79
			c-2.08,3.75-7.48,12.1-8.72,15.05c-0.79-0.56-0.79-0.56-1.58-1.11c0.05-0.16-0.05-0.4,0-0.56c0.81-2.51,2.67-4.18,2.38-4.74
			c-1.68,0.04-3.03,0.76-4.75,0.84c-1.2-3.21-1.77-4.23-1.19-7.8c0.13-0.76,1.26-3.84,1.58-4.46c0.3-0.57,2.02-2.16,2.38-2.79
			C197.83-17.49,197.68-15.51,197.42-13.73z"/>
		<path class="st3" d="M157.01,132.84c-1.3-1.54-2.28-2.63-3.17-4.74c-1.83-4.67-3.42-26.2-1.58-28.98c0.1-0.15,2.25-0.68,2.77-0.84
			c0.52-0.16,1.66,0.33,1.98-0.28c0.25-0.47-0.99-2.1-3.57-10.31c-0.04-0.68,0.38-0.53,0.4-0.56c-0.66,10.21,12-9.95,19.81-10.87
			c-0.79,32.88-0.79,32.88-1.58,65.76C171.65,143.04,159.35,135.6,157.01,132.84z"/>
		<path class="st10" d="M146.71,74.32c3.84,2.16,5.19,8.44,6.74,13.38c2.57,8.21,3.81,9.84,3.57,10.31
			c-0.32,0.61-1.46,0.12-1.98,0.28c-7.02,1.13-18.94-12.85-17.83-22.29c0.5-0.15,0.48-0.9,1.58-1.11
			C141.52,74.34,143.97,74.25,146.71,74.32z"/>
		<path class="st9" d="M134.03,75.99c0.15,6.13-2.76,14.54-2.18,21.18c-2.78-3.3-6.53-7.95-6.93-13.38
			c-0.58-7.78,3.32-10.6,3.57-11.15c-3.6,10.13,2,1.44,3.17-1.67C133.85,72.54,133.95,72.81,134.03,75.99z"/>
		<path class="st38" d="M137.59,70.98c0.38,1.29,1.09,2.46,1.19,3.9c-1.11,0.22-1.08,0.97-1.58,1.11c-0.87,0.26-2.24-0.21-3.17,0
			c-0.08-3.18-0.18-3.45-2.38-5.02c0.06-0.17,0.38-2.06,0.79-3.34C135.02,69.3,135.02,69.3,137.59,70.98z"/>
		<path class="st81" d="M130.86,53.7c0.06,0.06,0.76,1.58,0.79,1.67c1.47,4.79-0.5,8.61-3.17,11.15c-0.44,0.42-2.07,0.91-3.57,2.23
			c-1.77,1.57-3.65,3.18-5.55,4.46c-0.98-7.27,0.93-14.69,4.36-20.06C125.66,52.41,129.24,52.07,130.86,53.7z"/>
		<path class="st36" d="M119.37,73.21c-1.86,1.25-3.48,3.09-5.74,2.79c-0.35-0.35,0.43-5.81,0.59-6.69
			c0.05-0.27,1.32-4.26,1.58-5.02c1.47-4.17,4.6-9.89,7.92-11.15C120.3,58.52,118.38,65.94,119.37,73.21z"/>
		<path class="st5" d="M128.48,66.52c1.19,0.28,1.19,0.28,2.38,0.56c-0.43,1.11-0.71,2.18-1.19,3.34c-2.13-0.01-3.21,0.59-4.75-1.67
			C126.41,67.43,128.04,66.94,128.48,66.52z"/>
		<path class="st1" d="M118.58,39.77c1.4,0.16,3.74,0.19,4.95,0.56c0.59,0.17,11.17,6.34,8.91,8.92c-0.35,1.58-0.73,3.25-1.58,4.46
			c-1.62-1.63-5.2-1.29-7.13-0.56c-3.32,1.26-6.46,6.97-7.92,11.15c-2.16-1.82-6.24-4.85-8.72-3.34c-1.54-3.07-4.5-7.71-6.74-9.47
			c1.81-2.16,7.61-9.79,8.72-10.59c0.57-0.41,0.27-0.58,0.59-1.11C112.61,40.01,115.64,39.44,118.58,39.77z"/>
		<path class="st5" d="M84.9,1.31c1.58,4.46,1.58,4.46,3.17,8.92c-0.79,0-0.79,0-1.58,0c-0.11-2.49-2.12-5.15-2.38-7.8
			C83.94,0.86,84.66,1.48,84.9,1.31z"/>
		<path class="st6" d="M225.55,48.13c0.8,7.39,2.57,12.5-0.79,18.95c-0.3,0.2-2.19,4.57-3.57-1.11c-0.32-7.4,0.39-8.38,1.58-15.05
			c0.68-3.78,2.12-6.82,1.58-11.15C224.95,42.91,225.21,44.95,225.55,48.13z"/>
		<path class="st82" d="M223.57,36.42c0.16,0.76,0.25,1.49,0.4,2.23c0.1,0.49,0.3,0.62,0.4,1.11c0.54,4.33-0.91,7.37-1.58,11.15
			c-1.39,2.84-0.72-1.19-3.57-1.67c0.7-2.4,1.27-7.1,1.19-9.75c-1.23-2.84-0.82-6.17-1.19-9.2
			C221.39,33.36,221.39,33.36,223.57,36.42z"/>
		<path class="st5" d="M153.84,87.14c-0.02,0.03-0.44-0.12-0.4,0.56c-1.55-4.93-2.9-11.22-6.74-13.38
			c-0.41-0.23-0.79-0.36-1.19-0.56c-1.58-8.73-2.85-9.5-7.53-14.49c-0.03-0.15-0.67-1.98-0.79-2.79
			C146.08,48.33,164.22,70.91,153.84,87.14z"/>
		<path class="st6" d="M152.65,33.64c3.96,6.83,3.96,6.83,7.92,13.65c-10.68,5.75-25.18-2.56-15.45-13.65
			C146.45,33.91,150.8,33.74,152.65,33.64z"/>
		<path class="st9" d="M149.48,20.82c4.41,0.42,6.74,7.46,9.11,11.98c-0.34,1.4-3.87,0.72-5.94,0.84c-1.85,0.1-6.2,0.27-7.53,0
			c-3.13-0.65-2.9-1.81-4.75-3.9c0-1.95-0.65-3.66-1.58-5.02c1.94-0.29,3.74-2.15,5.55-2.79C145.9,21.38,147.87,20.67,149.48,20.82z
			"/>
		<path class="st1" d="M195.04-4.26c1.73-0.08,3.08-0.8,4.75-0.84c0.29,0.56-1.57,2.23-2.38,4.74c-4.38,2.06-2.2,4.37-5.15-4.18
			c0.3-0.42,0.3-0.42,0.59-0.84C193.32-4.87,194.53-4.24,195.04-4.26z"/>
		<path class="st9" d="M222.78,50.91c-1.19,6.66-1.91,7.64-1.58,15.05c0.01,0.19-0.58-0.12,0,3.9c-0.12-0.06-0.29,0.07-0.4,0
			c-3.02-1.9-8.06-12.47-8.32-17.28c1.58,0,1.58,0,3.17,0c1.31,3.79,2.94-1.21,3.57-3.34C222.06,49.72,221.39,53.76,222.78,50.91z"
			/>
		<path class="st82" d="M215.65,52.59c-1.58,0-1.58,0-3.17,0c-0.1-1.76,0.2-3.32,0.4-5.02c0.4-3.44,1.8-8.57,3.57-11.15
			C215.23,41.09,214.01,47.85,215.65,52.59z"/>
		<path class="st83" d="M206.93,52.59c0.06,0.13,0.26,1.67,0.4,2.23c-0.79-1.67-0.79-1.67-1.58-3.34
			C205.81,51.59,206.89,52.5,206.93,52.59z"/>
		<path class="st43" d="M208.12-9.83c-5.83,6.04-1.69,9.89-10.1,14.49c-0.17-0.12,0.87-3.07,0.99-3.34
			c1.24-2.95,6.64-11.3,8.72-15.05C207.67-12.39,207.97-11.14,208.12-9.83z"/>
		<path class="st84" d="M210.5-0.92c-0.79,0.28-0.79,0.28-1.58,0.56c0.03-3.19-0.44-6.34-0.79-9.47c-0.15-1.31-0.45-2.56-0.4-3.9
			c0.47-0.85,0.89-1.79,1.19-2.79C211.05-14.48,210.34-5.03,210.5-0.92z"/>
		<path class="st39" d="M206.53,11.9c-1.92-0.1,0.59-2.76,0.79-3.34C206.93,10.23,206.93,10.23,206.53,11.9z"/>
		<path class="st60" d="M219.21,30.29c0.36,3.02-0.04,6.35,1.19,9.2c0.08,2.65-0.49,7.36-1.19,9.75c-0.62,2.14-2.25,7.13-3.57,3.34
			c-1.64-4.73-0.42-11.5,0.79-16.16c0.63-2.41,1.39-3.55,1.98-6.69c0.01-0.04,0.44,0.13,0.4-0.56
			C218.82,29.24,219.02,28.73,219.21,30.29z"/>
		<path class="st31" d="M219.61,20.26c0.12,0.57-0.08,1.54,0,2.23c-2.38,2.79-2.38,2.79-4.75,5.57c-1.54,0.24-0.59-0.56-0.79-0.56
			c0.02-2.11-2.27-5.72-1.19-7.24c2.31,3.16,4.34,6.87,3.57,2.23c2.28,0.26,1.81-1.95,2.77-3.9
			C219.33,19.15,219.48,19.67,219.61,20.26z"/>
		<path class="st85" d="M220.01,23.61c-0.81,4.36-1.79,2.01-1.98,2.51c-0.34,0.91,0.59,1.48,0.79,3.07c0.04,0.69-0.39,0.52-0.4,0.56
			c-1.94-5.31-0.98-2.08-3.57-1.67c2.38-2.79,2.38-2.79,4.75-5.57C219.81,23.05,219.81,23.05,220.01,23.61z"/>
		<path class="st86" d="M124.52,0.76c7.37,20.69,5.53,6.88-0.2,38.45c-1.08-1.23-1.68-3.02-2.58-4.46
			c-0.94-10.71-0.32-16.89,0.79-27.03C122.75,5.83,120.89,1.12,124.52,0.76z"/>
		<path class="st6" d="M121.75-2.59c0.11,1.16,0.37,2.18,0.4,3.34c-5.83,5.86-6.12,17.58-3.96,26.19
			c-3.6-4.04-7.05-16.11-6.34-22.01C112.72-2.37,121.16-2.32,121.75-2.59z"/>
		<path class="st26" d="M124.52,0.76c-3.63,0.36-1.77,5.08-1.98,6.97c-1.11,10.14-1.74,16.32-0.79,27.03
			c-1.72-2.77-2.66-4.2-3.57-7.8c-2.15-8.61-1.87-20.33,3.96-26.19c0.07-0.07,1.11-0.75,1.58-1.11c0.1-0.08,0.29,0.08,0.4,0
			C124.18,0.06,124.38,0.37,124.52,0.76z"/>
		<path class="st31" d="M221.59,28.62c0.55,2.65,1.41,5.11,1.98,7.8c-2.18-3.07-2.18-3.07-4.36-6.13c-0.19-1.56-0.39-1.05-0.4-1.11
			c-0.2-1.59-1.13-2.16-0.79-3.07c0.19-0.5,1.17,1.85,1.98-2.51C220.96,28.13,221.54,28.36,221.59,28.62z"/>
		<path class="st39" d="M145.52,73.76c-4.86-2.4-4.24,3.83-7.53-14.49C142.67,64.27,143.93,65.03,145.52,73.76z"/>
		<path class="st5" d="M137.59,70.98c-2.58-1.67-2.58-1.67-5.15-3.34c0.33-1.01,1.78-8.92,2.18-8.92
			C135.81,62.7,136.42,66.98,137.59,70.98z"/>
		<path class="st20" d="M130.86,67.08c-1.19-0.28-1.19-0.28-2.38-0.56c2.67-2.54,4.64-6.36,3.17-11.15
			C133.93,47.51,135.78,54.25,130.86,67.08z"/>
	</g>
	<g>
		<g>
			<g>
				<path class="st87" d="M139.47,48.78c-1.04,32.12-1.69,64.3-2.65,96.43c-0.79,26.57-1.57,53.13-2.38,79.69
					c-0.52,17.28-1.07,34.55-1.58,51.83c-0.27-0.01-0.72-0.14-0.79,0.28c-0.64,3.81,0.07,28.21-0.4,29.54
					c-2.44,6.9-2.86-8.51-3.57-7.52c1.5-52.2,3.32-104.4,4.75-156.6c0.94-34.37,2.03-58.51,3.16-92.66"/>
				<path class="st88" d="M132.86,276.74c-0.14,4.64-0.26,9.29-0.4,13.93c-0.22,7.43-0.18,14.88-0.4,22.29
					c-0.44,15.34-0.45,30.97-1.19,46.26c-0.38,7.83,0.33,15.51-3.76,13.93c-1.95-0.75-1.14-8.68-0.99-16.72
					c0.3-15.95,1.13-31.97,1.58-47.93c0.09-3.18,0.31-6.32,0.4-9.47c0.7-0.99,1.13,14.43,3.57,7.52c0.47-1.32-0.25-25.73,0.4-29.54
					C132.13,276.6,132.59,276.73,132.86,276.74z"/>
			</g>
			<g>
				<g>
					<path class="st89" d="M98.77,355.2c0.38-0.54,7.46-3.59,8.52-3.9c12.85-3.85,35.21-2.91,48.14,1.11
						c-12.88,23.13-12.88,23.13-25.75,46.26c-7.78-0.44-21.15-2.71-28.13-7.24c-0.25-0.17-0.04-1.23-4.56-3.9
						c-4.95-6.18-8.21-12.09-8.52-21.73c1.11-2.8,3.55-6.13,5.55-7.8"/>
					<path class="st89" d="M98.37,355.76"/>
					<path class="st90" d="M170.88,360.22c3.5,4.13,4.74,5.79,6.34,11.7c-0.64,4.79-2.25,8.06-4.36,11.7
						c-13.59,11.29-27.47,15.93-43.19,15.05c12.88-23.13,12.88-23.13,25.75-46.26c3.72,1.16,7.21,2.89,10.7,5.02"/>
					<path class="st91" d="M101.54,391.43c-0.79,0.28-0.79,0.28-1.58,0.56c-5.33-3.7-7.71-3.73-11.89-11.15
						c-0.53-2.07-0.72-4.29-1.58-6.13c0.49-2.96,0.91-6.24,1.98-8.92c0.31,9.65,3.57,15.56,8.52,21.73
						C101.5,390.19,101.29,391.26,101.54,391.43z"/>
					<path class="st92" d="M172.86,383.62c-0.66,1.15-2.11,3.65-2.77,4.46c-7.53,9.13-22.97,15-32.69,15.6
						c-13.96,0.87-25.12-3.16-37.44-11.7c0.79-0.28,0.79-0.28,1.58-0.56c6.98,4.53,20.35,6.81,28.13,7.24
						C145.39,399.55,159.27,394.92,172.86,383.62z"/>
				</g>
				<g>
					<path class="st93" d="M88.07,380.84c8.44,32.85,65.24,39.49,84.79,7.24c2.79-4.6,4.31-6.65,5.15-13.38
						c0.7,4.21,1.1,8.5,0.79,12.82c-4.36,6.91-8.1,15.8-14.26,20.06c-9.79,6.77-28.28,6.12-38.83,11.15
						c-11.54-1.25-31.44-7.99-38.04-22.85c-3.32-7.48-2.48-13.33-1.19-21.18C87.35,376.55,87.54,378.77,88.07,380.84z"/>
					<path class="st94" d="M125.71,418.73c13.8,1.49,27.26-0.14,39.62-9.47c4.81-3.63,7.84-7.11,11.49-12.82
						c-10.55,36.24-77.83,37.58-89.15-0.56C94.26,410.74,114.16,417.48,125.71,418.73z"/>
					<path class="st95" d="M178.8,387.52c-0.19,2.71-1.24,6.37-1.98,8.92c-3.65,5.71-6.68,9.18-11.49,12.82
						c-0.4-0.84-0.4-0.84-0.79-1.67C170.7,403.33,174.44,394.43,178.8,387.52z"/>
					<path class="st96" d="M178.01,374.71c-0.84,6.73-2.36,8.77-5.15,13.38c-1.39,0-1.39,0-2.77,0c0.67-0.81,2.11-3.31,2.77-4.46
						c2.11-3.64,3.72-6.91,4.36-11.7C177.44,372.77,177.86,373.82,178.01,374.71z"/>
					<path class="st94" d="M99.96,391.98c12.32,8.55,23.48,12.58,37.44,11.7c9.71-0.61,25.16-6.47,32.69-15.6c1.39,0,1.39,0,2.77,0
						c-19.55,32.25-76.35,25.6-84.79-7.24C92.25,388.26,94.62,388.28,99.96,391.98z"/>
					<path class="st97" d="M164.54,407.59c0.4,0.84,0.4,0.84,0.79,1.67c-12.36,9.33-25.82,10.97-39.62,9.47
						C136.26,413.71,154.74,414.36,164.54,407.59z"/>
				</g>
			</g>
		</g>
	</g>
</g>
<path class="st88" d="M126.3,347.86c0,0,0,19.69,0,21.79c0,4.03,4.75,6.03,4.75-3.09c0-7.88,0.22-18.65,0.22-18.65"/>
</svg>
